<?xml version="1.0" encoding="UTF-8"?>
<!DOCTYPE svg PUBLIC "-//W3C//DTD SVG 1.1//EN" "http://www.w3.org/Graphics/SVG/1.1/DTD/svg11.dtd">
<!-- Creator: CorelDRAW X8 -->
<svg xmlns="http://www.w3.org/2000/svg" xml:space="preserve" width="0.654165in" height="0.654165in" version="1.1" style="shape-rendering:geometricPrecision; text-rendering:geometricPrecision; image-rendering:optimizeQuality; fill-rule:evenodd; clip-rule:evenodd"
viewBox="0 0 654 654"
 xmlns:xlink="http://www.w3.org/1999/xlink">
 <defs>
  <style type="text/css">
   <![CDATA[
    .fil0 {fill:#3B3B3B;fill-opacity:0.258824}
    .fil1 {fill:#FEFEFE;fill-opacity:0.701961}
   ]]>
  </style>
 </defs>
 <g id="Layer_x0020_1">
  <metadata id="CorelCorpID_0Corel-Layer"/>
  <path class="fil0" d="M327 0c181,0 327,146 327,327 0,181 -146,327 -327,327 -181,0 -327,-146 -327,-327 0,-181 146,-327 327,-327z"/>
  <g id="_2155280389040">
   <g id="Play">
    <path class="fil1" d="M413 311l-151 -95c-5,-3 -10,-2 -14,-2 -17,0 -17,13 -17,16l0 194c0,3 0,16 17,16 4,0 9,1 14,-2l151 -95c12,-7 10,-16 10,-16 0,0 2,-9 -10,-16z"/>
   </g>
   <g>
   </g>
   <g>
   </g>
   <g>
   </g>
   <g>
   </g>
   <g>
   </g>
   <g>
   </g>
   <g>
   </g>
   <g>
   </g>
   <g>
   </g>
   <g>
   </g>
   <g>
   </g>
   <g>
   </g>
   <g>
   </g>
   <g>
   </g>
   <g>
   </g>
  </g>
 </g>
</svg>
