<?xml version="1.0" encoding="utf-8"?>
<!-- Generator: Adobe Illustrator 23.1.0, SVG Export Plug-In . SVG Version: 6.00 Build 0)  -->
<svg version="1.1" id="Layer_1" xmlns="http://www.w3.org/2000/svg" xmlns:xlink="http://www.w3.org/1999/xlink" x="0px" y="0px"
	 width="500px" height="280px" viewBox="0 0 500 280" style="enable-background:new 0 0 500 280;" xml:space="preserve">
<style type="text/css">
	.st0{fill:none;stroke:#C1C1C1;stroke-linejoin:round;stroke-miterlimit:10;}
	.st1{fill:none;stroke:#cecece;stroke-linejoin:round;stroke-miterlimit:10;}
	.st2{fill:none;stroke:#393939;stroke-linejoin:round;stroke-miterlimit:10;}
</style>
<title>Artboard 78</title>
<g>
	<line class="st0" x1="97.2" y1="275" x2="147.8" y2="224.4"/>
	<line class="st0" x1="132.5" y1="275" x2="157.8" y2="249.7"/>
	<line class="st0" x1="352.2" y1="59.3" x2="402.8" y2="8.7"/>
	<line class="st0" x1="343.9" y1="30.3" x2="369.2" y2="5"/>
	<circle class="st0" cx="272.3" cy="17.7" r="5.6"/>
	<circle class="st0" cx="214.4" cy="264.2" r="7.5"/>
	<g>
		<line class="st0" x1="389.5" y1="141.6" x2="383" y2="148.1"/>
		<line class="st0" x1="375.9" y1="155.2" x2="369.4" y2="161.6"/>
		<line class="st0" x1="369.4" y1="141.6" x2="375.9" y2="148.1"/>
		<line class="st0" x1="383" y1="155.2" x2="389.5" y2="161.6"/>
	</g>
	<g>
		<line class="st0" x1="129.8" y1="169.6" x2="123.3" y2="176.1"/>
		<line class="st0" x1="116.2" y1="183.2" x2="109.8" y2="189.7"/>
		<line class="st0" x1="109.8" y1="169.6" x2="116.2" y2="176.1"/>
		<line class="st0" x1="123.3" y1="183.2" x2="129.8" y2="189.7"/>
	</g>
</g>
<path class="st1" d="M320.5,139.4c-4.4,3.5-9.8,7.8-14.2,11.3c-1.8,1.5-3.4,1.5-5.2,0.1c-5.2-4.1-10.3-8.2-15.5-12.3
	c-0.1,0-0.1,0-0.2,0c-5,4.1-10.2,8.2-15.2,12.3c-1.7,1.4-3.6,1.4-5.3,0.1c-1.8-1.4-3.7-2.9-5.5-4.3c-3.4-2.7-6.7-5.4-10-8
	c-5.3,4.2-10.5,8.3-15.6,12.4c-1.7,1.3-3.3,1.3-5,0c-4.9-3.9-9.8-7.8-14.6-11.8c-0.8-0.7-1.3-0.5-2,0c-4.8,3.9-9.7,7.9-14.5,11.8
	c-1.3,1.1-3.4,1.2-4.8,0.1c-3-2.4-9.4-8.3-12.4-10.7"/>
<g>
	<g>
		<line class="st1" x1="180.5" y1="258" x2="180.5" y2="140"/>
		<line class="st1" x1="201.5" y1="258" x2="201.5" y2="148"/>
		<g>
			<line class="st1" x1="180" y1="251.5" x2="202" y2="251.5"/>
			<line class="st1" x1="180" y1="231.5" x2="202" y2="231.5"/>
			<line class="st1" x1="180" y1="209.5" x2="202" y2="209.5"/>
			<line class="st1" x1="180" y1="189.5" x2="202" y2="189.5"/>
			<line class="st1" x1="180" y1="167.5" x2="202" y2="167.5"/>
		</g>
	</g>
	<g>
		<line class="st1" x1="298.5" y1="258" x2="298.5" y2="148"/>
		<line class="st1" x1="320.5" y1="258" x2="320.5" y2="139"/>
		<g>
			<line class="st1" x1="299" y1="251.5" x2="320" y2="251.5"/>
			<line class="st1" x1="299" y1="231.5" x2="320" y2="231.5"/>
			<line class="st1" x1="299" y1="209.5" x2="320" y2="209.5"/>
			<line class="st1" x1="299" y1="189.5" x2="320" y2="189.5"/>
			<line class="st1" x1="299" y1="167.5" x2="320" y2="167.5"/>
		</g>
	</g>
	<line class="st1" x1="202" y1="244.5" x2="243" y2="244.5"/>
	<line class="st1" x1="252" y1="244.5" x2="266" y2="244.5"/>
	<line class="st1" x1="275" y1="244.5" x2="299" y2="244.5"/>
</g>
<path class="st2" d="M250,22.5"/>
<path class="st1" d="M262.4,199.9l-24.2-13.5c-2-1-4.7,0.3-4.7,2.4v27.1c0,2.1,2.6,3.4,4.7,2.4l24.2-13.6
	C264.4,203.5,264.4,201,262.4,199.9z"/>
<g>
	<g>
		<g>
			<line class="st2" x1="180.5" y1="124" x2="180.5" y2="28"/>
			<line class="st2" x1="201.5" y1="135" x2="201.5" y2="28"/>
			<g>
				<line class="st2" x1="180" y1="117.5" x2="202" y2="117.5"/>
				<line class="st2" x1="180" y1="97.5" x2="202" y2="97.5"/>
				<line class="st2" x1="180" y1="75.5" x2="202" y2="75.5"/>
				<line class="st2" x1="180" y1="55.5" x2="202" y2="55.5"/>
				<line class="st2" x1="180" y1="33.5" x2="202" y2="33.5"/>
			</g>
		</g>
		<g>
			<line class="st2" x1="298.5" y1="135" x2="298.5" y2="28"/>
			<line class="st2" x1="320.5" y1="124" x2="320.5" y2="27"/>
			<g>
				<line class="st2" x1="299" y1="117.5" x2="320" y2="117.5"/>
				<line class="st2" x1="299" y1="97.5" x2="320" y2="97.5"/>
				<line class="st2" x1="299" y1="75.5" x2="320" y2="75.5"/>
				<line class="st2" x1="299" y1="55.5" x2="320" y2="55.5"/>
				<line class="st2" x1="299" y1="33.5" x2="320" y2="33.5"/>
			</g>
		</g>
		<line class="st2" x1="202" y1="110.5" x2="243" y2="110.5"/>
		<line class="st2" x1="252" y1="110.5" x2="266" y2="110.5"/>
		<line class="st2" x1="275" y1="110.5" x2="299" y2="110.5"/>
	</g>
	<path class="st2" d="M262.4,62.9l-24.2-13.5c-2-1-4.7,0.3-4.7,2.4v27.1c0,2.1,2.6,3.4,4.7,2.4l24.2-13.6
		C264.4,66.5,264.4,64,262.4,62.9z"/>
	<path class="st2" d="M180.5,114v12.1c1.6,1.2,3.1,2.4,4.6,3.7c3,2.4,6,4.9,9,7.3c1.3,1.1,3.4,1,4.8-0.1c4.8-3.9,9.7-7.9,14.5-11.8
		c0.7-0.5,1.2-0.7,2,0c4.8,4,9.7,7.9,14.6,11.8c1.6,1.3,3.3,1.3,5,0c5.2-4.1,10.3-8.2,15.6-12.4c3.3,2.6,6.7,5.3,10,8
		c1.8,1.5,3.6,2.9,5.5,4.3c1.7,1.4,3.5,1.3,5.3-0.1c5-4.1,10.1-8.2,15.2-12.3c0.1,0,0.1,0,0.1,0c5.2,4.1,10.3,8.2,15.5,12.3
		c1.9,1.5,3.4,1.4,5.2-0.1c4.4-3.5,8.8-7.1,13.2-10.6V116"/>
</g>
</svg>
