<?xml version="1.0" encoding="UTF-8"?>
<!DOCTYPE svg PUBLIC "-//W3C//DTD SVG 1.1//EN" "http://www.w3.org/Graphics/SVG/1.1/DTD/svg11.dtd">
<!-- Creator: CorelDRAW 2019 (64-Bit) -->
<svg xmlns="http://www.w3.org/2000/svg" xml:space="preserve" width="0.469394in" height="0.383106in" version="1.1" style="shape-rendering:geometricPrecision; text-rendering:geometricPrecision; image-rendering:optimizeQuality; 
-rule:evenodd; clip-rule:evenodd"
viewBox="0 0 468.98 382.77"
 xmlns:xlink="http://www.w3.org/1999/xlink">
 <defs>
  <style type="text/css">
   <![CDATA[
    .fil0 {fill:#666666}
   ]]>
  </style>
 </defs>
 <g id="Layer_x0020_1">
  <metadata id="CorelCorpID_0Corel-Layer"/>
  <g id="_2242747077600">
   <path class="fil0" d="M317.45 247.5c-2.42,13.61 -7.09,26.58 -13.64,38.59 -8.52,15.6 -20.24,29.6 -34.38,41.29 -14.29,11.81 -31.09,21.3 -49.59,27.77 -17.81,6.22 -37.2,9.64 -57.44,9.64 -5.34,0 -10.84,-0.23 -16.36,-0.67 -5.54,-0.44 -11.18,-1.11 -16.74,-1.99 -5.34,-0.83 -10.54,-1.84 -15.47,-3.01 -4.53,-1.06 -8.88,-2.26 -12.93,-3.56 -4.41,4.05 -9.16,7.7 -14.18,10.91 -5.38,3.45 -11.08,6.39 -17,8.78 -6.11,2.46 -12.46,4.36 -18.95,5.62 -6.43,1.25 -13.02,1.9 -19.62,1.9 -1.31,0 -2.59,-0.2 -3.8,-0.56 -1.25,-0.39 -2.43,-0.94 -3.49,-1.65 -1.09,-0.73 -2.06,-1.61 -2.88,-2.61 -0.8,-0.99 -1.48,-2.1 -1.97,-3.31 -0.5,-1.22 -0.81,-2.48 -0.94,-3.74 -0.13,-1.3 -0.06,-2.6 0.18,-3.84 0.24,-1.24 0.69,-2.47 1.3,-3.62 0.61,-1.14 1.38,-2.19 2.3,-3.11 3.09,-3.09 5.73,-6.53 7.86,-10.19 2.19,-3.75 3.88,-7.75 5.03,-11.86 1.13,-4.06 1.77,-8.26 1.87,-12.49 0.09,-3.99 -0.3,-8.04 -1.17,-12.02 -5.57,-6.04 -10.54,-12.45 -14.85,-19.15 -4.44,-6.9 -8.21,-14.13 -11.25,-21.58 -3.08,-7.54 -5.42,-15.33 -6.99,-23.28 -1.55,-7.88 -2.36,-15.91 -2.36,-23.99 0,-18.2 4.11,-35.3 11.42,-50.87 7.76,-16.52 19.14,-31.3 33.02,-43.8 14.18,-12.76 31.04,-23.19 49.38,-30.71 12.78,-5.24 26.28,-9.07 40.12,-11.31l0.03 0.03 1.22 -0.22c4.88,-0.76 9.8,-1.31 14.74,-1.66l0.01 -0.11c13.68,-0.9 28.56,-0 43.87,2.48l0.05 0.01 0.09 0.01c4.57,0.83 9.09,1.84 13.54,3.01 4.05,1.07 8.07,2.3 12.02,3.66 3.99,1.38 7.89,2.89 11.65,4.51l4.54 2.05 4.46 2.14c6.01,3.12 12.27,7.01 18.76,11.64 5.4,3.86 10.96,8.24 16.66,13.11l0 -0.4 3.53 3.47c5.04,4.95 9.64,10.2 13.77,15.65 4.17,5.5 7.87,11.26 11.1,17.21 4.11,7.59 7.43,15.5 9.92,23.63 2.28,7.45 3.86,15.12 4.72,22.89l0.03 0c1.15,11.27 0.67,23.11 -1.19,35.32zm-187.04 88.18c5.28,0.9 10.75,1.62 16.22,2.1 5.32,0.46 10.63,0.72 15.76,0.72 17.76,0 34.68,-3.06 50.1,-8.6 16.01,-5.75 30.44,-14.19 42.5,-24.65 12,-10.4 21.68,-22.81 28.27,-36.57 6.33,-13.21 9.83,-27.71 9.83,-42.9 0,-15.38 -3.47,-29.84 -9.68,-42.92 -6.56,-13.79 -16.19,-26.08 -28.02,-36.34 -12.19,-10.56 -26.74,-19 -42.73,-24.76 -15.63,-5.62 -32.67,-8.7 -50.26,-8.7 -18.14,0 -35.59,3.13 -51.58,8.74 -16.65,5.85 -31.75,14.41 -44.41,24.97 -12.58,10.48 -22.78,22.95 -29.74,36.68 -6.66,13.13 -10.36,27.45 -10.36,42.32 0,6.59 0.67,13.12 1.97,19.49 1.32,6.45 3.28,12.8 5.86,18.93 2.6,6.17 5.81,12.13 9.59,17.79 3.77,5.64 8.13,11.04 13.03,16.08l1.06 1.23 0.89 1.35 0.72 1.42 0.54 1.55c1.35,4.72 2.23,9.52 2.64,14.29 0.42,4.84 0.38,9.72 -0.11,14.54 -0.41,4.04 -1.15,8.05 -2.19,11.96 -0.65,2.44 -1.42,4.85 -2.31,7.21 1.44,-0.53 2.86,-1.12 4.26,-1.74 2.74,-1.21 5.45,-2.62 8.11,-4.19 3.24,-1.92 6.35,-4.09 9.26,-6.45 2.91,-2.36 5.65,-4.94 8.18,-7.7 0.92,-1 1.97,-1.84 3.08,-2.49 1.13,-0.67 2.39,-1.16 3.68,-1.46 1.29,-0.3 2.62,-0.39 3.94,-0.3 1.29,0.1 2.6,0.41 3.85,0.9 3.85,1.53 8.21,2.94 12.89,4.19 4.76,1.27 9.89,2.38 15.19,3.29z"/>
   <path class="fil0" d="M199.55 37.42c14.29,-11.82 31.09,-21.31 49.59,-27.77 17.81,-6.22 37.2,-9.64 57.45,-9.64 21.05,0 41.99,3.84 61.46,10.88 19.71,7.13 37.95,17.58 53.32,30.69 14.83,12.64 27.02,27.77 35.35,44.79 7.83,16.03 12.25,33.74 12.25,52.65 0,8.08 -0.8,16.1 -2.36,23.98 -1.57,7.95 -3.92,15.75 -6.99,23.29 -3.04,7.45 -6.8,14.68 -11.25,21.59 -4.31,6.7 -9.28,13.11 -14.85,19.14 -0.87,3.99 -1.26,8.03 -1.17,12.03 0.1,4.22 0.74,8.43 1.88,12.48 1.15,4.11 2.85,8.1 5.03,11.85 2.13,3.65 4.77,7.08 7.87,10.18 0.9,0.9 1.68,1.97 2.29,3.11 0.61,1.15 1.06,2.39 1.31,3.62 0.25,1.25 0.31,2.56 0.18,3.86 -0.12,1.27 -0.44,2.54 -0.93,3.74 -0.5,1.2 -1.18,2.31 -1.98,3.29 -0.81,1 -1.78,1.88 -2.86,2.59 -1.07,0.72 -2.26,1.28 -3.49,1.66 -1.23,0.37 -2.52,0.57 -3.81,0.57 -6.62,0 -13.19,-0.65 -19.62,-1.9 -6.49,-1.26 -12.85,-3.16 -18.96,-5.62 -5.92,-2.39 -11.62,-5.33 -17,-8.78 -5.01,-3.21 -9.77,-6.86 -14.18,-10.91 -3.41,1.09 -7.05,2.12 -10.85,3.06 -4.25,1.05 -8.63,1.98 -13.05,2.77l-6.09 1.03 0.04 -0.95 0 -0 0.13 -0.42 0.14 -0.42 0.06 -0.19 0.07 -0.22 0.13 -0.42 0.13 -0.42 0.03 -0.08 0.1 -0.33 0.13 -0.42 0.13 -0.39 0 -0.03 0.13 -0.41 0.12 -0.42 0.09 -0.29 0.03 -0.13 0.13 -0.41 0.12 -0.42 0.06 -0.18 0.07 -0.24 0.12 -0.41 0.12 -0.42 0.02 -0.08 0.09 -0.34 0.01 -0.04 0.33 -1.21 0.11 -0.42 0.08 -0.28 0.04 -0.14 0.11 -0.42 0.22 -0.84 0.11 -0.42 0.11 -0.42 0.02 -0.07 0.08 -0.35 0.11 -0.42 0.2 -0.85 0.1 -0.42 0.07 -0.28 0.13 -0.57 0.1 -0.42 0.04 -0.17 0.06 -0.25 0.09 -0.42 0.09 -0.42 0.02 -0.06 0.08 -0.36 0.09 -0.42 0.08 -0.37 0.01 -0.05 0.09 -0.42 0.09 -0.42 0.06 -0.27 0.03 -0.15 0.08 -0.42 0.08 -0.42 0.03 -0.16 0.05 -0.26 0.08 -0.42 0.08 -0.42 0.01 -0.05 0.07 -0.37 0.08 -0.42 0.07 -0.37 0.01 -0.06 0.07 -0.42 0.07 -0.42 0.05 -0.26 0.03 -0.16 0.07 -0.42 0.07 -0.42 0.03 -0.15 0.04 -0.27 0.07 -0.42 0.13 -0.85 0.07 -0.42 0.06 -0.36 0.01 -0.06 0.06 -0.42c3.91,-0.8 7.67,-1.71 11.2,-2.7 3.96,-1.12 7.67,-2.35 10.97,-3.66 1.25,-0.5 2.56,-0.8 3.85,-0.89 1.31,-0.1 2.64,0 3.93,0.3 1.29,0.3 2.54,0.79 3.69,1.45 1.13,0.66 2.18,1.49 3.08,2.47 2.55,2.79 5.29,5.38 8.19,7.73 2.91,2.36 6.02,4.53 9.26,6.45 2.64,1.57 5.35,2.97 8.11,4.19 1.39,0.62 2.81,1.2 4.26,1.74 -0.89,-2.37 -1.66,-4.78 -2.32,-7.22 -1.04,-3.9 -1.78,-7.91 -2.19,-11.96 -0.49,-4.81 -0.53,-9.69 -0.11,-14.53 0.42,-4.77 1.29,-9.56 2.64,-14.29l0.53 -1.53 0.71 -1.44 0.91 -1.37 1.05 -1.22c4.91,-5.05 9.27,-10.44 13.03,-16.08 3.8,-5.69 7.01,-11.66 9.6,-17.8 2.58,-6.13 4.55,-12.47 5.86,-18.92 1.29,-6.37 1.96,-12.9 1.96,-19.49 0,-14.87 -3.7,-29.19 -10.36,-42.32 -6.97,-13.74 -17.17,-26.21 -29.75,-36.69 -12.66,-10.55 -27.75,-19.11 -44.41,-24.97 -15.99,-5.62 -33.44,-8.74 -51.58,-8.74 -16.87,0 -33.01,2.77 -47.82,7.81 -15.37,5.23 -29.33,12.92 -41.22,22.48 -2.55,2.05 -5.01,4.19 -7.34,6.38 -2.07,1.95 -4.06,3.96 -5.94,6 -5.56,-1.28 -11.43,-2.61 -13.61,-2.92 -5.35,-0.77 -10.81,-1.42 -16.29,-1.88l0.76 -1.02c3.48,-4.72 7.28,-9.24 11.35,-13.52 4.09,-4.3 8.46,-8.38 13.08,-12.2zm-10.43 52.23c-1.38,2.43 -2.65,4.89 -3.8,7.34 -1.14,2.44 -2.2,4.95 -3.15,7.51l-0.56 1.51 -1.59 -0.17c-3.77,-0.39 -7.58,-0.71 -11.37,-0.93 -3.83,-0.21 -7.63,-0.33 -11.35,-0.33l-2.82 0 0.84 -2.68c0.84,-2.69 1.79,-5.4 2.84,-8.08 0.92,-2.36 1.92,-4.72 3,-7.06 9.12,0.03 18.65,0.77 28.38,2.17l-0.41 0.72z"/>
  </g>
 </g>
</svg>
