<svg width="314" height="314" xmlns="http://www.w3.org/2000/svg">

 <g>
  <title>background</title>
  <rect fill="none" id="canvas_background" height="316" width="316" y="-1" x="-1"/>
 </g>
 <g>
  <title>Layer 1</title>
  <path stroke="null" id="svg_1" d="m302.835216,52.054981l-136.407495,125.494895l-50.925465,-55.472381l126.404278,-116.401062l-202.792475,0c-18.187666,0 -33.647182,14.550133 -33.647182,33.647182l0,180.057893c0,18.187666 14.550133,33.647182 33.647182,33.647182l144.591944,0c31.828415,48.197315 101.850929,54.562998 110.944762,55.472381c0,0 -23.643966,-19.097049 -27.281499,-55.472381l36.375332,0l0,-200.973709l-0.909383,0zm-238.258424,166.417143l8.18445,-22.734582l15.459516,17.278283l-23.643966,5.4563zm37.284715,-10.9126l-20.915816,-22.734582l21.825199,-49.106698l50.925465,55.472381l-51.834848,16.368899z" fill="#5f6368"/>
 </g>
</svg>