<?xml version="1.0" encoding="iso-8859-1"?>
<!-- Generator: Adobe Illustrator 18.0.0, SVG Export Plug-In . SVG Version: 6.00 Build 0)  -->
<!DOCTYPE svg PUBLIC "-//W3C//DTD SVG 1.1//EN" "http://www.w3.org/Graphics/SVG/1.1/DTD/svg11.dtd">
<svg xmlns="http://www.w3.org/2000/svg" xmlns:xlink="http://www.w3.org/1999/xlink" version="1.1" id="Capa_1" x="0px" y="0px" viewBox="0 0 230 230" style="enable-background:new 0 0 230 230;" xml:space="preserve" width="512px" height="512px">
<path d="M219.216,230V0H32.802v32.711H21.437H10.784v10.652V58.81v10.652h10.652h11.365v27.162H21.437H10.784  v10.652v15.447v10.652h10.652h11.365v27.162H21.437H10.784v10.652v15.446v10.652h10.652h11.365V230H219.216z M87.769,78.641  l12.109-12.108l23.58,23.581l-7.68,15.954l27.674,27.685l15.963-7.679l23.584,23.58l-16.483,13.814h-23.064l-57.389-57.4  L87.769,78.641z M21.437,58.81V43.363h28.762V58.81H21.437z M21.437,122.724v-15.447h28.762v15.447H21.437z M21.437,186.637V171.19  h28.762v15.446H21.437z" fill="#5f6368"/>
<g>
</g>
<g>
</g>
<g>
</g>
<g>
</g>
<g>
</g>
<g>
</g>
<g>
</g>
<g>
</g>
<g>
</g>
<g>
</g>
<g>
</g>
<g>
</g>
<g>
</g>
<g>
</g>
<g>
</g>
</svg>
