<svg width="314" height="314" xmlns="http://www.w3.org/2000/svg">
 <metadata>Svg Vector Icons : http://www.onlinewebfonts.com/icon</metadata>

 <g>
  <title>background</title>
  <rect fill="none" id="canvas_background" height="316" width="316" y="-1" x="-1"/>
 </g>
 <g>
  <title>Layer 1</title>
  <g stroke="null" id="svg_1">
   <path fill="#5f6368" stroke="null" id="svg_2" d="m259.956876,116.834051c0.823025,-5.730694 1.402191,-11.552834 1.402191,-17.496905c0,-2.712935 -0.304824,-5.364905 -0.487719,-8.047357c23.258081,19.356332 37.828674,46.607608 37.828674,76.876644c0,33.98789 -18.31993,64.165478 -46.668573,83.582774l0,52.978433l-52.338302,-32.21991c-7.254814,1.188814 -14.692523,1.88991 -22.343608,1.88991c-35.938764,0 -58.800573,-13.747568 -81.022252,-35.481528c3.657889,0.213377 7.285297,0.487719 11.004151,0.487719c5.212492,0 10.36402,-0.243859 15.454583,-0.670613c121.624825,-0.060965 132.9338,-80.86984 137.170855,-121.899167z"/>
   <path fill="#5f6368" stroke="null" id="svg_3" d="m130.650483,6c-67.091789,0 -121.350483,47.552563 -121.350483,106.200724c0,33.98789 12.955025,62.824252 37.340955,83.582774l0,52.94795l52.612644,-30.45193c7.254814,1.188814 23.745799,2.438593 31.396885,2.438593l0,0c67.030825,0 112.022865,-49.869226 112.022865,-108.517388c0,-58.648161 -56.209568,-106.200724 -112.022865,-106.200724zm-60.66,121.350483c-7.742533,0 -13.991427,-6.248895 -13.991427,-13.991427c0,-7.742533 6.279377,-13.991427 13.991427,-13.991427c7.742533,0 13.991427,6.279377 13.991427,13.991427c0,7.742533 -6.279377,13.991427 -13.991427,13.991427zm55.996191,0c-7.742533,0 -13.991427,-6.248895 -13.991427,-13.991427c0,-7.742533 6.279377,-13.991427 13.991427,-13.991427c7.742533,0 13.991427,6.279377 13.991427,13.991427c0.030482,7.742533 -6.248895,13.991427 -13.991427,13.991427zm56.026674,0c-7.742533,0 -13.991427,-6.248895 -13.991427,-13.991427c0,-7.742533 6.279377,-13.991427 13.991427,-13.991427c7.742533,0 13.991427,6.279377 13.991427,13.991427c0,7.742533 -6.279377,13.991427 -13.991427,13.991427z"/>
  </g>
 </g>
</svg>