<?xml version="1.0" encoding="utf-8"?>
<!-- Svg Vector Icons : http://www.onlinewebfonts.com/icon -->
<!DOCTYPE svg PUBLIC "-//W3C//DTD SVG 1.1//EN" "http://www.w3.org/Graphics/SVG/1.1/DTD/svg11.dtd">
<svg version="1.1" xmlns="http://www.w3.org/2000/svg" xmlns:xlink="http://www.w3.org/1999/xlink" x="0px" y="0px" viewBox="0 0 1000 1000" enable-background="new 0 0 1000 1000" xml:space="preserve">
<metadata> Svg Vector Icons : http://www.onlinewebfonts.com/icon </metadata>
<g><path fill="#5f6368" d="M902.5,185H94L10,412.5C10,479,66,535,132.5,535S255,479,255,412.5C255,479,311,535,377.5,535C444,535,500,479,500,412.5C500,479,556,535,622.5,535S745,479,745,412.5C745,479,801,535,867.5,535S990,479,990,412.5L902.5,185z M850,570v280H185V570h-70v280c0,42,28,70,70,70h665c38.5,0,70-31.5,70-70V570H850z M115,150h770V80H115V150z"/></g>
</svg>