<?xml version="1.0" standalone="no"?>
<!DOCTYPE svg PUBLIC "-//W3C//DTD SVG 20010904//EN"
 "http://www.w3.org/TR/2001/REC-SVG-20010904/DTD/svg10.dtd">
<svg version="1.0" xmlns="http://www.w3.org/2000/svg"
 width="128.000000pt" height="200.000000pt" viewBox="0 0 128.000000 200.000000"
 preserveAspectRatio="xMidYMid meet">
<metadata>
Created by potrace 1.15, written by Peter Selinger 2001-2017
</metadata>
<g transform="translate(0.000000,200.000000) scale(0.100000,-0.100000)"
fill="#fff" stroke="none">
<path d="M757 1809 c-138 -73 -137 -281 2 -328 53 -17 92 -13 150 15 74 37
106 87 106 170 0 70 -17 102 -75 142 -43 29 -129 30 -183 1z"/>
<path d="M621 1369 c-24 -4 -78 -25 -120 -46 -60 -29 -96 -57 -171 -133 -99
-99 -127 -138 -117 -164 13 -34 46 -14 127 74 105 116 156 144 180 101 8 -16
-8 -66 -83 -258 -169 -428 -192 -502 -185 -597 4 -51 9 -63 36 -87 75 -67 240
-37 398 72 70 48 179 154 214 209 33 51 34 90 3 90 -8 0 -58 -45 -111 -100
-78 -80 -103 -100 -125 -100 -59 0 -55 16 94 420 100 271 112 312 113 372 1
52 -3 72 -20 95 -42 58 -118 75 -233 52z"/>
</g>
</svg>
