<svg width="300" height="300" xmlns="http://www.w3.org/2000/svg" xmlns:xlink="http://www.w3.org/1999/xlink" preserveAspectRatio="xMidYMid meet">
 <defs>
  <path id="k8ike0cXu" d="m176.03,44.9l0,12.96l32.36,0c0,69.67 0,108.37 0,116.11c0,10.71 -8.71,19.42 -19.43,19.42c-1.45,0 -2.46,0 -3.88,0c-10.71,0 -19.42,-8.71 -19.42,-19.42c0,-6.56 0,-39.33 0,-98.33l0,-17.79l0,-12.96l0,-23.76c0,-8.79 0,-13.68 0,-14.65c0,-3.58 -2.9,-6.48 -6.48,-6.48c-15.24,0 -137.14,0 -152.38,0c-3.58,0 -6.48,2.9 -6.48,6.48c0,16.74 0,150.72 0,167.47c0,17.85 14.52,32.37 32.37,32.37c15.63,0 140.64,0 156.26,0c17.85,0 32.37,-14.52 32.37,-32.37c0,-12.26 0,-110.33 0,-122.59c0,-3.57 -2.9,-6.48 -6.47,-6.48c0,0 0,0 0,0l-38.82,0.02zm-162.74,129.07c0,-10.73 0,-64.4 0,-161.01c83.65,0 130.12,0 139.42,0c0,171.13 -0.08,161.63 0.15,164.06c0.56,6 2.8,11.66 6.34,16.36c-8.44,0 -50.6,0 -126.49,0c-12.95,-5.8 -19.42,-12.27 -19.42,-19.41z"/>
  <path id="c36ZTIuWiJ" d="m34.86,31.1c-3.57,0 -6.47,2.9 -6.47,6.48c0,3.58 2.9,6.48 6.47,6.48c9.67,0 87.02,0 96.69,0c3.58,0 6.48,-2.9 6.48,-6.48c0,-3.58 -2.9,-6.48 -6.48,-6.48c0,0 0,0 0,0c-58.01,0 -90.24,0 -96.69,0z"/>
  <path id="bHB2qEfO0" d="m34.86,58.73c-3.57,0 -6.47,2.9 -6.47,6.47c0,3.58 2.9,6.48 6.47,6.48c9.67,0 87.02,0 96.69,0c3.58,0 6.48,-2.9 6.48,-6.48c0,-3.57 -2.9,-6.47 -6.48,-6.47c0,0 0,0 0,0c-58.01,0 -90.24,0 -96.69,0z"/>
  <path id="l1x3kGiWqw" d="m34.86,162.32c-3.57,0 -6.47,2.9 -6.47,6.48c0,3.57 2.9,6.47 6.47,6.47c9.67,0 87.02,0 96.69,0c3.58,0 6.48,-2.9 6.48,-6.47c0,-3.58 -2.9,-6.48 -6.48,-6.48c0,0 0,0 0,0c-58.01,0 -90.24,0 -96.69,0z"/>
  <path id="a1ctR3Wmdb" d="m83.21,86.35c-3.58,0 -6.48,2.9 -6.48,6.48c0,4.83 0,43.51 0,48.34c0,3.58 2.9,6.48 6.48,6.48c4.83,0 43.51,0 48.34,0c3.58,0 6.48,-2.9 6.48,-6.48c0,-4.83 0,-43.51 0,-48.34c0,-3.58 -2.9,-6.48 -6.48,-6.48c-9.67,0 -43.51,0 -48.34,0zm6.47,48.34l0,-35.38l35.39,0l0,35.38l-35.39,0z"/>
  <path id="a1bHobX3eE" d="m55.58,109.65c3.58,0 6.48,-2.9 6.48,-6.47c0,-3.57 -2.9,-6.47 -6.48,-6.47c-2.07,0 -18.64,0 -20.72,0c-3.57,0 -6.47,2.9 -6.47,6.47c0,3.58 2.9,6.47 6.47,6.47c4.15,0 18.65,0 20.72,0z"/>
  <path id="ae20H5S5W" d="m55.58,137.29c3.58,0 6.48,-2.9 6.48,-6.48c0,-3.58 -2.9,-6.48 -6.48,-6.48c-2.07,0 -18.64,0 -20.72,0c-3.57,0 -6.47,2.9 -6.47,6.48c0,3.57 2.9,6.48 6.47,6.48c0,0 0,0 0,0c12.44,0 19.34,0 20.72,0z"/>
 </defs>
 <g>
  <title>Layer 1</title>
  <g id="svg_1">
   <g id="svg_2">
    <g id="svg_3">
     <use x="39.18" y="46.84" id="svg_4" fill="#ffffff" xlink:href="#k8ike0cXu"/>
     <g id="svg_5">
      <use fill="#ffffff" x="39.18" y="46.84" id="svg_6" stroke-opacity="0" stroke="#000000" fill-opacity="0" xlink:href="#k8ike0cXu"/>
     </g>
    </g>
    <g id="svg_7">
     <use x="39.18" y="46.84" id="svg_8" fill="#ffffff" xlink:href="#c36ZTIuWiJ"/>
     <g id="svg_9">
      <use fill="#ffffff" x="39.18" y="46.84" id="svg_10" stroke-opacity="0" stroke="#000000" fill-opacity="0" xlink:href="#c36ZTIuWiJ"/>
     </g>
    </g>
    <g id="svg_11">
     <use x="39.18" y="46.84" id="svg_12" fill="#ffffff" xlink:href="#bHB2qEfO0"/>
     <g id="svg_13">
      <use fill="#ffffff" x="39.18" y="46.84" id="svg_14" stroke-opacity="0" stroke="#000000" fill-opacity="0" xlink:href="#bHB2qEfO0"/>
     </g>
    </g>
    <g id="svg_15">
     <use x="39.18" y="46.84" id="svg_16" fill="#ffffff" xlink:href="#l1x3kGiWqw"/>
     <g id="svg_17">
      <use fill="#ffffff" x="39.18" y="46.84" id="svg_18" stroke-opacity="0" stroke="#000000" fill-opacity="0" xlink:href="#l1x3kGiWqw"/>
     </g>
    </g>
    <g id="svg_19">
     <use x="39.18" y="46.84" id="svg_20" fill="#ffffff" xlink:href="#a1ctR3Wmdb"/>
     <g id="svg_21">
      <use fill="#ffffff" x="39.18" y="46.84" id="svg_22" stroke-opacity="0" stroke="#000000" fill-opacity="0" xlink:href="#a1ctR3Wmdb"/>
     </g>
    </g>
    <g id="svg_23">
     <use x="39.18" y="46.84" id="svg_24" fill="#ffffff" xlink:href="#a1bHobX3eE"/>
     <g id="svg_25">
      <use fill="#ffffff" x="39.18" y="46.84" id="svg_26" stroke-opacity="0" stroke="#000000" fill-opacity="0" xlink:href="#a1bHobX3eE"/>
     </g>
    </g>
    <g id="svg_27">
     <use x="39.18" y="46.84" id="svg_28" fill="#ffffff" xlink:href="#ae20H5S5W"/>
     <g id="svg_29">
      <use fill="#ffffff" x="39.18" y="46.84" id="svg_30" stroke-opacity="0" stroke="#000000" fill-opacity="0" xlink:href="#ae20H5S5W"/>
     </g>
    </g>
   </g>
  </g>
 </g>
</svg>