<svg width="612" height="612" xmlns="http://www.w3.org/2000/svg">
 <!-- Created with Method Draw - http://github.com/duopixel/Method-Draw/ -->

 <g stroke="null">
  <title>background</title>
  <rect x="-1" y="-1" width="614" height="614" id="canvas_background" fill="none" stroke="null"/>
  <g id="canvasGrid" display="none" stroke="null">
   <rect id="svg_5" width="100%" height="100%" x="0" y="0" stroke-width="0" fill="url(#gridpattern)"/>
  </g>
 </g>
 <g stroke="null">
  <title>Layer 1</title>
  <ellipse fill="#fff" stroke-width="1.5" cx="300" cy="-172.000006" id="svg_1" rx="300" ry="172.000006" stroke="#000"/>
  <ellipse fill="none" stroke-width="35" cx="305.000006" cy="311.999986" id="svg_2" rx="287.999995" ry="279.277768" stroke="#5e5e5e"/>
  <rect fill="#fff" stroke-width="40" stroke-opacity="null" fill-opacity="null" x="254.5" y="261" width="0" height="153" id="svg_3" stroke="#000"/>
  <rect fill="#fff" stroke-width="40" fill-opacity="null" x="757.38897" y="262.333328" width="3" height="193" id="svg_4" stroke="#5e5e5e"/>
  <g id="svg_33">
   <g transform="matrix(0.618548, 0, 0, 0.566407, -229.874, -176.552)" id="svg_10">
    <g id="svg_11">
     <g id="svg_12">
      <path fill="#444444" id="svg_13" d="m974.927063,826.545898c0,-11.046021 -8.953979,-20 -20,-20l-206,0c-11.046021,0 -20,8.953979 -20,20s8.953979,20 20,20l206,0c11.046021,0 20,-8.954041 20,-20z"/>
      <path fill="#444444" id="svg_14" d="m748.927063,886.545898c-11.046021,0 -20,8.953979 -20,20c0,11.045959 8.953979,20 20,20l125.110962,0c11.046021,0 20,-8.954041 20,-20c0,-11.046021 -8.953979,-20 -20,-20l-125.110962,0z"/>
      <path fill="#444444" id="svg_15" d="m795.927063,1078.545898l-66.889038,0c-22.055969,0 -40,-17.94397 -40,-40l0,-352c0,-22.05603 17.944031,-40 40,-40l245.889038,0c22.05603,0 40,17.94397 40,40l0,123c0,11.045959 8.953979,20 19.999939,20c11.045898,0 19.999878,-8.954041 19.999878,-20l0,-123c0,-44.112061 -35.887817,-80.000061 -79.999817,-80.000061l-245.889038,0c-44.112,0 -80,35.888 -80,80.000061l0,352c0,44.111938 35.888,80 80,80l66.889038,0c11.046021,0 20,-8.953979 20,-20c0,-11.046021 -8.953979,-20 -20,-20z"/>
      <path fill="#444444" id="svg_16" d="m1090.351929,896.117859c-23.393921,-23.393982 -61.457886,-23.394958 -84.836853,-0.015991l-109.80304,109.559998c-2.33197,2.327026 -4.051941,5.192993 -5.009949,8.344971l-23.913025,78.724976c-2.119995,6.980103 -0.27301,14.559082 4.820984,19.780029c3.81604,3.911011 9,6.034058 14.317017,6.034058c1.778992,0 3.574951,-0.238037 5.338013,-0.727051l80.724976,-22.360962c3.322021,-0.920044 6.349976,-2.682983 8.790039,-5.119019l109.572937,-109.367004c23.393921,-23.393982 23.393921,-61.458008 -0.001099,-84.854004zm-134.107849,162.196106l-40.612061,11.25l11.88501,-39.129028l74.088989,-73.925049l28.289978,28.289978l-73.651917,73.514099zm105.838928,-105.638062l-3.875122,3.866943l-28.284912,-28.284973l3.862061,-3.854004c7.797852,-7.798035 20.48584,-7.798035 28.283936,0c7.797974,7.798035 7.797974,20.486023 0.014038,28.272034z"/>
      <path fill="#444444" id="svg_17" d="m954.927063,726.545898l-206,0c-11.046021,0 -20,8.953979 -20,20s8.953979,20 20,20l206,0c11.046021,0 20,-8.954041 20,-20s-8.953979,-20 -20,-20z"/>
     </g>
    </g>
   </g>
   <g transform="matrix(0.618548, 0, 0, 0.566407, -229.874, -176.552)" id="svg_18"/>
   <g transform="matrix(0.618548, 0, 0, 0.566407, -229.874, -176.552)" id="svg_19"/>
   <g transform="matrix(0.618548, 0, 0, 0.566407, -229.874, -176.552)" id="svg_20"/>
   <g transform="matrix(0.618548, 0, 0, 0.566407, -229.874, -176.552)" id="svg_21"/>
   <g transform="matrix(0.618548, 0, 0, 0.566407, -229.874, -176.552)" id="svg_22"/>
   <g transform="matrix(0.618548, 0, 0, 0.566407, -229.874, -176.552)" id="svg_23"/>
   <g transform="matrix(0.618548, 0, 0, 0.566407, -229.874, -176.552)" id="svg_24"/>
   <g transform="matrix(0.618548, 0, 0, 0.566407, -229.874, -176.552)" id="svg_25"/>
   <g transform="matrix(0.618548, 0, 0, 0.566407, -229.874, -176.552)" id="svg_26"/>
   <g transform="matrix(0.618548, 0, 0, 0.566407, -229.874, -176.552)" id="svg_27"/>
   <g transform="matrix(0.618548, 0, 0, 0.566407, -229.874, -176.552)" id="svg_28"/>
   <g transform="matrix(0.618548, 0, 0, 0.566407, -229.874, -176.552)" id="svg_29"/>
   <g transform="matrix(0.618548, 0, 0, 0.566407, -229.874, -176.552)" id="svg_30"/>
   <g transform="matrix(0.618548, 0, 0, 0.566407, -229.874, -176.552)" id="svg_31"/>
   <g transform="matrix(0.618548, 0, 0, 0.566407, -229.874, -176.552)" id="svg_32"/>
  </g>
 </g>
</svg>