<?xml version="1.0" encoding="utf-8"?>
<!-- Svg Vector Icons : http://www.onlinewebfonts.com/icon -->
<!DOCTYPE svg PUBLIC "-//W3C//DTD SVG 1.1//EN" "http://www.w3.org/Graphics/SVG/1.1/DTD/svg11.dtd">
<svg version="1.1" xmlns="http://www.w3.org/2000/svg" xmlns:xlink="http://www.w3.org/1999/xlink" x="0px" y="0px" viewBox="0 0 1000 1000" enable-background="new 0 0 1000 1000" xml:space="preserve">
<metadata> Svg Vector Icons : http://www.onlinewebfonts.com/icon </metadata>
<g><path fill="#5493ff" d="M56.1,901c11-76.1,78.7-107.2,144.1-130.3c43.8-11.3,122.2-57.3,122.2-156.5c0-84.9-35-126.3-53.8-148.5c-2.3-2.8-4.5-5.3-6.2-7.6c-0.5-0.7-1.1-1.4-1.6-2.1c-1.6-3.1-10.4-23,1.2-71.1c2.3-9.6,1.4-19.8-2.7-28.9c-11.1-24.3-40.4-89.1-20.8-137.1c26.5-65.1,50.2-77.9,93-96.8c2.1-0.8,4.2-2.1,6.1-3.2c10.8-7,45.9-20,82.1-20c19.8,0,36.7,3.8,50.3,11.3c16,8.9,31.2,25.3,53.1,76.7c31,72.7,23.2,134.7,1.8,163.9c-7.7,10.6-10.5,24.1-7.4,36.8c10.8,44.8,2.9,62.9,1.2,66.1c-1.3,1.3-2.6,2.8-3.7,4.4c-1.6,2.3-3.8,4.8-6.2,7.6c-18.8,22.2-53.8,63.6-53.8,148.5c0,99.1,78.4,145.1,122.2,156.5c64.7,22.8,133.1,53.8,144.1,130.3L56.1,901L56.1,901z M589.9,728c0,0-90.4-21.1-90.4-113.8c0-81.4,37.2-110.1,51.5-129.8c0,0,29.5-25.4,9.8-107.2c32.9-44.7,39-123.9,3.3-207.7c-22.5-52.6-42.3-81.5-72.5-98.2c-22.2-12.2-47.4-16.9-71.8-16.9c-45.6,0-88.9,15.9-106.2,27C263,103.6,229,124.1,197.2,202.1c-25.8,63.4,5.3,136.7,21.4,172.4c-19.8,81.8,7.7,109.9,7.7,109.9c14.4,19.8,51.5,48.5,51.5,129.8c0,92.6-90.4,113.8-90.4,113.8C129.9,748.3,10,789.7,10,923.4c0,0,0,22.2,22.3,22.2H745c22.3,0,22.3-22.2,22.3-22.2C767.3,789.7,647.3,748.3,589.9,728L589.9,728z M828.3,705.3c0,0-82.5-19.1-82.5-102.5c0-73.3,39.5-99,52.6-116.8c0,0,26.9-22.8,8.9-96.4c30-40.3,37-111.5,4.4-186.9c-20.4-47.4-45.5-73.3-73-88.3c-20.3-11.2-43.3-15.2-65.5-15.2c-33.4,0-65,9.1-84.5,17.9c5.7,10.9,11.1,22.7,16.5,35.1c0.7,1.8,1.2,3.7,2,5.4c12.6-5.6,37.9-13.9,66.1-13.9c17.5,0,32.4,3.3,44.1,9.8c13.9,7.5,34.5,22.7,53.5,66.9c27.1,62.8,19.9,116.9,0.8,142.8c-7.9,10.6-10.7,24.3-7.5,37.2c9,36.8,3.2,52.3,1.8,55.4c-1.1,1.2-2.3,2.5-3.3,4c-0.8,1.1-3.9,4.5-6.2,7c-19.2,20.5-55,58.9-55,136.2c0,92,73.3,134.7,114.4,145.2c58.7,20.4,115.9,46,127.7,108.5H802.4c4,13.8,6.9,28.6,8.2,44.6h159.2C990,901,990,881,990,881C990,760.7,880.7,723.4,828.3,705.3L828.3,705.3z"/></g>
</svg>