<svg width="210" height="1050" xmlns="http://www.w3.org/2000/svg">
 <defs>
  <style type="text/css">
   <![CDATA[
    .fil0 {fill:#00AFEF}
   ]]>
  </style>
 </defs>
 <g>
  <title>background</title>
  <rect fill="none" id="canvas_background" height="1052" width="212" y="-1" x="-1"/>
 </g>
 <g>
  <title>Layer 1</title>
  <defs>
   <style type="text/css">
    <![CDATA[
    .fil0 {fill:00AFEF}
   ]]>
   </style>
  </defs>
  <defs>
   <style type="text/css">
    <![CDATA[
    .fil0 {fill:#00AFEF}
   ]]>
   </style>
  </defs>
  <defs>
   <style type="text/css">
    <![CDATA[
    .fil0 {fill:#00AFEF}
   ]]>
   </style>
  </defs>
  <g stroke="null" id="svg_28">
   <g stroke="null" transform="matrix(0.950670693832502,0,0,0.950670693832502,-12.946583750665976,196.64267714831968) " id="svg_24">
    <metadata stroke="null" transform="translate(0.7012375593185425,0) translate(-1.402518630027771,0) translate(1.402518630027771,0) translate(-1.402518630027771,0) translate(0,1.402518630027771) translate(0,-1.402518630027771) translate(5.610074520111084,-9.81762981414795) translate(5.3178606033325195,-9.306255340576172) translate(44.50299072265625,-414.5135498046875) translate(-32.046669006347656,0) translate(0,233.6208038330078) " id="svg_25"/>
    <path stroke="null" id="svg_27" d="m67.562976,-89.736631c-8.96,-75.07 101.61,-84.35 110.93,-19.85c11.77,81.39 -103.95,78.4 -110.93,19.85zm-18.54,-85.44c-0.53,49.59 2.07,44.57 -26.35,71.19c22.28,41.45 25.6,8.8 26.35,78.32c54.05,0.01 45.99,-3.19 73.77,25.44c34.72,-24.41 12.14,-25.43 74.67,-25.44c0.02,-53.81 4.87,-47.53 29.4,-76.42c-31.19,-35.73 -29.4,-22.33 -29.4,-73.09c-61.06,-0.07 -39.34,-1.1 -74.67,-24.84c-26.28,26.55 -23.28,24.83 -73.77,24.84z" class="fil0"/>
   </g>
  </g>
  <defs>
   <style type="text/css">
    <![CDATA[
    .fil0 {fill:00AFEF}
   ]]>
   </style>
  </defs>
  <g stroke="null" id="svg_37">
   <g stroke="null" transform="matrix(0.9668664033475377,0,0,0.9668664033475377,-13.36323909781214,197.26740284013508) " id="svg_33">
    <metadata stroke="null" transform="translate(1.3790254592895508,-2.842170943040401e-14) translate(0,-1.3790254592895508) translate(0,-1.3790254592895508) translate(0,-1.3790254592895508) translate(0,1.3790254592895508) translate(0,1.3790254592895508) translate(0,1.3790254592895508) translate(0,1.3790254592895508) translate(0,1.3790254592895508) translate(0,1.3790254592895508) translate(0,1.3790254592895508) translate(0,1.3790254592895508) translate(0,1.3790254592895508) translate(0,1.3790254592895508) translate(0,1.3790254592895508) translate(0,1.3790254592895508) translate(0,1.3790254592895508) translate(0,1.3790254592895508) translate(0,1.3790254592895508) translate(0,1.3790254592895508) translate(0,1.3790254592895508) translate(0,1.3790254592895508) translate(0,1.3790254592895508) translate(0,1.3790254592895508) translate(0,1.3790254592895508) translate(0,1.3790254592895508) translate(0,1.3790254592895508) translate(0,1.3790254592895508) translate(0,1.3790254592895508) translate(0,1.3790254592895508) translate(0,1.3790254592895508) translate(0,1.3790254592895508) translate(0,1.3790254592895508) translate(0,1.3790254592895508) translate(0,1.3790254592895508) translate(0,1.3790254592895508) translate(0,1.3790254592895508) translate(0,1.3790254592895508) translate(0,1.3790254592895508) translate(0,1.3790254592895508) translate(0,1.3790254592895508) translate(0,1.3790254592895508) translate(0,1.3790254592895508) translate(0,1.3790254592895508) translate(0,1.3790254592895508) translate(0,1.3790254592895508) translate(0,1.3790254592895508) translate(0,1.3790254592895508) translate(0,1.3790254592895508) translate(0,1.3790254592895508) translate(0,1.3790254592895508) translate(0,1.3790254592895508) translate(0,1.3790254592895508) translate(0,1.3790254592895508) translate(0,1.3790254592895508) translate(0,1.3790254592895508) translate(0,1.3790254592895508) translate(0,1.3790254592895508) translate(0,1.3790254592895508) translate(0,1.3790254592895508) translate(0,1.3790254592895508) translate(0,1.3790254592895508) translate(0,1.3790254592895508) translate(0,1.3790254592895508) translate(0,1.3790254592895508) translate(0,1.3790254592895508) translate(0,1.3790254592895508) translate(0,1.3790254592895508) translate(0,1.3790254592895508) translate(0,1.3790254592895508) translate(0,1.3790254592895508) translate(0,1.3790254592895508) translate(0,1.3790254592895508) translate(0,1.3790254592895508) translate(0,1.3790254592895508) translate(0,1.3790254592895508) translate(0,1.3790254592895508) translate(0,1.3790254592895508) translate(0,1.3790254592895508) translate(0,1.3790254592895508) translate(0,1.3790254592895508) translate(0,1.3790254592895508) translate(0,1.3790254592895508) translate(0,1.3790254592895508) translate(0,1.3790254592895508) translate(0,1.3790254592895508) translate(0,1.3790254592895508) translate(0,1.3790254592895508) translate(0,1.3790254592895508) translate(0,1.3790254592895508) translate(0,1.3790254592895508) translate(0,1.3790254592895508) translate(0,1.3790254592895508) translate(0,1.3790254592895508) translate(0,1.3790254592895508) translate(0,1.3790254592895508) translate(0,1.3790254592895508) translate(0,1.3790254592895508) translate(0,1.3790254592895508) translate(0,1.3790254592895508) translate(0,1.3790254592895508) translate(0,1.3790254592895508) translate(0,1.3790254592895508) translate(0,1.3790254592895508) translate(0,1.3790254592895508) translate(0,1.3790254592895508) translate(0,1.3790254592895508) translate(0,1.3790254592895508) translate(0,1.3790254592895508) translate(0,1.3790254592895508) translate(0,1.3790254592895508) translate(0,1.3790254592895508) translate(0,1.3790254592895508) translate(0,1.3790254592895508) translate(0,1.3790254592895508) translate(0,1.3790254592895508) translate(0,1.3790254592895508) translate(0,1.3790254592895508) translate(0,1.3790254592895508) translate(0,1.3790254592895508) translate(0,1.3790254592895508) translate(0,1.3790254592895508) translate(0,1.3790254592895508) translate(0,1.3790254592895508) translate(0,1.3790254592895508) translate(0,1.3790254592895508) translate(0,1.3790254592895508) translate(0,1.3790254592895508) translate(0,1.3790254592895508) translate(0,1.3790254592895508) translate(0,1.3790254592895508) translate(0,1.3790254592895508) translate(0,1.3790254592895508) translate(0,1.3790254592895508) translate(0,1.3790254592895508) translate(0,1.3790254592895508) translate(0,1.3790254592895508) translate(0,1.3790254592895508) translate(0,1.3790254592895508) translate(0,1.3790254592895508) translate(0,1.3790254592895508) translate(0,1.3790254592895508) translate(0,1.3790254592895508) translate(0,1.3790254592895508) translate(0,1.3790254592895508) translate(0,1.3790254592895508) translate(0,1.3790254592895508) translate(0,1.3790254592895508) translate(0,1.3790254592895508) translate(0,1.3790254592895508) translate(0,1.3790254592895508) translate(0,1.3790254592895508) translate(0,1.3790254592895508) translate(0,1.3790254592895508) translate(0,1.3790254592895508) translate(0,1.3790254592895508) translate(0,1.3790254592895508) translate(0,1.3790254592895508) translate(0,1.3790254592895508) translate(0,1.3790254592895508) translate(0,1.3790254592895508) translate(0,1.3790254592895508) translate(0,1.3790254592895508) translate(0,1.3790254592895508) translate(0,1.3790254592895508) translate(-1.3790254592895508,-2.842170943040401e-14) translate(5.516101837158203,-2.7580509185791016) translate(45.090919494628906,-440.2995910644531) translate(-31.368066787719727,0) translate(0,245.477294921875) " id="svg_34"/>
    <path stroke="null" id="svg_36" d="m123.208955,66.715676c77.99,7.38 73.65,102.54 0,105.69l0,-105.69zm-74.31,-21.92c-0.48,44.83 -4.45,55.51 -29.66,75.02c30.09,25.51 29.11,22.98 29.66,74.5c53.03,0.01 45.95,-1.19 73.77,25.54c31.73,-24.94 16.62,-25.52 74.66,-25.54c0.02,-48.25 -3.05,-46.61 29.65,-73.53c-31.93,-32.5 -29.63,-24.84 -29.65,-75.99c-59.09,-0.01 -38.05,3.74 -74.66,-24.5c-34.52,29.31 -16.87,24.48 -73.77,24.5z" class="fil0"/>
   </g>
  </g>
  <defs>
   <style type="text/css">
    <![CDATA[
    .fil0 {fill:#00AFEF}
   ]]>
   </style>
  </defs>
  <g stroke="null" id="svg_46">
   <g stroke="null" transform="matrix(0.9634367436444663,0,0,0.9634367436444663,-15.177474489639991,231.22581220969306) " id="svg_42">
    <metadata stroke="null" transform="translate(0.6919769644737244,0) translate(0,-1.383934497833252) translate(0,1.383934497833252) translate(0,1.383934497833252) translate(0,1.383934497833252) translate(0,1.383934497833252) translate(0,-1.383934497833252) translate(0,1.383934497833252) translate(0,1.383934497833252) translate(0,1.383934497833252) translate(0,1.383934497833252) translate(0,1.383934497833252) translate(0,1.383934497833252) translate(0,1.383934497833252) translate(4.151803493499756,-8.303606986999512) translate(50.53447341918945,-29.256799697875977) translate(-32.04296875,0) translate(0,233.17611694335938) " id="svg_43"/>
    <path stroke="null" id="svg_45" d="m101.315285,256.671121c109.88,-6.57 89.52,91.57 41.97,103.78c-67.15,17.24 -106.86,-49.82 -41.97,-103.78zm44.24,21.21c-45.24,-7.01 -55.5,3.29 -57.25,45.54l21.65,22.15c59.82,3.11 56.44,-33.66 35.6,-67.7l0,0.01zm-95.42,-43.82c-0.56,51.65 1.46,42.53 -26.8,71.19c24.12,42.26 26.02,6.1 26.8,78.32c53.15,0.01 46.31,-1.65 73.77,25.3c31.04,-26.34 16.69,-25.28 74.43,-25.3c0.59,-49.62 -0.04,-52.41 29.19,-75.3c-29.29,-29.12 -28.55,-20.15 -29.19,-74.21c-60.91,-0.04 -39.71,-0.83 -74.43,-25.98c-32,25.65 -15.69,25.95 -73.77,25.98z" class="fil0"/>
   </g>
  </g>
  <defs>
   <style type="text/css">
    <![CDATA[
    .fil0 {fill:#00AFEF}
   ]]>
   </style>
  </defs>
  <g stroke="null" id="svg_55">
   <g stroke="null" transform="matrix(0.9587395283297575,0,0,0.9587395283297575,-11.455187798615809,234.87651417446182) " id="svg_51">
    <metadata stroke="null" transform="translate(1.3907215595245361,0) translate(0,1.3907148838043213) translate(0,1.3907148838043213) translate(0,1.3907148838043213) translate(-1.3907148838043213,0) translate(0,1.3907148838043213) translate(0,1.3907148838043213) translate(0,1.3907148838043213) translate(1.3907148838043213,0) translate(-1.3907148838043213,0) translate(0,1.3907148838043213) translate(-1.3907148838043213,0) translate(22.25143814086914,183.57437133789062) translate(31.35245132446289,0) translate(-32.065834045410156,0) translate(0,233.10121154785156) " id="svg_52"/>
    <path stroke="null" id="svg_54" d="m103.877347,578.170587c42.65,-54.99 38.17,-51.35 -0.56,-103.52c101.84,-8.92 106.52,111 0.56,103.52zm-54.94,-123.38c0,50.51 -4.1,44.98 -28.8,70.53c24.52,26.9 28.8,18.48 28.8,72.22c68.54,14.41 28.11,-6.12 74.94,28.84c28.56,-28.96 21.61,-25.42 73.74,-25.42c0,-75.21 5.34,-40.35 26.57,-78.36c-27.61,-28.05 -26.23,-20.4 -26.79,-71.23c-53.06,-0.01 -44.87,0.99 -73.52,-24.95c-43.46,32.65 -13.07,15.37 -74.94,28.37z" class="fil0"/>
   </g>
  </g>
  <defs>
   <style type="text/css">
    <![CDATA[
    .fil0 {fill:#00AFEF}
   ]]>
   </style>
  </defs>
  <g stroke="null" id="svg_64">
   <g stroke="null" transform="matrix(0.8261689666332002,0,0,0.8261689666332002,5.587787148053444,339.4383089267428) " id="svg_60">
    <metadata stroke="null" transform="translate(-2.3587241172790527,0) translate(0,1.8621633052825928) translate(-1.8621633052825928,0) translate(1.8621633052825928,0) translate(1.8621633052825928,0) translate(-1.8621633052825928,0) translate(-1.8621633052825928,0) translate(-1.8621633052825928,0) translate(-7.448653221130371,249.52987670898438) translate(-4.2702507972717285,-275.43115234375) translate(-3.7008841037750244,0) translate(10.235759735107422,-17.059598922729492) translate(60.131431579589844,427.2496337890625) translate(6.724949836730957,0) translate(0,240.44630432128906) " id="svg_61"/>
    <path stroke="null" id="svg_63" d="m58.449302,833.627227c177.6,11.11 165.14,-227.4 -2.86,-205.62c86.67,50.37 83.91,143.56 29.44,184.99l-26.59,20.63l0.01,0z" class="fil0"/>
   </g>
  </g>
  <defs>
   <style type="text/css">
    <![CDATA[
    .str0 {stroke:white;stroke-width:3;stroke-miterlimit:2.61313}
    .fil1 {fill:#00AFEF}
    .fil0 {fill:#00AFEF}
   ]]>
   </style>
  </defs>
  <defs>
   <style type="text/css">
    <![CDATA[
    .fil0 {fill:#00AFEF}
   ]]>
   </style>
  </defs>
  <defs>
   <style type="text/css">
    <![CDATA[
    .fil0 {fill:00AFEF}
   ]]>
   </style>
  </defs>
 </g>
</svg>