<svg width="290" height="8009.999999999999" xmlns="http://www.w3.org/2000/svg">
 <defs>
  <style type="text/css">
   <![CDATA[
    .str0 {stroke:#2B2A29;stroke-width:6.94;stroke-miterlimit:2.61313}
    .fil2 {fill:none}
    .fil0 {fill:#5493ff}
    .fil1 {fill:#5493ff;fill-rule:nonzero}
   ]]>
  </style>
 </defs>
 <g>
  <title>background</title>
  <rect fill="none" id="canvas_background" height="8012" width="292" y="-1" x="-1"/>
 </g>
 <g>
  <title>Layer 1</title>
  <metadata id="CorelCorpID_0Corel-Layer"/>
  <path id="svg_1" d="m82.67497,213.396663c-1.43,4.29 -6.08,6.61 -10.38,5.17c-4.29,-1.43 -6.61,-6.08 -5.17,-10.38c5.37,-15.95 15.55,-29.31 28.57,-38.67c3,-2.15 6.15,-4.09 9.42,-5.8l-0.01,-0.73c0,-10.03 4.07,-19.12 10.65,-25.7c6.57,-6.57 15.67,-10.65 25.7,-10.65c10.03,0 19.13,4.07 25.7,10.65c6.57,6.58 10.65,15.67 10.65,25.7c0,10.03 -4.07,19.13 -10.65,25.7c-6.58,6.57 -15.67,10.65 -25.7,10.65c-10.03,0 -19.13,-4.07 -25.7,-10.65c-2.52,-2.52 -4.67,-5.41 -6.37,-8.57c-1.41,0.85 -2.77,1.76 -4.11,2.71c-10.3,7.41 -18.35,17.96 -22.6,30.56l0,0.01zm72.84,-64.47c-3.59,-3.59 -8.57,-5.82 -14.07,-5.82c-5.5,0 -10.48,2.23 -14.07,5.82c-3.59,3.59 -5.82,8.57 -5.82,14.06c0,5.5 2.23,10.48 5.82,14.07c3.59,3.59 8.57,5.82 14.07,5.82c5.5,0 10.48,-2.23 14.07,-5.82c3.59,-3.59 5.82,-8.58 5.82,-14.07c0,-5.49 -2.23,-10.47 -5.82,-14.06zm-79.99,78.38c9.92,0 18.93,4.04 25.46,10.56c6.55,6.52 10.58,15.54 10.58,25.48c0,7.5 -2.31,14.48 -6.25,20.26c3.97,2.84 8.26,5.2 12.75,7.03c7.34,2.98 15.28,4.57 23.38,4.57c4.04,0 8.06,-0.39 11.97,-1.16l0.16,-0.04c4.01,-0.8 7.92,-1.98 11.65,-3.53c4.19,-1.74 9,0.25 10.74,4.44c1.74,4.19 -0.25,9 -4.44,10.74c-4.8,1.99 -9.74,3.49 -14.74,4.49l-0.43,0.07c-4.92,0.95 -9.91,1.44 -14.92,1.44c-10.21,0 -20.25,-2.01 -29.56,-5.8c-6.76,-2.74 -13.13,-6.44 -18.93,-11c-5.18,2.88 -11.12,4.52 -17.44,4.52c-9.95,0 -18.97,-4.04 -25.49,-10.56c-6.52,-6.55 -10.56,-15.56 -10.56,-25.48c0,-9.95 4.04,-18.96 10.56,-25.48c6.52,-6.52 15.54,-10.56 25.49,-10.56l0.02,0.01zm13.86,22.17c-3.53,-3.53 -8.44,-5.72 -13.86,-5.72c-5.42,0 -10.32,2.19 -13.86,5.73c-3.53,3.54 -5.73,8.44 -5.73,13.85c0,5.42 2.19,10.33 5.71,13.87c3.55,3.52 8.46,5.72 13.87,5.72c5.4,0 10.31,-2.18 13.85,-5.7c3.55,-3.57 5.73,-8.48 5.73,-13.88c0,-5.41 -2.2,-10.32 -5.72,-13.87l0.01,0zm130.07,-24.6c4.92,1.83 9.33,4.7 12.98,8.34c6.52,6.56 10.59,15.6 10.59,25.56c0,9.97 -4.06,19.02 -10.59,25.56c-6.54,6.54 -15.59,10.59 -25.56,10.59c-9.96,0 -19,-4.07 -25.54,-10.61c-6.56,-6.52 -10.61,-15.57 -10.61,-25.54c0,-9.96 4.07,-19 10.6,-25.53c5.6,-5.61 13.02,-9.39 21.26,-10.37c-0.72,-4.24 -1.86,-8.37 -3.41,-12.33c-2.81,-7.15 -6.95,-13.79 -12.26,-19.51c-3.09,-3.32 -2.9,-8.52 0.42,-11.6c3.31,-3.09 8.51,-2.9 11.6,0.42c6.74,7.26 11.99,15.67 15.54,24.71c2.55,6.5 4.24,13.33 4.98,20.32l0,-0.01zm1.36,19.97c-3.57,-3.56 -8.5,-5.77 -13.94,-5.77c-5.46,0 -10.39,2.2 -13.93,5.74c-3.57,3.57 -5.77,8.5 -5.77,13.96c0,5.44 2.21,10.37 5.77,13.93c3.54,3.57 8.47,5.77 13.93,5.77c5.44,0 10.37,-2.21 13.93,-5.77c3.56,-3.56 5.77,-8.49 5.77,-13.93c0,-5.46 -2.2,-10.39 -5.76,-13.93z" class="fil0"/>
  <path id="svg_2" d="m156.380949,408.306663c23.35,47.31 6.23,34.86 58.43,42.45c3.96,0.57 7.24,2.38 9.69,4.87c1.84,1.92 3.19,4.2 3.99,6.63c0.79,2.48 1.04,5.12 0.67,7.67c-0.5,3.48 -2.1,6.88 -4.96,9.67c-37.79,36.83 -31.23,16.69 -22.31,68.7c0.67,3.9 -0.04,7.58 -1.68,10.7c-1.25,2.36 -3.01,4.35 -5.06,5.84c-2.08,1.5 -4.51,2.56 -7.11,3.01c-3.45,0.59 -7.17,0.12 -10.69,-1.73l-35.99,-18.92l-0.25,0l-35.99,18.92c-3.53,1.85 -7.24,2.32 -10.69,1.73c-2.59,-0.44 -5.03,-1.5 -7.11,-3c-2.05,-1.49 -3.8,-3.49 -5.04,-5.85c-1.65,-3.11 -2.36,-6.79 -1.69,-10.7c8.92,-52.01 15.48,-31.87 -22.31,-68.7c-2.86,-2.79 -4.45,-6.18 -4.96,-9.63c-0.37,-2.62 -0.13,-5.26 0.67,-7.7c0.8,-2.44 2.15,-4.72 3.99,-6.6c2.46,-2.53 5.76,-4.34 9.69,-4.91c52.2,-7.59 35.08,4.86 58.43,-42.45c1.76,-3.56 4.49,-6.13 7.64,-7.68c2.39,-1.18 4.97,-1.77 7.52,-1.77c2.54,0 5.13,0.59 7.52,1.77c3.15,1.56 5.88,4.12 7.64,7.68l-0.04,0zm3.13,43.82l-18.08,-36.59l-0.33,0l-18.08,36.59c-1.23,2.5 -3.04,4.62 -5.22,6.2c-2.19,1.59 -4.76,2.65 -7.5,3.05l-40.39,5.87l-0.1,0.31l29.2,28.51c2,1.94 3.46,4.32 4.29,6.88c0.83,2.57 1.06,5.35 0.59,8.08l-6.89,40.23l0.26,0.19l36.13,-18.96c2.49,-1.31 5.2,-1.96 7.87,-1.96c2.67,0 5.38,0.65 7.87,1.96l36.13,18.96l0.27,-0.17l-6.89,-40.26c-0.47,-2.72 -0.25,-5.5 0.59,-8.08c0.83,-2.55 2.29,-4.93 4.29,-6.88l29.19,-28.48l0,-0.19l-0.08,-0.13l-40.37,-5.89c-2.77,-0.4 -5.33,-1.46 -7.52,-3.05c-2.18,-1.58 -3.99,-3.7 -5.22,-6.2l-0.01,0.01z" class="fil0"/>
  <path id="svg_8" d="m92.749969,661.866663l90.26,0c2.4,0 4.56,1.01 6.08,2.63l44.38,44.38c1.63,1.63 2.44,3.76 2.44,5.89l0,96.21c0,4.6 -3.73,8.33 -8.33,8.33l-134.83,0c-4.6,0 -8.33,-3.73 -8.33,-8.33l0,-140.78c0,-4.6 3.73,-8.33 8.33,-8.33zm39.46,99.37l53.44,0l0,8.33l-53.44,0l0,-8.33zm0,-17.43l53.44,0l0,8.33l-53.44,0l0,-8.33zm65.85,86.97l0,16.83c0,4.6 -3.73,8.33 -8.33,8.33l-134.83,0c-4.6,0 -8.33,-3.73 -8.33,-8.33l0,-140.78c0,-4.6 3.73,-8.33 8.33,-8.33l18.8,0l0,16.67l-10.46,0l0,124.11l118.16,0l0,-8.5l16.67,0l-0.01,0zm21.19,-105.63l-41.63,0c-2.76,0 -5,-2.24 -5,-5l0,-41.63l-71.54,0l0,124.11l118.16,0l0,-77.48l0.01,0zm-36.63,-10l32.89,0l-32.89,-32.89l0,32.89z" class="fil1"/>
  <g id="svg_9">
   <path id="svg_10" d="m93.474962,1774.085301c32.4,0 64.84,0.17 97.23,0.03c5.37,-0.03 8.17,-0.04 11.41,3.02c3.5,3.31 3.52,6.3 3.51,12.45l0.04,153.76c0,4.54 -0.92,8.2 -2.44,10.95c-1.66,3.01 -4,5.04 -6.76,6.13l-0.75,0.26c-2.6,0.84 -5.36,0.79 -8.11,-0.08c-2.89,-0.92 -5.72,-2.79 -8.2,-5.48l-38.16,-43.8l-38.28,43.92c-2.38,2.6 -5.13,4.3 -7.92,5.11l-0.56,0.14c-2.88,0.72 -5.74,0.52 -8.36,-0.57l-0.06,-0.02c-2.68,-1.09 -4.98,-3.1 -6.63,-5.93c-1.63,-2.78 -2.62,-6.36 -2.62,-10.61l0,-152.98c0,-6.26 -0.01,-9.4 3.44,-12.85c3.43,-3.43 6.57,-3.44 12.85,-3.44l0.38,0l-0.01,-0.01zm95.53,16.68l-95.52,0l0,150.08l35.89,-41.22c4.02,-4.62 7.96,-6.61 12.46,-6.4c4.39,0.21 7.82,2.48 11.25,6.41l35.91,41.21l0,-150.08l0.01,0zm-47.8,119.18l-0.11,-0.12l0.11,0.12zm0.02,-0.01c0.15,-0.06 0.19,-0.1 -0.13,-0.11l0.13,0.11zm-49.19,-120.63c-0.82,0.82 -0.25,0.52 0.41,0.41c0.11,-0.65 0.41,-1.22 -0.41,-0.41z" class="fil1"/>
   <path id="svg_11" d="m141.234962,1806.275301c4.18,0 7.98,1.7 10.72,4.44l0.3,0.33c2.56,2.71 4.14,6.37 4.14,10.38c0,4.18 -1.7,7.98 -4.44,10.72c-2.74,2.74 -6.54,4.44 -10.72,4.44c-4.17,0 -7.96,-1.7 -10.7,-4.45c-2.75,-2.73 -4.45,-6.52 -4.45,-10.7c0,-4.17 1.7,-7.95 4.44,-10.7c2.77,-2.76 6.56,-4.46 10.72,-4.46l-0.01,0zm3.66,11.51c-0.93,-0.93 -2.22,-1.51 -3.65,-1.51c-1.43,0 -2.73,0.57 -3.65,1.49c-0.94,0.94 -1.51,2.23 -1.51,3.67c0,1.42 0.58,2.72 1.51,3.65c0.92,0.94 2.21,1.51 3.65,1.51c1.42,0 2.72,-0.58 3.65,-1.51c0.93,-0.93 1.51,-2.22 1.51,-3.65c0,-1.34 -0.5,-2.56 -1.31,-3.46l-0.2,-0.19z" class="fil1"/>
  </g>
  <path id="svg_12" d="m163.156315,1529.765301c-2.09,-4.81 -4.85,-11.16 -9,-19.57c-0.73,-1.48 -1.66,-2.76 -2.72,-3.83c-1.12,-1.13 -2.41,-2.04 -3.79,-2.72c-1,-0.5 -2.06,-0.87 -3.14,-1.13c-1.08,-0.26 -2.19,-0.38 -3.28,-0.38c-1.09,0 -2.2,0.13 -3.28,0.38c-1.07,0.25 -2.13,0.63 -3.13,1.13c-1.38,0.68 -2.67,1.59 -3.79,2.72c-1.06,1.07 -2,2.36 -2.72,3.84c-4.15,8.41 -6.9,14.75 -8.99,19.56c-3.42,7.87 -5.13,11.81 -8.29,14.1c-3.15,2.3 -7.43,2.71 -15.95,3.52c-5.21,0.5 -12.07,1.15 -21.41,2.51c-1.64,0.24 -3.15,0.72 -4.5,1.41c-1.43,0.72 -2.69,1.67 -3.77,2.78c-0.77,0.79 -1.45,1.68 -2.02,2.61c-0.57,0.95 -1.04,1.98 -1.39,3.03c-0.34,1.04 -0.57,2.14 -0.66,3.26c-0.09,1.1 -0.07,2.22 0.09,3.33c0.22,1.51 0.69,3.02 1.42,4.43c0.69,1.35 1.63,2.63 2.81,3.79c6.7,6.53 11.89,11.12 15.83,14.6c6.43,5.69 9.65,8.53 10.86,12.24c1.2,3.71 0.27,7.91 -1.59,16.26c-1.14,5.13 -2.65,11.88 -4.23,21.14c-0.27,1.62 -0.28,3.19 -0.05,4.67l0,0.04c0.25,1.56 0.76,3.06 1.48,4.42c0.52,1 1.16,1.93 1.87,2.75c0.72,0.83 1.52,1.58 2.38,2.21l0.06,0.04c0.89,0.65 1.87,1.2 2.91,1.63c1.01,0.43 2.07,0.74 3.17,0.93c1.5,0.26 3.07,0.28 4.63,0.03c1.52,-0.25 3.03,-0.74 4.5,-1.51l33.06,-17.38c0.17,-0.11 0.38,-0.17 0.6,-0.17l0.23,0c0.18,0 0.36,0.04 0.52,0.13l33.14,17.42c1.46,0.77 2.97,1.26 4.47,1.51c1.57,0.25 3.15,0.23 4.66,-0.03c1.1,-0.19 2.17,-0.51 3.17,-0.93c1.02,-0.43 2,-0.99 2.91,-1.64c0.88,-0.63 1.7,-1.39 2.43,-2.24c0.72,-0.83 1.36,-1.76 1.89,-2.75c0.72,-1.36 1.22,-2.86 1.47,-4.43c0.23,-1.48 0.23,-3.06 -0.04,-4.67l0,-0.03c-1.59,-9.27 -3.09,-16.03 -4.24,-21.16c-1.85,-8.35 -2.79,-12.54 -1.58,-16.25c1.21,-3.72 4.43,-6.56 10.85,-12.24c3.94,-3.48 9.13,-8.07 15.83,-14.6c1.19,-1.16 2.13,-2.45 2.82,-3.8c0.72,-1.41 1.2,-2.93 1.41,-4.45c0.15,-1.07 0.18,-2.18 0.09,-3.28c-0.09,-1.1 -0.31,-2.18 -0.63,-3.22l-0.02,-0.06c-0.34,-1.05 -0.81,-2.07 -1.39,-3.02c-0.57,-0.95 -1.25,-1.85 -2.03,-2.65c-1.07,-1.09 -2.33,-2.02 -3.75,-2.74c-1.35,-0.68 -2.86,-1.17 -4.51,-1.41c-9.34,-1.36 -16.2,-2.02 -21.41,-2.52c-8.53,-0.81 -12.8,-1.22 -15.96,-3.52c-3.15,-2.29 -4.85,-6.21 -8.25,-14.03l-0.03,-0.07l-0.02,0.01zm-20.75,-13.93l16.65,33.69c0.53,1.06 1.17,2.05 1.91,2.93c0.74,0.89 1.61,1.69 2.55,2.37c0.94,0.68 1.97,1.25 3.06,1.69c1.06,0.43 2.2,0.74 3.36,0.91l37.17,5.43c0.32,0.05 0.63,0.24 0.81,0.54l0.06,0.09c0.11,0.17 0.17,0.36 0.18,0.57l0.01,0.18c0.01,0.3 -0.11,0.61 -0.34,0.84l-26.87,26.22c-0.84,0.82 -1.58,1.74 -2.19,2.7c-0.62,1 -1.11,2.06 -1.48,3.17c-0.36,1.11 -0.59,2.26 -0.67,3.42c-0.08,1.15 -0.03,2.33 0.17,3.48l6.34,37.06c0.07,0.44 -0.12,0.91 -0.52,1.15l-0.25,0.15c-0.33,0.2 -0.75,0.22 -1.11,0.04l-33.27,-17.46c-1.05,-0.55 -2.15,-0.97 -3.27,-1.25c-1.13,-0.28 -2.29,-0.42 -3.44,-0.42c-1.14,0 -2.28,0.14 -3.4,0.41l-0.04,0.01c-1.13,0.28 -2.24,0.7 -3.29,1.25l-33.16,17.4c-0.38,0.26 -0.89,0.26 -1.29,-0.02l-0.24,-0.17c-0.34,-0.24 -0.53,-0.67 -0.46,-1.11l6.34,-37.04c0.2,-1.15 0.25,-2.32 0.17,-3.47c-0.08,-1.15 -0.3,-2.28 -0.65,-3.37l-0.02,-0.06c-0.36,-1.09 -0.85,-2.17 -1.47,-3.16c-0.61,-0.98 -1.35,-1.9 -2.19,-2.72l-26.88,-26.25c-0.3,-0.3 -0.42,-0.75 -0.28,-1.17l0.07,-0.22c0.11,-0.43 0.47,-0.76 0.93,-0.83l37.19,-5.41c1.15,-0.17 2.28,-0.48 3.35,-0.91c1.08,-0.44 2.11,-1.01 3.05,-1.69c0.93,-0.68 1.8,-1.48 2.56,-2.38c0.74,-0.88 1.39,-1.86 1.91,-2.92l16.61,-33.62c0.17,-0.41 0.58,-0.7 1.05,-0.7l0.3,0c0.41,0 0.81,0.23 1.01,0.63l-0.03,0.02z" class="fil0"/>
  <g id="svg_13">
   <path id="svg_14" d="m125.634968,2127.868406c-2.76,0 -5,-2.24 -5,-5c0,-2.76 2.24,-5 5,-5l67.29,0c2.76,0 5,2.24 5,5c0,2.76 -2.24,5 -5,5l-67.29,0z" class="fil1"/>
   <path id="svg_15" d="m125.634968,2153.168406c-2.76,0 -5,-2.24 -5,-5c0,-2.76 2.24,-5 5,-5l67.29,0c2.76,0 5,2.24 5,5c0,2.76 -2.24,5 -5,5l-67.29,0z" class="fil1"/>
   <path id="svg_16" d="m125.634968,2100.368406c-2.76,0 -5,-2.24 -5,-5c0,-2.76 2.24,-5 5,-5l18.41,0c2.76,0 5,2.24 5,5c0,2.76 -2.24,5 -5,5l-18.41,0z" class="fil1"/>
   <path id="svg_17" d="m181.814968,2035.958406l50.32,49.79c1.31,1.3 1.96,3 1.96,4.71l0.02,74.56c0,6.48 -2.66,12.38 -6.93,16.65c-4.27,4.27 -10.17,6.93 -16.65,6.93l-102.91,0c-6.48,0 -12.39,-2.65 -16.66,-6.93c-4.27,-4.27 -6.93,-10.17 -6.93,-16.66l0,-107.79c0,-6.48 2.65,-12.39 6.93,-16.66c4.27,-4.27 10.17,-6.93 16.66,-6.93l69.14,0c2.02,0 3.82,0.89 5.05,2.31l0,0.02zm38.96,57.23l-46.72,-46.22l-66.43,0c-2.81,0 -5.38,1.16 -7.23,3.01c-1.85,1.85 -3.01,4.42 -3.01,7.23l0,107.79c0,2.81 1.16,5.38 3.01,7.23c1.85,1.85 4.42,3.01 7.23,3.01l102.91,0c2.81,0 5.37,-1.16 7.23,-3.02c1.86,-1.86 3.02,-4.42 3.02,-7.23l0,-71.81l-0.01,0.01z" class="fil1"/>
   <path id="svg_18" d="m181.594968,2036.588406l49.81,49.81c2.6,2.6 2.6,6.82 0,9.43c-1.3,1.3 -3.01,1.95 -4.71,1.95l-33.05,0c-6.48,0 -12.38,-2.66 -16.65,-6.93c-4.27,-4.27 -6.93,-10.17 -6.93,-16.65l0,-33.05c0,-3.68 2.99,-6.67 6.67,-6.67c1.91,0 3.64,0.81 4.86,2.1l0,0.01zm29.01,47.85l-27.2,-27.2l0,16.95c0,2.81 1.16,5.37 3.02,7.23c1.86,1.86 4.42,3.02 7.23,3.02l16.95,0z" class="fil1"/>
   <path id="svg_19" d="m184.434968,2205.178406c1.35,-3.41 5.22,-5.07 8.62,-3.72c3.41,1.35 5.07,5.22 3.72,8.62c-1.75,4.4 -4.81,8.18 -8.69,10.82c-3.78,2.59 -8.35,4.11 -13.22,4.11l-102.91,0c-6.48,0 -12.39,-2.65 -16.66,-6.93c-4.27,-4.27 -6.93,-10.17 -6.93,-16.66l0,-107.79c0,-4.28 1.17,-8.32 3.21,-11.81c2.1,-3.6 5.14,-6.61 8.76,-8.67c3.19,-1.81 7.26,-0.69 9.07,2.5c1.81,3.19 0.69,7.26 -2.5,9.07c-1.58,0.9 -2.91,2.21 -3.81,3.78c-0.87,1.5 -1.38,3.26 -1.38,5.15l0,107.79c0,2.81 1.16,5.38 3.01,7.23c1.85,1.85 4.42,3.01 7.23,3.01l102.91,0c2.13,0 4.1,-0.65 5.72,-1.76c1.72,-1.15 3.07,-2.81 3.83,-4.74l0.02,0z" class="fil1"/>
  </g>
  <g id="svg_20">
   <path id="svg_21" d="m125.14497,2589.268406c17.19,0 32.75,6.98 44.02,18.24l0.35,0.38c11.06,11.25 17.89,26.67 17.89,43.64c0,17.18 -6.98,32.75 -18.24,44.02c-11.26,11.26 -26.83,18.24 -44.02,18.24c-17.16,0 -32.73,-6.98 -44.01,-18.25c-11.28,-11.25 -18.25,-26.82 -18.25,-44c0,-17.16 6.97,-32.72 18.24,-44l0.04,-0.04c11.28,-11.26 26.83,-18.23 43.98,-18.23zm34.59,27.67c-8.85,-8.85 -21.08,-14.33 -34.59,-14.33c-13.53,0 -25.76,5.47 -34.59,14.3c-8.86,8.85 -14.33,21.09 -14.33,34.62c0,13.51 5.48,25.74 14.33,34.59c8.83,8.86 21.07,14.33 34.59,14.33c13.51,0 25.74,-5.48 34.59,-14.33c8.85,-8.85 14.33,-21.08 14.33,-34.59c0,-13.38 -5.35,-25.49 -14.01,-34.3l-0.31,-0.3l-0.01,0.01z" class="fil1"/>
   <path id="svg_22" d="m158.26497,2696.978406c-2.6,-2.6 -2.6,-6.82 0,-9.43c2.6,-2.6 6.82,-2.6 9.43,0l49.95,49.96c2.6,2.6 2.6,6.82 0,9.43c-2.6,2.6 -6.82,2.6 -9.43,0l-49.95,-49.96z" class="fil1"/>
  </g>
  <g id="svg_23">
   <path id="svg_24" d="m110.394968,2310.738406c12.87,0 24.55,5.22 33,13.67c8.44,8.47 13.67,20.14 13.67,33c0,12.87 -5.22,24.55 -13.67,33c-8.45,8.45 -20.12,13.67 -33,13.67c-12.86,0 -24.53,-5.23 -32.98,-13.69c-8.46,-8.44 -13.69,-20.11 -13.69,-32.98c0,-12.85 5.23,-24.52 13.67,-32.97c8.48,-8.47 20.14,-13.7 33,-13.7zm23.58,23.1c-6.04,-6.03 -14.38,-9.76 -23.58,-9.76c-9.22,0 -17.56,3.72 -23.57,9.74c-6.04,6.03 -9.76,14.37 -9.76,23.59c0,9.2 3.73,17.54 9.76,23.57c6.01,6.04 14.35,9.76 23.57,9.76c9.2,0 17.54,-3.73 23.57,-9.76c6.03,-6.03 9.76,-14.37 9.76,-23.57c0,-9.22 -3.72,-17.56 -9.75,-23.57z" class="fil1"/>
   <path id="svg_25" d="m39.564968,2474.888406c0,3.68 -2.99,6.67 -6.67,6.67c-3.68,0 -6.67,-2.99 -6.67,-6.67c0,-23.21 9.43,-44.24 24.66,-59.49l0.04,-0.04c15.24,-15.22 36.27,-24.64 59.47,-24.64c15.06,0 29.57,4.04 42.2,11.36c12.62,7.32 23.34,17.9 30.84,30.99c1.82,3.19 0.72,7.27 -2.48,9.09c-3.19,1.82 -7.27,0.72 -9.09,-2.48c-6.32,-11.03 -15.34,-19.94 -25.94,-26.09c-10.59,-6.14 -22.81,-9.54 -35.53,-9.54c-19.58,0 -37.29,7.92 -50.09,20.72c-12.82,12.82 -20.74,30.53 -20.74,50.11l0,0.01z" class="fil1"/>
   <path id="svg_26" d="m118.064968,2316.628406c1.91,-9.71 7.14,-18.08 14.36,-24.03c7.23,-5.94 16.45,-9.46 26.34,-9.46c11.42,0 21.79,4.65 29.31,12.16c7.53,7.54 12.18,17.91 12.18,29.33c0,11.45 -4.65,21.83 -12.16,29.33c-7.5,7.5 -17.89,12.15 -29.33,12.15c-1.69,0 -3.51,-0.13 -5.41,-0.38c-1.86,-0.24 -3.65,-0.59 -5.33,-1.04l3.44,-12.87c1.24,0.33 2.46,0.58 3.6,0.73c1.1,0.15 2.34,0.22 3.69,0.22c7.77,0 14.82,-3.15 19.91,-8.24c5.09,-5.09 8.24,-12.14 8.24,-19.91c0,-7.8 -3.15,-14.84 -8.22,-19.91c-5.09,-5.1 -12.14,-8.24 -19.93,-8.24c-6.75,0 -13.02,2.37 -17.9,6.39c-4.89,4.02 -8.43,9.71 -9.73,16.32l-13.07,-2.55l0.01,0z" class="fil1"/>
   <path id="svg_27" d="m156.324968,2366.128406c-3.67,0.1 -6.72,-2.8 -6.82,-6.46c-0.1,-3.67 2.8,-6.72 6.46,-6.82l2.8,-0.05c15.31,-0.03 29.84,4.69 41.93,12.98c12.07,8.29 21.71,20.16 27.22,34.46c1.32,3.42 -0.38,7.27 -3.8,8.59c-3.42,1.32 -7.27,-0.38 -8.59,-3.8c-4.52,-11.72 -12.42,-21.46 -22.33,-28.26c-9.9,-6.8 -21.83,-10.67 -34.42,-10.67l-2.44,0.02l-0.01,0.01z" class="fil1"/>
   <path id="svg_28" d="m145.894968,2470.648406c-2.6,-2.59 -2.61,-6.8 -0.02,-9.4c2.59,-2.6 6.8,-2.61 9.4,-0.02l26.86,26.85l62.74,-62.74c2.6,-2.6 6.82,-2.6 9.43,0c2.6,2.6 2.6,6.82 0,9.43l-67.44,67.44c-2.6,2.58 -6.8,2.58 -9.4,0l-31.56,-31.56l-0.01,0z" class="fil1"/>
  </g>
  <g id="svg_29">
   <path id="svg_30" d="m237.984966,3050.578406c3.68,0 6.67,2.99 6.67,6.67c0,3.68 -2.99,6.67 -6.67,6.67l-193.49,0c-3.68,0 -6.67,-2.99 -6.67,-6.67c0,-3.68 2.99,-6.67 6.67,-6.67l193.49,0z" class="fil1"/>
   <path id="svg_31" d="m221.834966,3063.918406l-161.98,0c-3.68,0 -6.67,-2.99 -6.67,-6.67l0,-49.22c0,-6.49 2.66,-12.4 6.93,-16.67c4.27,-4.27 10.18,-6.93 16.67,-6.93l128.12,0c6.47,0 12.37,2.66 16.65,6.93c4.3,4.27 6.95,10.18 6.95,16.67l0,49.22c0,3.68 -2.99,6.67 -6.67,6.67zm-155.31,-13.34l148.64,0l0,-42.55c0,-2.81 -1.16,-5.39 -3.02,-7.24c-1.85,-1.86 -4.42,-3.02 -7.24,-3.02l-128.12,0c-2.81,0 -5.39,1.16 -7.24,3.02c-1.86,1.86 -3.02,4.43 -3.02,7.24l0,42.55z" class="fil1"/>
   <path id="svg_32" d="m95.954966,2984.428406l89.26,0l0,-36.82c0,-2.6 -1.07,-4.98 -2.79,-6.69c-1.72,-1.72 -4.09,-2.78 -6.69,-2.78l-70.31,0c-2.61,0 -4.99,1.07 -6.7,2.77c-1.7,1.72 -2.77,4.1 -2.77,6.7l0,36.82zm95.93,13.34l-102.6,0c-3.68,0 -6.67,-2.99 -6.67,-6.67l0,-43.49c0,-6.26 2.57,-11.96 6.7,-16.09c4.16,-4.15 9.86,-6.72 16.12,-6.72l70.31,0c6.28,0 11.98,2.57 16.11,6.7c4.13,4.13 6.7,9.84 6.7,16.12l0,43.49c0,3.68 -2.99,6.67 -6.67,6.67l0,-0.01z" class="fil1"/>
   <path id="svg_33" d="m140.954966,2899.728406c2.72,-0.13 4.94,-0.68 6.59,-1.58c1.71,-0.93 2.85,-2.33 3.33,-4.11c0.64,-2.33 0.39,-5.43 -0.83,-9.19c-1.53,-4.68 -4.51,-10.08 -9.09,-16.01c-4.58,5.93 -7.56,11.33 -9.09,16.01c-1.22,3.75 -1.47,6.85 -0.83,9.19c0.49,1.78 1.63,3.18 3.34,4.11c1.65,0.9 3.86,1.44 6.59,1.58l-0.01,0zm12.95,10.09c-3.49,1.9 -7.76,3.01 -12.68,3.2l-0.52,0c-4.93,-0.19 -9.19,-1.3 -12.68,-3.2c-4.98,-2.7 -8.31,-6.89 -9.8,-12.29c-1.33,-4.85 -1.06,-10.54 0.98,-16.79c2.57,-7.87 8.03,-16.94 16.75,-26.65l0.55,-0.56c2.73,-2.46 6.94,-2.24 9.4,0.5c8.75,9.73 14.23,18.84 16.8,26.71c2.04,6.26 2.31,11.95 0.98,16.79c-1.48,5.4 -4.81,9.59 -9.79,12.29l0.01,0z" class="fil1"/>
   <path id="svg_34" d="m134.284966,2906.378406c0,-3.68 2.99,-6.67 6.67,-6.67c3.68,0 6.67,2.99 6.67,6.67l0,22.01c0,3.68 -2.99,6.67 -6.67,6.67c-3.68,0 -6.67,-2.99 -6.67,-6.67l0,-22.01z" class="fil1"/>
  </g>
  <g id="svg_35">
   <path id="svg_36" d="m57.634969,1205.905301l109.94,0c6.68,0 12.77,2.75 17.2,7.16l0.04,0.04c4.41,4.43 7.15,10.51 7.15,17.19l0,74.49c0,6.68 -2.75,12.77 -7.17,17.19l-0.04,0.04c-4.43,4.41 -10.51,7.15 -17.18,7.15l-57.42,0l-37.81,36.93c-2.63,2.56 -6.85,2.5 -9.41,-0.13c-1.26,-1.29 -1.88,-2.96 -1.88,-4.64l-0.02,-32.17l-3.41,0c-6.68,0 -12.77,-2.75 -17.2,-7.16l-0.04,-0.04c-4.41,-4.43 -7.15,-10.52 -7.15,-17.19l0,-74.49c0,-6.69 2.74,-12.78 7.16,-17.2c4.44,-4.44 10.53,-7.18 17.22,-7.18l0.02,0.01zm109.92,13.33l-109.94,0c-3.04,0 -5.81,1.24 -7.81,3.23c-1.99,2 -3.23,4.78 -3.23,7.81l0,74.49c0,3.05 1.24,5.81 3.22,7.8c2.01,2.01 4.77,3.25 7.82,3.25l10.03,0c3.57,0.02 6.53,2.87 6.64,6.46l0.07,1.54l0,21.69c9.37,-9.15 18.69,-18.48 28.16,-27.5c1.22,-1.35 2.98,-2.2 4.94,-2.2l60.09,0c3.04,0 5.81,-1.24 7.79,-3.23c2.01,-2.01 3.25,-4.77 3.25,-7.81l0,-74.49c0,-3.05 -1.24,-5.81 -3.22,-7.8c-2.01,-2.01 -4.77,-3.25 -7.82,-3.25l0.01,0.01z" class="fil1"/>
   <path id="svg_37" d="m212.594969,1263.995301c-3.68,0 -6.67,-2.99 -6.67,-6.67c0,-3.68 2.99,-6.67 6.67,-6.67l12.26,0c6.7,0 12.81,2.75 17.22,7.16c4.42,4.42 7.17,10.52 7.17,17.22l0,74.49c0,6.68 -2.75,12.77 -7.16,17.2l-0.04,0.04c-4.43,4.41 -10.52,7.15 -17.19,7.15l-3.75,0l0,20.42c0,3.68 -2.99,6.67 -6.67,6.67c-1.85,0 -3.53,-0.76 -4.74,-1.98l-27.89,-25.11l-57.47,0c-4.89,0 -9.47,-1.47 -13.31,-3.98c-3.93,-2.57 -7.09,-6.29 -9.02,-10.67c-1.46,-3.36 0.07,-7.29 3.44,-8.75c3.36,-1.46 7.29,0.07 8.75,3.44c0.86,1.96 2.31,3.65 4.12,4.83c1.73,1.13 3.8,1.8 6.02,1.8l60.05,0c1.61,0.04 3.23,0.62 4.5,1.8c6.21,5.73 12.59,11.34 18.87,17l0,-12.13c0,-3.68 2.99,-6.67 6.67,-6.67l10.42,0c3.05,0 5.81,-1.24 7.8,-3.22c2.01,-2.01 3.25,-4.77 3.25,-7.82l0,-74.49c0,-3.02 -1.25,-5.79 -3.25,-7.8c-2,-2 -4.76,-3.25 -7.79,-3.25l-12.26,0l0,-0.01z" class="fil1"/>
  </g>
  <g id="svg_38">
   <path id="svg_39" d="m181.809972,945.775301l50.32,49.79c1.31,1.3 1.96,3 1.96,4.71l0.02,74.56c0,6.48 -2.66,12.38 -6.93,16.65c-4.27,4.27 -10.17,6.93 -16.65,6.93l-102.91,0c-6.48,0 -12.39,-2.65 -16.66,-6.93c-4.27,-4.27 -6.93,-10.17 -6.93,-16.66l0,-107.79c0,-6.48 2.65,-12.39 6.93,-16.66c4.27,-4.27 10.17,-6.93 16.66,-6.93l69.14,0c2.02,0 3.82,0.89 5.05,2.31l0,0.02zm38.96,57.23l-46.72,-46.22l-66.43,0c-2.81,0 -5.38,1.16 -7.23,3.01c-1.85,1.85 -3.01,4.42 -3.01,7.23l0,107.79c0,2.81 1.16,5.38 3.01,7.23c1.85,1.85 4.42,3.01 7.23,3.01l102.91,0c2.81,0 5.37,-1.16 7.23,-3.02c1.86,-1.86 3.02,-4.42 3.02,-7.23l0,-71.81l-0.01,0.01z" class="fil1"/>
   <path id="svg_40" d="m181.589972,946.405301l49.81,49.81c2.6,2.6 2.6,6.82 0,9.43c-1.3,1.3 -3.01,1.95 -4.71,1.95l-33.05,0c-6.48,0 -12.38,-2.66 -16.65,-6.93c-4.27,-4.27 -6.93,-10.17 -6.93,-16.65l0,-33.05c0,-3.68 2.99,-6.67 6.67,-6.67c1.91,0 3.64,0.81 4.86,2.1l0,0.01zm29.01,47.85l-27.2,-27.2l0,16.95c0,2.81 1.16,5.37 3.02,7.23c1.86,1.86 4.42,3.02 7.23,3.02l16.95,0z" class="fil1"/>
   <path id="svg_41" d="m184.439972,1114.995301c1.35,-3.41 5.22,-5.07 8.62,-3.72c3.41,1.35 5.07,5.22 3.72,8.62c-1.75,4.4 -4.81,8.18 -8.69,10.82c-3.78,2.59 -8.35,4.11 -13.22,4.11l-102.91,0c-6.48,0 -12.39,-2.65 -16.66,-6.93c-4.27,-4.27 -6.93,-10.17 -6.93,-16.66l0,-107.79c0,-4.28 1.17,-8.32 3.21,-11.81c2.1,-3.6 5.14,-6.61 8.76,-8.67c3.19,-1.81 7.26,-0.69 9.07,2.5c1.81,3.19 0.69,7.26 -2.5,9.07c-1.58,0.9 -2.91,2.21 -3.81,3.78c-0.87,1.5 -1.38,3.26 -1.38,5.15l0,107.79c0,2.81 1.16,5.38 3.01,7.23c1.85,1.85 4.42,3.01 7.23,3.01l102.91,0c2.13,0 4.1,-0.65 5.72,-1.76c1.72,-1.15 3.07,-2.81 3.83,-4.74l0.02,0z" class="fil1"/>
  </g>
  <g id="svg_42">
   <path id="svg_43" d="m68.609972,3158.473133l145.26,0c5.04,0 9.63,2.06 12.94,5.38c3.32,3.32 5.38,7.91 5.38,12.94l0,145.26c0,5.01 -2.06,9.59 -5.38,12.92c-3.35,3.34 -7.93,5.41 -12.94,5.41l-145.26,0c-5.04,0 -9.63,-2.06 -12.94,-5.38c-3.31,-3.31 -5.38,-7.9 -5.38,-12.94l0,-145.26c0,-5.02 2.06,-9.6 5.38,-12.92c3.34,-3.34 7.92,-5.4 12.94,-5.4l0,-0.01zm145.26,13.35l-145.26,0c-1.37,0 -2.63,0.56 -3.53,1.45c-0.89,0.9 -1.45,2.16 -1.45,3.53l0,145.26c0,1.37 0.56,2.61 1.46,3.52c0.9,0.9 2.15,1.47 3.52,1.47l145.26,0c1.38,0 2.63,-0.56 3.52,-1.44c0.91,-0.91 1.47,-2.16 1.47,-3.54l0,-145.26c0,-1.37 -0.57,-2.62 -1.47,-3.52c-0.9,-0.9 -2.15,-1.46 -3.52,-1.46l0,-0.01z" class="fil1"/>
   <path id="svg_44" d="m118.009972,3193.623133c6.09,0 11.61,2.47 15.6,6.46c3.99,3.99 6.46,9.51 6.46,15.6c0,6.09 -2.47,11.61 -6.46,15.6c-3.99,3.99 -9.51,6.46 -15.6,6.46c-6.09,0 -11.61,-2.47 -15.6,-6.46c-3.99,-3.99 -6.46,-9.51 -6.46,-15.6c0,-6.09 2.47,-11.61 6.46,-15.6c3.99,-3.99 9.51,-6.46 15.6,-6.46zm8.53,13.53c-2.18,-2.18 -5.2,-3.53 -8.53,-3.53c-3.33,0 -6.35,1.35 -8.53,3.53c-2.18,2.18 -3.53,5.2 -3.53,8.53c0,3.33 1.35,6.35 3.53,8.53c2.18,2.18 5.2,3.53 8.53,3.53c3.33,0 6.35,-1.35 8.53,-3.53c2.18,-2.18 3.53,-5.2 3.53,-8.53c0,-3.33 -1.35,-6.35 -3.53,-8.53z" class="fil1"/>
   <path id="svg_45" d="m52.809972,3286.633133l39.33,-31.25c2.79,-2.22 6.81,-1.83 9.14,0.81l22.83,24.59l63.36,-48.89c2.67,-2.06 6.43,-1.77 8.75,0.55l33.98,33.85l-9.38,9.43l-29.85,-29.74l-63.33,48.87c-2.69,2.27 -6.72,2.05 -9.15,-0.56l-22.89,-24.66l-34.51,27.42l-8.28,-10.42z" class="fil1"/>
  </g>
  <g id="svg_46">
   <path id="svg_47" d="m70.709967,3694.288055l141.06,0c5.62,0 10.73,2.3 14.43,6c3.7,3.7 6,8.81 6,14.43l0,141.06c0,5.62 -2.3,10.73 -6,14.43c-3.7,3.7 -8.81,6 -14.43,6l-141.06,0c-5.62,0 -10.73,-2.3 -14.43,-6c-3.7,-3.7 -6,-8.81 -6,-14.43l0,-141.06c0,-5.62 2.3,-10.73 6,-14.43c3.7,-3.7 8.81,-6 14.43,-6zm141.06,13.34l-141.06,0c-1.94,0 -3.72,0.8 -5,2.08c-1.28,1.28 -2.08,3.06 -2.08,5l0,141.06c0,1.94 0.8,3.72 2.08,5c1.28,1.28 3.06,2.08 5,2.08l141.06,0c1.94,0 3.72,-0.8 5,-2.08c1.28,-1.28 2.08,-3.06 2.08,-5l0,-141.06c0,-1.94 -0.8,-3.72 -2.08,-5c-1.28,-1.28 -3.06,-2.08 -5,-2.08z" class="fil1"/>
   <path id="svg_48" d="m186.529967,3779.358055c-0.41,1.66 -1.28,3.22 -2.57,4.47l-14.55,14.19l3.44,20.04c0.3,1.77 0.09,3.53 -0.55,5.12c-0.65,1.59 -1.74,3.01 -3.19,4.06c-0.82,0.59 -1.7,1.04 -2.6,1.34c-0.96,0.31 -1.94,0.46 -2.91,0.46c-0.73,0 -1.49,-0.1 -2.25,-0.28c-0.72,-0.18 -1.43,-0.45 -2.12,-0.81l-17.99,-9.46l-17.99,9.46c-1.6,0.83 -3.35,1.19 -5.04,1.07c-1.7,-0.12 -3.38,-0.72 -4.84,-1.79c-1.45,-1.06 -2.55,-2.47 -3.19,-4.05c-0.65,-1.58 -0.85,-3.35 -0.55,-5.11l3.44,-20.04l-14.56,-14.19c-1.28,-1.25 -2.16,-2.81 -2.57,-4.47c-0.41,-1.66 -0.36,-3.45 0.19,-5.15c0.55,-1.69 1.56,-3.16 2.88,-4.27c1.3,-1.12 2.93,-1.86 4.71,-2.12l20.11,-2.93l9,-18.22c0.79,-1.6 2,-2.91 3.46,-3.82c1.47,-0.91 3.19,-1.42 4.94,-1.42c1.76,0 3.47,0.5 4.94,1.43c1.46,0.9 2.68,2.21 3.47,3.81l8.99,18.22l20.11,2.92c1.77,0.26 3.39,1 4.7,2.11c1.31,1.11 2.33,2.58 2.88,4.28c0.56,1.69 0.61,3.48 0.2,5.15l0.01,0zm-23.81,39.09l-3.27,-19.08c-0.26,-1.52 -0.14,-3.06 0.32,-4.48c0.46,-1.42 1.27,-2.74 2.38,-3.82l13.85,-13.5l-19.14,-2.78c-1.52,-0.22 -2.96,-0.82 -4.17,-1.69c-1.22,-0.9 -2.22,-2.07 -2.9,-3.44l-8.57,-17.35l-8.57,17.35c-0.67,1.37 -1.68,2.54 -2.9,3.43c-1.21,0.89 -2.65,1.49 -4.17,1.7l-19.14,2.78l13.86,13.5c1.1,1.07 1.91,2.39 2.37,3.82c0.46,1.42 0.59,2.96 0.33,4.48l-3.27,19.08l17.13,-9c1.38,-0.72 2.88,-1.09 4.37,-1.09c0.73,0 1.49,0.1 2.25,0.28c0.72,0.18 1.43,0.45 2.11,0.8l17.14,9.01l-0.01,0z" class="fil1"/>
   <path id="svg_49" d="m98.119967,3689.418055c0,-3.68 2.99,-6.67 6.67,-6.67c3.68,0 6.67,2.99 6.67,6.67l0,23.96c0,3.68 -2.99,6.67 -6.67,6.67c-3.68,0 -6.67,-2.99 -6.67,-6.67l0,-23.96z" class="fil1"/>
   <path id="svg_50" d="m134.569967,3689.418055c0,-3.68 2.99,-6.67 6.67,-6.67c3.68,0 6.67,2.99 6.67,6.67l0,23.96c0,3.68 -2.99,6.67 -6.67,6.67c-3.68,0 -6.67,-2.99 -6.67,-6.67l0,-23.96z" class="fil1"/>
   <path id="svg_51" d="m171.019967,3689.418055c0,-3.68 2.99,-6.67 6.67,-6.67c3.68,0 6.67,2.99 6.67,6.67l0,23.96c0,3.68 -2.99,6.67 -6.67,6.67c-3.68,0 -6.67,-2.99 -6.67,-6.67l0,-23.96z" class="fil1"/>
  </g>
  <g id="svg_52">
   <path id="svg_53" d="m83.284972,4123.690272c-2,-3.08 -1.13,-7.2 1.95,-9.2c3.08,-2 7.2,-1.13 9.2,1.95c0.57,0.88 1.53,1.67 2.74,2.24c1.37,0.65 3.02,1.02 4.83,1.02l101.24,0c3.75,0 6.29,-1.07 7.85,-2.78c1.99,-2.2 2.87,-5.74 2.87,-9.76l0,-97.49c0,-0.67 -0.33,-1.37 -0.87,-2l-0.2,-0.24c-0.82,-0.85 -2.02,-1.56 -3.46,-2c-3.51,-1.09 -5.46,-4.83 -4.37,-8.33c1.09,-3.51 4.83,-5.46 8.33,-4.37c3.7,1.16 6.95,3.19 9.36,5.79l0.39,0.41c2.62,3.01 4.16,6.7 4.16,10.74l0,97.49c0,7.09 -1.93,13.78 -6.36,18.67c-4.03,4.46 -9.83,7.22 -17.69,7.22l-101.24,0c-3.82,0 -7.46,-0.87 -10.58,-2.38c-3.41,-1.65 -6.25,-4.08 -8.14,-6.98l-0.01,0z" class="fil1"/>
   <path id="svg_54" d="m94.154972,4039.180272c-2.6,-2.6 -2.6,-6.82 0,-9.43c2.6,-2.6 6.82,-2.6 9.43,0l14.97,14.97l32.26,-32.26c2.6,-2.6 6.82,-2.6 9.43,0c2.6,2.6 2.6,6.82 0,9.43l-36.97,36.97c-2.6,2.6 -6.82,2.6 -9.43,0l-19.68,-19.68l-0.01,0z" class="fil1"/>
   <path id="svg_55" d="m178.014972,3976.560272c-3.58,-0.85 -5.8,-4.44 -4.95,-8.02c0.85,-3.58 4.44,-5.8 8.02,-4.95c4.46,1.06 8.39,3.65 11.18,7.17c2.74,3.46 4.38,7.81 4.38,12.49l0,101.04c0,5.54 -2.28,10.58 -5.94,14.25l-0.04,0.04c-3.67,3.66 -8.71,5.93 -14.24,5.93l-101.04,0c-5.56,0 -10.62,-2.28 -14.28,-5.94c-3.66,-3.66 -5.93,-8.72 -5.93,-14.28l0,-101.04c0,-4.24 1.36,-8.23 3.66,-11.52c2.35,-3.37 5.7,-6 9.6,-7.44c3.45,-1.26 7.28,0.51 8.54,3.96c1.26,3.45 -0.51,7.28 -3.96,8.54c-1.34,0.49 -2.49,1.39 -3.29,2.54c-0.76,1.09 -1.21,2.44 -1.21,3.92l0,101.04c0,1.88 0.78,3.61 2.02,4.85c1.24,1.24 2.97,2.02 4.85,2.02l101.04,0c1.9,0 3.62,-0.77 4.85,-2c1.26,-1.25 2.02,-2.98 2.02,-4.87l0,-101.04c0,-1.62 -0.55,-3.11 -1.46,-4.26c-0.94,-1.19 -2.28,-2.07 -3.83,-2.43l0.01,0z" class="fil1"/>
   <path id="svg_56" d="m106.324972,3945.920272l35.42,0c6.04,0 11.55,2.48 15.54,6.47c4.01,4.02 6.49,9.52 6.49,15.57c0,6.04 -2.48,11.55 -6.47,15.54c-4.02,4.01 -9.53,6.49 -15.57,6.49l-35.42,0c-6.05,0 -11.55,-2.48 -15.54,-6.47c-4.01,-4.02 -6.49,-9.53 -6.49,-15.57c0,-6.05 2.48,-11.55 6.47,-15.54c4.02,-4.01 9.52,-6.49 15.57,-6.49zm35.42,13.34l-35.42,0c-2.4,0 -4.58,0.98 -6.15,2.54c-1.56,1.57 -2.54,3.76 -2.54,6.15c0,2.4 0.98,4.58 2.54,6.15c1.57,1.56 3.76,2.54 6.15,2.54l35.42,0c2.4,0 4.58,-0.98 6.15,-2.54c1.56,-1.57 2.54,-3.76 2.54,-6.15c0,-2.4 -0.98,-4.58 -2.54,-6.15c-1.57,-1.56 -3.76,-2.54 -6.15,-2.54z" class="fil1"/>
  </g>
  <g id="svg_57">
   <path id="svg_58" d="m109.484969,4593.210272c-2.6,-2.6 -2.6,-6.82 0,-9.43c2.6,-2.6 6.82,-2.6 9.43,0l14.97,14.97l32.26,-32.26c2.6,-2.6 6.82,-2.6 9.43,0c2.6,2.6 2.6,6.82 0,9.43l-36.97,36.97c-2.6,2.6 -6.82,2.6 -9.43,0l-19.68,-19.68l-0.01,0z" class="fil1"/>
   <path id="svg_59" d="m193.344969,4530.590272c-3.58,-0.85 -5.8,-4.44 -4.95,-8.02c0.85,-3.58 4.44,-5.8 8.02,-4.95c4.46,1.06 8.39,3.65 11.18,7.17c2.74,3.46 4.38,7.81 4.38,12.49l0,101.04c0,5.54 -2.28,10.58 -5.94,14.25l-0.04,0.04c-3.67,3.66 -8.71,5.93 -14.24,5.93l-101.04,0c-5.56,0 -10.62,-2.28 -14.28,-5.94c-3.66,-3.66 -5.93,-8.72 -5.93,-14.28l0,-101.04c0,-4.24 1.36,-8.23 3.66,-11.52c2.35,-3.37 5.7,-6 9.6,-7.44c3.45,-1.26 7.28,0.51 8.54,3.96c1.26,3.45 -0.51,7.28 -3.96,8.54c-1.34,0.49 -2.49,1.39 -3.29,2.54c-0.76,1.09 -1.21,2.44 -1.21,3.92l0,101.04c0,1.88 0.78,3.61 2.02,4.85c1.24,1.24 2.97,2.02 4.85,2.02l101.04,0c1.9,0 3.62,-0.77 4.85,-2c1.26,-1.25 2.02,-2.98 2.02,-4.87l0,-101.04c0,-1.62 -0.55,-3.11 -1.46,-4.26c-0.94,-1.19 -2.28,-2.07 -3.83,-2.43l0.01,0z" class="fil1"/>
   <path id="svg_60" d="m121.654969,4499.950272l35.42,0c6.04,0 11.55,2.48 15.54,6.47c4.01,4.02 6.49,9.52 6.49,15.57c0,6.04 -2.48,11.55 -6.47,15.54c-4.02,4.01 -9.53,6.49 -15.57,6.49l-35.42,0c-6.05,0 -11.55,-2.48 -15.54,-6.47c-4.01,-4.02 -6.49,-9.53 -6.49,-15.57c0,-6.05 2.48,-11.55 6.47,-15.54c4.02,-4.01 9.52,-6.49 15.57,-6.49zm35.42,13.34l-35.42,0c-2.4,0 -4.58,0.98 -6.15,2.54c-1.56,1.57 -2.54,3.76 -2.54,6.15c0,2.4 0.98,4.58 2.54,6.15c1.57,1.56 3.76,2.54 6.15,2.54l35.42,0c2.4,0 4.58,-0.98 6.15,-2.54c1.56,-1.57 2.54,-3.76 2.54,-6.15c0,-2.4 -0.98,-4.58 -2.54,-6.15c-1.57,-1.56 -3.76,-2.54 -6.15,-2.54z" class="fil1"/>
  </g>
  <g id="svg_61">
   <path id="svg_62" d="m94.544972,4312.990272c-2.6,-2.6 -2.6,-6.82 0,-9.43c2.6,-2.6 6.82,-2.6 9.43,0l14.97,14.97l32.26,-32.26c2.6,-2.6 6.82,-2.6 9.43,0c2.6,2.6 2.6,6.82 0,9.43l-36.97,36.97c-2.6,2.6 -6.82,2.6 -9.43,0l-19.68,-19.68l-0.01,0z" class="fil1"/>
   <path id="svg_63" d="m178.404972,4250.370272c-3.58,-0.85 -5.8,-4.44 -4.95,-8.02c0.85,-3.58 4.44,-5.8 8.02,-4.95c4.47,1.06 8.39,3.65 11.17,7.17c2.74,3.46 4.39,7.81 4.39,12.49l0,36.11c0,3.68 -2.99,6.67 -6.67,6.67c-3.68,0 -6.67,-2.99 -6.67,-6.67l0,-36.11c0,-1.62 -0.55,-3.1 -1.46,-4.26c-0.94,-1.19 -2.28,-2.07 -3.83,-2.43zm-45.81,114.61c3.68,0 6.67,2.99 6.67,6.67c0,3.68 -2.99,6.67 -6.67,6.67l-56.81,0c-5.56,0 -10.61,-2.28 -14.28,-5.94l-0.39,-0.43c-3.43,-3.63 -5.55,-8.51 -5.55,-13.85l0,-101.04c0,-4.24 1.36,-8.23 3.66,-11.52c2.35,-3.37 5.7,-6 9.6,-7.44c3.45,-1.26 7.28,0.51 8.54,3.96c1.26,3.45 -0.51,7.28 -3.96,8.54c-1.34,0.49 -2.49,1.39 -3.29,2.54c-0.76,1.09 -1.21,2.44 -1.21,3.92l0,101.04c0,1.78 0.67,3.4 1.77,4.61l0.25,0.24c1.24,1.24 2.97,2.02 4.85,2.02l56.81,0l0.01,0.01z" class="fil1"/>
   <path id="svg_64" d="m106.714972,4219.730272l35.42,0c6.04,0 11.55,2.48 15.54,6.47c4.01,4.02 6.49,9.52 6.49,15.57c0,6.04 -2.48,11.55 -6.47,15.54c-4.02,4.01 -9.53,6.49 -15.57,6.49l-35.42,0c-6.05,0 -11.55,-2.48 -15.54,-6.47c-4.01,-4.02 -6.49,-9.53 -6.49,-15.57c0,-6.05 2.48,-11.55 6.47,-15.54c4.02,-4.01 9.52,-6.49 15.57,-6.49zm35.42,13.34l-35.42,0c-2.4,0 -4.58,0.98 -6.15,2.54c-1.56,1.57 -2.54,3.76 -2.54,6.15c0,2.4 0.98,4.58 2.54,6.15c1.57,1.56 3.76,2.54 6.15,2.54l35.42,0c2.4,0 4.58,-0.98 6.15,-2.54c1.56,-1.57 2.54,-3.76 2.54,-6.15c0,-2.4 -0.98,-4.58 -2.54,-6.15c-1.57,-1.56 -3.76,-2.54 -6.15,-2.54z" class="fil1"/>
   <path id="svg_65" d="m202.924972,4321.080272c-6.3,0 -12.2,3.05 -16.09,8.16c-3.89,-5.11 -9.79,-8.16 -16.09,-8.16c-15.46,0 -28.66,18.75 -14.86,38.78c2.99,4.34 7.13,8.67 12.31,12.89c8.72,7.1 17.31,11.39 17.67,11.56c0.61,0.31 1.33,0.31 1.94,0c0.36,-0.18 8.95,-4.46 17.67,-11.56c5.18,-4.22 9.32,-8.55 12.31,-12.89c13.78,-20 0.64,-38.78 -14.86,-38.78l0,0zm-16.09,58.3c-5.48,-2.93 -32.19,-18.16 -32.19,-36.33c0,-9.42 7.22,-17.08 16.09,-17.08c5.85,0 11.24,3.37 14.08,8.81c0.87,1.67 3.15,1.67 4.02,0c2.84,-5.44 8.24,-8.81 14.08,-8.81c8.87,0 16.09,7.66 16.09,17.08c0,18.18 -26.71,33.4 -32.19,36.33l0.02,0z" class="fil0"/>
   <path id="svg_66" d="m192.514972,4320.250272c3.2,-1.62 6.75,-2.51 10.41,-2.51c4.75,0 9.32,1.52 13.17,4.17c3.2,2.2 5.91,5.21 7.81,8.78c1.91,3.57 3.01,7.7 3.01,12.18c0,5.87 -1.9,12.33 -6.4,18.86c-1.6,2.33 -3.5,4.63 -5.65,6.89c-2.15,2.24 -4.59,4.48 -7.3,6.69c-3.11,2.53 -6.15,4.69 -8.81,6.43c-5.15,3.37 -9.22,5.41 -9.47,5.53c-0.8,0.4 -1.64,0.59 -2.46,0.59c-0.82,0 -1.66,-0.2 -2.46,-0.59c-0.43,-0.21 -4.45,-2.24 -9.46,-5.52c-2.66,-1.74 -5.7,-3.9 -8.81,-6.43c-2.71,-2.2 -5.15,-4.45 -7.3,-6.69c-2.16,-2.26 -4.05,-4.57 -5.65,-6.89c-4.5,-6.53 -6.4,-13 -6.4,-18.86c0,-4.46 1.11,-8.61 3.02,-12.18c1.91,-3.57 4.61,-6.57 7.81,-8.78c3.86,-2.66 8.43,-4.18 13.17,-4.18c3.66,0 7.21,0.89 10.41,2.51c2.07,1.04 3.99,2.4 5.69,4.02c1.71,-1.63 3.63,-2.98 5.68,-4.02l-0.01,0zm-21.64,44.17c6.01,5.26 12.5,9.21 15.95,11.16c3.46,-1.95 9.96,-5.91 15.96,-11.16c6.76,-5.92 12.89,-13.47 12.89,-21.38c0,-3.83 -1.46,-7.3 -3.81,-9.8c-2.3,-2.44 -5.47,-3.95 -8.95,-3.95c-2.3,0 -4.5,0.67 -6.41,1.86c-1.93,1.19 -3.58,2.96 -4.72,5.14c-0.56,1.1 -1.41,1.92 -2.38,2.42c-0.81,0.44 -1.71,0.65 -2.58,0.65c-0.86,0 -1.74,-0.22 -2.56,-0.65c-0.98,-0.52 -1.84,-1.33 -2.41,-2.41c-1.12,-2.17 -2.77,-3.94 -4.71,-5.15c-1.89,-1.2 -4.1,-1.86 -6.41,-1.86c-3.48,0 -6.66,1.52 -8.95,3.95c-2.35,2.49 -3.8,5.96 -3.8,9.8c0,7.91 6.14,15.47 12.89,21.38z" class="fil1"/>
  </g>
  <g id="svg_67">
   <path id="svg_68" d="m199.959969,4784.553382c0,-3.68 2.99,-6.67 6.67,-6.67c3.68,0 6.67,2.99 6.67,6.67l0,52.13c0,5.25 -2.17,10.04 -5.63,13.52c-3.5,3.49 -8.29,5.65 -13.54,5.65l-105.77,0c-5.25,0 -10.04,-2.16 -13.52,-5.63l-0.04,-0.04c-3.47,-3.48 -5.62,-8.26 -5.62,-13.5l0,-52.13c0,-3.68 2.99,-6.67 6.67,-6.67c3.68,0 6.67,2.99 6.67,6.67l0,52.13c0,1.61 0.65,3.07 1.69,4.11c1.06,1.07 2.53,1.72 4.14,1.72l105.77,0c1.61,0 3.07,-0.66 4.13,-1.7c1.05,-1.06 1.7,-2.52 1.7,-4.13l0,-52.13l0.01,0z" class="fil1"/>
   <path id="svg_69" d="m175.379969,4754.633382c2.6,2.6 2.6,6.82 0,9.43c-2.6,2.6 -6.82,2.6 -9.43,0l-24.71,-24.71l-24.71,24.71c-2.6,2.6 -6.82,2.6 -9.43,0c-2.6,-2.6 -2.6,-6.82 0,-9.43l29.43,-29.43c2.6,-2.6 6.82,-2.6 9.43,0l29.43,29.43l-0.01,0z" class="fil1"/>
   <path id="svg_70" d="m147.909969,4816.983382c0,3.68 -2.99,6.67 -6.67,6.67c-3.68,0 -6.67,-2.99 -6.67,-6.67l0,-83.81c0,-3.68 2.99,-6.67 6.67,-6.67c3.68,0 6.67,2.99 6.67,6.67l0,83.81z" class="fil1"/>
  </g>
  <g id="svg_71">
   <path id="svg_72" d="m141.234968,4958.003382c26.46,0 50.44,10.74 67.78,28.08c17.35,17.35 28.08,41.32 28.08,67.78c0,26.44 -10.74,50.4 -28.08,67.76l-0.04,0.04c-17.35,17.34 -41.31,28.07 -67.74,28.07c-26.46,0 -50.44,-10.74 -67.78,-28.08c-17.34,-17.34 -28.08,-41.31 -28.08,-67.78c0,-26.45 10.74,-50.41 28.08,-67.76c17.37,-17.37 41.33,-28.1 67.78,-28.1l0,-0.01zm58.35,37.51c-14.93,-14.93 -35.56,-24.17 -58.35,-24.17c-22.8,0 -43.44,9.24 -58.37,24.15c-14.92,14.93 -24.15,35.57 -24.15,58.37c0,22.79 9.24,43.43 24.17,58.35c14.93,14.93 35.57,24.17 58.36,24.17c22.81,0 43.44,-9.23 58.35,-24.15c14.94,-14.94 24.17,-35.57 24.17,-58.38c0,-22.79 -9.24,-43.43 -24.17,-58.36l-0.01,0.02z" class="fil1"/>
   <path id="svg_73" d="m141.234968,4958.003382c13.21,0 24.65,11.56 32.43,30.24c7.05,16.92 11.41,40.13 11.41,65.62c0,25.49 -4.36,48.7 -11.41,65.62c-7.78,18.68 -19.21,30.24 -32.43,30.24c-13.22,0 -24.65,-11.56 -32.43,-30.24c-7.05,-16.92 -11.41,-40.13 -11.41,-65.62c0,-25.49 4.36,-48.7 11.41,-65.62c7.78,-18.68 19.21,-30.24 32.43,-30.24zm20.13,35.35c-5.66,-13.59 -12.83,-22.01 -20.13,-22.01c-7.31,0 -14.47,8.41 -20.13,22.01c-6.4,15.36 -10.36,36.75 -10.36,60.52c0,23.76 3.96,45.15 10.36,60.52c5.66,13.59 12.83,22.01 20.13,22.01c7.31,0 14.47,-8.41 20.13,-22.01c6.4,-15.36 10.36,-36.75 10.36,-60.52c0,-23.76 -3.96,-45.15 -10.36,-60.52z" class="fil1"/>
   <path id="svg_74" d="m52.044968,5060.533382c-3.68,0 -6.67,-2.99 -6.67,-6.67c0,-3.68 2.99,-6.67 6.67,-6.67l178.39,0c3.68,0 6.67,2.99 6.67,6.67c0,3.68 -2.99,6.67 -6.67,6.67l-178.39,0z" class="fil1"/>
  </g>
  <g id="svg_75">
   <path id="svg_76" d="m185.944966,5305.853382c-3.68,0 -6.67,-2.99 -6.67,-6.67c0,-3.68 2.99,-6.67 6.67,-6.67l22.77,0c8.63,0 16.48,3.54 22.2,9.24l0.04,0.04c5.69,5.71 9.23,13.56 9.23,22.19l0,76.83c0,8.63 -3.54,16.48 -9.24,22.2l-0.04,0.04c-5.71,5.7 -13.56,9.23 -22.19,9.23l-134.96,0c-8.65,0 -16.52,-3.54 -22.22,-9.24c-5.7,-5.7 -9.24,-13.57 -9.24,-22.22l0,-76.83c0,-8.63 3.54,-16.49 9.24,-22.2l0.04,-0.04c5.71,-5.69 13.57,-9.23 22.19,-9.23l24.39,0c3.68,0 6.67,2.99 6.67,6.67c0,3.68 -2.99,6.67 -6.67,6.67l-24.39,0c-5,0 -9.53,2.03 -12.8,5.3c-3.3,3.29 -5.33,7.82 -5.33,12.82l0,76.83c0,4.98 2.04,9.51 5.33,12.8c3.29,3.29 7.82,5.33 12.8,5.33l134.96,0c5,0 9.53,-2.03 12.8,-5.3c3.3,-3.29 5.33,-7.82 5.33,-12.82l0,-76.83c0,-5 -2.03,-9.53 -5.3,-12.8c-3.29,-3.3 -7.82,-5.33 -12.82,-5.33l-22.77,0l-0.02,-0.01z" class="fil1"/>
   <path id="svg_77" d="m141.224966,5325.053382c10.72,0 20.46,4.37 27.52,11.42l0.04,0.04c7.05,7.06 11.41,16.8 11.41,27.51c0,10.74 -4.37,20.48 -11.41,27.53c-7.07,7.07 -16.81,11.44 -27.55,11.44c-10.74,0 -20.48,-4.37 -27.53,-11.41c-7.07,-7.07 -11.44,-16.81 -11.44,-27.55c0,-10.72 4.37,-20.46 11.42,-27.52l0.04,-0.04c7.06,-7.05 16.8,-11.41 27.51,-11.41l-0.01,-0.01zm18.14,20.84c-4.63,-4.63 -11.04,-7.49 -18.13,-7.49c-7.09,0 -13.51,2.86 -18.12,7.48c-4.64,4.64 -7.5,11.05 -7.5,18.15c0,7.09 2.87,13.5 7.49,18.14c4.63,4.62 11.05,7.49 18.14,7.49c7.09,0 13.5,-2.87 18.14,-7.49c4.62,-4.63 7.49,-11.05 7.49,-18.14c0,-7.09 -2.86,-13.51 -7.49,-18.13l-0.02,-0.01z" class="fil1"/>
   <path id="svg_78" d="m186.664966,5339.563382c-3.68,0 -6.67,-2.99 -6.67,-6.67c0,-3.68 2.99,-6.67 6.67,-6.67l13.78,0c3.68,0 6.67,2.99 6.67,6.67c0,3.68 -2.99,6.67 -6.67,6.67l-13.78,0z" class="fil1"/>
   <path id="svg_79" d="m171.554966,5252.623382c2.6,2.6 2.6,6.82 0,9.43c-2.6,2.6 -6.82,2.6 -9.43,0l-19.62,-19.62l-19.61,19.62c-2.6,2.6 -6.82,2.6 -9.43,0c-2.6,-2.6 -2.6,-6.82 0,-9.43l24.33,-24.33c2.6,-2.6 6.82,-2.6 9.43,0l24.33,24.33z" class="fil1"/>
   <path id="svg_80" d="m149.184966,5304.983382c0,3.68 -2.99,6.67 -6.67,6.67c-3.68,0 -6.67,-2.99 -6.67,-6.67l0,-69.29c0,-3.68 2.99,-6.67 6.67,-6.67c3.68,0 6.67,2.99 6.67,6.67l0,69.29z" class="fil1"/>
  </g>
  <g id="svg_81">
   <path id="svg_82" d="m126.93997,3455.613133c7.98,0 15.2,3.24 20.43,8.47c5.23,5.25 8.47,12.47 8.47,20.43c0,7.96 -3.24,15.19 -8.47,20.42c-5.23,5.25 -12.46,8.49 -20.43,8.49c-7.98,0 -15.2,-3.24 -20.43,-8.47c-5.23,-5.25 -8.47,-12.48 -8.47,-20.44c0,-7.96 3.24,-15.18 8.47,-20.41c5.23,-5.25 12.46,-8.49 20.43,-8.49zm12.2,16.7c-3.12,-3.11 -7.43,-5.04 -12.2,-5.04c-4.76,0 -9.07,1.93 -12.19,5.04c-3.11,3.1 -5.04,7.42 -5.04,12.19c0,4.77 1.93,9.09 5.04,12.2c3.12,3.11 7.43,5.04 12.2,5.04c4.76,0 9.07,-1.93 12.19,-5.04c3.11,-3.1 5.04,-7.42 5.04,-12.19c0,-4.77 -1.93,-9.09 -5.04,-12.2z" class="fil1"/>
   <path id="svg_83" d="m88.07997,3552.273133c0,3.22 -2.61,5.83 -5.83,5.83c-3.22,0 -5.83,-2.61 -5.83,-5.83c0,-13.95 5.66,-26.58 14.8,-35.72c9.14,-9.14 21.78,-14.8 35.72,-14.8c7.39,0 14.61,1.63 21.19,4.67c6.56,3.03 12.49,7.49 17.29,13.14c2.07,2.45 1.77,6.13 -0.68,8.2c-2.45,2.07 -6.13,1.77 -8.2,-0.68c-3.68,-4.33 -8.23,-7.75 -13.28,-10.09c-5.04,-2.33 -10.6,-3.58 -16.32,-3.58c-10.73,0 -20.46,4.35 -27.48,11.38c-7.02,7.02 -11.38,16.75 -11.38,27.48z" class="fil1"/>
   <path id="svg_84" d="m121.33997,3597.013133l-71.18,0c-5.02,0 -9.59,-2.06 -12.92,-5.38c-3.34,-3.35 -5.41,-7.93 -5.41,-12.94l0,-145.26c0,-5.02 2.06,-9.6 5.38,-12.92c3.34,-3.34 7.92,-5.4 12.94,-5.4l145.26,0c5.01,0 9.59,2.06 12.92,5.38c3.34,3.35 5.41,7.93 5.41,12.94l0,64.1l-13.34,0l0,-64.1c0,-1.38 -0.56,-2.63 -1.44,-3.52c-0.91,-0.91 -2.16,-1.47 -3.54,-1.47l-145.26,0c-1.37,0 -2.63,0.56 -3.53,1.45c-0.89,0.9 -1.45,2.16 -1.45,3.53l0,145.26c0,1.38 0.56,2.63 1.44,3.52c0.91,0.91 2.16,1.47 3.54,1.47l71.18,0l0,13.34z" class="fil1"/>
   <path id="svg_85" d="m223.38997,3535.513133c-7.3,0 -14.13,3.54 -18.64,9.45c-4.51,-5.91 -11.34,-9.45 -18.64,-9.45c-17.91,0 -33.2,21.72 -17.21,44.91c3.46,5.03 8.26,10.05 14.26,14.93c10.1,8.22 20.05,13.19 20.46,13.39c0.71,0.35 1.54,0.35 2.25,0c0.42,-0.21 10.37,-5.17 20.46,-13.39c6,-4.88 10.8,-9.91 14.26,-14.93c15.96,-23.17 0.74,-44.91 -17.21,-44.91l0,0l0.01,0zm-18.65,67.53c-6.35,-3.39 -37.28,-21.03 -37.28,-42.08c0,-10.91 8.36,-19.79 18.64,-19.79c6.77,0 13.02,3.91 16.31,10.2c1.02,1.94 3.65,1.94 4.66,0c3.29,-6.3 9.54,-10.2 16.31,-10.2c10.28,0 18.64,8.88 18.64,19.79c0,21.06 -30.93,38.69 -37.28,42.08z" class="fil0"/>
   <path id="svg_86" d="m211.56997,3535.033133c3.63,-1.84 7.67,-2.85 11.81,-2.85c5.39,0 10.58,1.73 14.96,4.74c3.64,2.5 6.72,5.93 8.88,9.98c2.17,4.06 3.43,8.77 3.43,13.86c0,6.69 -2.17,14.08 -7.32,21.55c-1.84,2.67 -4.02,5.33 -6.5,7.93c-2.46,2.58 -5.28,5.16 -8.39,7.7c-10.34,8.42 -20.59,13.54 -21.07,13.78c-0.85,0.43 -1.74,0.63 -2.61,0.63c-0.87,0 -1.76,-0.2 -2.6,-0.62c-0.5,-0.25 -10.75,-5.38 -21.09,-13.8c-3.11,-2.54 -5.93,-5.11 -8.4,-7.7c-2.48,-2.6 -4.66,-5.26 -6.5,-7.93c-5.15,-7.47 -7.32,-14.86 -7.32,-21.55c0,-5.08 1.26,-9.79 3.43,-13.86c2.16,-4.06 5.24,-7.48 8.88,-9.98c4.39,-3.02 9.57,-4.74 14.96,-4.74c4.15,0 8.19,1.01 11.82,2.85c2.49,1.26 4.8,2.92 6.82,4.91c2.03,-2 4.33,-3.65 6.82,-4.91l-0.01,0.01zm-31.97,44.84c8.29,9.35 19.98,16.47 25.16,19.37c5.19,-2.9 16.87,-10.02 25.16,-19.37c5.04,-5.69 8.79,-12.19 8.79,-18.93c0,-4.58 -1.74,-8.73 -4.55,-11.71c-2.76,-2.93 -6.57,-4.75 -10.76,-4.75c-2.76,0 -5.41,0.8 -7.7,2.23c-2.33,1.46 -4.31,3.57 -5.67,6.17c-0.61,1.17 -1.51,2.04 -2.53,2.57c-0.86,0.46 -1.81,0.69 -2.74,0.69c-0.93,0 -1.87,-0.23 -2.72,-0.67c-1.03,-0.54 -1.94,-1.41 -2.55,-2.59c-1.35,-2.59 -3.33,-4.71 -5.66,-6.17c-2.28,-1.44 -4.94,-2.24 -7.71,-2.24c-4.19,0 -8,1.82 -10.75,4.75c-2.81,2.98 -4.55,7.13 -4.55,11.71c0,6.74 3.75,13.24 8.79,18.93l-0.01,0.01z" class="fil1"/>
  </g>
  <g id="svg_87">
   <path id="svg_88" d="m95.989969,5529.083382l118.99,0c4.44,0 8.5,1.83 11.43,4.76c2.96,2.96 4.78,7.01 4.78,11.46l0,118.99c0,4.44 -1.83,8.5 -4.76,11.43c-2.96,2.96 -7.01,4.78 -11.46,4.78l-118.99,0c-4.44,0 -8.5,-1.83 -11.43,-4.76c-2.96,-2.96 -4.78,-7.01 -4.78,-11.46l0,-118.99c0,-4.44 1.83,-8.5 4.76,-11.43c2.96,-2.96 7.01,-4.78 11.46,-4.78zm118.99,13.34l-118.99,0c-0.8,0 -1.52,0.32 -2.04,0.83c-0.51,0.52 -0.83,1.25 -0.83,2.04l0,118.99c0,0.8 0.32,1.52 0.83,2.04c0.52,0.51 1.25,0.83 2.04,0.83l118.99,0c0.8,0 1.52,-0.32 2.04,-0.83c0.51,-0.52 0.83,-1.25 0.83,-2.04l0,-118.99c0,-0.8 -0.32,-1.52 -0.83,-2.04c-0.52,-0.51 -1.25,-0.83 -2.04,-0.83z" class="fil1"/>
   <path id="svg_89" d="m136.459969,5558.183382c5.24,0 9.98,2.13 13.42,5.56c3.43,3.43 5.56,8.18 5.56,13.42c0,5.21 -2.13,9.95 -5.56,13.39c-3.46,3.45 -8.2,5.58 -13.41,5.58c-5.21,0 -9.96,-2.13 -13.4,-5.56c-3.45,-3.46 -5.58,-8.2 -5.58,-13.41c0,-5.21 2.13,-9.96 5.56,-13.4c3.46,-3.45 8.2,-5.58 13.42,-5.58l-0.01,0zm6.36,12.63c-1.62,-1.62 -3.87,-2.63 -6.35,-2.63c-2.49,0 -4.74,1 -6.35,2.61c-1.63,1.63 -2.63,3.88 -2.63,6.37c0,2.49 1,4.74 2.61,6.34c1.63,1.63 3.88,2.63 6.37,2.63c2.49,0 4.74,-1 6.34,-2.61c1.63,-1.63 2.63,-3.87 2.63,-6.36c0,-2.48 -1.01,-4.73 -2.63,-6.35l0.01,0z" class="fil1"/>
   <path id="svg_90" d="m82.289969,5634.333382l32.22,-25.6c2.79,-2.22 6.81,-1.83 9.14,0.81l17.94,19.32l51.03,-39.38c2.67,-2.06 6.43,-1.77 8.75,0.55l27.83,27.73l-9.38,9.43l-23.7,-23.62l-51,39.36c-2.69,2.27 -6.72,2.05 -9.15,-0.56l-18,-19.39l-27.4,21.77l-8.28,-10.42z" class="fil1"/>
   <path id="svg_91" d="m202.709969,5690.883382c0,4.44 -1.83,8.5 -4.76,11.43c-2.96,2.96 -7.01,4.78 -11.46,4.78l-118.99,0c-4.44,0 -8.5,-1.83 -11.43,-4.76c-2.96,-2.96 -4.78,-7.01 -4.78,-11.46l0,-118.99c0,-4.44 1.83,-8.5 4.76,-11.43c2.96,-2.96 7.01,-4.78 11.46,-4.78l0,13.34c-0.8,0 -1.52,0.32 -2.04,0.83c-0.51,0.52 -0.83,1.25 -0.83,2.04l0,118.99c0,0.8 0.32,1.52 0.83,2.04c0.52,0.51 1.25,0.83 2.04,0.83l118.99,0c0.8,0 1.52,-0.32 2.04,-0.83c0.51,-0.52 0.83,-1.25 0.83,-2.04l13.34,0l0,0.01z" class="fil1"/>
  </g>
  <path id="svg_92" d="m171.639968,6416.936094l-115.04,0c-3.36,0 -6.4,1.37 -8.61,3.57c-2.2,2.2 -3.57,5.24 -3.57,8.6l0,79.67c0,3.35 1.37,6.4 3.57,8.6c2.2,2.2 5.25,3.56 8.61,3.56l115.04,0c3.35,0 6.4,-1.37 8.6,-3.56c2.2,-2.2 3.57,-5.24 3.57,-8.6l0,-15.2l44.58,19.19c0.43,0.19 0.89,0.33 1.35,0.43c0.45,0.09 0.92,0.14 1.39,0.14c0.67,0 1.35,-0.1 1.99,-0.29c0.64,-0.19 1.26,-0.48 1.81,-0.85c0.97,-0.64 1.76,-1.51 2.3,-2.5c0.54,-1 0.83,-2.12 0.83,-3.28l0,-74.69c0,-1.17 -0.3,-2.31 -0.83,-3.3c-0.54,-1 -1.33,-1.87 -2.31,-2.5c-0.97,-0.63 -2.09,-1 -3.22,-1.1c-1.14,-0.09 -2.3,0.09 -3.36,0.56l-44.53,19.61l0,-15.89c0,-3.35 -1.37,-6.4 -3.57,-8.6c-2.2,-2.2 -5.24,-3.57 -8.6,-3.57zm-23.06,-72.59c-8.56,0 -16.32,3.48 -21.93,9.1c-5.61,5.62 -9.1,13.38 -9.1,21.94c0,8.55 3.48,16.31 9.1,21.93c5.61,5.62 13.37,9.1 21.93,9.1c8.56,0 16.32,-3.48 21.94,-9.1c5.62,-5.62 9.1,-13.38 9.1,-21.93c0,-8.56 -3.48,-16.32 -9.1,-21.94c-5.62,-5.62 -13.38,-9.1 -21.94,-9.1zm0,48.21c-4.73,0 -9.04,-1.93 -12.14,-5.04c-3.11,-3.11 -5.04,-7.41 -5.04,-12.13c0,-4.74 1.93,-9.04 5.04,-12.15c3.11,-3.11 7.41,-5.04 12.15,-5.04c4.74,0 9.03,1.93 12.14,5.04c3.11,3.11 5.04,7.41 5.04,12.15c0,4.73 -1.93,9.03 -5.04,12.14c-3.11,3.1 -7.4,5.03 -12.14,5.03l-0.01,0zm-72.84,-48.21c-8.56,0 -16.32,3.48 -21.94,9.1c-5.62,5.62 -9.1,13.38 -9.1,21.94c0,8.56 3.48,16.31 9.1,21.93c5.62,5.62 13.38,9.1 21.94,9.1c8.56,0 16.32,-3.48 21.93,-9.1c5.62,-5.62 9.1,-13.38 9.1,-21.93c0,-8.56 -3.48,-16.32 -9.1,-21.94c-5.62,-5.62 -13.38,-9.1 -21.93,-9.1zm0,48.21c-4.73,0 -9.03,-1.93 -12.14,-5.03c-3.11,-3.11 -5.04,-7.41 -5.04,-12.14c0,-4.74 1.93,-9.04 5.04,-12.15c3.11,-3.11 7.41,-5.04 12.15,-5.04c4.73,0 9.03,1.93 12.14,5.04c3.11,3.11 5.04,7.41 5.04,12.14c0,4.73 -1.93,9.02 -5.04,12.13c-3.11,3.11 -7.41,5.04 -12.14,5.04l-0.01,0.01zm108.07,85.31l0,-17.74c13.45,-5.96 26.93,-11.86 40.39,-17.79l0,53.54c-13.46,-5.8 -26.92,-11.61 -40.39,-17.39l0,-0.62zm-14.79,29.2l-110.73,0l0,-76.28l111.67,0l0,76.28l-0.93,0l-0.01,0z" class="fil0"/>
  <g id="svg_93">
   <path id="svg_94" d="m140.239966,6588.480159c9.52,0 18.14,3.87 24.38,10.1c6.24,6.24 10.1,14.86 10.1,24.38c0,9.5 -3.87,18.11 -10.1,24.35c-6.24,6.26 -14.86,10.13 -24.38,10.13c-9.5,0 -18.11,-3.87 -24.35,-10.1c-6.26,-6.26 -10.13,-14.88 -10.13,-24.38c0,-9.52 3.87,-18.14 10.1,-24.38c6.26,-6.24 14.88,-10.1 24.38,-10.1zm14.95,19.53c-3.82,-3.82 -9.11,-6.19 -14.95,-6.19c-5.85,0 -11.14,2.37 -14.96,6.18c-3.81,3.83 -6.18,9.12 -6.18,14.96c0,5.85 2.37,11.14 6.18,14.96c3.82,3.81 9.12,6.18 14.96,6.18c5.84,0 11.13,-2.37 14.95,-6.19c3.82,-3.81 6.19,-9.11 6.19,-14.95c0,-5.84 -2.37,-11.13 -6.19,-14.95z" class="fil1"/>
   <path id="svg_95" d="m94.049966,6694.780159c-0.76,3.59 -4.3,5.89 -7.89,5.13c-3.59,-0.76 -5.89,-4.3 -5.13,-7.89c2.98,-13.98 10.64,-25.97 21.12,-34.44c10.49,-8.48 23.81,-13.48 38.09,-13.48c14.92,0 28.74,5.45 39.4,14.6c10.67,9.15 18.17,21.98 20.44,36.72c0.56,3.64 -1.94,7.05 -5.57,7.61c-3.64,0.56 -7.05,-1.94 -7.61,-5.57c-1.78,-11.53 -7.62,-21.54 -15.91,-28.65c-8.3,-7.12 -19.08,-11.36 -30.75,-11.36c-11.14,0 -21.53,3.9 -29.7,10.51c-8.18,6.62 -14.16,15.96 -16.48,26.85l-0.01,-0.03z" class="fil1"/>
   <path id="svg_96" d="m215.399966,6633.700159c9.52,0 18.14,3.87 24.38,10.1c6.24,6.24 10.1,14.86 10.1,24.38c0,9.5 -3.87,18.11 -10.1,24.35c-6.24,6.26 -14.86,10.13 -24.38,10.13c-9.5,0 -18.11,-3.87 -24.35,-10.1c-6.26,-6.26 -10.13,-14.88 -10.13,-24.38c0,-9.52 3.87,-18.14 10.1,-24.38c6.26,-6.24 14.88,-10.1 24.38,-10.1zm14.95,19.53c-3.82,-3.82 -9.11,-6.19 -14.95,-6.19c-5.85,0 -11.14,2.37 -14.96,6.18c-3.81,3.83 -6.18,9.12 -6.18,14.96c0,5.85 2.37,11.14 6.18,14.96c3.82,3.81 9.12,6.18 14.96,6.18c5.84,0 11.13,-2.37 14.95,-6.19c3.82,-3.81 6.19,-9.11 6.19,-14.95c0,-5.84 -2.37,-11.13 -6.19,-14.95z" class="fil1"/>
   <path id="svg_97" d="m168.189966,6749.850159c0,3.68 -2.99,6.67 -6.67,6.67c-3.68,0 -6.67,-2.99 -6.67,-6.67c0,-16.69 6.79,-31.83 17.75,-42.8c10.94,-10.97 26.09,-17.75 42.8,-17.75c16.69,0 31.82,6.78 42.79,17.74l0.04,0.04c10.95,10.96 17.73,26.09 17.73,42.77c0,3.68 -2.99,6.67 -6.67,6.67c-3.68,0 -6.67,-2.99 -6.67,-6.67c0,-13.06 -5.28,-24.87 -13.8,-33.39c-8.54,-8.55 -20.35,-13.83 -33.41,-13.83c-13.04,0 -24.85,5.29 -33.39,13.83c-8.55,8.52 -13.83,20.33 -13.83,33.39z" class="fil1"/>
   <path id="svg_98" d="m67.069966,6632.490159c9.52,0 18.14,3.87 24.38,10.1c6.24,6.24 10.1,14.86 10.1,24.38c0,9.5 -3.87,18.11 -10.1,24.35c-6.24,6.26 -14.86,10.13 -24.38,10.13c-9.5,0 -18.11,-3.87 -24.35,-10.1c-6.26,-6.26 -10.13,-14.88 -10.13,-24.38c0,-9.52 3.87,-18.14 10.1,-24.38c6.26,-6.24 14.88,-10.1 24.38,-10.1zm14.95,19.53c-3.82,-3.82 -9.11,-6.19 -14.95,-6.19c-5.85,0 -11.14,2.37 -14.96,6.18c-3.81,3.83 -6.18,9.12 -6.18,14.96c0,5.85 2.37,11.14 6.18,14.96c3.82,3.81 9.12,6.18 14.96,6.18c5.84,0 11.13,-2.37 14.95,-6.19c3.82,-3.81 6.19,-9.11 6.19,-14.95c0,-5.84 -2.37,-11.13 -6.19,-14.95z" class="fil1"/>
   <path id="svg_99" d="m19.859966,6748.650159c0,3.68 -2.99,6.67 -6.67,6.67c-3.68,0 -6.67,-2.99 -6.67,-6.67c0,-16.69 6.79,-31.83 17.75,-42.8c10.94,-10.97 26.09,-17.75 42.8,-17.75c16.69,0 31.82,6.78 42.79,17.74l0.04,0.04c10.95,10.96 17.73,26.09 17.73,42.77c0,3.68 -2.99,6.67 -6.67,6.67c-3.68,0 -6.67,-2.99 -6.67,-6.67c0,-13.06 -5.28,-24.87 -13.8,-33.39c-8.54,-8.55 -20.35,-13.83 -33.41,-13.83c-13.04,0 -24.85,5.29 -33.39,13.83c-8.55,8.52 -13.83,20.33 -13.83,33.39z" class="fil1"/>
  </g>
  <g id="svg_100">
   <path id="svg_101" d="m39.619965,6925.320159l81.95,0l0,67.39c0,3.93 -1.61,7.49 -4.19,10.07c-2.59,2.58 -6.16,4.19 -10.07,4.19l-59.78,0c-3.76,0 -7.2,-1.55 -9.7,-4.04c-2.5,-2.51 -4.06,-5.95 -4.06,-9.72l0,-67.91l5.83,0l0.02,0.02zm70.26,11.65l-64.45,0l0,56.24c0,0.58 0.23,1.11 0.6,1.48c0.37,0.37 0.9,0.6 1.48,0.6l59.78,0c0.72,0 1.37,-0.29 1.83,-0.74c0.47,-0.49 0.76,-1.14 0.76,-1.85l0,-55.72l0,-0.01z" class="fil1"/>
   <path id="svg_102" d="m45.449965,6925.320159l64.45,0l0,-17.87c0,-8.02 -3.28,-15.31 -8.55,-20.58c-5.3,-5.28 -12.6,-8.57 -20.6,-8.57l-6.15,0c-8,0 -15.3,3.28 -20.58,8.57c-5.28,5.28 -8.57,12.58 -8.57,20.58l0,17.87zm70.28,11.67l-81.95,0l0,-29.54c0,-11.22 4.6,-21.43 12,-28.83c7.39,-7.39 17.6,-11.99 28.82,-11.99l6.15,0c11.22,0 21.43,4.6 28.83,11.99c7.39,7.41 11.99,17.63 11.99,28.83l0,29.54l-5.83,0l-0.01,0z" class="fil1"/>
   <path id="svg_103" d="m155.089965,6887.400159l93.62,0l0,11.67l-93.62,0l0,-11.67zm0,104.24l93.62,0l0,11.67l-93.62,0l0,-11.67zm0,-34.75l93.62,0l0,11.67l-93.62,0l0,-11.67zm0,-34.75l93.62,0l0,11.67l-93.62,0l0,-11.67z" class="fil1"/>
   <polygon id="svg_104" points="82.66983389854431,6960.41015625 82.66983389854431,6979.31005859375 70.99991965293884,6979.31005859375 70.99991965293884,6960.41015625 " class="fil1"/>
  </g>
  <g id="svg_105">
   <path id="svg_106" d="m190.754968,7255.650159c1.81,-0.92 3.74,-1.63 5.74,-2.11c1.96,-0.47 3.99,-0.72 6.03,-0.72c2.66,0 5.27,0.42 7.75,1.21c2.54,0.8 4.95,1.99 7.15,3.51c1.83,1.26 3.52,2.75 5.02,4.43c1.47,1.66 2.77,3.51 3.84,5.53c1.09,2.07 1.96,4.31 2.54,6.68c0.56,2.28 0.86,4.67 0.86,7.15c0,3.47 -0.59,7.13 -1.86,10.89c-1.19,3.5 -2.99,7.09 -5.47,10.7c-0.91,1.33 -1.93,2.67 -3.04,4.02c-1.09,1.33 -2.26,2.65 -3.51,3.95c-1.25,1.31 -2.59,2.62 -4,3.91c-1.43,1.31 -2.93,2.6 -4.49,3.87c-1.67,1.35 -3.36,2.65 -5,3.85c-1.86,1.35 -3.64,2.57 -5.29,3.65c-2.11,1.38 -4.02,2.55 -5.63,3.49c-3.02,1.76 -5.06,2.79 -5.38,2.94c-0.38,0.2 -0.78,0.35 -1.18,0.44c-0.42,0.1 -0.85,0.15 -1.26,0.15c-0.41,0 -0.81,-0.05 -1.22,-0.14c-0.39,-0.09 -0.78,-0.24 -1.16,-0.42c-0.19,-0.09 -2.24,-1.11 -5.39,-2.96c-1.61,-0.94 -3.54,-2.11 -5.66,-3.5c-1.65,-1.08 -3.44,-2.3 -5.31,-3.66c-1.65,-1.2 -3.33,-2.5 -5,-3.85c-1.55,-1.26 -3.05,-2.56 -4.48,-3.87c-1.42,-1.3 -2.76,-2.61 -4.01,-3.92c-1.26,-1.31 -2.44,-2.65 -3.54,-3.98c-1.09,-1.33 -2.1,-2.67 -3.01,-3.99c-2.48,-3.61 -4.28,-7.2 -5.47,-10.7c-1.28,-3.76 -1.87,-7.43 -1.87,-10.9c0,-2.48 0.3,-4.88 0.87,-7.16c0.58,-2.36 1.46,-4.61 2.56,-6.68c1.06,-2.01 2.37,-3.87 3.84,-5.52c1.5,-1.69 3.19,-3.18 5.01,-4.43c2.19,-1.52 4.61,-2.7 7.14,-3.51c2.48,-0.79 5.09,-1.21 7.75,-1.21c2.04,0 4.06,0.25 6.03,0.72c1.99,0.48 3.92,1.19 5.74,2.11c1.46,0.74 2.87,1.62 4.18,2.62c1.05,0.8 2.06,1.69 3,2.66c0.94,-0.96 1.94,-1.85 2.99,-2.65c1.31,-1 2.71,-1.88 4.18,-2.62l0.01,0.02zm-33.15,45.43c3.45,3.9 7.5,7.43 11.43,10.44c5.85,4.47 11.46,7.79 14.54,9.5c2.5,-1.39 6.66,-3.84 11.27,-7.11c4.88,-3.46 10.27,-7.83 14.69,-12.83c2.78,-3.14 5.19,-6.53 6.82,-10.07c1.41,-3.07 2.24,-6.26 2.24,-9.52c0,-2.36 -0.44,-4.61 -1.23,-6.64c-0.83,-2.12 -2.04,-4.03 -3.54,-5.62c-1.48,-1.57 -3.25,-2.84 -5.21,-3.7c-1.88,-0.83 -3.94,-1.29 -6.11,-1.29c-1.44,0 -2.86,0.2 -4.2,0.59c-1.37,0.39 -2.69,0.99 -3.91,1.75c-1.23,0.77 -2.37,1.72 -3.38,2.81c-0.99,1.08 -1.86,2.32 -2.57,3.68c-0.28,0.53 -0.62,0.99 -1,1.38c-0.41,0.41 -0.87,0.76 -1.36,1.01c-0.39,0.2 -0.81,0.36 -1.23,0.46c-0.43,0.1 -0.86,0.16 -1.29,0.16c-0.43,0 -0.87,-0.06 -1.3,-0.17c-0.42,-0.1 -0.83,-0.26 -1.23,-0.47c-0.48,-0.25 -0.94,-0.59 -1.35,-1c-0.38,-0.39 -0.72,-0.84 -1,-1.36c-0.71,-1.37 -1.59,-2.61 -2.57,-3.69c-1.01,-1.1 -2.15,-2.05 -3.37,-2.82c-1.22,-0.76 -2.54,-1.35 -3.91,-1.74c-1.35,-0.39 -2.76,-0.59 -4.21,-0.59c-2.17,0 -4.23,0.46 -6.11,1.29c-1.96,0.86 -3.73,2.13 -5.21,3.7c-1.5,1.59 -2.71,3.5 -3.54,5.61c-0.79,2.04 -1.24,4.29 -1.24,6.65c0,3.25 0.84,6.45 2.25,9.52c1.63,3.54 4.04,6.93 6.82,10.07l0.01,0z" class="fil0"/>
   <path id="svg_107" d="m136.964968,7131.800159c12.85,0 24.52,5.23 32.97,13.67c8.47,8.48 13.7,20.14 13.7,33c0,12.87 -5.22,24.55 -13.67,33c-8.47,8.44 -20.14,13.67 -33,13.67c-12.87,0 -24.55,-5.22 -33,-13.67c-8.45,-8.45 -13.67,-20.12 -13.67,-33c0,-12.86 5.23,-24.53 13.69,-32.98c8.44,-8.46 20.11,-13.69 32.98,-13.69zm23.58,23.09c-6.02,-6.02 -14.36,-9.75 -23.58,-9.75c-9.2,0 -17.54,3.73 -23.57,9.76c-6.04,6.01 -9.76,14.35 -9.76,23.57c0,9.2 3.73,17.54 9.76,23.57c6.03,6.03 14.37,9.76 23.57,9.76c9.22,0 17.56,-3.72 23.57,-9.74c6.03,-6.05 9.76,-14.39 9.76,-23.59c0,-9.22 -3.72,-17.56 -9.75,-23.58z" class="fil1"/>
   <path id="svg_108" d="m66.134968,7295.940159c0,3.68 -2.99,6.67 -6.67,6.67c-3.68,0 -6.67,-2.99 -6.67,-6.67c0,-23.24 9.43,-44.28 24.66,-59.51l0.38,-0.35c15.22,-15.03 36.11,-24.31 59.13,-24.31c8.11,0 16.18,1.19 23.93,3.49c7.74,2.3 15.15,5.71 21.98,10.16c3.08,2 3.95,6.12 1.95,9.2c-2,3.08 -6.12,3.95 -9.2,1.95c-5.74,-3.74 -11.98,-6.61 -18.49,-8.54c-6.48,-1.92 -13.28,-2.92 -20.19,-2.92c-19.43,0 -37.02,7.8 -49.79,20.43l-0.3,0.31c-12.81,12.81 -20.74,30.52 -20.74,50.09l0.02,0z" class="fil1"/>
  </g>
  <g id="svg_109">
   <path id="svg_110" d="m190.889969,7677.630159l-99.3,0c-17.98,0 -32.55,14.55 -32.55,32.55l0,148.94c0,6.32 7.25,10.02 12.36,6.18l31.04,-23.28l88.45,0c17.98,0 32.55,-14.55 32.55,-32.55l0,-99.3c0,-17.98 -14.54,-32.55 -32.55,-32.55l0,0.01zm17.1,131.84c0,9.45 -7.64,17.1 -17.1,17.1l-91.02,0c-1.67,0 -3.3,0.54 -4.63,1.55l-20.74,15.55l0,-133.49c0,-9.45 7.64,-17.1 17.1,-17.1l99.3,0c9.45,0 17.1,7.64 17.1,17.1l0,99.3l-0.01,-0.01zm0,0z" class="fil0"/>
   <path id="svg_111" d="m174.049969,7754.470159l-64.97,0c-4.27,0 -7.73,3.46 -7.73,7.72c0,4.27 3.46,7.72 7.73,7.72l64.97,0c4.26,0 7.72,-3.46 7.72,-7.72c0,-4.26 -3.46,-7.72 -7.72,-7.72l0,0zm0,0z" class="fil0"/>
   <path id="svg_112" d="m149.279969,7794.680159l0,-64.98c0,-4.27 -3.46,-7.72 -7.72,-7.72c-4.27,0 -7.73,3.46 -7.73,7.72l0,64.98c0,4.26 3.46,7.72 7.73,7.72c4.26,0 7.72,-3.45 7.72,-7.72l0,0zm0,0z" class="fil0"/>
  </g>
  <g id="svg_113">
   <path id="svg_114" d="m91.589969,7402.190159l99.3,0c17.98,0 32.55,14.55 32.55,32.55l0,148.94c0,6.32 -7.25,10.02 -12.36,6.18l-31.04,-23.28l-88.45,0c-17.98,0 -32.55,-14.55 -32.55,-32.55l0,-99.3c0,-17.98 14.54,-32.55 32.55,-32.55l0,0.01zm-17.1,131.84c0,9.45 7.64,17.1 17.1,17.1l91.02,0c1.67,0 3.3,0.54 4.64,1.55l20.74,15.55l0,-133.49c0,-9.45 -7.64,-17.1 -17.1,-17.1l-99.3,0c-9.45,0 -17.1,7.64 -17.1,17.1l0,99.3l0,-0.01zm0,0z" class="fil0"/>
   <path id="svg_115" d="m108.429969,7479.030159l64.97,0c4.27,0 7.73,3.46 7.73,7.72c0,4.27 -3.46,7.72 -7.73,7.72l-64.97,0c-4.26,0 -7.72,-3.46 -7.72,-7.72c0,-4.26 3.46,-7.72 7.72,-7.72l0,0zm0,0z" class="fil0"/>
   <path id="svg_116" d="m133.189969,7519.240159l0,-64.98c0,-4.27 3.46,-7.72 7.72,-7.72c4.27,0 7.73,3.46 7.73,7.72l0,64.98c0,4.26 -3.46,7.72 -7.73,7.72c-4.26,0 -7.72,-3.45 -7.72,-7.72l0,0zm0,0z" class="fil0"/>
  </g>
  <g id="svg_117">
   <path id="svg_118" d="m228.063091,5842.556094c0.91,10.5 1.44,21.24 1.44,31.76c-4.26,-0.36 -8.48,-0.37 -12.62,-0.03c0,-6.78 -0.26,-13.57 -0.65,-20.34c-0.67,-11.31 -0.63,-25.84 -13.25,-30.37c-2.41,-0.86 -4.75,-1.11 -7.26,-1.4c-8.45,-0.61 -18.32,-1.05 -27.72,-1.35c-11.95,-0.39 -24.05,-0.72 -36,-0.72c-2.94,0.02 -39.16,0.31 -63.67,2.07c-5.94,0.71 -9.88,1.66 -14.16,6.37c-5.8,6.32 -6.06,23.32 -6.41,31.19c-0.63,14.18 -0.64,29.4 0,43.58c0.38,8.46 0.42,24.28 6.4,31.14c4.61,5.06 10.24,5.35 16.48,6.16c4.85,0.45 13.33,0.83 22.49,1.13c15.45,0.51 31.02,1.01 46.49,0.84c-1.03,4.14 -1.74,8.37 -2.14,12.65c-15.02,0.15 -30.16,-0.38 -45.16,-0.88c-9.28,-0.31 -26.15,-0.33 -35.52,-3.56c-13.85,-4.81 -19,-16.75 -20.58,-30.43c-1.38,-15.46 -1.43,-30.63 -1.43,-46.09c0,-10.48 0.48,-21.37 1.45,-31.82c2.27,-18.08 10.74,-30.54 29.75,-32.69l1.28,-0.15c21.4,-1.54 43.37,-2.01 64.82,-2.11c12.13,0 24.41,0.33 36.52,0.73c9.52,0.31 20.13,0.45 29.54,1.54c19.46,2.22 28.04,14.61 29.93,32.8l-0.02,-0.02zm-109.59,4.48l45.25,24.76c6.23,3.41 6.19,12.37 -0.06,15.74l-45.25,24.33c-5.89,3.17 -13.2,-1.05 -13.2,-7.89l0,-49.09c0,-6.8 7.29,-11.11 13.25,-7.85l0.01,0zm0.04,15.16l0,34.53l31.82,-17.11l-31.82,-17.42z" class="fil0"/>
   <path id="svg_119" d="m211.533091,5897.506094c2.22,4.5 3.72,7.96 4.86,10.59c1.69,3.9 2.54,5.85 3.82,6.78c1.28,0.93 3.4,1.14 7.63,1.54c2.85,0.28 6.61,0.63 11.57,1.35c1.09,0.16 2.09,0.49 3,0.94c0.96,0.48 1.8,1.11 2.52,1.84c0.53,0.55 0.98,1.15 1.36,1.77c0.38,0.63 0.69,1.31 0.92,2.02c0.23,0.72 0.38,1.45 0.44,2.18c0.06,0.73 0.04,1.46 -0.06,2.19c-0.15,1.01 -0.46,2.02 -0.95,2.98c-0.46,0.91 -1.09,1.77 -1.88,2.54c-3.61,3.52 -6.43,6.01 -8.56,7.9c-3.19,2.82 -4.78,4.23 -5.27,5.74c-0.49,1.5 -0.03,3.58 0.89,7.72c0.63,2.8 1.44,6.49 2.3,11.44c0.18,1.07 0.18,2.13 0.02,3.13c-0.17,1.06 -0.51,2.06 -0.98,2.97c-0.35,0.67 -0.78,1.28 -1.26,1.83c-0.49,0.57 -1.04,1.07 -1.63,1.5c-0.59,0.43 -1.24,0.8 -1.93,1.09c-0.68,0.29 -1.39,0.5 -2.12,0.63c-1.02,0.17 -2.07,0.19 -3.13,0.01c-1.01,-0.16 -2.01,-0.49 -2.98,-1l-17.24,-9.06l-17.24,9.06c-0.98,0.51 -1.98,0.84 -2.98,1c-1.06,0.17 -2.11,0.16 -3.12,-0.01c-0.72,-0.13 -1.44,-0.34 -2.12,-0.63c-0.69,-0.29 -1.34,-0.66 -1.93,-1.08c-0.59,-0.43 -1.14,-0.94 -1.63,-1.5c-0.48,-0.55 -0.9,-1.17 -1.25,-1.83c-0.48,-0.9 -0.82,-1.9 -0.99,-2.97c-0.16,-1.01 -0.16,-2.06 0.02,-3.14c0.85,-4.94 1.67,-8.63 2.29,-11.43c0.93,-4.15 1.39,-6.22 0.9,-7.73c-0.49,-1.5 -2.08,-2.92 -5.28,-5.73c-2.13,-1.89 -4.94,-4.37 -8.56,-7.9c-0.79,-0.77 -1.41,-1.63 -1.87,-2.52c-0.49,-0.96 -0.81,-1.97 -0.96,-2.98c-0.1,-0.75 -0.13,-1.5 -0.06,-2.22c0.06,-0.74 0.22,-1.46 0.44,-2.17c0.23,-0.7 0.54,-1.38 0.92,-2.01c0.37,-0.62 0.83,-1.21 1.35,-1.75c0.72,-0.74 1.57,-1.37 2.53,-1.86c0.91,-0.46 1.91,-0.79 3,-0.94c4.96,-0.72 8.72,-1.08 11.57,-1.35c4.22,-0.4 6.35,-0.61 7.63,-1.54c1.28,-0.93 2.13,-2.88 3.82,-6.78c1.14,-2.63 2.65,-6.09 4.86,-10.59c0.48,-0.98 1.11,-1.83 1.82,-2.55c0.76,-0.76 1.61,-1.37 2.54,-1.82c0.67,-0.34 1.37,-0.59 2.09,-0.76c0.73,-0.17 1.47,-0.26 2.2,-0.26c0.73,0 1.47,0.09 2.2,0.26c0.72,0.17 1.42,0.42 2.09,0.75c0.92,0.46 1.78,1.07 2.53,1.82c0.72,0.72 1.34,1.57 1.82,2.56l0.03,-0.02zm-0.82,22.81l-7.85,-15.89l-7.85,15.89c-0.35,0.71 -0.78,1.37 -1.27,1.95c-0.5,0.59 -1.07,1.13 -1.71,1.59c-0.63,0.46 -1.32,0.84 -2.04,1.14c-0.71,0.29 -1.46,0.5 -2.24,0.61l-17.54,2.55l12.68,12.38c0.57,0.56 1.06,1.17 1.47,1.82c0.41,0.65 0.74,1.37 0.98,2.11c0.24,0.74 0.39,1.51 0.45,2.29c0.06,0.76 0.02,1.54 -0.11,2.31l-2.99,17.48l15.69,-8.23c0.7,-0.37 1.43,-0.65 2.19,-0.83c0.77,-0.19 1.54,-0.29 2.3,-0.29c0.76,0 1.54,0.1 2.3,0.29c0.75,0.19 1.48,0.46 2.19,0.83l15.69,8.24l-2.99,-17.47c-0.13,-0.77 -0.17,-1.55 -0.11,-2.31c0.06,-0.77 0.21,-1.55 0.45,-2.3c0.24,-0.74 0.57,-1.45 0.98,-2.11c0.42,-0.66 0.91,-1.27 1.46,-1.81l12.69,-12.37l-17.53,-2.56c-0.78,-0.11 -1.53,-0.32 -2.24,-0.61c-0.72,-0.29 -1.41,-0.67 -2.05,-1.13c-0.64,-0.46 -1.21,-1 -1.71,-1.59c-0.5,-0.59 -0.93,-1.24 -1.27,-1.95l-0.02,-0.03z" class="fil0"/>
  </g>
  <g id="svg_120">
   <path id="svg_121" d="m225.494971,6172.206094c-6.3,0 -12.2,3.05 -16.09,8.16c-3.89,-5.11 -9.79,-8.16 -16.09,-8.16c-15.46,0 -28.66,18.75 -14.86,38.78c2.99,4.34 7.13,8.67 12.31,12.89c8.72,7.1 17.31,11.39 17.67,11.56c0.61,0.31 1.33,0.31 1.94,0c0.36,-0.18 8.95,-4.46 17.67,-11.56c5.18,-4.22 9.32,-8.55 12.31,-12.89c13.78,-20 0.64,-38.78 -14.86,-38.78l0,0zm-16.09,58.3c-5.48,-2.93 -32.19,-18.16 -32.19,-36.33c0,-9.42 7.22,-17.08 16.09,-17.08c5.85,0 11.24,3.37 14.08,8.81c0.87,1.67 3.15,1.67 4.02,0c2.84,-5.44 8.24,-8.81 14.08,-8.81c8.87,0 16.09,7.66 16.09,17.08c0,18.18 -26.71,33.4 -32.19,36.33l0.02,0z" class="fil0"/>
   <path id="svg_122" d="m215.084971,6171.376094c3.2,-1.62 6.75,-2.51 10.41,-2.51c4.75,0 9.32,1.52 13.17,4.17c3.2,2.2 5.91,5.21 7.81,8.78c1.91,3.57 3.01,7.7 3.01,12.18c0,5.87 -1.9,12.33 -6.4,18.86c-1.6,2.33 -3.5,4.63 -5.65,6.89c-2.15,2.24 -4.59,4.48 -7.3,6.69c-3.11,2.53 -6.15,4.69 -8.81,6.43c-5.15,3.37 -9.22,5.41 -9.47,5.53c-0.8,0.4 -1.65,0.59 -2.46,0.59c-0.82,0 -1.66,-0.2 -2.46,-0.59c-0.43,-0.21 -4.45,-2.24 -9.46,-5.52c-2.66,-1.74 -5.7,-3.9 -8.81,-6.43c-2.71,-2.2 -5.15,-4.45 -7.3,-6.69c-2.16,-2.26 -4.05,-4.57 -5.65,-6.89c-4.5,-6.53 -6.4,-13 -6.4,-18.86c0,-4.46 1.11,-8.61 3.02,-12.18c1.91,-3.57 4.61,-6.57 7.81,-8.78c3.86,-2.66 8.43,-4.18 13.17,-4.18c3.66,0 7.21,0.89 10.41,2.51c2.07,1.04 3.99,2.4 5.69,4.02c1.71,-1.63 3.63,-2.98 5.68,-4.02l-0.01,0zm-21.64,44.17c6.01,5.26 12.5,9.22 15.96,11.17c3.46,-1.95 9.94,-5.9 15.96,-11.17c6.76,-5.92 12.89,-13.47 12.89,-21.38c0,-3.83 -1.46,-7.3 -3.81,-9.8c-2.3,-2.44 -5.47,-3.95 -8.95,-3.95c-2.3,0 -4.5,0.67 -6.41,1.86c-1.93,1.19 -3.58,2.96 -4.72,5.14c-0.56,1.1 -1.41,1.92 -2.37,2.42c-0.81,0.43 -1.71,0.65 -2.59,0.65c-0.85,0 -1.74,-0.22 -2.56,-0.65c-0.98,-0.51 -1.84,-1.33 -2.41,-2.41c-1.12,-2.17 -2.77,-3.94 -4.71,-5.15c-1.89,-1.2 -4.1,-1.86 -6.41,-1.86c-3.48,0 -6.66,1.52 -8.95,3.95c-2.35,2.49 -3.8,5.96 -3.8,9.8c0,7.91 6.14,15.47 12.89,21.38l-0.01,0z" class="fil1"/>
   <path id="svg_123" d="m226.264971,6110.486094c0.91,10.5 1.44,21.24 1.44,31.76c-4.26,-0.36 -8.48,-0.37 -12.62,-0.03c0,-6.78 -0.26,-13.57 -0.65,-20.34c-0.67,-11.31 -0.63,-25.84 -13.25,-30.37c-2.41,-0.86 -4.75,-1.11 -7.26,-1.4c-8.45,-0.61 -18.32,-1.05 -27.72,-1.35c-11.95,-0.39 -24.05,-0.72 -36,-0.72c-2.94,0.02 -39.16,0.31 -63.67,2.07c-5.94,0.71 -9.88,1.66 -14.16,6.37c-5.8,6.32 -6.06,23.32 -6.41,31.19c-0.63,14.18 -0.64,29.4 0,43.58c0.38,8.46 0.42,24.28 6.4,31.14c4.61,5.06 10.24,5.35 16.48,6.16c4.85,0.45 13.33,0.83 22.49,1.13c15.45,0.51 31.02,1.01 46.49,0.84c-1.03,4.14 -1.74,8.37 -2.14,12.65c-15.02,0.15 -30.16,-0.38 -45.16,-0.88c-9.28,-0.31 -26.15,-0.33 -35.52,-3.56c-13.85,-4.81 -19,-16.75 -20.58,-30.43c-1.38,-15.46 -1.43,-30.63 -1.43,-46.09c0,-10.48 0.48,-21.37 1.45,-31.82c2.27,-18.08 10.74,-30.54 29.75,-32.69l1.28,-0.15c21.4,-1.54 43.37,-2.01 64.82,-2.11c12.13,0 24.41,0.33 36.52,0.73c9.52,0.31 20.13,0.45 29.54,1.54c19.46,2.22 28.04,14.61 29.93,32.8l-0.02,-0.02zm-109.59,4.48l45.25,24.76c6.23,3.41 6.19,12.37 -0.06,15.74l-45.25,24.33c-5.89,3.17 -13.2,-1.05 -13.2,-7.89l0,-49.09c0,-6.8 7.29,-11.11 13.25,-7.85l0.01,0zm0.04,15.16l0,34.53l31.82,-17.11l-31.82,-17.42z" class="fil0"/>
  </g>
 </g>
</svg>