<svg width="20" height="20" xmlns="http://www.w3.org/2000/svg" preserveAspectRatio="xMidYMid meet">

 <g>
  <title>background</title>
  <rect fill="none" id="canvas_background" height="22" width="22" y="-1" x="-1"/>
 </g>
 <g>
  <title>Layer 1</title>
  <g id="svg_7" stroke="null">
   <title fill="#5b646a"/>
   <g fill="#000000" id="svg_1" transform="translate(0,1024) scale(0.10000000149011612,-0.10000000149011612) " stroke="null">
    <path d="m91.504515,10229.226986c-21.071677,-1.566138 -40.292463,-10.230747 -55.38434,-24.976852c-19.851309,-19.363162 -29.370175,-46.78075 -25.851449,-74.320373c4.393323,-34.4347 28.678633,-63.113333 62.035342,-73.262722c25.790431,-7.85103 54.489403,-3.193295 76.354319,12.366389c26.868422,19.139428 40.841628,50.88932 36.692379,83.391771c-4.393323,34.4347 -28.678633,63.113333 -62.035342,73.262722c-9.925655,3.030579 -21.498805,4.311965 -31.81091,3.539065l0.000001,0zm60.896332,-31.587176c0.996633,-0.569505 1.606817,-1.50512 1.810212,-2.766166c0.101697,-0.488147 -2.969561,-19.322484 -9.518866,-58.557295c-9.112076,-54.713138 -9.661242,-57.886093 -10.210407,-58.760689c-0.711881,-1.159349 -1.972927,-1.87123 -3.294992,-1.87123c-0.75256,0 -4.576378,1.464441 -19.688594,7.505259l-18.752979,7.48492l-3.905176,-6.528965c-2.135643,-3.579744 -4.189928,-6.834057 -4.535699,-7.220507c-0.793239,-0.854257 -1.688175,-1.240707 -2.867863,-1.240707c-1.261046,0 -2.155982,0.406789 -2.928882,1.342404c-0.345771,0.447468 -3.783139,6.284892 -7.627296,12.996913l-6.976434,12.203674l-15.33595,6.122176c-14.115583,5.654369 -15.396968,6.203534 -15.986813,6.895076c-1.200028,1.383083 -1.301725,3.74246 -0.203395,4.962827c0.569505,0.610184 116.178975,77.717063 116.890856,77.940797c0.854257,0.284752 2.155982,0.061018 3.132276,-0.508486l0.000002,-0.000001z" fill="#5b646a" id="svg_2" stroke="null"/>
    <path d="m106.515033,10144.391113c-19.525878,-20.94964 -35.512691,-38.17716 -35.53303,-38.299196c0,-0.101697 2.339037,-4.291625 5.206901,-9.274792l5.24758,-9.091737l0.427129,0.650863c0.244073,0.345771 13.383362,20.868282 29.207459,45.580722c15.824097,24.732779 29.288817,45.743437 29.91934,46.740071c0.630523,0.976294 1.11867,1.769533 1.077991,1.769533c-0.020339,0 -16.027492,-17.146162 -35.55337,-38.075462l0,-0.000002z" fill="#5b646a" id="svg_3" stroke="null"/>
    <path d="m87.843412,10148.092894c-24.000558,-15.986813 -43.628134,-29.146441 -43.628134,-29.227799c0,-0.081358 5.145882,-2.23734 11.451114,-4.759433c6.284892,-2.522093 11.59349,-4.739093 11.796885,-4.901809c0.325431,-0.284752 2.033946,1.50512 23.064943,24.020898c12.488426,13.383362 26.827743,28.739652 31.871928,34.149947c5.044185,5.389956 9.152755,9.803618 9.132416,9.803618c-0.040679,-0.020339 -19.688594,-13.09861 -43.689152,-29.085423l0,0.000001z" fill="#5b646a" id="svg_4" stroke="null"/>
    <path d="m118.210221,10137.150267l-24.854816,-38.583949l0.955954,-0.183055c0.528826,-0.081358 8.318838,-3.132276 17.308877,-6.773039c8.99004,-3.620423 16.352923,-6.569644 16.373262,-6.528965c0.081358,0.101697 15.173234,90.55126 15.112216,90.591938c-0.020339,0.020339 -11.22738,-17.308877 -24.895495,-38.52293l0.000002,0z" fill="#5b646a" id="svg_5" stroke="null"/>
   </g>
  </g>
 </g>
</svg>