<?xml version="1.0" standalone="no"?>
<!DOCTYPE svg PUBLIC "-//W3C//DTD SVG 20010904//EN"
 "http://www.w3.org/TR/2001/REC-SVG-20010904/DTD/svg10.dtd">
<svg version="1.0" xmlns="http://www.w3.org/2000/svg"
 width="464.000000pt" height="462.000000pt" viewBox="0 0 464.000000 462.000000"
 preserveAspectRatio="xMidYMid meet">
<metadata>
Created by potrace 1.15, written by Peter Selinger 2001-2017
</metadata>
<g transform="translate(0.000000,462.000000) scale(0.100000,-0.100000)"
fill="#545454" stroke="none">
<path d="M1961 4610 c-52 -8 -74 -16 -176 -68 -106 -53 -209 -158 -225 -226
-12 -53 -1 -83 47 -131 40 -40 50 -45 90 -45 53 0 88 19 161 88 38 36 72 57
125 76 l72 26 990 0 990 0 75 -27 c59 -22 86 -39 131 -84 34 -34 62 -72 69
-95 7 -22 18 -45 24 -53 8 -10 12 -298 14 -1025 l3 -1011 -22 -64 c-14 -43
-41 -89 -81 -140 -59 -73 -60 -76 -56 -127 3 -38 12 -61 33 -85 35 -42 47 -47
116 -48 63 -1 96 18 150 85 78 97 123 190 139 289 13 80 13 2079 0 2160 -9 57
-18 80 -62 170 -61 122 -153 213 -278 275 -36 18 -73 36 -82 41 -50 26 -187
29 -1168 28 -564 -1 -1049 -5 -1079 -9z"/>
<path d="M1180 3865 c-131 -31 -226 -83 -316 -172 -55 -54 -75 -81 -80 -108
-16 -89 18 -160 91 -189 78 -31 106 -21 204 67 30 27 80 61 110 75 l56 27
1030 0 1030 0 55 -26 c102 -49 173 -138 199 -252 8 -33 11 -347 11 -1018 0
-862 -2 -977 -16 -1026 -20 -67 -47 -117 -91 -163 -37 -39 -48 -78 -41 -152 5
-44 11 -56 43 -85 34 -30 43 -33 99 -33 88 0 119 24 211 162 25 36 57 97 72
135 l28 68 3 1048 c1 627 -1 1073 -7 1110 -41 270 -244 477 -523 536 -95 20
-122 21 -1085 20 l-988 -1 -95 -23z"/>
<path d="M545 3080 c-122 -25 -170 -44 -265 -105 -53 -33 -152 -132 -173 -172
-53 -97 -72 -145 -88 -221 -18 -81 -19 -143 -19 -1036 0 -1078 -1 -1062 76
-1206 68 -128 208 -254 321 -290 21 -7 43 -17 50 -22 30 -24 268 -29 1181 -26
888 3 959 4 991 21 19 9 39 17 45 17 16 0 115 51 156 80 80 56 210 217 210
259 0 7 10 31 22 54 l23 42 3 1015 c3 1029 0 1138 -33 1200 -8 14 -21 42 -31
62 -26 60 -229 258 -264 258 -6 0 -30 13 -53 29 -25 17 -63 32 -92 36 -70 10
-2011 15 -2060 5z m2034 -323 c89 -35 152 -104 184 -201 15 -45 17 -143 17
-1010 0 -940 0 -962 -20 -1014 -42 -109 -111 -178 -213 -210 -47 -15 -149 -16
-1002 -17 -848 0 -956 2 -1001 16 -84 27 -160 91 -207 174 l-22 40 -3 994 -2
994 28 62 c48 102 137 172 237 186 28 3 480 6 1005 5 887 -1 958 -2 999 -19z"/>
</g>
</svg>
