<svg width="512" height="512" xmlns="http://www.w3.org/2000/svg">

 <g>
  <title>background</title>
  <rect fill="none" id="canvas_background" height="402" width="582" y="-1" x="-1"/>
 </g>
 <g>
  <title>Layer 1</title>
  <g stroke="null" id="svg_1">
   <path stroke="null" id="svg_2" fill="#AAAAAA" class="active-path" d="m76.191406,154.531249c155.097153,0 281.27734,126.180186 281.27734,281.27734l0,11.191406l89.531249,0l0,-11.191406c0,-100.938321 -40.863203,-193.838653 -108.915115,-261.893474c-68.046077,-68.043167 -160.940582,-108.915115 -261.893474,-108.915115l-11.191406,0l0,89.531249l11.191406,0zm11.191406,-66.970657c183.256357,5.805542 331.251049,153.800233 337.056591,337.056591l-44.791857,0c-2.777446,-76.16859 -34.381514,-148.557172 -89.044534,-203.220199c-54.54936,-54.546443 -126.885484,-86.261254 -203.220199,-89.044534l0,-44.791857zm0,0"/>
   <path stroke="null" id="svg_3" fill="#AAAAAA" class="active-path" d="m223.171873,435.808588l0,11.191406l89.531249,0l0,-11.191406c0,-62.800105 -25.119462,-122.467206 -69.581985,-166.92973c-44.404231,-44.404239 -104.050934,-69.581985 -166.92973,-69.581985l-11.191406,0l0,89.531249l11.191406,0c79.671739,0 146.980467,67.308727 146.980467,146.980467zm-135.78906,-213.840374c109.180329,5.651078 196.997889,93.468639 202.648968,202.648968l-44.847225,0c-2.695853,-40.670853 -20.048359,-78.762438 -49.545287,-108.256456c-29.494018,-29.496928 -67.585603,-46.849434 -108.256456,-49.545287l0,-44.847225zm0,0"/>
   <path stroke="null" id="svg_4" fill="#AAAAAA" class="active-path" d="m121.703124,446.999994c30.811344,0 56.703124,-25.649889 56.703124,-56.703124c0,-30.811336 -25.649889,-56.703124 -56.703124,-56.703124c-30.811336,0 -56.703124,25.649889 -56.703124,56.703124c0,30.811344 25.649889,56.703124 56.703124,56.703124zm0,-91.023436c18.602795,0 34.320312,15.717517 34.320312,34.320312s-15.717517,34.320312 -34.320312,34.320312s-34.320312,-15.717517 -34.320312,-34.320312s15.717517,-34.320312 34.320312,-34.320312zm0,0"/>
  </g>
 </g>
</svg>