<svg width="540" height="530" xmlns="http://www.w3.org/2000/svg">
 <g>
  <title>background</title>
  <rect x="-1" y="-1" width="542" height="532" id="canvas_background" fill="none"/>
 </g>

 <g>
  <title>Layer 1</title>
  <g transform="rotate(180 274.6330261230469,264.73382568359375) " id="svg_5" stroke="null">
   <path d="m538.43117,314.19397c0,-13.21084 -5.25294,-25.54417 -14.33388,-34.60096c10.22411,-11.2103 15.43278,-26.29288 14.09237,-42.07585c-2.70496,-27.89491 -27.8748,-49.72379 -57.35565,-49.72379l-135.74319,0c6.70203,-20.39992 17.47357,-57.7944 17.47357,-87.9354c0,-47.67898 -40.51404,-87.93138 -65.94954,-87.93138c-22.94789,0 -39.19376,12.88077 -39.8539,13.40808c-2.61641,2.11325 -4.10977,5.25696 -4.10977,8.57376l0,74.54745l-63.33314,137.17215l-18.5322,9.27817c-3.7153,1.86771 -6.07007,5.67157 -6.07007,9.82561l0,197.84862c0,2.92636 1.16732,5.71585 3.21215,7.78482c9.45126,9.45126 24.46541,15.32007 35.19267,18.50806c12.96933,4.17819 27.37164,6.70605 38.53766,6.70605l201.80542,0c23.91798,0 44.88948,-16.06876 49.90092,-38.3847c2.41916,-11.4518 0.90165,-23.01632 -4.08965,-33.01905c16.24587,-8.19941 27.1744,-24.97258 27.1744,-44.0321c0,-7.78079 -1.78319,-15.25567 -5.12414,-21.98184c16.2016,-8.17929 27.10597,-24.92832 27.10597,-43.9677zm0,0" fill="#ffcc80" id="svg_1" stroke-width="23" stroke="#000000"/>
   <path d="m175.70871,231.75705l-109.91724,0c-30.31409,0 -54.95661,24.64251 -54.95661,54.96063l0,175.86275c0,30.31812 24.64252,54.96064 54.95661,54.96064l65.94954,0c30.31811,0 54.96063,-24.64252 54.96063,-54.96064l0,-219.83045c0,-6.06604 -4.92689,-10.99294 -10.99293,-10.99294l0,0.00001zm0,0" fill="#2196f3" id="svg_2" stroke-width="23" stroke="#000000"/>
   <path d="m131.74101,517.54107l-65.94954,0c-30.28994,0 -54.95661,-24.64252 -54.95661,-54.96064l0,-175.86275c0,-30.31812 24.66667,-54.96064 54.95661,-54.96064l109.91724,0c6.06604,0 10.99293,4.9269 10.99293,10.99294l0,4.19832l2.63653,-1.3404l63.31301,-137.15202l0,-74.54745c0,-3.34096 1.51349,-6.50479 4.10977,-8.59389c0.70441,-0.52731 17.01469,-13.38795 39.8539,-13.38795c25.43551,0 65.94954,40.2524 65.94954,87.93138c0,30.07257 -10.77153,67.51133 -17.47356,87.9354l135.76733,0c29.58954,0 54.77949,21.89328 57.33151,49.8365c1.42895,15.65014 -3.77971,30.70856 -14.0481,41.96314c9.03666,9.08094 14.2896,21.39012 14.2896,34.60096c0,19.05952 -10.9245,35.81257 -27.15025,43.98783c3.38523,6.7302 5.16842,14.18092 5.16842,21.96171c0,19.05952 -10.92853,35.83269 -27.1744,43.98782c5.01545,10.02688 6.48869,21.56725 3.95681,33.04321c-4.92286,22.2475 -25.8501,38.38066 -49.7882,38.38066l-201.7853,0c-15.27981,0 -39.92234,-4.94299 -58.18888,-14.35401c-7.65198,21.16874 -27.94322,36.33988 -51.72836,36.33988zm-65.94954,-263.79816c-18.17799,0 -32.97477,14.79276 -32.97477,32.97477l0,175.86275c0,18.18201 14.79678,32.97477 32.97477,32.97477l65.94954,0c18.182,0 32.97477,-14.79276 32.97477,-32.97477c0,-4.43983 2.68483,-8.46106 6.7946,-10.15568c4.13392,-1.67047 8.83541,-0.74466 11.97912,2.37489c10.37706,10.39719 40.29668,18.77372 58.16875,18.77372l201.7853,0c13.714,0 25.62871,-8.87968 28.33367,-21.14861c2.17766,-9.84573 -0.72455,-19.4097 -7.9579,-26.22445c-3.11956,-2.94647 -4.24261,-7.41046 -2.9022,-11.47595c1.36455,-4.0655 4.94703,-6.94756 9.18962,-7.45072c13.87098,-1.60607 24.35673,-13.25914 24.35673,-27.13012c0,-7.55941 -3.07528,-14.6398 -8.68244,-19.89274c-3.11956,-2.94648 -4.24261,-7.41047 -2.9022,-11.47596c1.36456,-4.0655 4.94703,-6.94756 9.18962,-7.45072c13.89514,-1.60607 24.38089,-13.25914 24.38089,-27.13012c0,-10.24423 -5.76012,-19.56267 -15.0383,-24.2883c-3.53818,-1.82746 -5.82452,-5.38577 -5.95736,-9.36673c-0.15296,-3.97694 1.82344,-7.7164 5.20867,-9.78134c10.81581,-6.66178 16.81745,-18.60063 15.65415,-31.10706c-1.53763,-16.75304 -17.10324,-29.85521 -35.43821,-29.85521l-151.28867,0c-3.62674,0 -6.98781,-1.77915 -9.05678,-4.74576c-2.04483,-2.99075 -2.50371,-6.7946 -1.23172,-10.15568c0.22138,-0.57158 21.28144,-56.34531 21.28144,-95.03593c0,-36.00576 -31.92016,-65.94953 -43.9677,-65.94953c-9.47542,0 -17.40917,3.42951 -21.98184,5.95735l0,70.98512c0,1.58192 -0.35019,3.16383 -1.01034,4.61695l-65.94954,142.89201c-1.05461,2.26218 -2.83779,4.10977 -5.0557,5.20866l-21.98587,10.99293c-3.4295,1.67048 -7.45071,1.46922 -10.68298,-0.4629c-3.25239,-2.0247 -5.23281,-5.56288 -5.23281,-9.36674l0,-10.9889l-98.92431,0zm0,0" id="svg_3" stroke-width="23" stroke="#000000"/>
   <path d="m175.70871,473.57337c-6.06604,0 -10.99293,-4.92287 -10.99293,-10.99294l0,-197.84862c0,-6.06603 4.92689,-10.9889 10.99293,-10.9889s10.99293,4.92287 10.99293,10.9889l0,197.84862c0,6.07007 -4.92689,10.99294 -10.99293,10.99294zm0,0" id="svg_4" stroke-width="23" stroke="#000000"/>
  </g>
 </g>
</svg>