<svg width="540" height="530" xmlns="http://www.w3.org/2000/svg">

 <g>
  <title>background</title>
  <rect fill="none" id="canvas_background" height="532" width="542" y="-1" x="-1"/>
 </g>
 <g>
  <title>Layer 1</title>
  <g stroke="null" id="svg_5">
   <path stroke="#000000" stroke-width="23" id="svg_1" fill="#ffcc80" d="m529.431173,314.193969c0,-13.210837 -5.252943,-25.544173 -14.333885,-34.600962c10.224116,-11.210298 15.43278,-26.292876 14.092376,-42.075847c-2.704962,-27.894914 -27.874799,-49.723789 -57.355655,-49.723789l-135.743184,0c6.702029,-20.399924 17.473567,-57.794405 17.473567,-87.935405c0,-47.678972 -40.514038,-87.931376 -65.949539,-87.931376c-22.947894,0 -39.19376,12.880769 -39.853904,13.408077c-2.616404,2.11325 -4.109769,5.256961 -4.109769,8.57376l0,74.547453l-63.333135,137.172146l-18.532202,9.278173c-3.715298,1.867712 -6.070068,5.671568 -6.070068,9.825616l0,197.848618c0,2.926356 1.167317,5.715847 3.212144,7.784818c9.451259,9.451259 24.465414,15.320068 35.192673,18.508058c12.969327,4.178192 27.371635,6.706048 38.537654,6.706048l201.805425,0c23.917981,0 44.889481,-16.06876 49.900915,-38.384693c2.419163,-11.451808 0.901654,-23.016327 -4.089644,-33.019049c16.245865,-8.199413 27.174394,-24.972586 27.174394,-44.032106c0,-7.780788 -1.783183,-15.255664 -5.124135,-21.981837c16.201597,-8.179289 27.105972,-24.928318 27.105972,-43.967702zm0,0"/>
   <path stroke="#000000" stroke-width="23" id="svg_2" fill="#2196f3" d="m166.708708,231.757045l-109.917242,0c-30.314087,0 -54.956606,24.642519 -54.956606,54.960635l0,175.862752c0,30.318116 24.642519,54.960635 54.956606,54.960635l65.949539,0c30.318116,0 54.960635,-24.642519 54.960635,-54.960635l0,-219.830454c0,-6.066039 -4.926894,-10.992933 -10.992933,-10.992933zm0,0"/>
   <path stroke="#000000" stroke-width="23" id="svg_3" d="m122.741005,517.541067l-65.949539,0c-30.289933,0 -54.956606,-24.642519 -54.956606,-54.960635l0,-175.862752c0,-30.318116 24.666673,-54.960635 54.956606,-54.960635l109.917242,0c6.066039,0 10.992933,4.926894 10.992933,10.992933l0,4.198327l2.636529,-1.340404l63.313011,-137.152021l0,-74.547453c0,-3.340952 1.51349,-6.504789 4.109769,-8.593884c0.704413,-0.527308 17.014693,-13.387952 39.853904,-13.387952c25.435501,0 65.949539,40.252404 65.949539,87.931376c0,30.072578 -10.771538,67.511338 -17.473567,87.935405l135.767338,0c29.589539,0 54.779491,21.893279 57.331501,49.8365c1.428951,15.650135 -3.779702,30.708558 -14.048097,41.963135c9.036663,9.080942 14.289606,21.390125 14.289606,34.600962c0,19.05952 -10.9245,35.812568 -27.150251,43.987827c3.385231,6.730202 5.168414,14.180923 5.168414,21.961712c0,19.05952 -10.928529,35.832693 -27.174394,43.987827c5.015442,10.026875 6.488682,21.567241 3.956807,33.043203c-4.922865,22.2475 -25.850097,38.380664 -49.788203,38.380664l-201.7853,0c-15.279808,0 -39.922337,-4.94299 -58.188876,-14.35401c-7.651981,21.168741 -27.943222,36.339876 -51.728366,36.339876zm-65.949539,-263.798157c-18.177981,0 -32.97477,14.79276 -32.97477,32.97477l0,175.862752c0,18.18201 14.796789,32.97477 32.97477,32.97477l65.949539,0c18.18201,0 32.97477,-14.79276 32.97477,-32.97477c0,-4.439836 2.684837,-8.461058 6.794606,-10.155683c4.133923,-1.670471 8.835404,-0.744663 11.979116,2.374894c10.377067,10.397192 40.296683,18.773721 58.168751,18.773721l201.7853,0c13.714001,0 25.628712,-8.879683 28.333674,-21.148616c2.177654,-9.84573 -0.724548,-19.409702 -7.957904,-26.224443c-3.119557,-2.946471 -4.242606,-7.410461 -2.902202,-11.475951c1.364558,-4.065501 4.94703,-6.947568 9.189625,-7.450721c13.870981,-1.606077 24.356731,-13.259145 24.356731,-27.130126c0,-7.559404 -3.075279,-14.639798 -8.682442,-19.892741c-3.119557,-2.946471 -4.242606,-7.410461 -2.902202,-11.475951c1.364558,-4.065501 4.94703,-6.947568 9.189625,-7.450721c13.895135,-1.606077 24.380885,-13.259145 24.380885,-27.130126c0,-10.24423 -5.760115,-19.562663 -15.038298,-24.288298c-3.538182,-1.827462 -5.824519,-5.385769 -5.957356,-9.366731c-0.152962,-3.976943 1.823433,-7.716395 5.208664,-9.781337c10.815817,-6.661779 16.817452,-18.600635 15.654154,-31.107058c-1.537634,-16.753048 -17.10324,-29.855212 -35.438212,-29.855212l-151.288665,0c-3.62674,0 -6.987817,-1.779154 -9.056788,-4.74576c-2.044827,-2.99075 -2.503702,-6.794606 -1.231721,-10.155683c0.221384,-0.571576 21.281442,-56.345308 21.281442,-95.035924c0,-36.005769 -31.920154,-65.949539 -43.967702,-65.949539c-9.475413,0 -17.409164,3.42951 -21.981837,5.957356l0,70.985116c0,1.581923 -0.350192,3.163836 -1.010337,4.616952l-65.949539,142.892011c-1.054616,2.262183 -2.837788,4.109769 -5.055702,5.208664l-21.985866,10.992923c-3.4295,1.670481 -7.450711,1.469222 -10.68298,-0.462894c-3.252394,-2.024702 -5.232818,-5.562885 -5.232818,-9.366741l0,-10.988904l-98.924309,0zm0,0"/>
   <path stroke="#000000" stroke-width="23" id="svg_4" d="m166.708708,473.573365c-6.066039,0 -10.992933,-4.922865 -10.992933,-10.992933l0,-197.848618c0,-6.066039 4.926894,-10.988904 10.992933,-10.988904s10.992933,4.922865 10.992933,10.988904l0,197.848618c0,6.070068 -4.926894,10.992933 -10.992933,10.992933zm0,0"/>
  </g>
 </g>
</svg>