<?xml version="1.0" encoding="utf-8"?>
<!-- Svg Vector Icons : http://www.onlinewebfonts.com/icon -->
<!DOCTYPE svg PUBLIC "-//W3C//DTD SVG 1.1//EN" "http://www.w3.org/Graphics/SVG/1.1/DTD/svg11.dtd">
<svg version="1.1" xmlns="http://www.w3.org/2000/svg" xmlns:xlink="http://www.w3.org/1999/xlink" x="0px" y="0px" viewBox="0 0 1000 1000" enable-background="new 0 0 1000 1000" xml:space="preserve">
<metadata> Svg Vector Icons : http://www.onlinewebfonts.com/icon </metadata>
<g fill="#fff"><path d="M484.3,670.8c-91.1,0-165.6-74.5-165.6-165.6c0-38.2,12.7-75.5,37.2-104.9c8.8-10.8,24.5-11.8,35.3-3.9c10.8,8.8,11.8,24.5,3.9,35.3c-16.7,20.6-26.5,46.1-26.5,73.5c0,64.7,51.9,116.6,116.6,116.6c27.4,0,53.9-9.8,75.5-27.4c10.8-8.8,26.5-7.8,35.3,2.9c8.8,10.8,7.8,26.5-2.9,35.3C561.7,657,523.5,670.8,484.3,670.8z"/><path d="M500,847.2c-270.5,0-490-156.8-490-348.9c0-113.7,77.4-220.5,208.7-285.2c11.8-5.9,27.4-1,33.3,10.8c5.9,11.8,1,27.4-10.8,33.3C126.6,313.1,59,404.2,59,498.3c0,164.6,198,298.9,441,298.9c90.2,0,176.4-18.6,249.9-52.9c12.7-5.9,27.4-1,33.3,11.8c5.9,12.7,1,27.4-11.8,33.3C691.1,826.6,597,847.2,500,847.2z"/><path d="M874.4,715.8c-6.9,0-12.7-2.9-17.6-7.8c-9.8-9.8-8.8-25.5,1-35.3c54.9-51,83.3-111.7,83.3-174.4c0-164.6-198-298.9-441-298.9c-39.2,0-77.4,3.9-114.7,10.8c-13.7,2-26.5-6.9-28.4-19.6c-2.9-13.7,6.9-26.5,19.6-28.4c40.2-7.8,81.3-10.8,123.5-10.8c270.5,0,490,156.8,490,348.9c0,76.4-34.3,149.9-99,210.7C887.1,712.9,881.2,715.8,874.4,715.8z"/><path d="M641.1,522.8c-13.7,0-24.5-10.8-24.5-24.5c0-64.7-51.9-116.6-116.6-116.6c-13.7,0-24.5-10.8-24.5-24.5s10.8-24.5,24.5-24.5c91.1,0,165.6,74.5,165.6,165.6C666.6,512,654.8,522.8,641.1,522.8z"/><path d="M873.4,892.2c-5.9,0-12.7-2-17.6-6.9l-735-735c-9.8-9.8-9.8-25.5,0-35.3c9.8-9.8,25.5-9.8,35.3,0l735,735c9.8,9.8,9.8,25.5,0,35.3C886.1,889.3,880.2,892.2,873.4,892.2z"/></g>
</svg>