<svg width="512" height="512" xmlns="http://www.w3.org/2000/svg">
 <g>
  <title>background</title>
  <rect x="-1" y="-1" width="514" height="514" id="canvas_background" fill="none"/>
 </g>

 <g>
  <title>Layer 1</title>
  <g id="svg_1">
   <g id="svg_2">
    <g id="svg_3">
     <g id="svg_4">
      <rect x="160.48" width="32" height="32" fill="#c1c2c4" id="svg_5"/>
      <rect x="224.48" width="32" height="32" fill="#c1c2c4" id="svg_6"/>
      <path d="m432,0l-143.536,0l0,32l143.536,0c26.51,0 48,21.49 48,48l0,352c0,26.51 -21.49,48 -48,48l-352,0c-26.51,0 -48,-21.49 -48,-48l0,-352c0,-26.51 21.49,-48 48,-48l48.464,0l0,-32l-48.464,0c-44.161,0.053 -79.947,35.839 -80,80l0,352c0.053,44.161 35.839,79.947 80,80l352,0c44.161,-0.053 79.947,-35.839 80,-80l0,-352c-0.053,-44.161 -35.839,-79.947 -80,-80z" fill="#c1c2c4" id="svg_7"/>
     </g>
    </g>
   </g>
   <g id="svg_8"/>
   <g id="svg_9"/>
   <g id="svg_10"/>
   <g id="svg_11"/>
   <g id="svg_12"/>
   <g id="svg_13"/>
   <g id="svg_14"/>
   <g id="svg_15"/>
   <g id="svg_16"/>
   <g id="svg_17"/>
   <g id="svg_18"/>
   <g id="svg_19"/>
   <g id="svg_20"/>
   <g id="svg_21"/>
   <g id="svg_22"/>
  </g>
  <rect fill="#c1c2c4" stroke="#c1c2c4" stroke-width="null" x="119.75001" y="0.7" width="189" height="31" id="svg_23"/>
  <g id="svg_45">
   <g transform="matrix(0.699942, 0, 0, 0.794125, -195.58, -289.022)" id="svg_27">
    <g id="svg_28">
     <path id="svg_29" fill="#ffffff" d="m835.92998,608.10629l-213.798,213.783c-15.832,15.835 -41.514,15.835 -57.361,0l-110.364,-110.372c-15.838,-15.835 -15.838,-41.52 0,-57.358c15.841,-15.841 41.521,-15.841 57.355,-0.006l81.698,81.699l185.106,-185.107c15.841,-15.841 41.523,-15.829 57.358,0c15.835,15.838 15.835,41.514 0.006,57.361z"/>
    </g>
    <g id="svg_30"/>
    <g id="svg_31"/>
    <g id="svg_32"/>
    <g id="svg_33"/>
    <g id="svg_34"/>
    <g id="svg_35"/>
    <g id="svg_36"/>
    <g id="svg_37"/>
    <g id="svg_38"/>
    <g id="svg_39"/>
    <g id="svg_40"/>
    <g id="svg_41"/>
    <g id="svg_42"/>
    <g id="svg_43"/>
    <g id="svg_44"/>
   </g>
  </g>
 </g>
</svg>