<?xml version="1.0" encoding="UTF-8" standalone="no"?>
<svg
   xmlns:dc="http://purl.org/dc/elements/1.1/"
   xmlns:cc="http://creativecommons.org/ns#"
   xmlns:rdf="http://www.w3.org/1999/02/22-rdf-syntax-ns#"
   xmlns:svg="http://www.w3.org/2000/svg"
   xmlns="http://www.w3.org/2000/svg"
   xmlns:sodipodi="http://sodipodi.sourceforge.net/DTD/sodipodi-0.dtd"
   xmlns:inkscape="http://www.inkscape.org/namespaces/inkscape"
   inkscape:version="1.0 (4035a4fb49, 2020-05-01)"
   sodipodi:docname="method-draw-image.svg"
   id="svg46"
   version="1.1"
   height="200"
   width="657.33212">
  <metadata
     id="metadata52">
    <rdf:RDF>
      <cc:Work
         rdf:about="">
        <dc:format>image/svg+xml</dc:format>
        <dc:type
           rdf:resource="http://purl.org/dc/dcmitype/StillImage" />
        <dc:title></dc:title>
      </cc:Work>
    </rdf:RDF>
  </metadata>
  <defs
     id="defs50" />
  <sodipodi:namedview
     inkscape:current-layer="svg_8"
     inkscape:window-maximized="1"
     inkscape:window-y="-8"
     inkscape:window-x="1912"
     inkscape:cy="100"
     inkscape:cx="328.66605"
     inkscape:zoom="2.6181591"
     showgrid="false"
     id="namedview48"
     inkscape:window-height="1017"
     inkscape:window-width="1920"
     inkscape:pageshadow="2"
     inkscape:pageopacity="0"
     guidetolerance="10"
     gridtolerance="10"
     objecttolerance="10"
     borderopacity="1"
     bordercolor="#666666"
     pagecolor="#ffffff" />
  <g
     id="g35">
    <title
       id="title32">background</title>
    <rect
       x="-1"
       y="-1"
       width="659.33212"
       height="202"
       id="canvas_background"
       fill="none" />
  </g>
  <g
     id="g44">
    <title
       id="title37">Layer 1</title>
    <path
       d="m239.598311,11.462091c-30.531607,-0.00853 -55.77111,23.798138 -57.543673,54.278574l-87.721338,0c-10.720677,0.015637 -19.771131,7.975831 -21.152796,18.608375c-0.170576,0.484719 -0.217482,1.002129 -0.143567,1.509595c-0.022743,0.403694 -0.036957,0.810233 -0.036957,1.218192l0,85.083102c-0.005688,4.976542 1.738448,9.795304 4.923949,13.619039c0.247336,0.473347 0.609807,0.877044 1.056146,1.174131c4.012793,4.180523 9.559343,6.544415 15.353226,6.542992l127.107243,0c5.789617,0.001423 11.329061,-2.356785 15.339008,-6.528778c0.170576,-0.113717 0.328357,-0.241648 0.476189,-0.383796c0.235964,-0.233118 0.43639,-0.503197 0.588487,-0.797442c3.191184,-3.823735 4.936743,-8.646758 4.931055,-13.626146l0,-45.481135c30.316968,-1.656004 54.474735,-26.84149 54.474735,-57.564997c-0.035538,-31.826562 -25.826567,-57.616168 -57.651706,-57.651706zm-145.265011,60.633935l87.692911,0c0.683722,13.683008 6.240221,26.66665 15.6631,36.608366c1.407249,1.489693 2.889836,2.905469 4.444918,4.238801l-35.708579,30.287117c-4.904047,4.180523 -12.119396,4.184788 -17.023444,0.007107l-69.76115,-59.070324c1.397297,-7.010658 7.545125,-12.059696 14.692244,-12.071067zm0,115.044705c-3.242359,0.001423 -6.396583,-1.051881 -8.987912,-3.003553l38.335443,-39.209641c0.811656,-0.80881 1.125799,-1.991468 0.823028,-3.097365c-0.305617,-1.103055 -1.179815,-1.958779 -2.289978,-2.237384c-1.111585,-0.278609 -2.287136,0.061123 -3.076048,0.889835l-37.963019,38.828691c-1.196871,-2.19332 -1.823734,-4.65245 -1.820892,-7.151384l0,-79.908976l65.94168,55.836498c7.273627,6.193315 17.970137,6.18905 25.239499,-0.011372l36.763302,-31.178375c8.626863,5.8678 18.702195,9.252304 29.121519,9.782509l0,45.479716c0.004265,2.507463 -0.626867,4.976542 -1.83369,7.175546l-38.191872,-38.857119c-1.233832,-1.229563 -3.226722,-1.235251 -4.467658,-0.014214c-1.242362,1.219615 -1.270789,3.212505 -0.063969,4.467658l38.545821,39.219594c-2.585642,1.943139 -5.734185,2.992178 -8.968015,2.989336l-127.107239,0zm145.265011,-66.730592c-10.921102,0.044068 -21.566438,-3.434255 -30.352502,-9.921811c-0.133618,-0.117982 -0.275767,-0.224592 -0.423599,-0.32125c-2.3312,-1.75693 -4.510302,-3.707176 -6.513142,-5.828001c-16.712143,-17.690109 -18.693665,-44.685116 -4.746266,-64.628246c13.947395,-19.938865 39.987182,-27.337581 62.335426,-17.707169c22.348244,9.631835 34.852855,33.640348 29.937436,57.472601c-4.916842,23.832253 -25.901904,40.932457 -50.237354,40.933876zm0,0"
       id="svg_2"
       stroke="null" />
    <g
       id="svg_8"
       stroke="null">
      <path
         d="m562.153101,52.17021l-32.54811,26.482856l-12.993927,-15.217187c-1.142214,-1.337085 -3.147844,-1.494977 -4.484929,-0.352763c-1.334245,1.14079 -1.492134,3.147844 -0.351343,4.482089l15.010936,17.581271c1.120875,1.312902 3.085255,1.49071 4.425188,0.401125l34.956292,-28.441547c1.362688,-1.1095 1.568942,-3.110861 0.459443,-4.473553c-1.106652,-1.362688 -3.110858,-1.568942 -4.473549,-0.459446l0,-0.002844zm0,0"
         id="svg_6"
         stroke="null" />
      <path
         d="m539.17654,11.165734c-30.552436,-0.008536 -55.809158,23.814374 -57.58293,54.315604l-87.781183,0c-10.72799,0.015647 -19.78462,7.981272 -21.167226,18.62107c-0.170692,0.485049 -0.21763,1.002813 -0.143665,1.510625c-0.022759,0.403969 -0.036982,0.810786 -0.036982,1.219023l0,85.141147c-0.005692,4.979937 1.739634,9.801986 4.927308,13.62833c0.247504,0.47367 0.610223,0.877643 1.056866,1.174932c4.015531,4.183375 9.565865,6.54888 15.3637,6.547456l127.193957,0c5.793567,0.001424 11.33679,-2.358393 15.349473,-6.533232c0.170692,-0.113795 0.328581,-0.241813 0.476514,-0.384058c0.236125,-0.233277 0.436687,-0.50354 0.588888,-0.797986c3.193362,-3.826344 4.940111,-8.652657 4.934419,-13.635441l0,-45.512163c30.33765,-1.657134 54.511899,-26.859802 54.511899,-57.604269c-0.035562,-31.848275 -25.844186,-57.655475 -57.691037,-57.691037zm-145.364113,60.6753l87.752736,0c0.684188,13.692342 6.244478,26.684842 15.673786,36.633341c1.40821,1.49071 2.891808,2.907451 4.44795,4.241692l-35.73294,30.30778c-4.907393,4.183375 -12.127664,4.187643 -17.035057,0.007112l-69.808742,-59.110622c1.39825,-7.015441 7.550272,-12.067923 14.702267,-12.079303zm0,115.12319c-3.244571,0.001424 -6.400946,-1.052599 -8.994044,-3.005602l38.361596,-39.236391c0.81221,-0.809362 1.126567,-1.992826 0.823589,-3.099478c-0.305825,-1.103808 -1.18062,-1.960115 -2.29154,-2.23891c-1.112343,-0.278799 -2.288696,0.061165 -3.078147,0.890442l-37.988917,38.855181c-1.197688,-2.194816 -1.824978,-4.655624 -1.822134,-7.156262l0,-79.963491l65.986666,55.87459c7.278589,6.19754 17.982397,6.193272 25.256718,-0.011379l36.788382,-31.199645c8.632749,5.871803 18.714954,9.258616 29.141386,9.789183l0,45.510743c0.004268,2.509174 -0.627294,4.979937 -1.834941,7.180442l-38.217927,-38.883627c-1.234674,-1.230402 -3.228924,-1.236094 -4.470705,-0.014223c-1.243209,1.220447 -1.271656,3.214697 -0.064013,4.470705l38.572118,39.24635c-2.587406,1.944464 -5.738097,2.994219 -8.974133,2.991375l-127.193953,0zm145.364113,-66.776117c-10.928553,0.044098 -21.581151,-3.436598 -30.373209,-9.92858c-0.13371,-0.118062 -0.275955,-0.224745 -0.423888,-0.321469c-2.33279,-1.758129 -4.513379,-3.709705 -6.517585,-5.831977c-16.723544,-17.702178 -18.706418,-44.715601 -4.749504,-64.672336c13.95691,-19.952468 40.014462,-27.356231 62.377952,-17.719249c22.36349,9.638406 34.876632,33.663297 29.95786,57.511809c-4.920196,23.848512 -25.919574,40.960381 -50.271627,40.961801zm0,0"
         id="svg_7"
         stroke="null" />
      <path
         id="path54"
         d="m 206.36579,69.431119 c 21.26176,0 42.52352,0 63.78528,0"
         style="fill:none;stroke:#000000;stroke-width:6px;stroke-linecap:butt;stroke-linejoin:miter;stroke-opacity:1" />
    </g>
    <line
       fill="none"
       stroke="null"
       stroke-width="null"
       stroke-opacity="null"
       x1="201.166077"
       y1="70"
       x2="267.166077"
       y2="74"
       id="svg_9"
       stroke-linejoin="null"
       stroke-linecap="null" />
  </g>
</svg>
