<svg width="39.761" height="39.761" xmlns="http://www.w3.org/2000/svg">

 <g>
  <title>background</title>
  <rect fill="none" id="canvas_background" height="402" width="582" y="-1" x="-1"/>
 </g>
 <g>
  <title>Layer 1</title>
  <path stroke="null" id="svg_1" fill="#1E201D" d="m11.088797,4.375l13.381211,0c0.219058,0 0.416694,0.098818 0.559048,0.241171l5.868273,5.87933c0.15341,0.131297 0.241171,0.328933 0.241171,0.548682l0,20.039338c0,0.416694 -0.351046,0.76774 -0.778797,0.76774l-19.270906,0c-0.427751,0 -0.778797,-0.351046 -0.778797,-0.76774l0,-25.929724c0,-0.427751 0.351046,-0.778797 0.778797,-0.778797l0,0zm14.160008,2.643211l0,3.257541l3.246485,0l-3.246485,-3.257541zm-1.557594,-1.096673l-11.823617,0l0,24.383187l17.724369,0l0,-18.481744l-5.121955,0c-0.427751,0 -0.778797,-0.351046 -0.778797,-0.778797l0,-5.122646z"/>
  <g id="svg_2"/>
  <g id="svg_3"/>
  <g id="svg_4"/>
  <g id="svg_5"/>
  <g id="svg_6"/>
  <g id="svg_7"/>
  <g id="svg_8"/>
  <g id="svg_9"/>
  <g id="svg_10"/>
  <g id="svg_11"/>
  <g id="svg_12"/>
  <g id="svg_13"/>
  <g id="svg_14"/>
  <g id="svg_15"/>
  <g id="svg_16"/>
 </g>
</svg>