<?xml version="1.0" encoding="UTF-8"?>
<!DOCTYPE svg PUBLIC "-//W3C//DTD SVG 1.1//EN" "http://www.w3.org/Graphics/SVG/1.1/DTD/svg11.dtd">
<!-- Creator: CorelDRAW 2019 (64-Bit) -->
<svg xmlns="http://www.w3.org/2000/svg" xml:space="preserve" width="0.394921in" height="11.107in" version="1.1" style="shape-rendering:geometricPrecision; text-rendering:geometricPrecision; image-rendering:optimizeQuality; fill-rule:evenodd; clip-rule:evenodd"
viewBox="0 0 394.92 11106.99"
 xmlns:xlink="http://www.w3.org/1999/xlink">
 <defs>
  <style type="text/css">
   <![CDATA[
    .fil2 {fill:black}
    .fil1 {fill:#5493FF}
    .fil6 {fill:#5493FF}
    .fil0 {fill:#5F6368}
    .fil7 {fill:#5F6368}
    .fil5 {fill:black;fill-rule:nonzero}
    .fil4 {fill:#5493FF;fill-rule:nonzero}
    .fil3 {fill:#5F6368;fill-rule:nonzero}
   ]]>
  </style>
 </defs>
 <g id="Layer_x0020_1">
  <metadata id="CorelCorpID_0Corel-Layer"/>
  <g id="_2607702729584">
   <path class="fil0" d="M292.08 267.21c16.1,-21.23 24.61,-46.57 24.61,-73.27 0,-32.75 -12.85,-63.45 -36.17,-86.44 -23.32,-22.99 -54.22,-35.41 -86.98,-34.94 -31.74,0.45 -61.65,13.19 -84.2,35.87 -22.56,22.67 -35.14,52.65 -35.43,84.39 -0.25,27.22 8.31,53.01 24.75,74.59 26.69,35.04 41.39,77.97 41.39,120.87l0 46.94c0,20.82 16.94,37.76 37.76,37.76l35.13 0c20.82,0 37.76,-16.94 37.76,-37.76l0 -46.94c0,-43.38 14.2,-85.24 41.38,-121.07l0 0 0 0 -0 0zm-181.03 -9.23c-14.33,-18.81 -21.79,-41.3 -21.57,-65.03 0.52,-57 47.3,-104.03 104.29,-104.83 28.59,-0.38 55.5,10.41 75.83,30.46 20.33,20.05 31.53,46.81 31.53,75.36 0,23.28 -7.41,45.37 -21.44,63.87 -28.63,37.75 -44.04,81.8 -44.68,127.55l-79.4 0c-0.65,-45.31 -16.41,-90.44 -44.55,-127.38l0 0 0 0 0 0 -0.01 0zm44.57 171.98l0 -6.3 79.53 9.11 0 2.46c0,1.3 -0.13,2.56 -0.35,3.8l-79.18 -9.07 0 0zm0 -21.96l0 -7.06 79.53 0 0 16.18 -79.53 -9.11 0 0 0 -0.01zm22.2 49.44c-8.36,0 -15.65,-4.65 -19.44,-11.49l67 7.68c-3.55,2.41 -7.83,3.81 -12.43,3.81l-35.13 0 0 0 0 0 0 0 0 -0z"/>
   <path class="fil0" d="M118.35 205.64c-0.61,-4.07 -0.89,-8.26 -0.86,-12.43 0.04,-4.3 -3.41,-7.81 -7.71,-7.85 -4.27,-0.04 -7.81,3.41 -7.85,7.71 -0.04,4.98 0.3,9.98 1.03,14.87 0.58,3.86 3.9,6.64 7.69,6.64 0.38,0 0.77,-0.03 1.16,-0.09 4.25,-0.64 7.18,-4.59 6.55,-8.85l-0.02 0 0 0 0 0z"/>
   <path class="fil0" d="M164.16 323.84c0.81,0 1.63,-0.13 2.43,-0.39 4.08,-1.34 6.31,-5.74 4.96,-9.82 -8.63,-26.22 -21.48,-50.66 -38.2,-72.62 -2.76,-3.63 -5.22,-7.5 -7.28,-11.5 -1.98,-3.82 -6.67,-5.31 -10.49,-3.34 -3.82,1.97 -5.31,6.67 -3.34,10.48 2.48,4.8 5.41,9.43 8.72,13.78 15.67,20.58 27.72,43.48 35.8,68.06 1.08,3.28 4.12,5.35 7.39,5.35l0 0 0.01 0 0 0 -0 0z"/>
   <path class="fil0" d="M277.06 220.58c-3.94,-1.7 -8.52,0.12 -10.22,4.07 -2.46,5.73 -5.66,11.19 -9.48,16.23 -2.59,3.43 -1.93,8.31 1.5,10.9 1.41,1.07 3.06,1.58 4.7,1.58 2.35,0 4.68,-1.06 6.2,-3.08 4.59,-6.05 8.41,-12.6 11.38,-19.48 1.7,-3.94 -0.12,-8.52 -4.07,-10.22l0 0 -0.01 0z"/>
   <path class="fil0" d="M195.31 116.13c42.91,0 77.81,34.91 77.81,77.81 0,2.44 -0.11,4.9 -0.33,7.31 -0.39,4.28 2.76,8.07 7.04,8.46 0.24,0.02 0.48,0.03 0.72,0.03 3.98,0 7.37,-3.03 7.74,-7.07 0.26,-2.88 0.4,-5.81 0.4,-8.72 0,-51.49 -41.89,-93.38 -93.38,-93.38 -4.3,0 -7.78,3.48 -7.78,7.78 0,4.3 3.48,7.78 7.78,7.78l0 0 0 0.01 0 0 0 -0.01z"/>
   <path class="fil0" d="M195.31 59.13c4.3,0 7.78,-3.48 7.78,-7.78l0 -43.57c0,-4.3 -3.48,-7.78 -7.78,-7.78 -4.3,0 -7.78,3.48 -7.78,7.78l0 43.57c0,4.3 3.48,7.78 7.78,7.78z"/>
   <path class="fil0" d="M116.59 74.51c1.44,2.5 4.06,3.89 6.75,3.89 1.32,0 2.66,-0.33 3.88,-1.04 3.72,-2.15 5,-6.91 2.85,-10.63l-21.78 -37.72c-2.15,-3.72 -6.91,-5 -10.63,-2.85 -3.72,2.15 -5,6.91 -2.85,10.63l21.78 37.73 0 -0.01 0 0 -0 0z"/>
   <path class="fil0" d="M361.6 282.32l-37.72 -21.78c-3.72,-2.15 -8.48,-0.87 -10.63,2.85 -2.15,3.72 -0.87,8.48 2.85,10.63l37.73 21.78c1.22,0.71 2.56,1.04 3.88,1.04 2.69,0 5.31,-1.39 6.75,-3.89 2.15,-3.72 0.87,-8.48 -2.85,-10.63l-0.01 0 0 0 -0 0z"/>
   <path class="fil0" d="M29.01 108.27l37.73 21.78c1.22,0.71 2.56,1.04 3.88,1.04 2.69,0 5.31,-1.4 6.75,-3.89 2.15,-3.72 0.87,-8.48 -2.85,-10.63l-37.73 -21.78c-3.72,-2.15 -8.48,-0.87 -10.63,2.85 -2.15,3.72 -0.87,8.48 2.85,10.63l0 0 -0 0z"/>
   <path class="fil0" d="M382.83 187.52l-43.58 0c-4.3,0 -7.78,3.48 -7.78,7.78 0,4.3 3.48,7.78 7.78,7.78l43.58 0c4.3,0 7.78,-3.48 7.78,-7.78 0,-4.3 -3.48,-7.78 -7.78,-7.78z"/>
   <path class="fil0" d="M59.14 195.3c0,-4.3 -3.48,-7.78 -7.78,-7.78l-43.58 0c-4.3,0 -7.78,3.48 -7.78,7.78 0,4.3 3.48,7.78 7.78,7.78l43.58 0c4.3,0 7.78,-3.48 7.78,-7.78z"/>
   <path class="fil0" d="M319.99 131.1c1.32,0 2.66,-0.33 3.89,-1.04l37.72 -21.78c3.72,-2.15 5,-6.91 2.85,-10.63 -2.15,-3.72 -6.91,-5 -10.63,-2.85l-37.73 21.78c-3.72,2.15 -5,6.91 -2.85,10.63 1.44,2.5 4.06,3.89 6.74,3.89l0.01 0 0 0z"/>
   <path class="fil0" d="M66.74 260.55l-37.73 21.78c-3.72,2.15 -5,6.91 -2.85,10.63 1.44,2.5 4.06,3.89 6.75,3.89 1.32,0 2.66,-0.33 3.88,-1.04l37.73 -21.78c3.72,-2.15 5,-6.91 2.85,-10.63 -2.15,-3.72 -6.91,-5 -10.63,-2.85l0 0 -0 0z"/>
   <path class="fil0" d="M263.39 77.35c1.22,0.71 2.56,1.04 3.88,1.04 2.69,0 5.31,-1.39 6.75,-3.89l21.78 -37.73c2.15,-3.72 0.87,-8.48 -2.85,-10.63 -3.72,-2.15 -8.48,-0.87 -10.63,2.85l-21.78 37.72c-2.15,3.72 -0.87,8.48 2.85,10.63l0 0.01 0 0 -0 0z"/>
   <path class="fil1" d="M292.08 1307.2c16.1,-21.23 24.61,-46.57 24.61,-73.28 0,-32.75 -12.85,-63.44 -36.17,-86.44 -23.32,-22.99 -54.22,-35.41 -86.98,-34.94 -31.74,0.45 -61.65,13.19 -84.2,35.87 -22.56,22.67 -35.14,52.65 -35.43,84.39 -0.25,27.22 8.31,53.01 24.75,74.6 26.69,35.04 41.39,77.96 41.39,120.86l0 46.94c0,20.82 16.94,37.76 37.76,37.76l35.13 0c20.82,0 37.76,-16.94 37.76,-37.76l0 -46.94c0,-43.38 14.2,-85.24 41.38,-121.07l0 0 0 0 -0 0.01zm-181.03 -9.23c-14.33,-18.81 -21.79,-41.3 -21.57,-65.03 0.52,-57 47.3,-104.03 104.29,-104.83 28.59,-0.38 55.5,10.41 75.83,30.46 20.33,20.05 31.53,46.81 31.53,75.35 0,23.28 -7.41,45.37 -21.44,63.87 -28.63,37.75 -44.04,81.79 -44.68,127.55l-79.4 0c-0.65,-45.31 -16.41,-90.44 -44.55,-127.38l0 0 0 0 0 0.01 -0.01 0zm44.57 171.97l0 -6.3 79.53 9.11 0 2.46c0,1.3 -0.13,2.56 -0.35,3.8l-79.18 -9.07 0 0zm0 -21.97l0 -7.06 79.53 0 0 16.18 -79.53 -9.11 0 0 0 -0.01zm22.2 49.44c-8.36,0 -15.65,-4.65 -19.44,-11.49l67 7.68c-3.55,2.41 -7.83,3.81 -12.43,3.81l-35.13 0 0 0 0 0 0 0 0 -0z"/>
   <path class="fil1" d="M118.35 1245.63c-0.61,-4.07 -0.89,-8.26 -0.86,-12.43 0.04,-4.3 -3.41,-7.81 -7.71,-7.85 -4.27,-0.04 -7.81,3.41 -7.85,7.71 -0.04,4.99 0.3,9.99 1.03,14.87 0.58,3.86 3.9,6.64 7.69,6.64 0.38,0 0.77,-0.03 1.16,-0.09 4.25,-0.64 7.18,-4.59 6.55,-8.85l-0.02 0 0 0 0 0z"/>
   <path class="fil1" d="M164.16 1363.83c0.81,0 1.63,-0.13 2.43,-0.39 4.08,-1.34 6.31,-5.74 4.96,-9.82 -8.63,-26.22 -21.48,-50.66 -38.2,-72.62 -2.76,-3.63 -5.22,-7.5 -7.28,-11.5 -1.98,-3.82 -6.67,-5.31 -10.49,-3.34 -3.82,1.97 -5.31,6.67 -3.34,10.48 2.48,4.8 5.41,9.43 8.72,13.78 15.67,20.58 27.72,43.48 35.8,68.06 1.08,3.28 4.12,5.35 7.39,5.35l0 0 0.01 0 0 0 -0 0z"/>
   <path class="fil1" d="M277.06 1260.56c-3.94,-1.7 -8.52,0.12 -10.22,4.07 -2.46,5.73 -5.66,11.19 -9.48,16.23 -2.59,3.43 -1.93,8.31 1.5,10.9 1.41,1.07 3.06,1.58 4.7,1.58 2.35,0 4.68,-1.06 6.2,-3.08 4.59,-6.05 8.41,-12.6 11.38,-19.48 1.7,-3.94 -0.12,-8.52 -4.07,-10.22l0 0 -0.01 0z"/>
   <path class="fil1" d="M195.31 1156.12c42.91,0 77.81,34.91 77.81,77.81 0,2.44 -0.11,4.9 -0.33,7.31 -0.39,4.28 2.76,8.07 7.04,8.46 0.24,0.02 0.48,0.03 0.72,0.03 3.98,0 7.37,-3.03 7.74,-7.07 0.26,-2.88 0.4,-5.81 0.4,-8.73 0,-51.48 -41.89,-93.38 -93.38,-93.38 -4.3,0 -7.78,3.48 -7.78,7.78 0,4.3 3.48,7.78 7.78,7.78l0 0 0 0.01 0 0 0 -0z"/>
   <path class="fil1" d="M195.31 1099.12c4.3,0 7.78,-3.48 7.78,-7.78l0 -43.58c0,-4.3 -3.48,-7.78 -7.78,-7.78 -4.3,0 -7.78,3.48 -7.78,7.78l0 43.58c0,4.3 3.48,7.78 7.78,7.78z"/>
   <path class="fil1" d="M116.59 1114.49c1.44,2.5 4.06,3.89 6.75,3.89 1.32,0 2.66,-0.33 3.88,-1.04 3.72,-2.15 5,-6.91 2.85,-10.63l-21.78 -37.72c-2.15,-3.72 -6.91,-5 -10.63,-2.85 -3.72,2.15 -5,6.91 -2.85,10.63l21.78 37.73 0 -0.01 0 0 -0 0z"/>
   <path class="fil1" d="M361.6 1322.31l-37.72 -21.78c-3.72,-2.15 -8.48,-0.87 -10.63,2.85 -2.15,3.72 -0.87,8.48 2.85,10.63l37.73 21.78c1.22,0.71 2.56,1.04 3.88,1.04 2.69,0 5.31,-1.39 6.75,-3.89 2.15,-3.72 0.87,-8.48 -2.85,-10.63l-0.01 0 0 0 -0 0z"/>
   <path class="fil1" d="M29.01 1148.25l37.73 21.78c1.22,0.71 2.56,1.04 3.88,1.04 2.69,0 5.31,-1.4 6.75,-3.89 2.15,-3.72 0.87,-8.48 -2.85,-10.63l-37.73 -21.78c-3.72,-2.15 -8.48,-0.87 -10.63,2.85 -2.15,3.72 -0.87,8.48 2.85,10.63l0 0 -0 0z"/>
   <path class="fil1" d="M382.83 1227.5l-43.58 0c-4.3,0 -7.78,3.48 -7.78,7.78 0,4.3 3.48,7.78 7.78,7.78l43.58 0c4.3,0 7.78,-3.48 7.78,-7.78 0,-4.3 -3.48,-7.78 -7.78,-7.78z"/>
   <path class="fil1" d="M59.14 1235.28c0,-4.3 -3.48,-7.78 -7.78,-7.78l-43.58 0c-4.3,0 -7.78,3.48 -7.78,7.78 0,4.3 3.48,7.78 7.78,7.78l43.58 0c4.3,0 7.78,-3.48 7.78,-7.78z"/>
   <path class="fil1" d="M319.99 1171.08c1.32,0 2.66,-0.33 3.89,-1.04l37.72 -21.78c3.72,-2.15 5,-6.91 2.85,-10.63 -2.15,-3.72 -6.91,-5 -10.63,-2.85l-37.73 21.78c-3.72,2.15 -5,6.91 -2.85,10.63 1.44,2.5 4.06,3.89 6.74,3.89l0.01 0 0 0z"/>
   <path class="fil1" d="M66.74 1300.52l-37.73 21.78c-3.72,2.15 -5,6.91 -2.85,10.63 1.44,2.5 4.06,3.89 6.75,3.89 1.32,0 2.66,-0.33 3.88,-1.04l37.73 -21.78c3.72,-2.15 5,-6.91 2.85,-10.63 -2.15,-3.72 -6.91,-5 -10.63,-2.85l0 0 -0 0z"/>
   <path class="fil1" d="M263.39 1117.34c1.22,0.71 2.56,1.04 3.88,1.04 2.69,0 5.31,-1.39 6.75,-3.89l21.78 -37.73c2.15,-3.72 0.87,-8.48 -2.85,-10.63 -3.72,-2.15 -8.48,-0.87 -10.63,2.85l-21.78 37.72c-2.15,3.72 -0.87,8.48 2.85,10.63l0 0.01 0 0 -0 0z"/>
   <path class="fil2" d="M292.08 2317.18c16.1,-21.23 24.61,-46.57 24.61,-73.28 0,-32.75 -12.85,-63.45 -36.17,-86.44 -23.32,-22.98 -54.22,-35.41 -86.98,-34.94 -31.74,0.45 -61.65,13.19 -84.2,35.87 -22.56,22.67 -35.14,52.65 -35.43,84.39 -0.25,27.22 8.31,53.01 24.75,74.6 26.69,35.04 41.39,77.96 41.39,120.87l0 46.94c0,20.82 16.94,37.76 37.76,37.76l35.13 0c20.82,0 37.76,-16.94 37.76,-37.76l0 -46.94c0,-43.38 14.2,-85.24 41.38,-121.07l0 0 0 0 -0 0zm-181.03 -9.23c-14.33,-18.81 -21.79,-41.3 -21.57,-65.03 0.52,-57 47.3,-104.03 104.29,-104.83 28.59,-0.38 55.5,10.41 75.83,30.46 20.33,20.05 31.53,46.81 31.53,75.36 0,23.28 -7.41,45.37 -21.44,63.87 -28.63,37.75 -44.04,81.8 -44.68,127.55l-79.4 0c-0.65,-45.31 -16.41,-90.44 -44.55,-127.38l0 0 0 0 0 0 -0.01 0zm44.57 171.98l0 -6.3 79.53 9.11 0 2.46c0,1.3 -0.13,2.56 -0.35,3.8l-79.18 -9.07 0 0zm0 -21.97l0 -7.06 79.53 0 0 16.18 -79.53 -9.11 0 0 0 -0.01zm22.2 49.44c-8.36,0 -15.65,-4.65 -19.44,-11.49l67 7.68c-3.55,2.41 -7.83,3.81 -12.43,3.81l-35.13 0 0 0 0 0 0 0 0 -0z"/>
   <path class="fil2" d="M118.35 2255.61c-0.61,-4.07 -0.89,-8.26 -0.86,-12.43 0.04,-4.3 -3.41,-7.81 -7.71,-7.85 -4.27,-0.04 -7.81,3.41 -7.85,7.71 -0.04,4.99 0.3,9.99 1.03,14.87 0.58,3.86 3.9,6.64 7.69,6.64 0.38,0 0.77,-0.03 1.16,-0.09 4.25,-0.64 7.18,-4.59 6.55,-8.85l-0.02 0 0 0 0 0z"/>
   <path class="fil2" d="M164.16 2373.81c0.81,0 1.63,-0.13 2.43,-0.39 4.08,-1.34 6.31,-5.74 4.96,-9.82 -8.63,-26.22 -21.48,-50.66 -38.2,-72.62 -2.76,-3.63 -5.22,-7.5 -7.28,-11.5 -1.98,-3.82 -6.67,-5.31 -10.49,-3.34 -3.82,1.97 -5.31,6.67 -3.34,10.48 2.48,4.8 5.41,9.43 8.72,13.78 15.67,20.58 27.72,43.48 35.8,68.06 1.08,3.28 4.12,5.35 7.39,5.35l0 0 0.01 0 0 0 -0 0z"/>
   <path class="fil2" d="M277.06 2270.55c-3.94,-1.7 -8.52,0.12 -10.22,4.07 -2.46,5.73 -5.66,11.19 -9.48,16.23 -2.59,3.43 -1.93,8.31 1.5,10.9 1.41,1.07 3.06,1.58 4.7,1.58 2.35,0 4.68,-1.06 6.2,-3.08 4.59,-6.05 8.41,-12.6 11.38,-19.48 1.7,-3.94 -0.12,-8.52 -4.07,-10.22l0 0 -0.01 0z"/>
   <path class="fil2" d="M195.31 2166.09c42.91,0 77.81,34.91 77.81,77.81 0,2.44 -0.11,4.9 -0.33,7.31 -0.39,4.28 2.76,8.07 7.04,8.46 0.24,0.02 0.48,0.03 0.72,0.03 3.98,0 7.37,-3.03 7.74,-7.07 0.26,-2.88 0.4,-5.81 0.4,-8.73 0,-51.49 -41.89,-93.38 -93.38,-93.38 -4.3,0 -7.78,3.48 -7.78,7.78 0,4.3 3.48,7.78 7.78,7.78l0 0 0 0.01 0 0 0 -0z"/>
   <path class="fil2" d="M195.31 2109.09c4.3,0 7.78,-3.48 7.78,-7.78l0 -43.58c0,-4.3 -3.48,-7.78 -7.78,-7.78 -4.3,0 -7.78,3.48 -7.78,7.78l0 43.58c0,4.3 3.48,7.78 7.78,7.78z"/>
   <path class="fil2" d="M116.59 2124.48c1.44,2.5 4.06,3.89 6.75,3.89 1.32,0 2.66,-0.33 3.88,-1.04 3.72,-2.15 5,-6.91 2.85,-10.63l-21.78 -37.72c-2.15,-3.72 -6.91,-5 -10.63,-2.85 -3.72,2.15 -5,6.91 -2.85,10.63l21.78 37.73 0 -0.01 0 0 -0 0z"/>
   <path class="fil2" d="M361.6 2332.29l-37.72 -21.78c-3.72,-2.15 -8.48,-0.87 -10.63,2.85 -2.15,3.72 -0.87,8.48 2.85,10.63l37.73 21.78c1.22,0.71 2.56,1.04 3.88,1.04 2.69,0 5.31,-1.39 6.75,-3.89 2.15,-3.72 0.87,-8.48 -2.85,-10.63l-0.01 0 0 0 -0 0z"/>
   <path class="fil2" d="M29.01 2158.22l37.73 21.78c1.22,0.71 2.56,1.04 3.88,1.04 2.69,0 5.31,-1.4 6.75,-3.89 2.15,-3.72 0.87,-8.48 -2.85,-10.63l-37.73 -21.78c-3.72,-2.15 -8.48,-0.87 -10.63,2.85 -2.15,3.72 -0.87,8.48 2.85,10.63l0 0 -0 0z"/>
   <path class="fil2" d="M382.83 2237.48l-43.58 0c-4.3,0 -7.78,3.48 -7.78,7.78 0,4.3 3.48,7.78 7.78,7.78l43.58 0c4.3,0 7.78,-3.48 7.78,-7.78 0,-4.3 -3.48,-7.78 -7.78,-7.78z"/>
   <path class="fil2" d="M59.14 2245.26c0,-4.3 -3.48,-7.78 -7.78,-7.78l-43.58 0c-4.3,0 -7.78,3.48 -7.78,7.78 0,4.3 3.48,7.78 7.78,7.78l43.58 0c4.3,0 7.78,-3.48 7.78,-7.78z"/>
   <path class="fil2" d="M319.99 2181.06c1.32,0 2.66,-0.33 3.89,-1.04l37.72 -21.78c3.72,-2.15 5,-6.91 2.85,-10.63 -2.15,-3.72 -6.91,-5 -10.63,-2.85l-37.73 21.78c-3.72,2.15 -5,6.91 -2.85,10.63 1.44,2.5 4.06,3.89 6.74,3.89l0.01 0 0 0z"/>
   <path class="fil2" d="M66.74 2310.52l-37.73 21.78c-3.72,2.15 -5,6.91 -2.85,10.63 1.44,2.5 4.06,3.89 6.75,3.89 1.32,0 2.66,-0.33 3.88,-1.04l37.73 -21.78c3.72,-2.15 5,-6.91 2.85,-10.63 -2.15,-3.72 -6.91,-5 -10.63,-2.85l0 0 -0 0z"/>
   <path class="fil2" d="M263.39 2127.31c1.22,0.71 2.56,1.04 3.88,1.04 2.69,0 5.31,-1.39 6.75,-3.89l21.78 -37.73c2.15,-3.72 0.87,-8.48 -2.85,-10.63 -3.72,-2.15 -8.48,-0.87 -10.63,2.85l-21.78 37.72c-2.15,3.72 -0.87,8.48 2.85,10.63l0 0.01 0 0 -0 0z"/>
   <path class="fil0" d="M135.08 6256.2l-18.9 -18.9 102.77 -102.77 102.77 102.77 -18.9 18.9 -70.51 -70.5 0 237.72 -26.73 0 0 -237.72 -70.51 70.5 0.01 0zm-87.21 193.29l0 26.73 342.17 0 0 -26.73 -342.17 0zm0 0z"/>
   <path class="fil1" d="M135.08 7220.2l-18.9 -18.9 102.77 -102.77 102.77 102.77 -18.9 18.9 -70.51 -70.5 0 237.72 -26.73 0 0 -237.72 -70.51 70.5 0.01 0zm-87.21 193.29l0 26.73 342.17 0 0 -26.73 -342.17 0zm0 0z"/>
   <path class="fil2" d="M135.08 8184.2l-18.9 -18.9 102.77 -102.77 102.77 102.77 -18.9 18.9 -70.51 -70.5 0 237.72 -26.73 0 0 -237.72 -70.51 70.5 0.01 0zm-87.21 193.3l0 26.73 342.17 0 0 -26.73 -342.17 0zm0 0z"/>
   <g>
    <g id="surface1">
     <path class="fil3" d="M333.3 9191.12l19.6 -19.6c12.41,-12.41 12.41,-32.6 0,-45.02 -3.81,-3.81 -8.38,-6.48 -13.27,-7.96 4,-5.43 6.16,-11.96 6.16,-18.83 0,-8.5 -3.31,-16.5 -9.32,-22.5 -6.01,-6.01 -14,-9.33 -22.51,-9.33 -0.36,0 -0.71,0.01 -1.07,0.02 0.28,-8.5 -2.81,-17.09 -9.29,-23.56 -6.48,-6.47 -15.07,-9.57 -23.56,-9.29 0.01,-0.35 0.02,-0.71 0.02,-1.07 0,-8.5 -3.31,-16.5 -9.32,-22.51 -12.41,-12.41 -32.6,-12.41 -45.02,0l-6.78 6.78 -6.78 -6.77c-6.01,-6.02 -14,-9.33 -22.51,-9.33 -8.5,0 -16.5,3.31 -22.51,9.32 -6.47,6.47 -9.56,15.07 -9.28,23.57 -0.36,-0.02 -0.72,-0.03 -1.07,-0.03 -8.5,0 -16.5,3.31 -22.51,9.32 -6.47,6.48 -9.56,15.07 -9.28,23.57 -0.36,-0.01 -0.72,-0.03 -1.08,-0.03 -8.5,0 -16.5,3.31 -22.5,9.32 -6.02,6.01 -9.33,14 -9.33,22.51 0,6.87 2.16,13.4 6.16,18.83 -4.96,1.49 -9.5,4.2 -13.27,7.96 -12.38,12.38 -12.41,32.51 -0.08,44.92 0.03,0.04 0.06,0.07 0.09,0.1l19.63 19.63c0.03,0.03 0.06,0.06 0.08,0.09 1.18,1.18 2.44,2.25 3.76,3.22l-5.81 5.81c-5.65,5.65 -8.52,13.34 -8.1,21.66 0.41,7.99 3.85,15.6 9.68,21.43l33.2 33.2c6.16,6.16 14.25,9.24 22.34,9.24 8.09,0 16.18,-3.08 22.34,-9.24l15.43 -15.43c7.04,1.51 14.22,2.28 21.39,2.28 7.17,0 14.35,-0.76 21.39,-2.27l15.43 15.43c6.16,6.16 14.25,9.24 22.34,9.24 8.09,0 16.18,-3.08 22.34,-9.24l33.2 -33.2c12.32,-12.31 13.72,-30.96 3.12,-41.56l-7.07 -7.07 3.49 -3.49c0.04,-0.04 0.08,-0.07 0.12,-0.11l0.03 -0zm-153.99 -167.5c2.77,-2.77 6.44,-4.29 10.36,-4.29 3.91,0 7.59,1.52 10.36,4.29l26.29 26.29c5.71,5.71 5.71,15.01 0,20.72 -2.77,2.77 -6.45,4.29 -10.36,4.29l0 0c-3.91,0 -7.59,-1.52 -10.35,-4.29 -0.01,0 -0.01,-0.01 -0.01,-0.01l-26.28 -26.28c-0.02,-0.02 -0.04,-0.04 -0.07,-0.06 -5.65,-5.72 -5.63,-14.97 0.06,-20.66l0 0zm-32.91 53.55c-5.67,-5.72 -5.66,-14.98 0.04,-20.68 2.77,-2.77 6.45,-4.29 10.37,-4.29 3.91,0 7.58,1.52 10.35,4.29 0,0 0,0 0,0 0.01,0.01 0.02,0.02 0.03,0.02l26.26 26.26c0.02,0.02 0.04,0.04 0.06,0.05l6.52 6.52c2.77,2.77 4.3,6.45 4.3,10.36 0,3.91 -1.52,7.59 -4.29,10.36 -2.77,2.77 -6.45,4.29 -10.36,4.29 -3.91,0 -7.59,-1.52 -10.35,-4.29 -0.04,-0.04 -0.07,-0.07 -0.11,-0.1l-6.44 -6.44c-0.01,-0.01 -0.02,-0.02 -0.03,-0.03l-26.3 -26.29c0,0 0,0 0,0 -0.01,-0.01 -0.02,-0.03 -0.04,-0.04l-0.01 0.02zm-32.82 12.18c2.76,-2.76 6.44,-4.29 10.35,-4.29 3.91,0 7.59,1.52 10.36,4.29l26.32 26.32c5.68,5.71 5.67,14.99 -0.03,20.69 -2.77,2.77 -6.45,4.29 -10.36,4.29 -3.91,0 -7.59,-1.52 -10.35,-4.29 -0.04,-0.04 -0.07,-0.07 -0.1,-0.1l-26.11 -26.11c-0.03,-0.03 -0.06,-0.06 -0.08,-0.09 -2.77,-2.77 -4.29,-6.44 -4.29,-10.36 0,-3.91 1.52,-7.59 4.3,-10.36l-0.01 0.01zm-16.35 70.11c-0.03,-0.04 -0.07,-0.07 -0.1,-0.1 -5.7,-5.71 -5.7,-15 0.01,-20.7 2.77,-2.77 6.44,-4.29 10.36,-4.29 3.91,0 7.59,1.52 10.36,4.3l19.72 19.71c5.71,5.71 5.71,15.01 0,20.72 -2.77,2.77 -6.45,4.29 -10.36,4.29l0 0c-0.72,0 -1.43,-0.05 -2.13,-0.15 -0.06,-0.01 -0.11,-0.02 -0.16,-0.02 -3.02,-0.47 -5.8,-1.87 -8.01,-4.05 -0.02,-0.02 -0.05,-0.04 -0.07,-0.07l-19.63 -19.62 0.01 -0.02zm99.87 83.9c-0.07,-0.02 -0.15,-0.03 -0.22,-0.05 -0.17,-0.04 -0.35,-0.08 -0.52,-0.11 -0.13,-0.02 -0.25,-0.04 -0.38,-0.06 -0.14,-0.02 -0.28,-0.04 -0.43,-0.04 -0.15,-0.02 -0.3,-0.02 -0.45,-0.02 -0.13,0 -0.24,-0.01 -0.37,0 -0.16,0 -0.32,0.01 -0.48,0.02 -0.12,0.01 -0.23,0.02 -0.35,0.03 -0.16,0.02 -0.31,0.04 -0.46,0.07 -0.13,0.02 -0.24,0.04 -0.37,0.07 -0.14,0.03 -0.28,0.06 -0.42,0.1 -0.13,0.04 -0.27,0.07 -0.4,0.11 -0.13,0.04 -0.24,0.09 -0.37,0.13 -0.14,0.06 -0.28,0.11 -0.42,0.17 -0.11,0.05 -0.22,0.1 -0.33,0.15 -0.14,0.07 -0.28,0.14 -0.41,0.22 -0.11,0.06 -0.22,0.13 -0.33,0.19 -0.12,0.08 -0.24,0.15 -0.37,0.24 -0.12,0.09 -0.24,0.17 -0.36,0.27 -0.1,0.07 -0.2,0.15 -0.29,0.23 -0.14,0.12 -0.28,0.24 -0.41,0.37 -0.05,0.05 -0.11,0.09 -0.15,0.14l-18.83 18.83c-5.62,5.62 -14.76,5.62 -20.38,0l-33.2 -33.2c-2.82,-2.82 -4.48,-6.43 -4.67,-10.17 -0.17,-3.41 0.93,-6.47 3.09,-8.63l11.86 -11.87c0.18,0 0.36,0.02 0.55,0.02 0,0 0,0 0,0 8.5,0 16.49,-3.31 22.5,-9.32 9.2,-9.2 11.57,-22.68 7.13,-34.1 5.97,-1.26 11.46,-4.21 15.88,-8.63 5.05,-5.05 8.04,-11.39 8.98,-17.97 2.57,0.66 5.23,1 7.95,1 0,0 0,0 0,0 8.5,0 16.49,-3.31 22.5,-9.32 6.01,-6.01 9.32,-14 9.32,-22.51 0,-2.71 -0.34,-5.37 -0.99,-7.93 6.78,-0.96 13.04,-4.07 17.96,-9 12.41,-12.41 12.41,-32.6 0,-45.01l-7.37 -7.37 6.78 -6.77c5.71,-5.71 15.01,-5.71 20.72,0 2.77,2.77 4.29,6.45 4.29,10.36 0,3.91 -1.52,7.59 -4.29,10.36 -1.68,1.68 -2.52,3.87 -2.52,6.07 0,2.2 0.84,4.39 2.52,6.07 3.36,3.36 8.8,3.36 12.15,0 5.71,-5.71 15,-5.71 20.72,0 5.71,5.72 5.71,15.01 0,20.72 -1.68,1.67 -2.52,3.87 -2.52,6.07 0,2.2 0.84,4.4 2.52,6.07 3.35,3.36 8.79,3.36 12.15,0 2.77,-2.77 6.45,-4.29 10.36,-4.29 3.91,0 7.59,1.52 10.36,4.29 2.77,2.77 4.3,6.45 4.3,10.36 0,3.86 -1.48,7.5 -4.18,10.25 -0.04,0.04 -0.08,0.07 -0.12,0.11l-12.32 12.32c-3.07,3.07 -3.37,7.94 -0.7,11.36l0.44 0.57c2.67,3.41 7.45,4.31 11.17,2.09 5.76,-3.43 13.1,-2.51 17.85,2.24 5.71,5.71 5.71,15.01 0,20.72l-19.72 19.71c-0.04,0.04 -0.08,0.08 -0.11,0.12l-42.32 42.32c-21.23,21.23 -52.47,29.6 -81.51,21.84l0 -0zm127.53 -29.42c3.77,3.77 2.31,11.83 -3.12,17.26l-33.2 33.2c-5.62,5.62 -14.76,5.62 -20.38,0l-9.14 -9.14c11.88,-5.07 22.76,-12.39 31.98,-21.61l26.8 -26.8 7.07 7.07 -0.01 0.02zm0 0z"/>
    </g>
   </g>
   <g id="surface1_0">
    <path class="fil4" d="M333.3 10101.72l19.6 -19.6c12.41,-12.41 12.41,-32.6 0,-45.02 -3.81,-3.81 -8.38,-6.48 -13.27,-7.96 4,-5.43 6.16,-11.96 6.16,-18.83 0,-8.5 -3.31,-16.5 -9.32,-22.5 -6.01,-6.01 -14,-9.33 -22.51,-9.33 -0.36,0 -0.71,0.01 -1.07,0.02 0.28,-8.5 -2.81,-17.09 -9.29,-23.56 -6.48,-6.47 -15.07,-9.57 -23.56,-9.29 0.01,-0.35 0.02,-0.71 0.02,-1.07 0,-8.5 -3.31,-16.5 -9.32,-22.51 -12.41,-12.41 -32.6,-12.41 -45.02,0l-6.78 6.78 -6.78 -6.77c-6.01,-6.02 -14,-9.33 -22.51,-9.33 -8.5,0 -16.5,3.31 -22.51,9.32 -6.47,6.47 -9.56,15.07 -9.28,23.57 -0.36,-0.02 -0.72,-0.03 -1.07,-0.03 -8.5,0 -16.5,3.31 -22.51,9.32 -6.47,6.48 -9.56,15.07 -9.28,23.57 -0.36,-0.01 -0.72,-0.03 -1.08,-0.03 -8.5,0 -16.5,3.31 -22.5,9.32 -6.02,6.01 -9.33,14 -9.33,22.51 0,6.87 2.16,13.4 6.16,18.83 -4.96,1.49 -9.5,4.2 -13.27,7.96 -12.38,12.38 -12.41,32.51 -0.08,44.92 0.03,0.04 0.06,0.07 0.09,0.1l19.63 19.63c0.03,0.03 0.06,0.06 0.08,0.09 1.18,1.18 2.44,2.25 3.76,3.22l-5.81 5.81c-5.65,5.65 -8.52,13.34 -8.1,21.66 0.41,7.99 3.85,15.6 9.68,21.43l33.2 33.2c6.16,6.16 14.25,9.24 22.34,9.24 8.09,0 16.18,-3.08 22.34,-9.24l15.43 -15.43c7.04,1.51 14.22,2.28 21.39,2.28 7.17,0 14.35,-0.76 21.39,-2.27l15.43 15.43c6.16,6.16 14.25,9.24 22.34,9.24 8.09,0 16.18,-3.08 22.34,-9.24l33.2 -33.2c12.32,-12.31 13.72,-30.96 3.12,-41.56l-7.07 -7.07 3.49 -3.49c0.04,-0.04 0.08,-0.07 0.12,-0.11l0.03 -0zm-153.99 -167.5c2.77,-2.77 6.44,-4.29 10.36,-4.29 3.91,0 7.59,1.52 10.36,4.29l26.29 26.29c5.71,5.71 5.71,15.01 0,20.72 -2.77,2.77 -6.45,4.29 -10.36,4.29l0 0c-3.91,0 -7.59,-1.52 -10.35,-4.29 -0.01,0 -0.01,-0.01 -0.01,-0.01l-26.28 -26.28c-0.02,-0.02 -0.04,-0.04 -0.07,-0.06 -5.65,-5.72 -5.63,-14.97 0.06,-20.66l0 0zm-32.91 53.55c-5.67,-5.72 -5.66,-14.98 0.04,-20.68 2.77,-2.77 6.45,-4.29 10.37,-4.29 3.91,0 7.58,1.52 10.35,4.29 0,0 0,0 0,0 0.01,0.01 0.02,0.02 0.03,0.02l26.26 26.26c0.02,0.02 0.04,0.04 0.06,0.05l6.52 6.52c2.77,2.77 4.3,6.45 4.3,10.36 0,3.91 -1.52,7.59 -4.29,10.36 -2.77,2.77 -6.45,4.29 -10.36,4.29 -3.91,0 -7.59,-1.52 -10.35,-4.29 -0.04,-0.04 -0.07,-0.07 -0.11,-0.1l-6.44 -6.44c-0.01,-0.01 -0.02,-0.02 -0.03,-0.03l-26.3 -26.29c0,0 0,0 0,0 -0.01,-0.01 -0.02,-0.03 -0.04,-0.04l-0.01 0.02zm-32.82 12.18c2.76,-2.76 6.44,-4.29 10.35,-4.29 3.91,0 7.59,1.52 10.36,4.29l26.32 26.32c5.68,5.71 5.67,14.99 -0.03,20.69 -2.77,2.77 -6.45,4.29 -10.36,4.29 -3.91,0 -7.59,-1.52 -10.35,-4.29 -0.04,-0.04 -0.07,-0.07 -0.1,-0.1l-26.11 -26.11c-0.03,-0.03 -0.06,-0.06 -0.08,-0.09 -2.77,-2.77 -4.29,-6.44 -4.29,-10.36 0,-3.91 1.52,-7.59 4.3,-10.36l-0.01 0.01zm-16.35 70.11c-0.03,-0.04 -0.07,-0.07 -0.1,-0.1 -5.7,-5.71 -5.7,-15 0.01,-20.7 2.77,-2.77 6.44,-4.29 10.36,-4.29 3.91,0 7.59,1.52 10.36,4.3l19.72 19.71c5.71,5.71 5.71,15.01 0,20.72 -2.77,2.77 -6.45,4.29 -10.36,4.29l0 0c-0.72,0 -1.43,-0.05 -2.13,-0.15 -0.06,-0.01 -0.11,-0.02 -0.16,-0.02 -3.02,-0.47 -5.8,-1.87 -8.01,-4.05 -0.02,-0.02 -0.05,-0.04 -0.07,-0.07l-19.63 -19.62 0.01 -0.02zm99.87 83.9c-0.07,-0.02 -0.15,-0.03 -0.22,-0.05 -0.17,-0.04 -0.35,-0.08 -0.52,-0.11 -0.13,-0.02 -0.25,-0.04 -0.38,-0.06 -0.14,-0.02 -0.28,-0.04 -0.43,-0.04 -0.15,-0.02 -0.3,-0.02 -0.45,-0.02 -0.13,0 -0.24,-0.01 -0.37,0 -0.16,0 -0.32,0.01 -0.48,0.02 -0.12,0.01 -0.23,0.02 -0.35,0.03 -0.16,0.02 -0.31,0.04 -0.46,0.07 -0.13,0.02 -0.24,0.04 -0.37,0.07 -0.14,0.03 -0.28,0.06 -0.42,0.1 -0.13,0.04 -0.27,0.07 -0.4,0.11 -0.13,0.04 -0.24,0.09 -0.37,0.13 -0.14,0.06 -0.28,0.11 -0.42,0.17 -0.11,0.05 -0.22,0.1 -0.33,0.15 -0.14,0.07 -0.28,0.14 -0.41,0.22 -0.11,0.06 -0.22,0.13 -0.33,0.19 -0.12,0.08 -0.24,0.15 -0.37,0.24 -0.12,0.09 -0.24,0.17 -0.36,0.27 -0.1,0.07 -0.2,0.15 -0.29,0.23 -0.14,0.12 -0.28,0.24 -0.41,0.37 -0.05,0.05 -0.11,0.09 -0.15,0.14l-18.83 18.83c-5.62,5.62 -14.76,5.62 -20.38,0l-33.2 -33.2c-2.82,-2.82 -4.48,-6.43 -4.67,-10.17 -0.17,-3.41 0.93,-6.47 3.09,-8.63l11.86 -11.87c0.18,0 0.36,0.02 0.55,0.02 0,0 0,0 0,0 8.5,0 16.49,-3.31 22.5,-9.32 9.2,-9.2 11.57,-22.68 7.13,-34.1 5.97,-1.26 11.46,-4.21 15.88,-8.63 5.05,-5.05 8.04,-11.39 8.98,-17.97 2.57,0.66 5.23,1 7.95,1 0,0 0,0 0,0 8.5,0 16.49,-3.31 22.5,-9.32 6.01,-6.01 9.32,-14 9.32,-22.51 0,-2.71 -0.34,-5.37 -0.99,-7.93 6.78,-0.96 13.04,-4.07 17.96,-9 12.41,-12.41 12.41,-32.6 0,-45.01l-7.37 -7.37 6.78 -6.77c5.71,-5.71 15.01,-5.71 20.72,0 2.77,2.77 4.29,6.45 4.29,10.36 0,3.91 -1.52,7.59 -4.29,10.36 -1.68,1.68 -2.52,3.87 -2.52,6.07 0,2.2 0.84,4.39 2.52,6.07 3.36,3.36 8.8,3.36 12.15,0 5.71,-5.71 15,-5.71 20.72,0 5.71,5.72 5.71,15.01 0,20.72 -1.68,1.67 -2.52,3.87 -2.52,6.07 0,2.2 0.84,4.4 2.52,6.07 3.35,3.36 8.79,3.36 12.15,0 2.77,-2.77 6.45,-4.29 10.36,-4.29 3.91,0 7.59,1.52 10.36,4.29 2.77,2.77 4.3,6.45 4.3,10.36 0,3.86 -1.48,7.5 -4.18,10.25 -0.04,0.04 -0.08,0.07 -0.12,0.11l-12.32 12.32c-3.07,3.07 -3.37,7.94 -0.7,11.36l0.44 0.57c2.67,3.41 7.45,4.31 11.17,2.09 5.76,-3.43 13.1,-2.51 17.85,2.24 5.71,5.71 5.71,15.01 0,20.72l-19.72 19.71c-0.04,0.04 -0.08,0.08 -0.11,0.12l-42.32 42.32c-21.23,21.23 -52.47,29.6 -81.51,21.84l0 -0zm127.53 -29.42c3.77,3.77 2.31,11.83 -3.12,17.26l-33.2 33.2c-5.62,5.62 -14.76,5.62 -20.38,0l-9.14 -9.14c11.88,-5.07 22.76,-12.39 31.98,-21.61l26.8 -26.8 7.07 7.07 -0.01 0.02zm0 0z"/>
   </g>
   <g id="surface1_1">
    <path class="fil5" d="M333.3 11012.32l19.6 -19.6c12.41,-12.41 12.41,-32.6 0,-45.02 -3.81,-3.81 -8.38,-6.48 -13.27,-7.96 4,-5.43 6.16,-11.96 6.16,-18.83 0,-8.5 -3.31,-16.5 -9.32,-22.5 -6.01,-6.01 -14,-9.33 -22.51,-9.33 -0.36,0 -0.71,0.01 -1.07,0.02 0.28,-8.5 -2.81,-17.09 -9.29,-23.56 -6.48,-6.47 -15.07,-9.57 -23.56,-9.29 0.01,-0.35 0.02,-0.71 0.02,-1.07 0,-8.5 -3.31,-16.5 -9.32,-22.51 -12.41,-12.41 -32.6,-12.41 -45.02,0l-6.78 6.78 -6.78 -6.77c-6.01,-6.02 -14,-9.33 -22.51,-9.33 -8.5,0 -16.5,3.31 -22.51,9.32 -6.47,6.47 -9.56,15.07 -9.28,23.57 -0.36,-0.02 -0.72,-0.03 -1.07,-0.03 -8.5,0 -16.5,3.31 -22.51,9.32 -6.47,6.48 -9.56,15.07 -9.28,23.57 -0.36,-0.01 -0.72,-0.03 -1.08,-0.03 -8.5,0 -16.5,3.31 -22.5,9.32 -6.02,6.01 -9.33,14 -9.33,22.51 0,6.87 2.16,13.4 6.16,18.83 -4.96,1.49 -9.5,4.2 -13.27,7.96 -12.38,12.38 -12.41,32.51 -0.08,44.92 0.03,0.04 0.06,0.07 0.09,0.1l19.63 19.63c0.03,0.03 0.06,0.06 0.08,0.09 1.18,1.18 2.44,2.25 3.76,3.22l-5.81 5.81c-5.65,5.65 -8.52,13.34 -8.1,21.66 0.41,7.99 3.85,15.6 9.68,21.43l33.2 33.2c6.16,6.16 14.25,9.24 22.34,9.24 8.09,0 16.18,-3.08 22.34,-9.24l15.43 -15.43c7.04,1.51 14.22,2.28 21.39,2.28 7.17,0 14.35,-0.76 21.39,-2.27l15.43 15.43c6.16,6.16 14.25,9.24 22.34,9.24 8.09,0 16.18,-3.08 22.34,-9.24l33.2 -33.2c12.32,-12.31 13.72,-30.96 3.12,-41.56l-7.07 -7.07 3.49 -3.49c0.04,-0.04 0.08,-0.07 0.12,-0.11l0.03 -0zm-153.99 -167.5c2.77,-2.77 6.44,-4.29 10.36,-4.29 3.91,0 7.59,1.52 10.36,4.29l26.29 26.29c5.71,5.71 5.71,15.01 0,20.72 -2.77,2.77 -6.45,4.29 -10.36,4.29l0 0c-3.91,0 -7.59,-1.52 -10.35,-4.29 -0.01,0 -0.01,-0.01 -0.01,-0.01l-26.28 -26.28c-0.02,-0.02 -0.04,-0.04 -0.07,-0.06 -5.65,-5.72 -5.63,-14.97 0.06,-20.66l0 0zm-32.91 53.55c-5.67,-5.72 -5.66,-14.98 0.04,-20.68 2.77,-2.77 6.45,-4.29 10.37,-4.29 3.91,0 7.58,1.52 10.35,4.29 0,0 0,0 0,0 0.01,0.01 0.02,0.02 0.03,0.02l26.26 26.26c0.02,0.02 0.04,0.04 0.06,0.05l6.52 6.52c2.77,2.77 4.3,6.45 4.3,10.36 0,3.91 -1.52,7.59 -4.29,10.36 -2.77,2.77 -6.45,4.29 -10.36,4.29 -3.91,0 -7.59,-1.52 -10.35,-4.29 -0.04,-0.04 -0.07,-0.07 -0.11,-0.1l-6.44 -6.44c-0.01,-0.01 -0.02,-0.02 -0.03,-0.03l-26.3 -26.29c0,0 0,0 0,0 -0.01,-0.01 -0.02,-0.03 -0.04,-0.04l-0.01 0.02zm-32.82 12.18c2.76,-2.76 6.44,-4.29 10.35,-4.29 3.91,0 7.59,1.52 10.36,4.29l26.32 26.32c5.68,5.71 5.67,14.99 -0.03,20.69 -2.77,2.77 -6.45,4.29 -10.36,4.29 -3.91,0 -7.59,-1.52 -10.35,-4.29 -0.04,-0.04 -0.07,-0.07 -0.1,-0.1l-26.11 -26.11c-0.03,-0.03 -0.06,-0.06 -0.08,-0.09 -2.77,-2.77 -4.29,-6.44 -4.29,-10.36 0,-3.91 1.52,-7.59 4.3,-10.36l-0.01 0.01zm-16.35 70.11c-0.03,-0.04 -0.07,-0.07 -0.1,-0.1 -5.7,-5.71 -5.7,-15 0.01,-20.7 2.77,-2.77 6.44,-4.29 10.36,-4.29 3.91,0 7.59,1.52 10.36,4.3l19.72 19.71c5.71,5.71 5.71,15.01 0,20.72 -2.77,2.77 -6.45,4.29 -10.36,4.29l0 0c-0.72,0 -1.43,-0.05 -2.13,-0.15 -0.06,-0.01 -0.11,-0.02 -0.16,-0.02 -3.02,-0.47 -5.8,-1.87 -8.01,-4.05 -0.02,-0.02 -0.05,-0.04 -0.07,-0.07l-19.63 -19.62 0.01 -0.02zm99.87 83.9c-0.07,-0.02 -0.15,-0.03 -0.22,-0.05 -0.17,-0.04 -0.35,-0.08 -0.52,-0.11 -0.13,-0.02 -0.25,-0.04 -0.38,-0.06 -0.14,-0.02 -0.28,-0.04 -0.43,-0.04 -0.15,-0.02 -0.3,-0.02 -0.45,-0.02 -0.13,0 -0.24,-0.01 -0.37,0 -0.16,0 -0.32,0.01 -0.48,0.02 -0.12,0.01 -0.23,0.02 -0.35,0.03 -0.16,0.02 -0.31,0.04 -0.46,0.07 -0.13,0.02 -0.24,0.04 -0.37,0.07 -0.14,0.03 -0.28,0.06 -0.42,0.1 -0.13,0.04 -0.27,0.07 -0.4,0.11 -0.13,0.04 -0.24,0.09 -0.37,0.13 -0.14,0.06 -0.28,0.11 -0.42,0.17 -0.11,0.05 -0.22,0.1 -0.33,0.15 -0.14,0.07 -0.28,0.14 -0.41,0.22 -0.11,0.06 -0.22,0.13 -0.33,0.19 -0.12,0.08 -0.24,0.15 -0.37,0.24 -0.12,0.09 -0.24,0.17 -0.36,0.27 -0.1,0.07 -0.2,0.15 -0.29,0.23 -0.14,0.12 -0.28,0.24 -0.41,0.37 -0.05,0.05 -0.11,0.09 -0.15,0.14l-18.83 18.83c-5.62,5.62 -14.76,5.62 -20.38,0l-33.2 -33.2c-2.82,-2.82 -4.48,-6.43 -4.67,-10.17 -0.17,-3.41 0.93,-6.47 3.09,-8.63l11.86 -11.87c0.18,0 0.36,0.02 0.55,0.02 0,0 0,0 0,0 8.5,0 16.49,-3.31 22.5,-9.32 9.2,-9.2 11.57,-22.68 7.13,-34.1 5.97,-1.26 11.46,-4.21 15.88,-8.63 5.05,-5.05 8.04,-11.39 8.98,-17.97 2.57,0.66 5.23,1 7.95,1 0,0 0,0 0,0 8.5,0 16.49,-3.31 22.5,-9.32 6.01,-6.01 9.32,-14 9.32,-22.51 0,-2.71 -0.34,-5.37 -0.99,-7.93 6.78,-0.96 13.04,-4.07 17.96,-9 12.41,-12.41 12.41,-32.6 0,-45.01l-7.37 -7.37 6.78 -6.77c5.71,-5.71 15.01,-5.71 20.72,0 2.77,2.77 4.29,6.45 4.29,10.36 0,3.91 -1.52,7.59 -4.29,10.36 -1.68,1.68 -2.52,3.87 -2.52,6.07 0,2.2 0.84,4.39 2.52,6.07 3.36,3.36 8.8,3.36 12.15,0 5.71,-5.71 15,-5.71 20.72,0 5.71,5.72 5.71,15.01 0,20.72 -1.68,1.67 -2.52,3.87 -2.52,6.07 0,2.2 0.84,4.4 2.52,6.07 3.35,3.36 8.79,3.36 12.15,0 2.77,-2.77 6.45,-4.29 10.36,-4.29 3.91,0 7.59,1.52 10.36,4.29 2.77,2.77 4.3,6.45 4.3,10.36 0,3.86 -1.48,7.5 -4.18,10.25 -0.04,0.04 -0.08,0.07 -0.12,0.11l-12.32 12.32c-3.07,3.07 -3.37,7.94 -0.7,11.36l0.44 0.57c2.67,3.41 7.45,4.31 11.17,2.09 5.76,-3.43 13.1,-2.51 17.85,2.24 5.71,5.71 5.71,15.01 0,20.72l-19.72 19.71c-0.04,0.04 -0.08,0.08 -0.11,0.12l-42.32 42.32c-21.23,21.23 -52.47,29.6 -81.51,21.84l0 -0zm127.53 -29.42c3.77,3.77 2.31,11.83 -3.12,17.26l-33.2 33.2c-5.62,5.62 -14.76,5.62 -20.38,0l-9.14 -9.14c11.88,-5.07 22.76,-12.39 31.98,-21.61l26.8 -26.8 7.07 7.07 -0.01 0.02zm0 0z"/>
   </g>
   <g>
    <polygon class="fil2" points="42.98,5497.34 394.92,5497.34 394.92,5522.48 42.98,5522.48 "/>
    <polygon class="fil2" points="332.04,5333.91 314.31,5316.13 231.51,5398.94 231.51,5170.53 206.37,5170.53 206.37,5398.94 123.54,5316.11 105.86,5333.88 218.93,5447.06 "/>
    <polygon class="fil2" points="332.04,5333.91 314.31,5316.13 231.51,5398.94 231.51,5170.53 206.37,5170.53 206.37,5398.94 123.54,5316.11 105.86,5333.88 218.93,5447.06 "/>
   </g>
   <g>
    <polygon class="fil6" points="42.98,4497.34 394.92,4497.34 394.92,4522.48 42.98,4522.48 "/>
    <polygon class="fil6" points="332.04,4333.91 314.31,4316.13 231.51,4398.94 231.51,4170.53 206.37,4170.53 206.37,4398.94 123.54,4316.11 105.86,4333.88 218.93,4447.06 "/>
    <polygon class="fil6" points="332.04,4333.91 314.31,4316.13 231.51,4398.94 231.51,4170.53 206.37,4170.53 206.37,4398.94 123.54,4316.11 105.86,4333.88 218.93,4447.06 "/>
   </g>
   <g>
    <polygon class="fil7" points="42.98,3517.34 394.92,3517.34 394.92,3542.48 42.98,3542.48 "/>
    <polygon class="fil7" points="332.04,3353.91 314.31,3336.13 231.51,3418.94 231.51,3190.53 206.37,3190.53 206.37,3418.94 123.54,3336.11 105.86,3353.88 218.93,3467.06 "/>
    <polygon class="fil7" points="332.04,3353.91 314.31,3336.13 231.51,3418.94 231.51,3190.53 206.37,3190.53 206.37,3418.94 123.54,3336.11 105.86,3353.88 218.93,3467.06 "/>
   </g>
  </g>
 </g>
</svg>
