<?xml version="1.0" encoding="UTF-8"?>
<!DOCTYPE svg PUBLIC "-//W3C//DTD SVG 1.1//EN" "http://www.w3.org/Graphics/SVG/1.1/DTD/svg11.dtd">
<!-- Creator: CorelDRAW 2019 (64-Bit) -->
<svg xmlns="http://www.w3.org/2000/svg" xml:space="preserve" width="0.133114in" height="0.117965in" version="1.1" style="shape-rendering:geometricPrecision; text-rendering:geometricPrecision; image-rendering:optimizeQuality; fill-rule:evenodd; clip-rule:evenodd"
viewBox="0 0 133.12 117.97"
 xmlns:xlink="http://www.w3.org/1999/xlink">
 <defs>
  <style type="text/css">
   <![CDATA[
    .fil0 {fill:#666666}
   ]]>
  </style>
 </defs>
 <g id="Layer_x0020_1">
  <metadata id="CorelCorpID_0Corel-Layer"/>
  <path class="fil0" d="M65.36 56.58l-18.15 42.02 -34.42 -34.32c-5.19,-4.4 -8.92,-10.07 -10.97,-16.29 -2.06,-6.26 -2.42,-13.08 -0.83,-19.72 1.59,-6.66 4.98,-12.58 9.63,-17.24 4.66,-4.66 10.58,-8.05 17.24,-9.63 6.08,-1.45 11.48,-1.65 16.52,-0.37 5.08,1.28 11.23,5.56 15.69,9.98 2.11,2.09 -10.28,26.83 -9.75,27.55l15.85 16.17 -0.8 1.85zm55.04 7.63l-53.75 53.76 -13.45 -13.4 23.13 -49.42 -13.96 -20.23 8.26 -22.87c2.09,-5.8 6.92,-9.15 12.78,-10.8 6.83,-1.92 15.15,-1.45 21.85,0.14 6.65,1.58 12.58,4.97 17.24,9.63 4.65,4.65 8.05,10.58 9.63,17.24 1.58,6.65 1.22,13.47 -0.83,19.72 -2.04,6.19 -5.74,11.83 -10.89,16.22z"/>
 </g>
</svg>
