<?xml version="1.0" encoding="UTF-8"?>
<!DOCTYPE svg PUBLIC "-//W3C//DTD SVG 1.1//EN" "http://www.w3.org/Graphics/SVG/1.1/DTD/svg11.dtd">
<!-- Creator: CorelDRAW 2019 (64-Bit) -->
<svg xmlns="http://www.w3.org/2000/svg" xml:space="preserve" width="0.133114in" height="0.117965in" version="1.1" style="shape-rendering:geometricPrecision; text-rendering:geometricPrecision; image-rendering:optimizeQuality; fill-rule:evenodd; clip-rule:evenodd"
viewBox="0 0 133.12 117.97"
 xmlns:xlink="http://www.w3.org/1999/xlink">
 <defs>
  <style type="text/css">
   <![CDATA[
    .fil0 {fill:#494949}
   ]]>
  </style>
 </defs>
 <g id="Layer_x0020_1">
  <metadata id="CorelCorpID_0Corel-Layer"/>
  <path class="fil0" d="M66.63 109.28l49.46 -49.46 0.19 -0.17c4.33,-3.66 7.46,-8.39 9.17,-13.59 1.71,-5.19 2.01,-10.85 0.69,-16.38 -1.31,-5.52 -4.13,-10.44 -7.99,-14.3 -3.87,-3.87 -8.79,-6.68 -14.31,-8 -5.85,-1.39 -13.02,-1.82 -18.77,-0.21 -4.06,1.14 -7.35,3.33 -8.67,6.98l-7.19 19.89 14.17 20.52 -22.79 48.7 6.04 6.03zm53.77 -45.07l-53.75 53.76 -13.45 -13.4 23.13 -49.42 -13.96 -20.23 8.26 -22.87c2.09,-5.8 6.92,-9.15 12.78,-10.8 6.83,-1.92 15.15,-1.45 21.85,0.14 6.65,1.58 12.58,4.97 17.24,9.63 4.65,4.65 8.05,10.58 9.63,17.24 1.58,6.65 1.22,13.47 -0.83,19.72 -2.04,6.19 -5.74,11.83 -10.89,16.22zm-55.04 -7.63l-18.15 42.02 -34.42 -34.32c-5.19,-4.4 -8.92,-10.07 -10.97,-16.29 -2.06,-6.26 -2.42,-13.08 -0.83,-19.72 1.59,-6.66 4.98,-12.58 9.63,-17.24 4.66,-4.66 10.58,-8.05 17.24,-9.63 6.08,-1.45 11.48,-1.65 16.52,-0.37 5.08,1.28 11.23,5.56 15.69,9.98 2.11,2.09 -10.28,26.83 -9.75,27.55l15.85 16.17 -0.8 1.85zm-20.21 31.29l13.76 -31.86 -15.4 -15.33c-1.34,-1.58 8.98,-22.69 10.67,-26.86 -3.63,-3.61 -7.31,-5.82 -11.3,-6.83 -4.02,-1.02 -8.47,-0.82 -13.61,0.4 -5.52,1.31 -10.44,4.13 -14.3,8 -3.87,3.87 -6.68,8.78 -8,14.3 -1.31,5.53 -1.02,11.19 0.69,16.38 1.71,5.2 4.83,9.93 9.17,13.59l0.18 0.17 28.13 28.04z"/>
 </g>
</svg>
