<?xml version="1.0" encoding="UTF-8"?>
<!DOCTYPE svg PUBLIC "-//W3C//DTD SVG 1.1//EN" "http://www.w3.org/Graphics/SVG/1.1/DTD/svg11.dtd">
<!-- Creator: CorelDRAW 2019 (64-Bit) -->
<svg xmlns="http://www.w3.org/2000/svg" xml:space="preserve" width="0.247488in" height="0.247492in" version="1.1" style="shape-rendering:geometricPrecision; text-rendering:geometricPrecision; image-rendering:optimizeQuality; fill-rule:evenodd; clip-rule:evenodd"
viewBox="0 0 247.49 247.49"
 xmlns:xlink="http://www.w3.org/1999/xlink">
 <defs>
  <style type="text/css">
   <![CDATA[
    .fil0 {fill:#a2acb3}
   ]]>
  </style>
 </defs>
 <g id="Layer_x0020_1">
  <metadata id="CorelCorpID_0Corel-Layer"/>
  <path id="error_x0020_i.eps" class="fil0" d="M123.74 0c68.34,0 123.74,55.41 123.74,123.75 0,68.34 -55.4,123.74 -123.74,123.74 -68.34,-0 -123.74,-55.41 -123.74,-123.74 0,-68.35 55.4,-123.75 123.74,-123.75zm11.2 160.2l0 20.43 -22.4 0 0 -20.43 22.4 0zm-22.4 -26.26l0 -67.26 22.4 0 0 67.26 -22.4 0zm11.2 -116.33c58.62,0 106.13,47.52 106.13,106.13 0,58.62 -47.52,106.14 -106.13,106.14 -58.61,-0 -106.13,-47.52 -106.13,-106.14 0,-58.62 47.52,-106.13 106.13,-106.13z"/>
 </g>
</svg>
