<svg width="582" height="592" xmlns="http://www.w3.org/2000/svg">

 <g>
  <title>background</title>
  <rect fill="none" id="canvas_background" height="594" width="584" y="-1" x="-1"/>
 </g>
 <g>
  <title>Layer 1</title>
  <g id="svg_5">
   <path id="svg_6" fill="#A2ACB3" class="active-path" d="m230.588,452.429c0.179,-4.71 -3.499,-8.67 -8.209,-8.849l0,0c-111.326,-4.13 -200.679,-93.329 -205.014,-204.647l33.835,0c4.71,0 8.533,-3.823 8.533,-8.533s-3.823,-8.533 -8.533,-8.533l-33.835,0c4.267,-111.121 93.38,-200.226 204.501,-204.493l0,25.293c0,4.71 3.823,8.533 8.533,8.533s8.533,-3.823 8.533,-8.533l0,-25.293c109.602,4.241 198.067,91.034 204.39,200.533l-33.28,-33.28c-3.388,-3.277 -8.789,-3.183 -12.066,0.213c-3.191,3.311 -3.191,8.55 0,11.853l47.633,47.633c0.896,1.084 2.057,1.929 3.362,2.449c0.333,0.102 0.674,0.179 1.015,0.247c0.589,0.213 1.195,0.358 1.809,0.435c0.085,0 0.162,0 0.247,0c0.085,0 0.162,0 0.239,0c0.649,-0.051 1.289,-0.179 1.911,-0.375c0.35,-0.043 0.7,-0.111 1.041,-0.196c1.152,-0.41 2.21,-1.067 3.081,-1.929l48.282,-48.265c3.277,-3.388 3.183,-8.789 -0.213,-12.066c-3.311,-3.191 -8.55,-3.191 -11.853,0l-34.108,34.082c-6.09,-122.315 -106.946,-218.409 -229.416,-218.589c-0.213,-0.008 -0.393,-0.119 -0.606,-0.119s-0.393,0.111 -0.606,0.119c-126.771,0.171 -229.504,102.904 -229.675,229.675c0,0.213 -0.119,0.393 -0.119,0.606s0.111,0.393 0.119,0.606c0.213,123.648 98.065,225.033 221.628,229.632l0.316,0c4.582,0 8.354,-3.627 8.525,-8.209z"/>
   <path id="svg_7" fill="#A2ACB3" class="active-path" d="m345.045,115.755c-3.328,-3.328 -8.738,-3.328 -12.066,0l-91.699,91.691c-6.929,-3.089 -14.839,-3.089 -21.769,0l-43.418,-43.418c-3.388,-3.277 -8.789,-3.183 -12.066,0.213c-3.191,3.311 -3.191,8.55 0,11.853l43.332,43.332c-6.084,12.74 -0.691,27.989 12.049,34.074c9.779,4.668 21.436,2.671 29.09,-4.992l0,0c7.697,-7.637 9.685,-19.328 4.932,-29.073l91.614,-91.614c3.329,-3.328 3.329,-8.738 0.001,-12.066zm-108.612,120.678l0,0c-3.371,3.226 -8.695,3.226 -12.066,0c-3.337,-3.328 -3.337,-8.738 0,-12.066c3.337,-3.328 8.738,-3.337 12.066,0c3.337,3.328 3.337,8.73 0,12.066l0,0z"/>
  </g>
  <g id="svg_22">
   <g transform="matrix(0.720047, 0, 0, 0.720817, -490.216, -475.757)" id="svg_12">
    <g id="svg_13">
     <g id="svg_14">
      <path id="svg_15" fill="#A2ACB3" class="active-path" d="m1478.61399,1394.55999l-195.7,-338.962c-10.882,-18.848 -30.373,-30.102 -52.139,-30.102c-21.765,0 -41.257,11.254 -52.139,30.102l-195.699,338.961c-10.883,18.85 -10.883,41.356 0,60.205c10.883,18.849 30.373,30.102 52.139,30.102l391.398,0c21.765,0 41.256,-11.254 52.14,-30.101c10.883,-18.85 10.883,-41.356 0,-60.205zm-25.978,45.207c-5.461,9.458 -15.241,15.104 -26.162,15.104l-391.398,0c-10.922,0 -20.702,-5.646 -26.162,-15.104c-5.46,-9.458 -5.46,-20.75 0,-30.208l195.701,-338.962c5.46,-9.458 15.24,-15.104 26.161,-15.104c10.92,0 20.701,5.646 26.161,15.104l195.7,338.962c5.459,9.458 5.459,20.75 -0.001,30.208z"/>
     </g>
    </g>
    <g id="svg_16">
     <g id="svg_17">
      <rect id="svg_18" fill="#A2ACB3" class="active-path" height="149.982" width="29.996" y="1175.19099" x="1215.77599"/>
     </g>
    </g>
    <g id="svg_19">
     <g id="svg_20">
      <path id="svg_21" fill="#A2ACB3" class="active-path" d="m1230.77499,1355.17099c-11.027,0 -19.998,8.971 -19.998,19.998s8.971,19.998 19.998,19.998c11.026,0 19.998,-8.971 19.998,-19.998s-8.971,-19.998 -19.998,-19.998z"/>
     </g>
    </g>
   </g>
  </g>
 </g>
</svg>