<svg width="580" height="400" xmlns="http://www.w3.org/2000/svg" xmlns:xlink="http://www.w3.org/1999/xlink">
 <!-- Created with Method Draw - http://github.com/duopixel/Method-Draw/ -->

 <g>
  <title>background</title>
  <rect fill="none" id="canvas_background" height="402" width="582" y="-1" x="-1"/>
  <g display="none" overflow="visible" y="0" x="0" height="100%" width="100%" id="canvasGrid">
   <rect fill="url(#gridpattern)" stroke-width="0" y="0" x="0" height="100%" width="100%"/>
  </g>
 </g>
 <g>
  <title>Layer 1</title>
  <g stroke="null" id="svg_137">
   <g stroke="null" transform="matrix(0.3470802242509532,0,0,0.3470802242509532,-10405.870693523175,-7192.53081273293) " id="svg_48"/>
   <g stroke="null" transform="matrix(0.3470802242509532,0,0,0.3470802242509532,-10405.870693523175,-7192.53081273293) " id="svg_47"/>
   <g stroke="null" transform="matrix(0.3470802242509532,0,0,0.3470802242509532,-10405.870693523175,-7192.53081273293) " id="svg_34">
    <g stroke="null" id="svg_50">
     <path stroke="null" id="svg_51" d="m30558.690786,21677.70743c-25.5,-4.1 -332.7,-41.1 -310.1,-313.8c22.6,-272.7 51,-354.7 170.4,-384.7c119.4,-30 409.7,-172 637.5,-37s473.6,256 376,471.6c-97.5,215.5 -113.5,287.4 -368,276.4s-384.2,7 -505.8,-12.5z" fill="#DEF3F9"/>
    </g>
    <g stroke="null" id="svg_41">
     <g stroke="null" id="svg_46">
      <path stroke="null" id="svg_52" d="m31102.890786,21031.90743l-343.4,0c-15.3,0 -27.9,-12.6 -27.9,-27.9l0,0c0,-15.4 12.6,-27.9 27.9,-27.9l343.4,0c15.4,0 27.9,12.6 27.9,27.9l0,0c0,15.3 -12.6,27.9 -27.9,27.9z" fill="#FFFFFF"/>
     </g>
     <g stroke="null" id="svg_45">
      <path stroke="null" id="svg_53" d="m31136.390786,20956.80743l-141.4,0c-12.2,0 -22.3,-10 -22.3,-22.3l0,0c0,-12.2 10,-22.3 22.3,-22.3l141.4,0c12.2,0 22.3,10 22.3,22.3l0,0c0,12.3 -10,22.3 -22.3,22.3z" fill="#FFFFFF"/>
     </g>
     <g stroke="null" id="svg_44">
      <path stroke="null" id="svg_54" d="m31162.890786,21093.70743l-141.4,0c-12.2,0 -22.3,-10 -22.3,-22.3l0,0c0,-12.2 10,-22.3 22.3,-22.3l141.4,0c12.2,0 22.3,10 22.3,22.3l0,0c0,12.2 -10.1,22.3 -22.3,22.3z" fill="#FFFFFF"/>
     </g>
     <g stroke="null" id="svg_43">
      <path stroke="null" id="svg_55" d="m31088.590786,21050.90743c-6.9,0 -12.5,-4.3 -12.5,-9.5s5.6,-9.5 12.5,-9.5l-54.5,0c6.9,0 12.5,4.3 12.5,9.5s-5.6,9.5 -12.5,9.5l54.5,0z" fill="#FFFFFF"/>
     </g>
     <g stroke="null" id="svg_42">
      <path stroke="null" id="svg_56" d="m31106.290786,20976.70743c-7.2,0 -13,-4.5 -13,-9.9c0,-5.5 5.8,-9.9 13,-9.9l-56.9,0c7.2,0 13,4.5 13,9.9c0,5.5 -5.8,9.9 -13,9.9l56.9,0z" fill="#FFFFFF"/>
     </g>
    </g>
    <g stroke="null" id="svg_35">
     <g stroke="null" id="svg_40">
      <path stroke="null" id="svg_57" d="m30284.690786,21386.90743l343.4,0c15.4,0 27.9,12.6 27.9,27.9l0,0c0,15.3 -12.6,27.9 -27.9,27.9l-343.4,0c-15.4,0 -27.9,-12.6 -27.9,-27.9l0,0c0,-15.3 12.5,-27.9 27.9,-27.9z" fill="#FFFFFF"/>
     </g>
     <g stroke="null" id="svg_39">
      <path stroke="null" id="svg_58" d="m30251.090786,21462.00743l141.4,0c12.2,0 22.3,10 22.3,22.3l0,0c0,12.2 -10,22.3 -22.3,22.3l-141.4,0c-12.2,0 -22.3,-10 -22.3,-22.3l0,0c0.1,-12.3 10.1,-22.3 22.3,-22.3z" fill="#FFFFFF"/>
     </g>
     <g stroke="null" id="svg_38">
      <path stroke="null" id="svg_59" d="m30224.690786,21325.10743l141.4,0c12.2,0 22.3,10 22.3,22.3l0,0c0,12.2 -10,22.3 -22.3,22.3l-141.4,0c-12.2,0 -22.3,-10 -22.3,-22.3l0,0c0,-12.2 10,-22.3 22.3,-22.3z" fill="#FFFFFF"/>
     </g>
     <g stroke="null" id="svg_37">
      <path stroke="null" id="svg_60" d="m30298.890786,21367.90743c6.9,0 12.5,4.3 12.5,9.5s-5.6,9.5 -12.5,9.5l54.5,0c-6.9,0 -12.5,-4.3 -12.5,-9.5s5.6,-9.5 12.5,-9.5l-54.5,0z" fill="#FFFFFF"/>
     </g>
     <g stroke="null" id="svg_36">
      <path stroke="null" id="svg_61" d="m30281.290786,21442.10743c7.2,0 13,4.5 13,9.9s-5.8,9.9 -13,9.9l56.9,0c-7.2,0 -13,-4.5 -13,-9.9s5.8,-9.9 13,-9.9l-56.9,0z" fill="#FFFFFF"/>
     </g>
    </g>
   </g>
   <g stroke="null" transform="matrix(0.3470802242509532,0,0,0.3470802242509532,-10405.870693523175,-7192.53081273293) " id="svg_26">
    <g stroke="null" id="svg_62">
     <g stroke="null" id="svg_33">
      <path stroke="null" id="svg_63" d="m31258.590786,21575.80743l0,-485.7c0,-8.8 -7.2,-16 -16,-16l-799.8,0c-8.8,0 -16,7.2 -16,16l0,485.7l831.8,0z" fill="#FFFFFF"/>
      <path stroke="null" id="svg_64" d="m31258.590786,21577.80743l-831.8,0c-1.1,0 -2,-0.9 -2,-2l0,-485.7c0,-9.9 8.1,-18 18,-18l799.8,0c9.9,0 18,8.1 18,18l0,485.7c0,1.1 -0.9,2 -2,2zm-829.8,-4l827.8,0l0,-483.7c0,-7.7 -6.3,-14 -14,-14l-799.8,0c-7.7,0 -14,6.3 -14,14l0,483.7z" fill="#6A79A8"/>
     </g>
     <g stroke="null" id="svg_32">
      <path stroke="null" id="svg_65" d="m31300.390786,21627.00743l-915.4,0c-25.1,0 -45.4,-20.4 -45.4,-45.4l0,-2.7c0,-1.5 1.2,-2.7 2.7,-2.7l1001,0c1.5,0 2.7,1.2 2.7,2.7l0,2.7c-0.1,25 -20.5,45.4 -45.6,45.4z" fill="#FFFFFF"/>
      <path stroke="null" id="svg_66" d="m31300.390786,21629.00743l-915.4,0c-26.2,0 -47.4,-21.3 -47.4,-47.4l0,-2.7c0,-2.6 2.1,-4.7 4.7,-4.7l1001,0c2.6,0 4.7,2.1 4.7,4.7l0,2.7c-0.1,26.1 -21.4,47.4 -47.6,47.4zm-958.2,-50.8c-0.4,0 -0.7,0.3 -0.7,0.7l0,2.7c0,24 19.5,43.4 43.4,43.4l915.4,0c24,0 43.5,-19.5 43.5,-43.5l0,-2.7c0,-0.4 -0.3,-0.7 -0.7,-0.7l-1000.9,0l0,0.1z" fill="#6A79A8"/>
     </g>
     <g stroke="null" id="svg_31">
      <path stroke="null" id="svg_67" d="m30942.390786,21591.70743l-199.4,0c-8.9,0 -16.5,-6.4 -18,-15.2c-0.1,-0.6 0.1,-1.2 0.4,-1.6c0.4,-0.4 0.9,-0.7 1.5,-0.7l231.3,0c0.6,0 1.1,0.3 1.5,0.7c0.4,0.4 0.5,1 0.4,1.6c-1.2,8.8 -8.8,15.2 -17.7,15.2zm-212.8,-13.5c1.9,5.6 7.3,9.5 13.4,9.5l199.3,0c6.2,0 11.5,-3.9 13.4,-9.5l-226.1,0z" fill="#6A79A8"/>
     </g>
     <g stroke="null" id="svg_68">
      <defs stroke="null" transform="translate(25.930604934692383,66.26709747314453) translate(-1148.5882568359375,-813.99951171875) translate(31269.6484375,0) translate(0,21579.33984375) ">
       <rect stroke="null" height="440.1" width="740.4" y="281.1" x="325.5" id="svg_30"/>
      </defs>
      <use stroke="null" x="30146.990786" y="20831.60743" id="svg_69" fill="#F0F9FC" xlink:href="#svg_30"/>
      <clipPath stroke="null" transform="translate(25.930604934692383,66.26709747314453) translate(-1148.5882568359375,-813.99951171875) translate(31269.6484375,0) translate(0,21579.33984375) " id="svg_29">
       <use stroke="null" x="30146.990786" y="20831.60743" id="svg_70" xlink:href="#svg_30"/>
      </clipPath>
      <g stroke="null" id="svg_71" clip-path="url(#svg_29)">
       <path stroke="null" id="svg_72" d="m30161.990786,21544.50743l1069.1,-497.6l-109.1,-50.7l-926.5,431.1c-7.5,40 -24.3,77.7 -33.5,117.2z" fill="#FFFFFF"/>
      </g>
      <g stroke="null" id="svg_73" clip-path="url(#svg_29)">
       <polygon stroke="null" id="svg_74" points="30223.791933059692,21641.806159973145 30169.190370559692,21616.407722473145 31316.090761184692,21082.706550598145 31370.690370559692,21108.007331848145 " fill="#FFFFFF"/>
      </g>
      <g stroke="null" id="svg_75" clip-path="url(#svg_29)">
       <polygon stroke="null" id="svg_76" points="30390.791933059692,21719.606941223145 30298.791933059692,21676.806159973145 31445.690370559692,21143.007331848145 31537.690370559692,21185.806159973145 " fill="#FFFFFF"/>
      </g>
     </g>
     <g stroke="null" id="svg_28">
      <path stroke="null" id="svg_77" d="m31212.890786,21554.80743l-740.4,0c-1.1,0 -2,-0.9 -2,-2l0,-440.1c0,-1.1 0.9,-2 2,-2l740.4,0c1.1,0 2,0.9 2,2l0,440.1c0,1.1 -0.9,2 -2,2zm-738.4,-4l736.4,0l0,-436.1l-736.4,0l0,436.1z" fill="#6A79A8"/>
     </g>
    </g>
    <g stroke="null" id="svg_78">
     <g stroke="null" id="svg_79">
      <g stroke="null" id="svg_80">
       <path stroke="null" id="svg_81" d="m30548.09081,21076.607332l0,276c0,21.7 16.6,39.3 37.2,39.3c68.4,0 130.9,0 199.3,0c90.6,0 41.7,0 132.3,0l0.1,54.7l82.6,-55.1l71.3,0c22.1,0 40,-17.8 40.1,-39.9c0.2,-33.4 0.5,-76.3 0.5,-81.1c0,-24.9 0,-169 0,-193.9c0,-21.7 -16.6,-39.3 -37.2,-39.3l-489,0c-20.5,0 -37.2,17.6 -37.2,39.3z" fill="#FFFFFF"/>
      </g>
      <g stroke="null" id="svg_82">
       <path stroke="null" id="svg_83" d="m30559.89081,21088.40733l0,276c0,21.7 16.6,39.3 37.2,39.3c68.4,0 130.9,0 199.3,0c90.6,0 41.7,0 132.3,0l0.2,54.7l82.6,-55.1l71.3,0c22.1,0 40,-17.8 40.1,-39.9c0.2,-33.4 0.5,-76.3 0.5,-81.1c0,-24.9 0,-169 0,-193.9c0,-21.7 -16.6,-39.3 -37.2,-39.3l-489.1,0c-20.5,0 -37.2,17.6 -37.2,39.3z" fill="#BBDFF5"/>
      </g>
      <g stroke="null" id="svg_84">
       <path stroke="null" id="svg_85" d="m30916.99081,21448.607332c-0.3,0 -0.6,-0.1 -0.9,-0.2c-0.6,-0.3 -1.1,-1 -1.1,-1.8l-0.2,-52.7l-329.5,0c-21.6,0 -39.2,-18.5 -39.2,-41.3l0,-276c0,-22.8 17.6,-41.3 39.2,-41.3l489.1,0c21.6,0 39.2,18.5 39.2,41.3l0,193.9c0,5.1 -0.3,53 -0.5,81.1c-0.1,23.1 -19,41.9 -42.1,41.9l-70.7,0l-82.1,54.7c-0.4,0.3 -0.8,0.4 -1.2,0.4zm-331.7,-409.3c-19.4,0 -35.2,16.7 -35.2,37.3l0,276c0,20.6 15.8,37.3 35.2,37.3l331.6,0c1.1,0 2,0.9 2,2l0.2,51l79.5,-53c0.3,-0.2 0.7,-0.3 1.1,-0.3l71.3,0c20.9,0 38,-17 38.1,-37.9c0.2,-28.1 0.5,-76 0.5,-81.1l0,-194c0,-20.6 -15.8,-37.3 -35.2,-37.3l-489.1,0z" fill="#6A79A8"/>
      </g>
     </g>
     <g stroke="null" id="svg_86">
      <g stroke="null" id="svg_87">
       <path stroke="null" id="svg_88" d="m30735.490786,21177.70743c-2.3,0 -4.2,-1.9 -4.2,-4.3c0,0 0,0 0,0c0,-44.1 -27.8,-78.7 -63.3,-78.7c-35.5,0 -63.3,34.6 -63.3,78.7c0,0 0,0 0,0c0,2.3 -1.9,4.3 -4.2,4.3l-2.9,0c-2.4,0 -4.3,1.9 -4.3,4.3l0,107.6c0,2.4 1.9,4.3 4.3,4.3l140.7,0c2.4,0 4.3,-1.9 4.3,-4.3l0,-107.7c0,-2.4 -1.9,-4.3 -4.3,-4.3l-2.8,0l0,0.1zm-51.1,105.3l-32.7,0c-2.5,0 -4.3,-2.3 -3.7,-4.7l9.1,-35.8c0.4,-1.6 -0.3,-3.3 -1.7,-4.1c-5.2,-3.2 -8.6,-8.4 -8.6,-14.3c0,-9.8 9.5,-17.8 21.2,-17.8c11.7,0 21.2,8 21.2,17.8c0,5.9 -3.4,11.1 -8.6,14.3c-1.4,0.9 -2.1,2.5 -1.7,4.1l9.1,35.8c0.6,2.4 -1.2,4.7 -3.6,4.7zm28.2,-105.3l-89.1,0c-2.3,0 -4.3,-1.9 -4.3,-4.2c0,0 0,-0.1 0,-0.1c0,-36.2 22.4,-66.8 48.8,-66.8c26.5,0 48.8,30.6 48.8,66.8c0,0 0,0.1 0,0.1c0,2.3 -1.9,4.2 -4.2,4.2z" fill="#FFFFFF"/>
      </g>
      <g stroke="null" id="svg_89">
       <path stroke="null" id="svg_90" d="m30733.390786,21290.90743l-140.7,0c-3.5,0 -6.3,-2.8 -6.3,-6.3l0,-107.6c0,-3.5 2.8,-6.3 6.3,-6.3l2.9,0c0.6,0 1.1,-0.2 1.6,-0.6c0.4,-0.4 0.7,-1 0.7,-1.6c0,-45.3 28.7,-80.8 65.3,-80.8c36.6,0 65.3,35.5 65.3,80.7c0,0.7 0.2,1.2 0.7,1.7c0.4,0.4 1,0.6 1.6,0.6l2.9,0c3.5,0 6.3,2.8 6.3,6.3l0,107.6c-0.3,3.5 -3.1,6.3 -6.6,6.3zm-140.7,-116.2c-1.2,0 -2.3,1 -2.3,2.3l0,107.6c0,1.2 1,2.3 2.3,2.3l140.7,0c1.2,0 2.3,-1 2.3,-2.3l0,-107.6c0,-1.2 -1,-2.3 -2.3,-2.3l-2.9,0c-1.7,0 -3.2,-0.6 -4.4,-1.8c-1.2,-1.2 -1.8,-2.8 -1.8,-4.4c0,-43.1 -26.9,-76.8 -61.3,-76.8c-34.4,0 -61.3,33.7 -61.3,76.7c0,1.7 -0.6,3.3 -1.8,4.5c-1.2,1.2 -2.7,1.8 -4.4,1.8l-2.8,0zm86.7,105.4l-32.7,0c-1.8,0 -3.5,-0.8 -4.6,-2.2c-1.1,-1.4 -1.5,-3.2 -1,-5l9.1,-35.8c0.2,-0.7 -0.1,-1.5 -0.8,-1.9c-6,-3.7 -9.5,-9.7 -9.5,-16c0,-10.9 10.4,-19.8 23.2,-19.8s23.2,8.9 23.2,19.8c0,6.3 -3.6,12.3 -9.5,16c-0.7,0.4 -1,1.2 -0.8,1.9l9.1,35.8c0.4,1.7 0.1,3.5 -1,5c-1.2,1.4 -2.9,2.2 -4.7,2.2zm-16.3,-76.8c-10.6,0 -19.2,7.1 -19.2,15.8c0,5 2.8,9.6 7.7,12.6c2.2,1.3 3.2,3.9 2.6,6.3l-9.1,35.8c-0.1,0.5 0,1.1 0.3,1.5c0.3,0.4 0.8,0.7 1.4,0.7l32.7,0c0.5,0 1.1,-0.2 1.4,-0.7c0.3,-0.4 0.5,-1 0.3,-1.5l-9.1,-35.8c-0.6,-2.4 0.4,-5 2.6,-6.3c4.9,-3 7.7,-7.6 7.7,-12.6c-0.1,-8.7 -8.7,-15.8 -19.3,-15.8zm44.5,-28.6l-89.1,0c-3.4,0 -6.3,-2.8 -6.3,-6.2c0,-37.4 23.3,-68.9 50.8,-68.9c27.5,0 50.8,31.5 50.8,68.8c0.1,3.6 -2.7,6.3 -6.2,6.3zm-44.5,-71.1c-25.4,0 -46.8,29.7 -46.8,64.8c0,1.3 1,2.3 2.3,2.3l89.1,0c1.2,0 2.3,-1 2.3,-2.2c-0.1,-35.2 -21.5,-64.9 -46.9,-64.9z" fill="#6A79A8"/>
      </g>
     </g>
     <g stroke="null" id="svg_91">
      <g stroke="null" id="svg_92">
       <path stroke="null" id="svg_93" d="m31039.290786,21286.90743l-213.7,0c-20.7,0 -37.5,-16.8 -37.5,-37.5l0,-23c0,-20.7 16.8,-37.5 37.5,-37.5l213.7,0c20.7,0 37.5,16.8 37.5,37.5l0,23c0,20.7 -16.8,37.5 -37.5,37.5z" fill="#FFFFFF"/>
      </g>
      <g stroke="null" id="svg_94">
       <path stroke="null" id="svg_95" d="m31029.890786,21281.90743l-213.7,0c-21.8,0 -39.5,-17.7 -39.5,-39.5l0,-23c0,-21.8 17.7,-39.5 39.5,-39.5l213.7,0c21.8,0 39.5,17.7 39.5,39.5l0,23c0,21.8 -17.7,39.5 -39.5,39.5zm-213.7,-98c-19.6,0 -35.5,15.9 -35.5,35.5l0,23c0,19.6 15.9,35.5 35.5,35.5l213.7,0c19.6,0 35.5,-15.9 35.5,-35.5l0,-23c0,-19.6 -15.9,-35.5 -35.5,-35.5l-213.7,0z" fill="#6A79A8"/>
      </g>
      <g stroke="null" id="svg_96">
       <g stroke="null" id="svg_97">
        <path stroke="null" id="svg_98" d="m30994.190786,21256.10743l-29.5,0c-1.4,0 -2.5,-1.1 -2.5,-2.5s1.1,-2.5 2.5,-2.5l29.5,0c1.4,0 2.5,1.1 2.5,2.5s-1.2,2.5 -2.5,2.5z" fill="#6A79A8"/>
       </g>
       <g stroke="null" id="svg_99">
        <path stroke="null" id="svg_100" d="m31045.690786,21256.10743l-29.5,0c-1.4,0 -2.5,-1.1 -2.5,-2.5s1.1,-2.5 2.5,-2.5l29.5,0c1.4,0 2.5,1.1 2.5,2.5s-1.2,2.5 -2.5,2.5z" fill="#6A79A8"/>
       </g>
       <g stroke="null" id="svg_101">
        <path stroke="null" id="svg_102" d="m30886.190786,21256.10743l-29.5,0c-1.4,0 -2.5,-1.1 -2.5,-2.5s1.1,-2.5 2.5,-2.5l29.5,0c1.4,0 2.5,1.1 2.5,2.5s-1.1,2.5 -2.5,2.5z" fill="#6A79A8"/>
       </g>
       <g stroke="null" id="svg_103">
        <path stroke="null" id="svg_104" d="m30937.690786,21256.10743l-29.5,0c-1.4,0 -2.5,-1.1 -2.5,-2.5s1.1,-2.5 2.5,-2.5l29.5,0c1.4,0 2.5,1.1 2.5,2.5s-1.1,2.5 -2.5,2.5z" fill="#6A79A8"/>
       </g>
       <g stroke="null" id="svg_105">
        <path stroke="null" id="svg_106" d="m30829.990786,21256.10743l-29.5,0c-1.4,0 -2.5,-1.1 -2.5,-2.5s1.1,-2.5 2.5,-2.5l29.5,0c1.4,0 2.5,1.1 2.5,2.5s-1.1,2.5 -2.5,2.5z" fill="#6A79A8"/>
       </g>
      </g>
     </g>
    </g>
    <g stroke="null" id="svg_115">
     <g stroke="null" id="svg_116">
      <g stroke="null" id="svg_117">
       <path stroke="null" id="svg_118" d="m30850.790786,21525.80743c-1.1,0 -2,-0.9 -2,-2l0,-33.1c0,-1.1 0.9,-2 2,-2c1.1,0 2,0.9 2,2l0,33.1c0,1.1 -0.9,2 -2,2z" fill="#6A79A8"/>
      </g>
      <g stroke="null" id="svg_119">
       <path stroke="null" id="svg_120" d="m30850.790786,21447.20743c-1.1,0 -2,-0.9 -2,-2l0,-32.8c0,-1.1 0.9,-2 2,-2c1.1,0 2,0.9 2,2l0,32.8c0,1.1 -0.9,2 -2,2z" fill="#6A79A8"/>
      </g>
      <g stroke="null" id="svg_121">
       <path stroke="null" id="svg_122" d="m30890.090786,21509.50743c-0.5,0 -1,-0.2 -1.4,-0.6l-23.4,-23.4c-0.8,-0.8 -0.8,-2 0,-2.8c0.8,-0.8 2,-0.8 2.8,0l23.4,23.4c0.8,0.8 0.8,2 0,2.8c-0.4,0.4 -0.9,0.6 -1.4,0.6z" fill="#6A79A8"/>
      </g>
      <g stroke="null" id="svg_123">
       <path stroke="null" id="svg_124" d="m30834.790786,21454.20743c-0.5,0 -1,-0.2 -1.4,-0.6l-23.4,-23.4c-0.8,-0.8 -0.8,-2 0,-2.8c0.8,-0.8 2,-0.8 2.8,0l23.4,23.4c0.8,0.8 0.8,2 0,2.8c-0.4,0.4 -0.9,0.6 -1.4,0.6z" fill="#6A79A8"/>
      </g>
      <g stroke="null" id="svg_125">
       <path stroke="null" id="svg_126" d="m30906.390786,21470.10743l-33.1,0c-1.1,0 -2,-0.9 -2,-2c0,-1.1 0.9,-2 2,-2l33.1,0c1.1,0 2,0.9 2,2c0,1.2 -0.9,2 -2,2z" fill="#6A79A8"/>
      </g>
      <g stroke="null" id="svg_127">
       <path stroke="null" id="svg_128" d="m30828.190786,21470.10743l-33.1,0c-1.1,0 -2,-0.9 -2,-2c0,-1.1 0.9,-2 2,-2l33.1,0c1.1,0 2,0.9 2,2c0,1.2 -0.9,2 -2,2z" fill="#6A79A8"/>
      </g>
      <g stroke="null" id="svg_129">
       <path stroke="null" id="svg_130" d="m30866.690786,21454.20743c-0.5,0 -1,-0.2 -1.4,-0.6c-0.8,-0.8 -0.8,-2 0,-2.8l23.4,-23.4c0.8,-0.8 2,-0.8 2.8,0c0.8,0.8 0.8,2 0,2.8l-23.4,23.4c-0.4,0.4 -0.9,0.6 -1.4,0.6z" fill="#6A79A8"/>
      </g>
      <g stroke="null" id="svg_131">
       <path stroke="null" id="svg_132" d="m30811.390786,21509.50743c-0.5,0 -1,-0.2 -1.4,-0.6c-0.8,-0.8 -0.8,-2 0,-2.8l23.4,-23.4c0.8,-0.8 2,-0.8 2.8,0c0.8,0.8 0.8,2 0,2.8l-23.4,23.4c-0.4,0.4 -0.9,0.6 -1.4,0.6z" fill="#6A79A8"/>
      </g>
     </g>
     <g stroke="null" id="svg_133">
      <polygon stroke="null" id="svg_134" points="30955.791933059692,21550.507331848145 30917.891542434692,21512.507331848145 30940.291933059692,21490.106941223145 30858.391542434692,21472.907722473145 30857.991151809692,21473.306159973145 30875.190370559692,21555.206550598145 30897.590761184692,21532.806159973145 30935.491151809692,21570.706550598145 " fill="#BBDFF5"/>
     </g>
     <g stroke="null" id="svg_135">
      <path stroke="null" id="svg_136" d="m30928.090786,21567.80743c-0.5,0 -1,-0.2 -1.4,-0.6l-36.5,-36.5l-21,21c-0.5,0.5 -1.3,0.7 -2,0.5c-0.7,-0.2 -1.2,-0.8 -1.4,-1.5l-17.2,-81.9c-0.1,-0.7 0.1,-1.3 0.5,-1.8l0.4,-0.4c0.5,-0.5 1.2,-0.7 1.8,-0.5l81.9,17.2c0.7,0.2 1.3,0.7 1.5,1.4c0.2,0.7 0,1.5 -0.5,2l-21,21l36.5,36.5c0.8,0.8 0.8,2 0,2.8l-20.3,20.3c-0.3,0.3 -0.8,0.5 -1.3,0.5zm-37.9,-42c0.5,0 1,0.2 1.4,0.6l36.5,36.5l17.4,-17.4l-36.5,-36.5c-0.8,-0.8 -0.8,-2 0,-2.8l19.8,-19.8l-75.8,-16l16,75.8l19.8,-19.8c0.4,-0.4 0.9,-0.6 1.4,-0.6z" fill="#6A79A8"/>
     </g>
    </g>
   </g>
  </g>
 </g>
</svg>