<?xml version="1.0" encoding="UTF-8"?>
<!DOCTYPE svg PUBLIC "-//W3C//DTD SVG 1.1//EN" "http://www.w3.org/Graphics/SVG/1.1/DTD/svg11.dtd">
<!-- Creator: CorelDRAW 2019 (64-Bit) -->
<svg xmlns="http://www.w3.org/2000/svg" xml:space="preserve" width="0.185087in" height="0.212461in" version="1.1" style="shape-rendering:geometricPrecision; text-rendering:geometricPrecision; image-rendering:optimizeQuality; fill-rule:evenodd; clip-rule:evenodd"
viewBox="0 0 185.09 212.46"
 xmlns:xlink="http://www.w3.org/1999/xlink">
 <defs>
  <style type="text/css">
   <![CDATA[
    .fil0 {fill:#7c858c}
   ]]>
  </style>
 </defs>
 <g id="Layer_x0020_1">
  <metadata id="CorelCorpID_0Corel-Layer"/>
  <path class="fil0" d="M129.98 139.75c0,-4.57 -3.71,-8.27 -8.27,-8.27 -4.56,0 -8.27,3.7 -8.27,8.27 0,4.57 3.71,8.28 8.27,8.28 4.56,0 8.27,-3.71 8.27,-8.28zm3.12 -68.15l0 -22.46c0,-8.44 -3.45,-16.12 -9,-21.68 -5.57,-5.55 -13.24,-9 -21.68,-9l-26.49 0c-8.44,0 -16.12,3.44 -21.66,8.98l-0.04 0.04c-5.54,5.54 -8.99,13.21 -8.99,21.66l0 22.46 12.49 0 69.57 0 5.79 0zm-106.3 0.93l0 -23.39c0,-13.47 5.52,-25.75 14.43,-34.67l0.04 -0.04c8.92,-8.9 21.2,-14.43 34.67,-14.43l26.49 0c13.49,0 25.77,5.53 34.67,14.43l0.04 0.04c8.89,8.9 14.43,21.18 14.43,34.67l0 22.48c18.61,0.66 33.53,16 33.53,34.76l0 32.17c0,4.81 -3.89,8.7 -8.69,8.7 -4.8,0 -8.7,-3.89 -8.7,-8.7l0 -32.17c0,-9.59 -7.8,-17.39 -17.39,-17.39l-115.52 0c-9.59,0 -17.39,7.8 -17.39,17.39l0 71.3c0,9.59 7.8,17.39 17.39,17.39l115.52 0c9.6,0 17.39,-7.8 17.39,-17.39 0,-4.8 3.9,-8.69 8.7,-8.69 4.8,0 8.69,3.9 8.69,8.69 0,19.18 -15.6,34.78 -34.78,34.78l-115.52 0c-19.18,0 -34.78,-15.6 -34.78,-34.78l0 -71.3c0,-16.43 11.45,-30.24 26.8,-33.85zm41.14 67.22c0,-4.57 -3.7,-8.27 -8.27,-8.27 -4.57,0 -8.27,3.7 -8.27,8.27 0,4.57 3.7,8.28 8.27,8.28 4.57,0 8.27,-3.71 8.27,-8.28zm31.02 0c0,-4.57 -3.71,-8.27 -8.28,-8.27 -4.57,0 -8.27,3.7 -8.27,8.27 0,4.57 3.7,8.28 8.27,8.28 4.57,0 8.28,-3.71 8.28,-8.28z"/>
 </g>
</svg>
