<?xml version="1.0" encoding="UTF-8"?>
<!DOCTYPE svg PUBLIC "-//W3C//DTD SVG 1.1//EN" "http://www.w3.org/Graphics/SVG/1.1/DTD/svg11.dtd">
<!-- Creator: CorelDRAW 2019 (64-Bit) -->
<svg xmlns="http://www.w3.org/2000/svg" xml:space="preserve" width="0.246906in" height="0.188071in" version="1.1" style="shape-rendering:geometricPrecision; text-rendering:geometricPrecision; image-rendering:optimizeQuality; fill-rule:evenodd; clip-rule:evenodd"
viewBox="0 0 246.91 188.07"
 xmlns:xlink="http://www.w3.org/1999/xlink">
 <defs>
  <style type="text/css">
   <![CDATA[
    .fil0 {fill:#7c858c}
   ]]>
  </style>
 </defs>
 <g id="Layer_x0020_1">
  <metadata id="CorelCorpID_0Corel-Layer"/>
  <path class="fil0" d="M225.2 0l-203.5 0c-11.95,0 -21.7,9.74 -21.7,21.7l0 144.67c0,11.92 9.7,21.7 21.7,21.7l203.5 0c11.92,0 21.7,-9.7 21.7,-21.7l0 -144.67c0,-11.92 -9.71,-21.7 -21.7,-21.7zm-3 14.47l-98.29 98.3 -99.15 -98.3 197.44 0zm-207.74 148.91l0 -138.75 69.67 69.07 -69.67 69.67zm10.23 10.23l69.72 -69.72 24.43 24.22c2.83,2.8 7.39,2.8 10.2,-0.02l23.82 -23.82 69.34 69.34 -197.51 0zm207.74 -10.23l-69.34 -69.34 69.34 -69.34 0 138.68z"/>
 </g>
</svg>
