<svg width="392" height="512" xmlns="http://www.w3.org/2000/svg">

 <g>
  <title>background</title>
  <rect fill="none" id="canvas_background" height="514" width="394" y="-1" x="-1"/>
 </g>
 <g>
  <title>Layer 1</title>
  <g id="svg_1">
   <g id="svg_2">
    <g id="svg_3">
     <g id="svg_4">
      <path id="svg_5" fill="#A2ACB3" class="active-path" d="m196.000499,390.094512c26.819,0 48.762,-21.943 48.762,-48.762c0,-26.819 -21.943,-48.762 -48.762,-48.762c-26.819,0 -48.762,21.943 -48.762,48.762c0,26.819 21.943,48.762 48.762,48.762z"/>
      <path id="svg_6" fill="#A2ACB3" class="active-path" d="m342.286499,170.666512l-24.381,0l0,-48.762c0,-67.292 -54.614,-121.905 -121.905,-121.905s-121.905,54.613 -121.905,121.905l0,48.762l-24.381,0c-26.819,0 -48.762,21.943 -48.762,48.762l0,243.81c0,26.819 21.943,48.762 48.762,48.762l292.571,0c26.819,0 48.762,-21.943 48.762,-48.762l0,-243.81c0.001,-26.819 -21.942,-48.762 -48.761,-48.762zm-221.867,-48.762c0,-41.691 33.89,-75.581 75.581,-75.581s75.581,33.89 75.581,75.581l0,48.762l-151.162,0l0,-48.762zm221.867,341.333l-292.572,0l0,-243.81l292.571,0l0,243.81l0.001,0z"/>
     </g>
    </g>
   </g>
  </g>
 </g>
</svg>