<?xml version="1.0" encoding="UTF-8"?>
<!DOCTYPE svg PUBLIC "-//W3C//DTD SVG 1.1//EN" "http://www.w3.org/Graphics/SVG/1.1/DTD/svg11.dtd">
<!-- Creator: CorelDRAW X8 -->
<svg xmlns="http://www.w3.org/2000/svg" xml:space="preserve" width="0.118669in" height="0.119512in" version="1.1" style="shape-rendering:geometricPrecision; text-rendering:geometricPrecision; image-rendering:optimizeQuality; fill-rule:evenodd; clip-rule:evenodd"
viewBox="0 0 119 120"
 xmlns:xlink="http://www.w3.org/1999/xlink">
 <defs>
  <style type="text/css">
   <![CDATA[
    .fil0 {fill:#B3B4BB;fill-rule:nonzero}
   ]]>
  </style>
 </defs>
 <g id="Layer_x0020_1">
  <metadata id="CorelCorpID_0Corel-Layer"/>
  <path class="fil0" d="M83 51c9,-10 9,-22 5,-31 -2,-4 -5,-8 -8,-11 -4,-4 -8,-6 -12,-7 -10,-4 -21,-2 -31,7 -5,6 -8,13 -9,21 0,7 2,15 7,21l1 1 1 1c3,3 6,5 9,6 13,7 28,4 37,-8zm-83 69c12,0 35,-1 58,-1 24,0 49,0 61,-1 -2,-13 -8,-25 -17,-34 -8,-9 -20,-15 -33,-17 -5,-1 -7,-1 -14,-1 -15,1 -29,8 -39,18 -9,10 -15,22 -16,36z"/>
 </g>
</svg>
