<?xml version="1.0" encoding="UTF-8"?>
<!DOCTYPE svg PUBLIC "-//W3C//DTD SVG 1.1//EN" "http://www.w3.org/Graphics/SVG/1.1/DTD/svg11.dtd">
<!-- Creator: CorelDRAW X8 -->
<svg xmlns="http://www.w3.org/2000/svg" xml:space="preserve" width="0.916543in" height="0.850118in" version="1.1" style="shape-rendering:geometricPrecision; text-rendering:geometricPrecision; image-rendering:optimizeQuality; fill-rule:evenodd; clip-rule:evenodd"
viewBox="0 0 917 850"
 xmlns:xlink="http://www.w3.org/1999/xlink">
 <defs>
  <style type="text/css">
   <![CDATA[
    .fil0 {fill:#B4B4B4}
   ]]>
  </style>
 </defs>
 <g id="Layer_x0020_1">
  <metadata id="CorelCorpID_0Corel-Layer"/>
  <path class="fil0" d="M783 0l-649 0c-37,0 -71,15 -95,39 -24,24 -39,58 -39,95l0 516c0,37 15,70 39,95 24,24 58,39 95,39l503 0c6,0 12,-3 16,-7 5,-4 7,-10 7,-16 0,-7 -2,-13 -7,-17 -4,-4 -10,-7 -16,-7l0 0 -136 0c-4,0 -8,-2 -11,-5l-84 -110c-4,-5 -4,-12 0,-17l0 0 268 -341c5,-6 14,-7 20,-3 1,1 1,2 2,3l180 199c3,3 7,6 12,7 4,1 9,1 14,-1 4,-2 8,-5 10,-9 3,-3 4,-8 4,-13l0 -313c0,-37 -15,-71 -39,-95 -24,-24 -57,-39 -94,-39zm57 554l0 0c-8,-7 -16,-13 -26,-17 -9,-4 -19,-6 -30,-6 -10,0 -20,2 -30,6 -9,4 -18,10 -25,17l-71 70 0 0 -1 1c-4,4 -6,10 -6,16 0,5 2,11 6,16 0,0 1,1 1,1 4,4 10,6 16,6 6,0 12,-2 16,-7l0 0 1 0 47 -47c5,-5 14,-5 19,0 3,3 4,7 4,10l0 0 0 207c0,6 3,12 7,16 4,5 10,7 16,7 7,0 13,-2 17,-7 4,-4 7,-10 7,-16l0 -206c0,-7 6,-14 13,-14 4,0 8,2 11,5l45 47 0 0c2,2 5,4 7,5 3,1 6,2 9,2 3,0 6,-1 9,-2 3,-1 5,-3 7,-5l0 0 1 0c4,-5 6,-10 7,-16 0,-6 -2,-12 -7,-16l0 0 -1 -1 -69 -72zm-596 -421c-26,0 -51,11 -68,28 -18,18 -29,42 -29,69 0,26 11,51 29,68 17,18 42,29 68,29 27,0 51,-11 69,-29 17,-17 28,-42 28,-68 0,-27 -11,-51 -28,-69 -18,-17 -42,-28 -69,-28zm0 147c-14,0 -26,-5 -35,-15 -10,-9 -15,-21 -15,-35 0,-14 5,-27 15,-36 9,-9 21,-15 35,-15 14,0 27,6 36,15 9,9 15,22 15,36 0,14 -6,26 -15,35 -9,10 -22,15 -36,15zm601 80l-145 -161c-2,-2 -5,-4 -8,-5 -3,-2 -6,-2 -10,-2l0 0c-3,0 -6,1 -9,2 -3,2 -6,4 -8,7l-284 361c-5,6 -13,7 -19,2 -2,-1 -3,-2 -3,-3l-96 -124c-2,-3 -5,-5 -8,-7 -3,-1 -7,-2 -11,-2l0 0 0 0c-3,0 -7,1 -10,2 -3,2 -6,4 -8,7l-81 105c-4,5 -6,11 -5,17 1,6 4,12 9,16 5,4 11,5 17,4 6,0 12,-3 16,-9l52 -67c4,-6 13,-7 19,-3 1,1 2,2 2,3l164 212c5,6 4,15 -2,20 -3,1 -6,2 -9,2l0 0 -274 0c-24,0 -46,-9 -62,-25 -16,-16 -26,-38 -26,-62l0 -516c0,-24 10,-46 26,-62 16,-16 38,-26 62,-26l649 0c24,0 46,10 62,26 15,16 25,38 25,62l0 217c0,8 -6,14 -14,14 -4,0 -8,-2 -11,-5z"/>
 </g>
</svg>
