<?xml version="1.0" encoding="UTF-8"?>
<!DOCTYPE svg PUBLIC "-//W3C//DTD SVG 1.1//EN" "http://www.w3.org/Graphics/SVG/1.1/DTD/svg11.dtd">
<!-- Creator: CorelDRAW 2019 (64-Bit) -->
<svg xmlns="http://www.w3.org/2000/svg" xml:space="preserve" width="0.33122in" height="0.33152in" version="1.1" style="shape-rendering:geometricPrecision; text-rendering:geometricPrecision; image-rendering:optimizeQuality; fill-rule:evenodd; clip-rule:evenodd"
viewBox="0 0 331.22 331.52"
 xmlns:xlink="http://www.w3.org/1999/xlink">
 <defs>
  <style type="text/css">
   <![CDATA[
    .str0 {stroke:#5F6368;stroke-width:6.93;stroke-miterlimit:2.61313}
    .fil0 {fill:#5F6368}
   ]]>
  </style>
 </defs>
 <g id="Layer_x0020_1">
  <metadata id="CorelCorpID_0Corel-Layer"/>
  <path class="fil0 str0" d="M241.61 7.93c-5.94,-5.94 -16.63,-5.94 -23.76,0 -5.94,7.13 -5.94,17.82 0,23.76l4.75 4.75 -91.5 91.5 -51.09 0c-5.94,0 -10.69,2.38 -15.45,7.13 -8.32,8.32 -8.32,21.39 0,29.7l39.21 39.21 -77.24 77.24c-11.88,10.69 -19.01,24.95 -22.57,40.4 -1.19,1.19 0,3.56 1.19,4.75 1.19,1.19 3.56,2.38 4.75,1.19 15.45,-3.56 28.52,-11.88 40.4,-22.57l77.24 -77.24 39.21 38.02c8.32,9.51 21.39,9.51 29.7,0 4.75,-3.56 7.13,-9.51 7.13,-14.26l0 -51.09 91.5 -91.5 3.56 4.75c7.13,5.94 17.82,5.94 23.76,0 7.13,-7.13 7.13,-17.82 0,-23.76l-80.8 -81.99zm-199.63 289.93c-7.13,7.13 -15.45,13.07 -24.95,16.63 3.56,-9.51 9.51,-17.82 16.63,-24.95l77.24 -78.43 9.51 8.32 -78.43 78.43zm273.3 -192.5c-2.38,2.38 -5.94,2.38 -8.32,0l-8.32 -8.32c-2.38,-1.19 -5.94,-1.19 -7.13,0l-97.44 97.44c-1.19,1.19 -1.19,2.38 -1.19,3.56l0 53.47c0,2.38 -1.19,4.75 -3.56,7.13 -4.75,3.56 -10.69,3.56 -15.45,0l-101 -101c-4.75,-4.75 -4.75,-10.69 0,-15.45 2.38,-2.38 4.75,-3.56 7.13,-3.56l53.47 0c1.19,0 2.38,0 3.56,-1.19l97.44 -97.44c1.19,-2.38 1.19,-4.75 0,-7.13l-8.32 -8.32c-2.38,-2.38 -2.38,-5.94 0,-8.32 2.38,-2.38 5.94,-2.38 8.32,0l80.8 80.8c2.38,2.38 2.38,5.94 0,8.32l0 0zm0 0z"/>
 </g>
</svg>
