<svg width="1215" height="1215" xmlns="http://www.w3.org/2000/svg">
 <defs>
  <style type="text/css">
   <![CDATA[
    .fil0 {fill:#96989A;fill-rule:nonzero}
   ]]>
  </style>
 </defs>
 <g>
  <title>background</title>
  <rect x="-1" y="-1" width="4862" height="4862" id="canvas_background" fill="none"/>
 </g>
 <g>
  <title>Layer 1</title>
  <g id="Layer_x0020_1">
   <metadata transform="translate(3.9999687671661377,-3.9999687671661377) " id="CorelCorpID_0Corel-Layer"/>
   <path stroke="null" class="fil0" d="m427.63977,218.09046c-11.94953,6.58756 -26.98106,2.24392 -33.56862,-9.70561c-6.58756,-11.94953 -2.24392,-26.98106 9.70561,-33.56862c31.60407,-17.49173 65.08258,-30.81104 99.56138,-39.71461c34.83927,-8.99369 70.58873,-13.60768 106.41929,-13.60768c33.2442,0 66.53346,4.0012 99.18289,11.83238c32.65844,7.83118 64.16338,19.38419 93.82993,34.48782c12.21087,6.20907 17.07719,21.1595 10.86812,33.37037c-6.20907,12.21087 -21.1595,17.07719 -33.37037,10.86812c-26.62961,-13.55361 -54.42172,-23.80894 -82.77256,-30.60377c-28.35985,-6.79483 -57.80111,-10.27335 -87.73802,-10.27335c-32.05466,0 -63.63169,4.01922 -94.00116,11.85941c-30.71191,7.93031 -60.34242,19.69059 -88.11651,35.06457l0,-0.00901zm270.54057,265.9446c13.56262,0 24.55691,10.99429 24.55691,24.55691c0,13.56262 -10.99429,24.55691 -24.55691,24.55691c-13.56262,0 -24.55691,-10.99429 -24.55691,-24.55691c0,-13.56262 10.99429,-24.55691 24.55691,-24.55691zm-84.31357,0c13.56262,0 24.55691,10.99429 24.55691,24.55691c0,13.56262 -10.99429,24.55691 -24.55691,24.55691c-13.56262,0 -24.55691,-10.99429 -24.55691,-24.55691c0,-13.56262 10.99429,-24.55691 24.55691,-24.55691zm-84.31357,0c13.56262,0 24.55691,10.99429 24.55691,24.55691c0,13.56262 -10.99429,24.55691 -24.55691,24.55691c-13.55361,0 -24.5479,-10.99429 -24.5479,-24.55691c0,-13.56262 10.99429,-24.55691 24.5479,-24.55691zm84.31357,190.1471c29.90987,0 56.99006,12.12976 76.59954,31.73023c19.60948,19.60948 31.73023,46.68967 31.73023,76.59954c0,29.81975 -12.14779,56.89994 -31.7843,76.54547l0.05407,0.05407c-13.13907,13.13907 -29.64853,22.91678 -48.11352,27.94532c39.35414,6.12796 74.57191,24.72813 101.48088,51.64612c33.26222,33.26222 53.83596,79.22195 53.83596,129.96689c0,13.71582 -11.12045,24.83628 -24.83628,24.83628l-158.97559,0l-158.97559,0c-13.71582,0 -24.83628,-11.12045 -24.83628,-24.83628c0,-50.74494 20.57374,-96.70467 53.83596,-129.96689c26.92699,-26.92699 62.16278,-45.53618 101.53495,-51.64612c-18.41093,-5.01952 -34.90236,-14.80624 -48.05945,-27.9363l-0.1532,-0.1532c-19.57344,-19.64553 -31.67616,-46.67165 -31.67616,-76.44634c0,-29.90987 12.12976,-56.99006 31.73023,-76.59954l1.55903,-1.43286c19.51937,-18.76238 45.96874,-30.29737 75.0315,-30.29737l0.01802,-0.00901zm41.48091,66.84887c-10.6158,-10.6158 -25.28686,-17.17632 -41.48091,-17.17632c-15.72544,0 -29.96394,6.10994 -40.42654,16.04986l-1.05437,1.12646c-10.6158,10.6158 -17.17632,25.28686 -17.17632,41.48091c0,16.26614 6.53349,30.92819 17.0862,41.48091l0.09913,0.09913c10.5437,10.55271 25.21477,17.0862 41.48091,17.0862c16.20306,0 30.87412,-6.56954 41.48091,-17.17632l0.05407,0.05407l0.04506,-0.05407c10.55271,-10.5437 17.0862,-25.21477 17.0862,-41.48091c0,-16.20306 -6.56954,-30.87412 -17.17632,-41.48091l-0.01802,-0.00901zm-173.32224,302.8025l263.69167,0c-5.07359,-27.0892 -18.27575,-51.30367 -36.99307,-70.02099c-24.26854,-24.26854 -57.81013,-39.28205 -94.85727,-39.28205c-37.04714,0 -70.57972,15.01351 -94.85727,39.28205c-18.70831,18.70831 -31.91948,42.93179 -36.99307,70.02099l0.00901,0zm-237.81004,-895.69197c29.90987,0 56.99006,12.12976 76.59954,31.73023l1.43286,1.55903c18.76238,19.51937 30.29737,45.96874 30.29737,75.0315c0,29.90987 -12.12976,56.99006 -31.73023,76.59954c-13.13907,13.13907 -29.64853,22.91678 -48.11352,27.94532c39.35414,6.12796 74.57191,24.72813 101.48088,51.64612c33.26222,33.26222 53.83596,79.22195 53.83596,129.96689c0,13.71582 -11.12045,24.83628 -24.83628,24.83628l-158.97559,0l-158.97559,0c-13.71582,0 -24.83628,-11.12045 -24.83628,-24.83628c0,-50.74494 20.57374,-96.70467 53.83596,-129.96689c26.92699,-26.92699 62.17179,-45.53618 101.53495,-51.64612c-18.43796,-5.02853 -34.94741,-14.82426 -48.11352,-27.99037l-0.05407,0.05407c-19.60948,-19.60948 -31.73023,-46.68967 -31.73023,-76.59954c0,-29.79272 12.12976,-56.85488 31.73023,-76.50041l0.1532,-0.1532c19.64553,-19.57344 46.68066,-31.67616 76.44634,-31.67616l0.01802,0zm41.48091,66.84887c-10.6158,-10.6158 -25.28686,-17.17632 -41.48091,-17.17632c-16.26614,0 -30.92819,6.53349 -41.48091,17.0862l-0.09913,0.09913c-10.55271,10.5437 -17.0862,25.21477 -17.0862,41.48091c0,16.20306 6.56954,30.87412 17.17632,41.48091l-0.05407,0.05407l0.05407,0.04506c10.5437,10.55271 25.21477,17.0862 41.48091,17.0862c16.20306,0 30.87412,-6.56954 41.48091,-17.17632c10.6158,-10.6158 17.17632,-25.28686 17.17632,-41.48091c0,-15.72544 -6.10994,-29.96394 -16.04986,-40.42654l-1.12646,-1.05437l0.00901,-0.01802zm-173.32224,302.8025l263.69167,0c-5.07359,-27.0892 -18.27575,-51.30367 -36.99307,-70.02099c-24.26854,-24.26854 -57.81013,-39.28205 -94.85727,-39.28205c-37.04714,0 -70.57972,15.01351 -94.85727,39.28205c-18.70831,18.70831 -31.91948,42.93179 -36.99307,70.02099l0.00901,0zm858.42854,-369.65137c29.90987,0 56.99006,12.12976 76.59954,31.73023l1.43286,1.55903c18.76238,19.51937 30.29737,45.96874 30.29737,75.0315c0,29.90987 -12.12976,56.99006 -31.73023,76.59954c-13.13907,13.13907 -29.64853,22.91678 -48.11352,27.94532c39.35414,6.12796 74.57191,24.72813 101.48088,51.64612c33.26222,33.26222 53.83596,79.22195 53.83596,129.96689c0,13.71582 -11.12045,24.83628 -24.83628,24.83628l-158.97559,0l-158.97559,0c-13.71582,0 -24.83628,-11.12045 -24.83628,-24.83628c0,-50.74494 20.57374,-96.70467 53.83596,-129.96689c26.92699,-26.92699 62.17179,-45.53618 101.53495,-51.64612c-18.43796,-5.02853 -34.94741,-14.82426 -48.11352,-27.99037l-0.05407,0.05407c-19.60948,-19.60948 -31.73023,-46.68967 -31.73023,-76.59954c0,-29.79272 12.12976,-56.85488 31.73023,-76.50041l0.1532,-0.1532c19.64553,-19.57344 46.68066,-31.67616 76.44634,-31.67616l0.01802,0zm41.48091,66.84887c-10.6158,-10.6158 -25.28686,-17.17632 -41.48091,-17.17632c-16.26614,0 -30.92819,6.53349 -41.48091,17.0862l-0.09913,0.09913c-10.55271,10.5437 -17.0862,25.21477 -17.0862,41.48091c0,16.20306 6.56954,30.87412 17.17632,41.48091l-0.05407,0.05407l0.05407,0.04506c10.5437,10.55271 25.21477,17.0862 41.48091,17.0862c16.20306,0 30.87412,-6.56954 41.48091,-17.17632c10.6158,-10.6158 17.17632,-25.28686 17.17632,-41.48091c0,-15.72544 -6.10994,-29.96394 -16.04986,-40.42654l-1.12646,-1.05437l0.00901,-0.01802zm-173.32224,302.8025l263.69167,0c-5.07359,-27.0892 -18.27575,-51.30367 -36.99307,-70.02099c-24.26854,-24.26854 -57.81013,-39.28205 -94.85727,-39.28205c-37.04714,0 -70.57972,15.01351 -94.85727,39.28205c-18.70831,18.70831 -31.91948,42.93179 -36.99307,70.02099l0.00901,0zm140.58269,96.77676c2.4602,-13.44547 15.36497,-22.34904 28.81044,-19.88885c13.44547,2.4602 22.34904,15.36497 19.88885,28.81044c-11.6972,64.01018 -37.705,123.57759 -75.13965,174.74609c-37.47971,51.22256 -86.36824,94.05523 -143.75481,124.54184c-12.11174,6.42535 -27.13426,1.82037 -33.56862,-10.28236c-6.42535,-12.11174 -1.82037,-27.13426 10.28236,-33.56862c50.80803,-26.98106 94.01017,-64.81222 127.06512,-109.98793c33.10001,-45.23879 56.08889,-97.85817 66.41631,-154.37061zm-536.7375,269.22486c12.26494,6.05587 17.30248,20.90717 11.25563,33.18112c-6.05587,12.26494 -20.90717,17.30248 -33.18112,11.25563c-59.01769,-29.243 -109.61845,-71.34572 -148.69323,-122.26188c-38.98466,-50.80803 -66.51544,-110.53765 -79.50131,-175.15161c-2.67648,-13.3914 6.01081,-26.43135 19.40221,-29.10783c13.3914,-2.67648 26.43135,6.01081 29.10783,19.40221c11.44487,56.95401 35.82155,109.7356 70.39047,154.78515c34.48782,44.9414 79.14084,82.08767 131.22853,107.90623l-0.00901,-0.00901z" id="svg_1"/>
  </g>
 </g>
</svg>