<svg width="1342" height="1342" xmlns="http://www.w3.org/2000/svg">
 <defs>
  <style type="text/css">
   <![CDATA[
    .fil0 {fill:#96989A;fill-rule:nonzero}
   ]]>
  </style>
 </defs>
 <g>
  <title>background</title>
  <rect fill="none" id="canvas_background" height="1344" width="1344" y="-1" x="-1"/>
 </g>
 <g>
  <title>Layer 1</title>
  <g id="Layer_x0020_1">
   <metadata transform="translate(0,160.27499389648438) translate(0.16998291015625,0) " id="CorelCorpID_0Corel-Layer"/>
   <path id="svg_1" d="m1035.13998,623.43499c-69.48,0 -132.38,28.16 -177.9,73.69c-45.52,45.52 -73.69,108.43 -73.69,177.9c0,69.47 28.16,132.37 73.69,177.9c45.52,45.52 108.43,73.69 177.9,73.69c69.48,0 132.38,-28.16 177.9,-73.69c45.52,-45.52 73.69,-108.43 73.69,-177.9c0,-69.48 -28.16,-132.38 -73.69,-177.9c-45.52,-45.52 -108.43,-73.69 -177.9,-73.69zm-105.41,269.73c-10.76,-10.76 -10.76,-28.21 0,-38.97c10.76,-10.76 28.21,-10.76 38.97,0l38.42,38.42l102.12,-102.12c10.76,-10.76 28.21,-10.76 38.97,0c10.76,10.76 10.76,28.21 0,38.97l-121.6,121.6c-10.76,10.76 -28.21,10.76 -38.97,0l-57.91,-57.91l0,0.01zm-273.16,42.08c15.22,0 27.56,12.34 27.56,27.56c0,15.22 -12.34,27.56 -27.56,27.56l-324.56,0c-15.22,0 -27.56,-12.34 -27.56,-27.56c0,-46.04 8.84,-90.01 24.91,-130.32l-66.8,0l-234.83,0c-15.22,0 -27.56,-12.34 -27.56,-27.56c0,-72.45 29.37,-138.05 76.85,-185.53c47.48,-47.48 113.08,-76.85 185.53,-76.85c47.93,0 92.93,12.92 131.69,35.48c34.23,19.92 63.56,47.38 85.7,80.11c51.92,-30.17 112.26,-47.44 176.63,-47.44c15.31,0 30.87,1.07 46.54,3.14c15.85,2.1 31.07,5.15 45.57,9.07c16.58,4.48 32.83,10.24 48.63,17.15c9.04,3.95 17.83,8.23 26.36,12.83c55.02,-52.39 129.5,-84.56 211.46,-84.56c84.69,0 161.37,34.33 216.87,89.83c55.5,55.5 89.83,132.19 89.83,216.87c0,84.69 -34.33,161.37 -89.83,216.87c-55.5,55.5 -132.19,89.83 -216.87,89.83c-84.69,0 -161.37,-34.33 -216.87,-89.83c-55.5,-55.5 -89.83,-132.18 -89.83,-216.87c0,-67.02 21.5,-129.02 57.98,-179.48c-3.66,-1.79 -7.35,-3.5 -11.07,-5.12c-13,-5.68 -26.66,-10.49 -40.88,-14.34c-12.83,-3.47 -25.69,-6.09 -38.46,-7.78c-12.45,-1.64 -25.61,-2.5 -39.44,-2.5c-82.02,0 -156.28,33.24 -210.02,86.99c-47.65,47.65 -79.19,111.43 -85.72,182.46l295.74,0l0.01,-0.01zm-394.02,-724.19c41.67,0 79.39,16.89 106.69,44.2c27.31,27.31 44.2,65.04 44.2,106.69c0,41.66 -16.89,79.38 -44.2,106.69c-27.31,27.31 -65.04,44.2 -106.69,44.2c-41.66,0 -79.39,-16.89 -106.69,-44.2c-27.31,-27.31 -44.2,-65.03 -44.2,-106.69c0,-41.66 16.89,-79.39 44.2,-106.69c27.31,-27.31 65.04,-44.2 106.69,-44.2zm67.72,83.17c-17.33,-17.33 -41.28,-28.05 -67.72,-28.05c-26.45,0 -50.4,10.72 -67.72,28.05c-17.33,17.33 -28.05,41.28 -28.05,67.72c0,26.45 10.72,50.39 28.05,67.72c17.33,17.33 41.28,28.05 67.72,28.05c26.45,0 50.4,-10.72 67.72,-28.05c17.33,-17.33 28.05,-41.27 28.05,-67.72c0,-26.45 -10.72,-50.4 -28.05,-67.72zm-273.17,483.15l297.41,0c10.52,-18.99 22.71,-36.87 36.37,-53.43c12.11,-14.68 25.31,-28.32 39.48,-40.79c-16.95,-23.32 -38.66,-42.97 -63.69,-57.54c-30.53,-17.76 -66.1,-27.94 -104.13,-27.94c-57.24,0 -109.06,23.2 -146.56,60.7c-31.38,31.38 -52.74,72.79 -58.89,119l0.01,0zm599.46,-617.1c54.68,0 104.18,22.17 140.02,58c35.84,35.83 58,85.34 58,140.02c0,54.68 -22.17,104.18 -58,140.02c-35.83,35.84 -85.34,58 -140.02,58c-54.67,0 -104.19,-22.17 -140.02,-58c-35.84,-35.83 -58,-85.34 -58,-140.02c0,-54.67 22.17,-104.18 58,-140.02c35.83,-35.84 85.35,-58 140.02,-58zm101.05,96.97c-25.85,-25.86 -61.58,-41.85 -101.05,-41.85c-39.46,0 -75.2,16 -101.05,41.85c-25.86,25.85 -41.85,61.58 -41.85,101.05c0,39.46 16,75.19 41.85,101.05c25.85,25.86 61.59,41.85 101.05,41.85c39.46,0 75.19,-16 101.05,-41.85c25.86,-25.85 41.85,-61.58 41.85,-101.05c0,-39.46 -16,-75.19 -41.85,-101.05z" class="fil0"/>
  </g>
 </g>
</svg>