<svg width="1324" height="1324" xmlns="http://www.w3.org/2000/svg">
 <defs>
  <style type="text/css">
   <![CDATA[
    .fil0 {fill:#96989A;fill-rule:nonzero}
   ]]>
  </style>
 </defs>
 <g>
  <title>background</title>
  <rect fill="none" id="canvas_background" height="1326" width="1326" y="-1" x="-1"/>
 </g>
 <g>
  <title>Layer 1</title>
  <g id="Layer_x0020_1">
   <metadata transform="translate(0,246.95498657226562) translate(-0.49000000953674316,0) " id="CorelCorpID_0Corel-Layer"/>
   <path id="svg_1" d="m920,755.70499c-11.06,10.4 -28.46,9.87 -38.86,-1.19c-10.4,-11.06 -9.87,-28.46 1.19,-38.86c24.17,-22.79 52.37,-40.65 83.05,-52.82c30.56,-12.12 63.31,-18.55 96.74,-18.55c72.45,0 138.04,29.37 185.53,76.85c47.48,47.48 76.85,113.08 76.85,185.53c0,15.22 -12.34,27.56 -27.56,27.56l-262.91,0c-15.22,0 -27.56,-12.34 -27.56,-27.56c0,-15.22 12.34,-27.56 27.56,-27.56l233.54,0c-6.14,-46.22 -27.5,-87.63 -58.88,-119c-37.5,-37.5 -89.32,-60.7 -146.56,-60.7c-26.8,0 -52.69,5.01 -76.5,14.46c-24.09,9.56 -46.37,23.71 -65.61,41.84l-0.02,0zm-658.11,-442.91c41.66,0 79.39,16.89 106.69,44.2c27.31,27.31 44.2,65.03 44.2,106.69c0,41.66 -16.89,79.39 -44.2,106.69c-27.31,27.31 -65.04,44.2 -106.69,44.2c-41.66,0 -79.39,-16.89 -106.69,-44.2c-27.31,-27.31 -44.2,-65.03 -44.2,-106.69c0,-41.66 16.89,-79.39 44.2,-106.69c27.31,-27.31 65.04,-44.2 106.69,-44.2zm67.72,83.17c-17.33,-17.33 -41.28,-28.05 -67.72,-28.05c-26.45,0 -50.4,10.72 -67.72,28.05c-17.33,17.33 -28.05,41.28 -28.05,67.72c0,26.45 10.72,50.4 28.05,67.72c17.33,17.33 41.28,28.05 67.72,28.05c26.45,0 50.4,-10.72 67.72,-28.05c17.33,-17.33 28.05,-41.28 28.05,-67.72c0,-26.45 -10.72,-50.39 -28.05,-67.72zm-44.4,483.15c15.22,0 27.56,12.34 27.56,27.56c0,15.22 -12.34,27.56 -27.56,27.56l-258.15,0c-15.22,0 -27.56,-12.34 -27.56,-27.56c0,-72.45 29.37,-138.06 76.85,-185.53c47.48,-47.48 113.08,-76.85 185.53,-76.85c33.71,0 66.03,6.42 95.78,18.1c30.83,12.1 58.83,29.89 82.69,52.05c11.11,10.34 11.74,27.75 1.4,38.86c-10.34,11.11 -27.75,11.74 -38.86,1.4c-18.82,-17.48 -40.92,-31.52 -65.25,-41.07c-23.38,-9.18 -48.94,-14.22 -75.76,-14.22c-57.24,0 -109.06,23.2 -146.56,60.7c-31.38,31.38 -52.74,72.79 -58.88,119l228.77,0zm376.71,-632.16c54.68,0 104.19,22.17 140.02,58c35.83,35.83 58,85.34 58,140.02c0,54.68 -22.17,104.18 -58,140.02c-35.84,35.83 -85.34,58 -140.02,58c-54.68,0 -104.19,-22.17 -140.02,-58c-35.83,-35.83 -58,-85.34 -58,-140.02c0,-54.67 22.17,-104.18 58,-140.02c35.83,-35.84 85.34,-58 140.02,-58zm101.05,96.97c-25.86,-25.86 -61.59,-41.85 -101.05,-41.85c-39.46,0 -75.19,16 -101.05,41.85c-25.86,25.85 -41.85,61.58 -41.85,101.05c0,39.46 16,75.19 41.85,101.05c25.85,25.85 61.58,41.85 101.05,41.85c39.46,0 75.19,-16 101.05,-41.85c25.85,-25.86 41.85,-61.59 41.85,-101.05c0,-39.46 -16,-75.19 -41.85,-101.05zm-101.05,733.12l-324.56,0c-15.22,0 -27.56,-12.34 -27.56,-27.56c0,-97.23 39.41,-185.26 103.14,-248.98c63.72,-63.72 151.76,-103.14 248.98,-103.14c97.23,0 185.26,39.41 248.98,103.14c63.72,63.72 103.14,151.76 103.14,248.98c0,15.22 -12.34,27.56 -27.56,27.56l-324.56,0zm-295.74,-55.12l591.47,0c-6.53,-71.02 -38.07,-134.8 -85.72,-182.45c-53.74,-53.74 -128,-86.99 -210.01,-86.99c-82.02,0 -156.28,33.24 -210.02,86.99c-47.65,47.65 -79.19,111.43 -85.72,182.45zm695.91,-709.13c41.66,0 79.39,16.89 106.69,44.2c27.31,27.31 44.2,65.04 44.2,106.69c0,41.67 -16.89,79.39 -44.2,106.69c-27.31,27.31 -65.03,44.2 -106.69,44.2c-41.66,0 -79.38,-16.89 -106.69,-44.2c-27.31,-27.31 -44.2,-65.04 -44.2,-106.69c0,-41.66 16.89,-79.39 44.2,-106.69c27.31,-27.31 65.03,-44.2 106.69,-44.2zm67.72,83.17c-17.33,-17.33 -41.28,-28.05 -67.72,-28.05c-26.45,0 -50.39,10.72 -67.72,28.05c-17.33,17.33 -28.05,41.28 -28.05,67.72c0,26.45 10.72,50.4 28.05,67.72c17.33,17.33 41.27,28.05 67.72,28.05c26.45,0 50.4,-10.72 67.72,-28.05c17.33,-17.33 28.05,-41.28 28.05,-67.72c0,-26.45 -10.72,-50.4 -28.05,-67.72z" class="fil0"/>
  </g>
 </g>
</svg>