<svg width="934.18" height="934" xmlns="http://www.w3.org/2000/svg">
 <defs>
  <style type="text/css">
   <![CDATA[
    .fil0 {fill:#96989A;fill-rule:nonzero}
   ]]>
  </style>
 </defs>
 <g>
  <title>background</title>
  <rect x="-1" y="-1" width="936.18" height="936" id="canvas_background" fill="none"/>
 </g>
 <g>
  <title>Layer 1</title>
  <g stroke="null" id="Layer_x0020_1">
   <metadata transform="translate(-23.999996185302734,0) translate(0,-23.230865478515625) translate(138.74493408203125,149.17813110351562) scale(1.0730938911437988) translate(-138.74493408203125,-149.17813110351562) " stroke="null" id="CorelCorpID_0Corel-Layer"/>
   <path stroke="null" class="fil0" d="m233.44675,717.43469c9.59511,-6.27605 22.47157,-3.58308 28.74763,6.01203c6.27605,9.59511 3.58308,22.47157 -6.01203,28.74763l-76.79108,50.21593c-5.95923,3.8999 -12.22773,5.64241 -18.56413,5.64241c-8.01101,0 -15.50154,-2.874 -22.06424,-7.67157c-5.18227,-3.7943 -9.77615,-8.84078 -13.44975,-14.46056c-6.40429,-9.79879 -10.5682,-22.23774 -10.5682,-33.37923l0,-459.59234c0,-45.94641 18.79043,-87.69873 49.03918,-117.95502c30.25629,-30.25629 72.0086,-49.03918 117.95502,-49.03918l270.26236,0c11.48095,0 20.78941,9.30847 20.78941,20.78941c0,11.48095 -9.30847,20.78941 -20.78941,20.78941l-270.26236,0c-34.46547,0 -65.82307,14.12111 -88.55867,36.8567c-22.74313,22.74313 -36.8567,54.0932 -36.8567,88.55867l0,459.59234c0,3.17575 1.47849,7.16616 3.74904,10.64363l1.0787,1.52375l72.3028,-47.27404l-0.00754,0l-0.00001,0.00001zm79.303,-385.19249c-11.58655,0 -20.98554,-9.11234 -20.98554,-20.3519c0,-11.23955 9.39898,-20.3519 20.98554,-20.3519l314.57186,0c11.58655,0 20.98554,9.11234 20.98554,20.3519c0,11.23955 -9.39898,20.3519 -20.98554,20.3519l-314.57186,0zm0,232.40239c-11.58655,0 -20.98554,-9.11234 -20.98554,-20.3519c0,-11.23955 9.39898,-20.3519 20.98554,-20.3519l314.57186,0c11.58655,0 20.98554,9.11234 20.98554,20.3519c0,11.23955 -9.39898,20.3519 -20.98554,20.3519l-314.57186,0zm0,-116.19742c-11.58655,0 -20.98554,-9.11234 -20.98554,-20.3519c0,-11.23955 9.39898,-20.3519 20.98554,-20.3519l314.57186,0c11.58655,0 20.98554,9.11234 20.98554,20.3519c0,11.23955 -9.39898,20.3519 -20.98554,20.3519l-314.57186,0zm339.6836,-280.92108c-11.48095,0 -20.78941,-9.30847 -20.78941,-20.78941c0,-11.48095 9.30847,-20.78941 20.78941,-20.78941c45.94641,0 87.69873,18.79043 117.95502,49.03918c30.25629,30.25629 49.04672,72.01615 49.04672,117.95502l0,279.41995c0,45.93133 -18.79043,87.69118 -49.04672,117.94747c-30.25629,30.25629 -72.01615,49.04672 -117.94747,49.04672l-304.53168,0c-11.48095,0 -20.78941,-9.30847 -20.78941,-20.78941c0,-11.48095 9.30847,-20.78941 20.78941,-20.78941l304.53168,0c34.45792,0 65.80799,-14.12111 88.55113,-36.86424c22.74313,-22.74313 36.86424,-54.0932 36.86424,-88.55113l0,-279.41995c0,-34.46547 -14.12111,-65.82307 -36.86424,-88.55867c-22.74313,-22.74313 -54.0932,-36.8567 -88.55867,-36.8567z" id="svg_1"/>
  </g>
 </g>
</svg>