<svg xmlns="http://www.w3.org/2000/svg" width="512" height="512" style=""><rect id="backgroundrect" width="100%" height="100%" x="0" y="0" fill="none" stroke="none"/>
 <g style="" class="currentLayer">
  <title>Layer 1</title>
  <path d="m508.32813,159.20313l-55.08985,-45.03907l0,-83.54687c0,-16.88281 -13.73437,-30.61719 -30.62109,-30.61719l-80.61719,0c-5.52344,0 -10,4.47656 -10,10s4.47656,10 10,10l80.61719,0c5.85547,0 10.62109,4.76563 10.62109,10.61719l0,177.49219l-131.23828,99.78125l-131.23828,-99.78125l0,-89.16016s0,-0.00391 0,-0.00781l0,-88.32422c0,-5.85156 4.76562,-10.61719 10.62109,-10.61719l80.61719,0c5.52344,0 10,-4.47656 10,-10s-4.47656,-10 -10,-10l-80.61719,0c-16.88672,0 -30.62109,13.73438 -30.62109,30.61719l0,83.54687l-55.08984,45.03907c-2.32422,1.89843 -3.67188,4.74218 -3.67188,7.74218l0,111.01953l-45,0c-5.52344,0 -10,4.47657 -10,10c0,5.51953 4.47656,10 10,10l45,0l0,103.41797c0,16.88281 13.73438,30.61719 30.61719,30.61719l358.76562,0c16.88282,0 30.61719,-13.73438 30.61719,-30.61719l0,-234.4375c0,-3 -1.34766,-5.84375 -3.67187,-7.74219l0,0.00001zm-16.32813,237.63281l-118.32031,-118.32031l118.32031,-89.95704l0,208.27735zm-38.76172,-256.83985l33.53125,27.41407l-33.53125,25.49218l0,-52.90625zm-151.23828,190.45704c2.13281,0 4.26563,-0.67969 6.05469,-2.03907l49.55859,-37.67968l121.26563,121.26562l-353.75782,0l121.26563,-121.26562l49.5625,37.67968c1.78516,1.35938 3.91797,2.03907 6.05078,2.03907zm-190,-141.89454l118.32031,89.95704l-118.32031,118.32031l0,-208.27735zm38.76172,4.34375l-33.53125,-25.49218l33.53125,-27.41407l0,52.90625zm0,0" id="svg_1" class="" fill-opacity="1" fill="#a2acb3"/>
  <path d="m64,341.96484l-54,0c-5.52344,0 -10,4.47657 -10,10c0,5.51954 4.47656,10 10,10l54,0c5.52344,0 10,-4.48046 10,-10c0,-5.52343 -4.47656,-10 -10,-10zm0,0" id="svg_2" class=""/><path d="m64,341.96484 l-54,0 c-5.52344,0 -10,4.47657 -10,10 c0,5.51954 4.47656,10 10,10 l54,0 c5.52344,0 10,-4.48046 10,-10 c0,-5.52343 -4.47656,-10 -10,-10 zm0,0 " class="" id="svg_5" fill-opacity="1" fill="#a2acb3"/>
  <path d="m302,22.362204790115356 c2.6289100000000003,0 5.21094,-1.07031 7.07031,-2.92969 c1.85938,-1.8593700000000002 2.92969,-4.4414 2.92969,-7.07031 s-1.07031,-5.21094 -2.92969,-7.07031 c-1.8593700000000002,-1.85938 -4.4414,-2.92969 -7.07031,-2.92969 s-5.21094,1.07031 -7.07031,2.92969 c-1.85938,1.8593700000000002 -2.92969,4.4414 -2.92969,7.07031 s1.07031,5.21094 2.92969,7.07031 c1.8593700000000002,1.85938 4.4414,2.92969 7.07031,2.92969 zm0,0 " id="svg_3" class="selected" fill-opacity="1" fill="#a2acb3"/>
  <path d="m220.86719,144.99219c0,44.73828 36.39453,81.13672 81.13281,81.13672s81.13281,-36.39844 81.13281,-81.13672c0,-44.73828 -36.39453,-81.13281 -81.13281,-81.13281s-81.13281,36.39453 -81.13281,81.13281zm142.26562,0c0,33.71094 -27.42187,61.13672 -61.13281,61.13672s-61.13281,-27.42578 -61.13281,-61.13672c0,-33.71094 27.42187,-61.13281 61.13281,-61.13281s61.13281,27.42578 61.13281,61.13281zm0,0" id="svg_4" class="" fill-opacity="1" fill="#a2acb3"/>
  <path stroke="null" d="m301.5,187c2.23457,0 4.4293,-0.96328 6.00976,-2.63672c1.58047,-1.67343 2.49024,-3.99726 2.49024,-6.36328s-0.90976,-4.68985 -2.49024,-6.36328c-1.58046,-1.67344 -3.77519,-2.63672 -6.00976,-2.63672s-4.4293,0.96328 -6.00976,2.63672c-1.58047,1.67343 -2.49024,3.99726 -2.49024,6.36328s0.90976,4.68985 2.49024,6.36328c1.58046,1.67344 3.77519,2.63672 6.00976,2.63672zm0,0" id="svg_6" class="" fill-opacity="1" fill="#a2acb3"/>
  <path stroke="null" transform="rotate(-90 301.50000000000006,128.96484375000003) " d="m323.39189,121.46484l-43.78378,0c-4.47846,0 -8.10811,3.35743 -8.10811,7.5c0,4.13966 3.62964,7.5 8.10811,7.5l43.78378,0c4.47846,0 8.10811,-3.36034 8.10811,-7.5c0,-4.14257 -3.62964,-7.5 -8.10811,-7.5zm0,0" id="svg_7" class="" fill-opacity="1" fill="#a2acb3"/>
 </g>

</svg>