<?xml version="1.0" encoding="UTF-8"?>
<!DOCTYPE svg PUBLIC "-//W3C//DTD SVG 1.1//EN" "http://www.w3.org/Graphics/SVG/1.1/DTD/svg11.dtd">
<!-- Creator: CorelDRAW 2019 (64-Bit) -->
<svg xmlns="http://www.w3.org/2000/svg" xml:space="preserve" width="0.735039in" height="0.735039in" version="1.1" style="shape-rendering:geometricPrecision; text-rendering:geometricPrecision; image-rendering:optimizeQuality; fill-rule:evenodd; clip-rule:evenodd"
viewBox="0 0 735.04 735.04"
 xmlns:xlink="http://www.w3.org/1999/xlink">
 <defs>
  <style type="text/css">
   <![CDATA[
    .str0 {stroke:white;stroke-width:3;stroke-miterlimit:2.61313}
    .fil1 {fill:#4C5566}
    .fil0 {fill:#F4F6F7}
   ]]>
  </style>
 </defs>
 <g id="Layer_x0020_1">
  <metadata id="CorelCorpID_0Corel-Layer"/>
  <polygon class="fil0" points="624.78,477.78 735.04,367.52 624.78,257.26 624.78,110.26 477.78,110.26 367.52,0 257.26,110.26 110.26,110.26 110.26,257.26 -0,367.52 110.26,477.78 110.26,624.78 257.26,624.78 367.52,735.04 477.78,624.78 624.78,624.78 "/>
  <path class="fil1 str0" d="M588.03 272.49l0 -125.48 -125.48 0 -95.03 -95.03 -95.03 95.03 -125.48 0 0 125.48 -95.03 95.03 95.03 95.03 0 125.48 125.48 0 95.03 95.03 95.03 -95.03 125.48 0 0 -125.48 25.11 -25.11 -17.32 -17.32 -32.29 32.29 0 111.13 -73.5 0 0 -166.88c12.39,-14.52 24.5,-39.69 24.5,-65.89 0,-42.78 -34.41,-66.94 -75.96,-91.92 -56.82,-34.17 -58.78,-67.23 -58.79,-67.33l-24.5 -0.23c-0.01,0.33 -1.97,33.4 -58.79,67.56 -41.55,24.98 -75.96,49.15 -75.96,91.93 0,26.2 12.11,51.38 24.5,65.9l0 166.86 -73.5 0 0 -111.13 -84.88 -84.88 84.88 -84.89 0 -111.13 111.13 0 84.88 -84.88 84.88 84.88 111.13 0 0 111.13 84.88 84.89 -32.29 32.29 17.32 17.32 49.61 -49.61 -95.03 -95.03zm-212.28 -1.02l-16.46 -18.14c-5.01,4.54 -10.51,9.04 -16.33,13.37l14.59 19.67c6.47,-4.8 12.59,-9.81 18.2,-14.9zm-41.41 30.37c2.3,-1.39 4.54,-2.77 6.71,-4.17l-13.16 -20.67c-2.01,1.28 -4.07,2.55 -6.17,3.82 -35.19,21.16 -49.76,34.57 -52.04,47.87l24.12 4.25c0.42,-1.36 4.31,-9.32 40.54,-31.1zm-3.58 309.82l0 -72.63c0,-20.26 16.49,-36.75 36.75,-36.75 20.26,0 36.75,16.49 36.75,36.75l0 72.63 -36.75 36.75 -36.75 -36.75zm-21.67 -351.82c31.26,-18.8 48.7,-38.08 58.42,-53.82 9.72,15.74 27.16,35.02 58.42,53.82 43.42,26.1 64.09,43.37 64.09,70.93 0,18.67 -8.49,37.77 -17.74,49l-209.54 0c-9.25,-11.24 -17.74,-30.33 -17.74,-49 0,-27.56 20.67,-44.83 64.09,-70.93zm-39.58 193.43l147.01 0 0 -24.5 -147.01 0 0 -24.5 196.01 0 0 24.5 -24.5 0 0 24.5 24.5 0 0 110.26 -13.12 0 -23.63 23.63 0 -48.13c0,-33.78 -27.48,-61.25 -61.25,-61.25 -33.78,0 -61.25,27.48 -61.25,61.25l0 48.13 -23.63 -23.63 -13.12 0 0 -110.26z"/>
 </g>
</svg>
