<?xml version="1.0" standalone="no"?>
<!DOCTYPE svg PUBLIC "-//W3C//DTD SVG 20010904//EN"
 "http://www.w3.org/TR/2001/REC-SVG-20010904/DTD/svg10.dtd">
<svg version="1.0" xmlns="http://www.w3.org/2000/svg"
 width="600.000000pt" height="608.000000pt" viewBox="0 0 600.000000 608.000000"
 preserveAspectRatio="xMidYMid meet">
<metadata>
Created by potrace 1.15, written by Peter Selinger 2001-2017
</metadata>
<g transform="translate(0.000000,608.000000) scale(0.100000,-0.100000)"
fill="#a2acb3" stroke="none">
<path d="M5690 6057 c-12 -18 -14 -48 -10 -162 3 -95 1 -145 -6 -155 -20 -27
-23 -75 -24 -320 -1 -194 -4 -243 -16 -254 -8 -8 -14 -19 -14 -25 0 -6 -4 -11
-9 -11 -4 0 -6 -23 -3 -51 3 -28 1 -54 -4 -58 -17 -12 -34 -77 -34 -129 0 -33
-7 -64 -20 -87 -12 -21 -20 -54 -20 -80 0 -25 -4 -45 -9 -45 -11 0 -22 -50
-25 -107 -1 -27 -10 -51 -24 -68 -18 -21 -21 -33 -16 -60 4 -23 2 -35 -5 -35
-6 0 -11 -7 -11 -15 0 -9 -7 -18 -16 -22 -11 -4 -13 -13 -9 -34 5 -21 1 -36
-14 -55 -12 -15 -21 -35 -21 -45 0 -11 -4 -19 -10 -19 -5 0 -10 -7 -10 -16 0
-9 -10 -25 -22 -36 -13 -11 -17 -17 -10 -13 8 4 12 -3 12 -25 0 -23 -5 -33
-20 -37 -14 -4 -20 -14 -20 -35 0 -19 -8 -38 -21 -49 -12 -10 -19 -25 -16 -33
3 -8 -3 -24 -14 -37 -10 -12 -19 -29 -19 -38 0 -9 -9 -27 -20 -41 -11 -14 -20
-33 -20 -42 0 -10 -3 -18 -8 -18 -4 0 -13 -15 -20 -32 -24 -57 -35 -78 -44
-78 -4 0 -8 -11 -8 -23 0 -13 -9 -32 -20 -42 -12 -10 -19 -24 -16 -31 3 -7 -6
-25 -20 -39 -14 -15 -23 -33 -20 -41 3 -7 -8 -24 -24 -38 -17 -14 -30 -32 -30
-40 0 -9 -4 -16 -10 -16 -5 0 -10 -8 -10 -18 0 -10 -11 -29 -25 -42 -14 -13
-25 -29 -25 -36 0 -6 -7 -14 -15 -18 -8 -3 -15 -14 -15 -25 0 -11 -11 -28 -25
-39 -14 -11 -25 -27 -25 -36 0 -9 -7 -16 -16 -16 -11 0 -14 -5 -10 -16 4 -10
-11 -33 -44 -66 -27 -28 -50 -54 -50 -59 0 -5 -7 -9 -15 -9 -8 0 -15 -5 -15
-11 0 -6 -34 -43 -75 -84 -41 -40 -75 -78 -75 -84 0 -6 -7 -11 -16 -11 -9 0
-18 -9 -21 -20 -3 -11 -12 -20 -20 -20 -8 0 -17 -9 -20 -20 -3 -11 -10 -20
-16 -20 -6 0 -34 -25 -62 -55 -29 -30 -57 -55 -63 -55 -5 0 -12 -9 -15 -20 -3
-11 -12 -20 -21 -20 -9 0 -16 -7 -16 -15 0 -8 -4 -15 -9 -15 -6 0 -42 -32 -81
-72 -57 -58 -73 -69 -81 -58 -7 12 -10 11 -15 -7 -4 -13 -12 -23 -20 -23 -7 0
-18 -9 -24 -20 -6 -11 -16 -20 -23 -20 -7 0 -22 -13 -35 -30 -14 -17 -29 -27
-38 -23 -8 3 -14 0 -14 -6 0 -6 -5 -11 -10 -11 -6 0 -34 -22 -63 -50 -52 -50
-67 -59 -67 -40 0 6 -23 -12 -51 -40 -38 -38 -54 -48 -60 -39 -6 10 -13 6 -30
-15 -14 -18 -28 -26 -40 -23 -12 3 -19 0 -19 -9 0 -8 -10 -14 -26 -14 -14 0
-23 -4 -19 -9 8 -13 -43 -51 -69 -51 -12 0 -27 -9 -34 -20 -7 -12 -23 -20 -40
-20 -17 0 -32 -8 -40 -21 -10 -16 -19 -19 -43 -14 -18 4 -29 3 -29 -4 0 -6
-11 -11 -25 -11 -14 0 -25 -5 -25 -11 0 -6 -5 -9 -12 -7 -6 2 -23 -7 -37 -20
-18 -16 -34 -22 -53 -20 -16 3 -29 -1 -32 -9 -3 -7 -17 -13 -31 -13 -14 0 -25
-4 -25 -10 0 -5 -8 -10 -19 -10 -10 0 -30 -9 -44 -20 -27 -22 -67 -27 -67 -9
0 6 -15 -3 -32 -21 -27 -25 -39 -31 -64 -27 -22 4 -39 -1 -60 -18 -22 -17 -37
-21 -65 -18 -29 4 -39 1 -52 -17 -13 -19 -23 -22 -66 -19 -28 2 -51 1 -51 -3
0 -17 -72 -40 -113 -37 -35 3 -48 -1 -68 -19 -21 -20 -32 -23 -92 -20 -37 2
-68 1 -70 -2 -1 -3 -15 -12 -32 -20 -21 -11 -56 -15 -117 -14 -49 1 -88 -2
-88 -7 0 -5 -6 -9 -13 -9 -7 0 -18 -5 -24 -11 -7 -7 -80 -12 -194 -14 -101 -2
-317 -6 -479 -9 -265 -6 -293 -5 -276 9 11 8 18 15 15 15 -3 0 93 98 213 218
119 119 217 222 218 228 0 7 9 14 20 17 11 3 20 12 20 21 0 9 7 16 15 16 8 0
15 7 15 15 0 9 7 18 15 21 8 4 15 13 15 22 0 17 326 354 347 360 7 2 13 16 13
32 0 41 -139 180 -180 180 -15 0 -31 6 -33 13 -4 7 -8 3 -12 -10 -4 -13 -14
-23 -22 -23 -8 0 -17 -9 -20 -20 -3 -11 -10 -20 -15 -20 -5 0 -57 -47 -116
-105 -59 -58 -110 -105 -114 -105 -5 0 -8 6 -9 13 0 6 -4 2 -9 -10 -5 -13 -16
-23 -25 -23 -8 0 -15 -7 -15 -15 0 -8 -5 -15 -10 -15 -6 0 -42 -31 -81 -69
-39 -39 -76 -68 -83 -65 -8 3 -16 -2 -19 -10 -4 -9 -13 -16 -22 -16 -8 0 -15
-7 -15 -15 0 -9 -8 -18 -17 -22 -10 -3 -36 -27 -59 -51 -28 -32 -46 -43 -57
-39 -11 4 -17 1 -17 -8 0 -8 -7 -15 -15 -15 -8 0 -19 -9 -25 -20 -6 -11 -15
-20 -21 -20 -5 0 -31 -22 -56 -50 -36 -39 -49 -48 -59 -39 -11 9 -14 8 -14 -5
0 -9 -7 -16 -15 -16 -8 0 -19 -9 -25 -20 -6 -11 -15 -20 -20 -20 -5 0 -30 -23
-56 -50 -37 -39 -50 -48 -60 -39 -11 9 -14 8 -14 -4 0 -9 -8 -18 -18 -21 -10
-4 -37 -26 -61 -51 -44 -46 -61 -55 -62 -32 0 6 -4 2 -9 -11 -5 -12 -14 -22
-21 -22 -6 0 -34 -23 -61 -51 -38 -39 -52 -48 -59 -38 -6 11 -9 10 -15 -4 -3
-9 -12 -17 -20 -17 -7 0 -24 -14 -36 -31 -15 -19 -29 -29 -40 -26 -11 3 -18 0
-18 -9 0 -8 -5 -14 -11 -14 -16 0 -99 -82 -99 -97 0 -15 35 -53 50 -53 5 0 14
-10 21 -21 9 -17 13 -19 20 -8 7 11 13 9 29 -11 11 -14 20 -28 20 -32 0 -5 7
-8 15 -8 8 0 19 -10 26 -21 9 -17 13 -19 20 -8 6 11 21 2 61 -39 30 -28 59
-52 66 -52 7 0 12 -8 12 -17 0 -15 2 -16 10 -3 8 12 19 6 60 -38 27 -28 57
-52 65 -52 8 0 15 -6 15 -14 0 -8 5 -18 12 -22 7 -4 8 -3 4 4 -4 7 -1 12 7 12
8 0 32 -20 53 -45 22 -25 44 -45 51 -45 7 0 17 -9 23 -20 6 -11 17 -20 24 -20
8 0 16 -10 20 -22 5 -19 8 -21 16 -8 8 12 19 6 59 -37 27 -29 54 -53 60 -53 6
0 11 -7 11 -15 0 -18 17 -20 22 -3 2 6 36 -21 74 -60 39 -40 76 -72 82 -72 7
0 12 -7 12 -15 0 -9 8 -19 18 -22 9 -4 21 -13 26 -21 5 -9 11 -11 15 -4 4 6
36 -18 78 -59 40 -38 76 -69 81 -69 5 0 12 -9 15 -20 3 -11 12 -20 21 -20 9 0
16 -7 16 -16 0 -12 3 -14 13 -6 10 9 29 -5 80 -58 37 -39 71 -70 75 -70 4 0
23 -18 42 -40 19 -22 41 -40 48 -40 6 0 12 -7 12 -16 0 -12 3 -14 13 -6 10 9
23 1 56 -33 41 -42 71 -57 71 -36 0 5 9 13 20 16 11 3 20 13 20 21 0 8 4 14 8
14 4 0 27 18 51 40 23 22 47 40 52 40 5 0 9 18 9 40 0 22 -5 40 -11 40 -18 0
-239 230 -239 248 0 10 -13 28 -30 42 -16 14 -30 30 -30 37 0 7 -7 13 -16 13
-9 0 -18 9 -21 20 -3 11 -12 20 -19 20 -8 0 -14 4 -14 10 0 5 -124 133 -275
284 -151 151 -275 280 -275 285 0 8 136 11 430 11 419 0 511 6 531 33 4 5 52
7 108 5 55 -1 101 -1 101 2 0 24 190 49 190 25 0 -5 7 -2 14 7 7 10 16 18 20
18 4 0 13 6 20 13 9 8 35 12 74 10 34 -1 64 2 67 7 4 6 17 10 31 10 13 0 24 5
24 11 0 7 17 10 45 7 29 -2 46 1 50 9 2 7 16 13 30 13 14 0 25 5 25 11 0 6 14
9 33 8 22 -2 44 4 64 19 34 24 54 27 69 12 7 -7 20 0 41 21 27 25 37 29 65 24
27 -5 38 -2 57 19 20 21 31 25 55 20 23 -4 37 0 53 15 14 13 36 21 58 21 19 0
35 5 35 10 0 6 12 10 26 10 14 0 23 4 19 10 -3 6 4 10 18 10 13 0 32 9 42 20
10 11 30 20 44 20 15 0 31 8 39 20 8 13 23 20 42 20 20 0 30 5 30 15 0 15 9
18 47 16 14 -2 24 5 28 18 4 15 15 21 35 21 19 0 33 7 40 21 6 11 19 19 28 17
10 -1 29 7 42 20 15 13 31 20 42 16 12 -3 18 0 18 10 0 9 7 16 16 16 9 0 29
14 44 31 18 22 29 28 34 20 5 -8 23 3 53 34 45 45 63 55 63 35 0 -6 23 12 50
39 28 28 56 48 64 45 7 -3 16 2 19 10 4 9 12 16 18 16 6 0 31 21 55 46 26 27
50 44 58 41 8 -3 17 1 20 9 3 8 10 14 15 14 6 0 42 33 82 73 44 45 73 67 76
59 3 -8 16 -1 38 23 19 19 38 35 43 35 6 0 12 4 14 10 2 5 85 93 186 194 100
102 182 194 182 203 0 10 29 46 63 79 35 34 73 81 85 106 11 24 37 57 56 73
20 16 36 35 36 42 0 8 7 16 16 20 8 3 13 12 10 19 -3 7 8 27 25 45 16 17 29
35 29 40 0 5 5 9 10 9 6 0 10 8 10 18 0 10 14 31 30 47 17 16 30 35 30 42 0 7
5 13 10 13 6 0 10 8 10 18 0 10 9 28 20 40 11 11 17 28 14 36 -3 9 3 20 15 28
12 7 21 23 21 36 0 13 14 37 30 54 17 16 30 36 30 44 0 8 5 14 10 14 6 0 10 7
10 15 0 8 5 15 10 15 6 0 10 6 10 13 0 8 8 29 17 48 10 19 18 40 19 48 2 8 8
17 14 21 7 4 8 18 5 33 -5 20 -2 29 14 39 13 8 21 23 21 40 0 17 8 33 20 40
12 8 20 24 20 39 0 14 9 34 20 44 11 10 20 26 20 37 0 10 5 18 10 18 6 0 10
11 10 24 0 14 5 28 10 31 6 3 10 20 10 36 0 18 4 28 10 24 6 -3 10 5 10 19 0
14 5 28 11 31 6 4 7 19 4 36 -4 16 -3 29 2 29 14 0 33 62 33 104 0 27 9 49 31
77 17 21 26 39 20 39 -6 0 -11 11 -11 25 0 14 5 25 10 25 6 0 10 9 10 19 0 11
5 23 10 26 6 3 10 28 10 56 0 27 5 49 10 49 6 0 10 11 10 24 0 14 5 28 10 31
6 3 10 27 10 52 0 29 7 55 21 74 17 25 20 41 18 113 -2 48 2 90 8 98 18 22 22
85 23 306 1 116 5 212 10 212 5 0 12 27 16 60 4 33 11 63 15 66 5 3 9 78 9
168 0 207 9 196 -166 196 -122 -1 -130 -2 -144 -23z"/>
</g>
</svg>
