<?xml version="1.0" encoding="UTF-8"?>
<!DOCTYPE svg PUBLIC "-//W3C//DTD SVG 1.1//EN" "http://www.w3.org/Graphics/SVG/1.1/DTD/svg11.dtd">
<!-- Creator: CorelDRAW 2017 -->
<svg xmlns="http://www.w3.org/2000/svg" xml:space="preserve" width="18px" height="18px" version="1.1" style="shape-rendering:geometricPrecision; text-rendering:geometricPrecision; image-rendering:optimizeQuality; fill-rule:evenodd; clip-rule:evenodd"
viewBox="0 0 18 17.73"
 xmlns:xlink="http://www.w3.org/1999/xlink">
 <defs>
  <style type="text/css">
   <![CDATA[
    .fil0 {fill:white}
   ]]>
  </style>
 </defs>
 <g id="Layer_x0020_1">
  <metadata id="CorelCorpID_0Corel-Layer"/>
  <path class="fil0" d="M11.18 15.99l-9.43 0 0 -2.97c0,-1.45 1.17,-2.62 2.62,-2.63l3.43 0 0.18 0c2.87,0.02 5.21,-2.3 5.22,-5.17 0.01,-2.87 -2.31,-5.21 -5.18,-5.22 -2.87,-0.01 -5.2,2.31 -5.22,5.18 0,1.27 0.46,2.51 1.31,3.47 -2.31,0.13 -4.11,2.05 -4.11,4.37l0 3.84c0,0.48 0.39,0.87 0.87,0.87l10.31 0c0.49,0 0.88,-0.39 0.88,-0.87 0,-0.48 -0.39,-0.87 -0.88,-0.87l0 0 0 0zm-3.2 -14.19c1.89,0.05 3.38,1.63 3.33,3.52 -0.05,1.78 -1.46,3.23 -3.23,3.33l-0.28 0c-1.89,-0.12 -3.32,-1.75 -3.2,-3.64 0.11,-1.79 1.59,-3.19 3.38,-3.21l0 0z"/>
  <g id="_2394712487760">
   <path class="fil0" d="M17.13 13.89l-5.25 0c-0.48,0 -0.87,-0.39 -0.87,-0.87 0,-0.49 0.39,-0.88 0.87,-0.88l5.25 0c0.48,0 0.87,0.39 0.87,0.88 0,0.48 -0.39,0.87 -0.87,0.87l0 0z"/>
   <path class="fil0" d="M14.5 16.51c-0.48,0 -0.87,-0.39 -0.87,-0.87l0 -5.25c0,-0.48 0.39,-0.87 0.87,-0.87 0.49,0 0.88,0.39 0.88,0.87l0 5.25c0,0.48 -0.39,0.87 -0.88,0.87z"/>
  </g>
  <g id="_2394712488144">
  </g>
  <g id="_2394712486704">
  </g>
  <g id="_2394712486800">
  </g>
  <g id="_2394712486576">
  </g>
  <g id="_2394712486480">
  </g>
  <g id="_2394712486608">
  </g>
  <g id="_2394712485392">
  </g>
  <g id="_2394712484528">
  </g>
  <g id="_2394712483856">
  </g>
  <g id="_2394712482192">
  </g>
  <g id="_2394712482160">
  </g>
  <g id="_2394712481712">
  </g>
  <g id="_2394712481520">
  </g>
  <g id="_2394712481488">
  </g>
  <g id="_2394712480176">
  </g>
 </g>
</svg>
