<?xml version="1.0" encoding="UTF-8"?>
<!DOCTYPE svg PUBLIC "-//W3C//DTD SVG 1.1//EN" "http://www.w3.org/Graphics/SVG/1.1/DTD/svg11.dtd">
<!-- Creator: CorelDRAW 2017 -->
<svg xmlns="http://www.w3.org/2000/svg" xml:space="preserve" width="535px" height="459px" version="1.1" style="shape-rendering:geometricPrecision; text-rendering:geometricPrecision; image-rendering:optimizeQuality; fill-rule:evenodd; clip-rule:evenodd"
viewBox="0 0 535 459.05"
 xmlns:xlink="http://www.w3.org/1999/xlink">
 <defs>
  <style type="text/css">
   <![CDATA[
    .str0 {stroke:white;stroke-width:3.13;stroke-miterlimit:2.61313}
    .fil0 {fill:white}
   ]]>
  </style>
 </defs>
 <g id="Layer_x0020_1">
  <metadata id="CorelCorpID_0Corel-Layer"/>
  <g id="_2256570219216">
   <path class="fil0 str0" d="M485.95 58.56l-438.81 0 -45.58 123.47c0,36.1 30.39,66.48 66.48,66.48 36.09,0 66.48,-30.38 66.48,-66.48 0,36.1 30.41,66.48 66.5,66.48 36.1,0 66.48,-30.38 66.48,-66.48 0,36.1 30.38,66.48 66.47,66.48 36.1,0 66.51,-30.38 66.51,-66.48 0,36.1 30.38,66.48 66.48,66.48 36.09,0 66.47,-30.38 66.47,-66.48l-47.48 -123.47 0 0 0 0 0 0zm-28.5 208.94l0 151.97 -360.91 0 0 -151.97 -38.01 0 0 151.97c0,22.79 15.22,38.01 38.01,38.01l360.91 0c20.9,0 38.01,-17.1 38.01,-38.01l0 -151.97 -38.01 0zm-398.92 -227.96l417.94 0 0 -37.98 -417.94 0 0 37.98z"/>
  </g>
 </g>
</svg>
