<?xml version="1.0" encoding="UTF-8"?>
<!DOCTYPE svg PUBLIC "-//W3C//DTD SVG 1.1//EN" "http://www.w3.org/Graphics/SVG/1.1/DTD/svg11.dtd">
<!-- Creator: CorelDRAW 2017 -->
<svg xmlns="http://www.w3.org/2000/svg" xml:space="preserve" width="2500px" height="1418px" version="1.1" style="shape-rendering:geometricPrecision; text-rendering:geometricPrecision; image-rendering:optimizeQuality; fill-rule:evenodd; clip-rule:evenodd"
viewBox="0 0 2500 1418.05"
 xmlns:xlink="http://www.w3.org/1999/xlink">
 <defs>
  <style type="text/css">
   <![CDATA[
    .str0 {stroke:white;stroke-width:48.85;stroke-miterlimit:2.61313}
    .fil0 {fill:white}
   ]]>
  </style>
 </defs>
 <g id="Layer_x0020_1">
  <metadata id="CorelCorpID_0Corel-Layer"/>
  <path class="fil0 str0" d="M1058.5 1092.01c-26.42,0 -47.87,21.45 -47.87,47.88 0,26.42 21.45,47.87 47.87,47.87 26.43,0 47.88,-21.45 47.88,-47.87 0,-26.43 -21.45,-47.88 -47.88,-47.88z"/>
  <path class="fil0 str0" d="M1345.74 613.27l-47.87 0 0 -335.11c0,-26.45 -21.43,-47.88 -47.87,-47.88l-95.74 0c-26.46,0 -47.88,21.43 -47.88,47.88 0,26.44 21.42,47.87 47.88,47.87l47.87 0 0 287.24 -47.87 0c-26.46,0 -47.88,21.44 -47.88,47.88 0,26.43 21.42,47.86 47.88,47.86l191.48 0c26.46,0 47.88,-21.43 47.88,-47.86 0,-26.44 -21.42,-47.88 -47.88,-47.88z"/>
  <path class="fil0 str0" d="M565.4 900.51c26.44,0 47.88,-21.43 47.88,-47.86l0 -191.5c0,-26.44 -21.44,-47.88 -47.88,-47.88l-191.5 0c-26.43,0 -47.86,21.44 -47.86,47.88 0,26.43 21.43,47.86 47.86,47.86l143.63 0 0 95.76 -143.63 0c-26.43,0 -47.86,21.43 -47.86,47.88l0 191.5c0,26.43 21.43,47.86 47.86,47.86l191.5 0c26.44,0 47.88,-21.43 47.88,-47.86 0,-26.46 -21.44,-47.89 -47.88,-47.89l-143.62 0 0 -95.75 143.62 0 0 0z"/>
  <path class="fil0 str0" d="M2126.1 709.01l-191.5 0c-26.44,0 -47.88,21.44 -47.88,47.89 0,26.43 21.44,47.87 47.88,47.87l143.62 0 0 95.74 -143.62 0c-26.44,0 -47.88,21.44 -47.88,47.88 0,26.44 21.44,47.87 47.88,47.87l143.62 0 0 95.75 -143.62 0c-26.44,0 -47.88,21.44 -47.88,47.88 0,26.43 21.44,47.87 47.88,47.87l191.5 0c26.43,0 47.86,-21.44 47.86,-47.87l0 -382.99c0,-26.45 -21.43,-47.89 -47.86,-47.89z"/>
  <path class="fil0 str0" d="M2427.71 517.52l-746.84 0 0 -445.23c0,-26.44 -21.44,-47.86 -47.88,-47.86l-765.99 0c-26.43,0 -47.87,21.42 -47.87,47.86l0 253.74 -746.84 0c-26.43,0 -47.86,21.43 -47.86,47.87l0 971.84c0,26.45 21.43,47.88 47.86,47.88l794.71 0 765.99 0 794.71 0c26.44,0 47.87,-21.43 47.87,-47.88l0 -780.34c0,-26.44 -21.43,-47.88 -47.87,-47.88l0.01 0 0 0zm-1608.58 780.35l-698.95 0 0 -876.1 698.95 0 0 876.1zm765.98 0l-670.22 0 0 -1177.7 670.22 0 0 1177.7zm794.71 0l-698.95 0 0 -684.6 698.95 0 0 684.6z"/>
  <path class="fil0 str0" d="M1441.5 1092.01l-191.5 0c-26.44,0 -47.87,21.44 -47.87,47.88 0,26.43 21.43,47.87 47.87,47.87l191.5 0c26.44,0 47.87,-21.44 47.87,-47.87 0,-26.44 -21.43,-47.88 -47.87,-47.88z"/>
 </g>
</svg>
