<?xml version="1.0" encoding="UTF-8"?>
<!DOCTYPE svg PUBLIC "-//W3C//DTD SVG 1.1//EN" "http://www.w3.org/Graphics/SVG/1.1/DTD/svg11.dtd">
<!-- Creator: CorelDRAW 2017 -->
<svg xmlns="http://www.w3.org/2000/svg" xml:space="preserve" width="5839px" height="10656px" version="1.1" style="shape-rendering:geometricPrecision; text-rendering:geometricPrecision; image-rendering:optimizeQuality; fill-rule:evenodd; clip-rule:evenodd"
viewBox="0 0 5839 10655.81"
 xmlns:xlink="http://www.w3.org/1999/xlink">
 <defs>
  <style type="text/css">
   <![CDATA[
    .str1 {stroke:white;stroke-width:260.39;stroke-miterlimit:2.61313}
    .str0 {stroke:#FEFEFE;stroke-width:6.53;stroke-miterlimit:2.61313}
    .fil0 {fill:none}
    .fil1 {fill:white}
   ]]>
  </style>
 </defs>
 <g id="Layer_x0020_1">
  <metadata id="CorelCorpID_0Corel-Layer"/>
  <path class="fil0 str0" d="M3023.69 9376.72l0 0c1552.79,0 2812.05,285.66 2812.05,637.91l0 0c0,352.25 -1259.26,637.92 -2812.05,637.92l0 0c-1552.79,0 -2812.05,-285.67 -2812.05,-637.92l0 0c0,-352.25 1259.26,-637.91 2812.05,-637.91z"/>
  <path class="fil0 str0" d="M2815.31 3.26l0 0c1552.79,0.01 2812.05,285.67 2812.05,637.92l0 0c0,352.25 -1259.26,637.91 -2812.05,637.91l0 0c-1552.79,0 -2812.05,-285.66 -2812.05,-637.91l0 0c0,-352.25 1259.26,-637.91 2812.05,-637.91z"/>
 </g>
 <g id="Layer_x0020_1_0">
  <metadata id="CorelCorpID_1Corel-Layer"/>
  <g id="_1711842403472">
   <path class="fil1 str1" d="M4901.96 5130.82c-71.26,0 -129.14,57.76 -129.14,129.14l0 774.42c0,996.4 -810.6,1807.01 -1807.01,1807.01 -996.52,0 -1807.12,-810.61 -1807.12,-1807.01l0 -774.42c0,-71.38 -57.76,-129.14 -129.03,-129.14 -71.27,0 -129.03,57.76 -129.03,129.14l0 774.42c0,1095.22 857.52,1991.48 1936.04,2058.65l0 651.92 -645.27 0c-71.27,0 -129.15,57.65 -129.15,129.03 0,71.49 57.88,129.14 129.15,129.14l1548.83 0c71.27,0 129.03,-57.65 129.03,-129.14 0,-71.38 -57.76,-129.03 -129.03,-129.03l-645.38 0 0 -651.92c1078.62,-67.17 1936.15,-963.54 1936.15,-2058.65l0 -774.42c0,-71.38 -57.88,-129.14 -129.04,-129.14z"/>
   <path class="fil1 str1" d="M2965.81 7454.18c782.83,0 1419.8,-636.98 1419.8,-1419.8l0 -3097.78c0,-782.83 -636.97,-1419.91 -1419.8,-1419.91 -782.82,0 -1419.8,637.08 -1419.8,1419.91l0 3097.78c0,782.82 636.98,1419.8 1419.8,1419.8zm-1161.73 -4517.58c0,-640.63 521.22,-1161.74 1161.73,-1161.74 640.41,0 1161.63,521.11 1161.63,1161.74l0 3097.78c0,640.62 -521.22,1161.62 -1161.63,1161.62 -640.51,0 -1161.73,-521 -1161.73,-1161.62l0 -3097.78z"/>
  </g>
 </g>
</svg>
