<?xml version="1.0" encoding="UTF-8"?>
<!DOCTYPE svg PUBLIC "-//W3C//DTD SVG 1.1//EN" "http://www.w3.org/Graphics/SVG/1.1/DTD/svg11.dtd">
<!-- Creator: CorelDRAW 2017 -->
<svg xmlns="http://www.w3.org/2000/svg" xml:space="preserve" width="18px" height="18px" version="1.1" style="shape-rendering:geometricPrecision; text-rendering:geometricPrecision; image-rendering:optimizeQuality; fill-rule:evenodd; clip-rule:evenodd"
viewBox="0 0 17.99 18"
 xmlns:xlink="http://www.w3.org/1999/xlink">
 <defs>
  <style type="text/css">
   <![CDATA[
    .str0 {stroke:#FEFEFE;stroke-width:0.39;stroke-miterlimit:2.61313}
    .fil0 {fill:white}
   ]]>
  </style>
 </defs>
 <g id="Layer_x0020_1">
  <metadata id="CorelCorpID_0Corel-Layer"/>
  <g id="_2574723040336">
   <g>
    <path class="fil0 str0" d="M17.8 10.18c-0.03,-0.39 -0.23,-0.75 -0.54,-1 -0.46,-0.33 -1.09,-0.33 -1.55,-0.01 -0.62,-0.55 -1.34,-0.96 -2.1,-1.24 0,0 0,0 0,0l0 -1.73 1.4 -1.05c0.08,-0.08 0.13,-0.18 0.13,-0.28l0 -1.37c0.47,-0.14 0.81,-0.59 0.81,-1.1 0,-0.63 -0.53,-1.14 -1.16,-1.14 -0.63,0 -1.14,0.51 -1.14,1.14 0,0.52 0.34,0.96 0.81,1.1l0 1.19 -1.41 1.06c-0.08,0.07 -0.13,0.18 -0.13,0.28l0 1.71c-0.34,-0.08 -0.69,-0.13 -1.04,-0.14l0 -2.79c0,-0.19 -0.15,-0.34 -0.34,-0.34 -0.2,0 -0.35,0.15 -0.35,0.34l0 2.79c-0.34,0.02 -0.69,0.06 -1.02,0.14l0 -1.71c0,-0.1 -0.04,-0.22 -0.14,-0.28l-1.4 -1.06 0 -1.19c0.47,-0.14 0.82,-0.58 0.82,-1.1 0,-0.63 -0.52,-1.14 -1.16,-1.14 -0.63,0 -1.14,0.51 -1.14,1.14 0,0.51 0.34,0.96 0.8,1.1l0 1.37c0,0.1 0.05,0.2 0.14,0.28l1.4 1.05 0 1.73c0,0 0,0 0,0 -0.17,0.07 -0.33,0.13 -0.48,0.2 -0.76,0.33 -1.43,0.8 -2,1.4 -0.25,0.06 -0.5,0.16 -0.73,0.29l-2.49 1.44 -0.53 -0.53c-0.2,-0.2 -0.47,-0.3 -0.75,-0.3 -0.29,0 -0.56,0.1 -0.75,0.3l-1.25 1.24c-0.19,0.19 -0.32,0.47 -0.32,0.75 0,0.3 0.13,0.56 0.32,0.76l4.01 4.01c0.2,0.19 0.46,0.31 0.76,0.31 0.28,0 0.54,-0.12 0.75,-0.31l1.24 -1.24c0.41,-0.41 0.41,-1.09 0,-1.52l-2.98 -2.97 2.34 -1.35c0.45,-0.26 1,-0.31 1.5,-0.17l3.52 1.08c0.26,0.08 0.42,0.34 0.4,0.61 -0.03,0.3 -0.28,0.52 -0.58,0.52l-2.39 0c-0.19,0 -0.34,0.15 -0.34,0.34 0,0.2 0.15,0.35 0.34,0.35l3.24 0c0.08,0 0.16,-0.03 0.22,-0.09l3.5 -3.26c0.22,-0.21 0.57,-0.23 0.82,-0.04 0.14,0.1 0.24,0.28 0.25,0.47 0.01,0.19 -0.07,0.36 -0.21,0.5l-4.07 3.79c-0.27,0.25 -0.64,0.4 -1.02,0.4l-1.85 0c-0.18,0 -0.34,0.16 -0.34,0.35 0,0.18 0.16,0.33 0.34,0.33l1.85 0c0.56,0 1.1,-0.2 1.5,-0.59l4.07 -3.78c0.28,-0.27 0.44,-0.65 0.41,-1.04l0 0 0 0 0 0 0.01 0 0 0zm-3.47 -7.78c0,-0.25 0.21,-0.45 0.46,-0.45 0.26,0 0.47,0.2 0.47,0.45 0,0.26 -0.21,0.46 -0.47,0.46 -0.25,0 -0.46,-0.2 -0.46,-0.46zm-6.04 0.46c-0.25,0 -0.46,-0.2 -0.46,-0.46 0,-0.25 0.21,-0.45 0.46,-0.45 0.25,0 0.47,0.2 0.47,0.45 0,0.26 -0.22,0.46 -0.47,0.46zm-1.51 12.37c0.14,0.14 0.14,0.38 0,0.54l-1.23 1.22c-0.08,0.08 -0.17,0.13 -0.27,0.13 -0.1,0 -0.21,-0.05 -0.28,-0.13l-3.99 -3.99c-0.08,-0.07 -0.13,-0.18 -0.13,-0.28 0,-0.1 0.05,-0.19 0.13,-0.27l1.22 -1.23c0.08,-0.08 0.17,-0.12 0.28,-0.12 0.1,0 0.2,0.04 0.26,0.12l4.01 4.01 0 0zm5.95 -3.3c0.03,-0.57 -0.34,-1.1 -0.89,-1.27l-3.51 -1.08c-0.1,-0.02 -0.19,-0.05 -0.28,-0.07 0.98,-0.79 2.2,-1.23 3.5,-1.23 1.35,0 2.63,0.49 3.65,1.36l-2.47 2.29 0 0 0 0 0 0 0 0 0 0z"/>
   </g>
  </g>
  <g id="_2574723036496">
   <g>
    <path class="fil0 str0" d="M8.83 15.01c-0.07,-0.06 -0.17,-0.1 -0.26,-0.1 -0.08,0 -0.17,0.04 -0.24,0.1 -0.06,0.07 -0.1,0.16 -0.1,0.25 0,0.08 0.04,0.17 0.1,0.24 0.07,0.06 0.16,0.1 0.24,0.1 0.09,0 0.19,-0.04 0.26,-0.1 0.05,-0.07 0.09,-0.16 0.09,-0.24 0,-0.09 -0.04,-0.18 -0.09,-0.25z"/>
   </g>
  </g>
  <g id="_2574723034512">
   <g>
    <path class="fil0 str0" d="M11.77 3.36c-0.05,-0.06 -0.14,-0.1 -0.23,-0.1 -0.11,0 -0.19,0.04 -0.25,0.1 -0.07,0.06 -0.1,0.15 -0.1,0.24 0,0.09 0.03,0.19 0.1,0.25 0.06,0.07 0.14,0.1 0.25,0.1 0.09,0 0.18,-0.03 0.23,-0.1 0.07,-0.06 0.11,-0.16 0.11,-0.25 0,-0.09 -0.04,-0.18 -0.11,-0.24z"/>
   </g>
  </g>
  <g id="_2574723035216">
   <g>
    <path class="fil0 str0" d="M5.65 15.35c-0.06,-0.06 -0.15,-0.09 -0.24,-0.09 -0.09,0 -0.17,0.03 -0.24,0.09 -0.07,0.07 -0.11,0.16 -0.11,0.25 0,0.09 0.04,0.18 0.11,0.25 0.07,0.06 0.15,0.09 0.24,0.09 0.09,0 0.18,-0.03 0.24,-0.09 0.06,-0.07 0.1,-0.16 0.1,-0.25 0,-0.09 -0.04,-0.18 -0.1,-0.25z"/>
   </g>
  </g>
  <g id="_2574723034896">
   <g>
    <path class="fil0 str0" d="M11.54 0.19c-0.73,0 -1.31,0.6 -1.31,1.31 0,0.72 0.58,1.31 1.31,1.31 0.72,0 1.29,-0.59 1.29,-1.31 0,-0.71 -0.57,-1.31 -1.29,-1.31zm0 1.93c-0.35,0 -0.62,-0.27 -0.62,-0.62 0,-0.34 0.27,-0.62 0.62,-0.62 0.33,0 0.61,0.28 0.61,0.62 0,0.35 -0.28,0.62 -0.61,0.62z"/>
   </g>
  </g>
  <g id="_2574723034640">
   <g>
    <path class="fil0 str0" d="M5.8 3.97l-0.23 0c-0.19,0 -0.34,0.14 -0.34,0.34 0,0.19 0.15,0.34 0.34,0.34l0.23 0c0.19,0 0.35,-0.15 0.35,-0.34 0,-0.2 -0.16,-0.34 -0.35,-0.34l0 0z"/>
   </g>
  </g>
  <g id="_2574723033104">
   <g>
    <path class="fil0 str0" d="M4.13 3.97l-0.23 0c-0.2,0 -0.35,0.14 -0.35,0.34 0,0.19 0.15,0.34 0.35,0.34l0.23 0c0.19,0 0.35,-0.15 0.35,-0.34 0,-0.2 -0.16,-0.34 -0.35,-0.34l0 0z"/>
   </g>
  </g>
  <g id="_2574723055216">
   <g>
    <path class="fil0 str0" d="M4.85 4.67c-0.19,0 -0.34,0.16 -0.34,0.34l0 0.25c0,0.19 0.15,0.34 0.34,0.34 0.18,0 0.35,-0.15 0.35,-0.34l0 -0.25c0,-0.18 -0.17,-0.34 -0.35,-0.34z"/>
   </g>
  </g>
  <g id="_2574723055824">
   <g>
    <path class="fil0 str0" d="M4.85 3.01c-0.19,0 -0.34,0.15 -0.34,0.35l0 0.23c0,0.19 0.15,0.35 0.34,0.35 0.18,0 0.35,-0.16 0.35,-0.35l0 -0.23c0,-0.2 -0.17,-0.35 -0.35,-0.35l0 0 0 0z"/>
   </g>
  </g>
  <g id="_2574723055632">
   <g>
    <path class="fil0 str0" d="M17.46 5.95l-0.24 0c-0.2,0 -0.34,0.15 -0.34,0.33 0,0.2 0.14,0.35 0.34,0.35l0.24 0c0.18,0 0.33,-0.15 0.33,-0.35 0,-0.18 -0.15,-0.33 -0.33,-0.33z"/>
   </g>
  </g>
  <g id="_2574723056016">
   <g>
    <path class="fil0 str0" d="M15.79 5.95l-0.24 0c-0.19,0 -0.34,0.15 -0.34,0.33 0,0.2 0.15,0.35 0.34,0.35l0.24 0c0.18,0 0.34,-0.15 0.34,-0.35 0,-0.18 -0.16,-0.33 -0.34,-0.33z"/>
   </g>
  </g>
  <g id="_2574723052752">
   <g>
    <path class="fil0 str0" d="M16.51 6.66c-0.21,0 -0.35,0.16 -0.35,0.34l0 0.24c0,0.2 0.14,0.34 0.35,0.34 0.18,0 0.34,-0.14 0.34,-0.34l0 -0.24c0,-0.18 -0.16,-0.34 -0.34,-0.34z"/>
   </g>
  </g>
  <g id="_2574723053648">
   <g>
    <path class="fil0 str0" d="M16.51 4.99c-0.21,0 -0.35,0.16 -0.35,0.35l0 0.24c0,0.18 0.14,0.35 0.35,0.35 0.18,0 0.34,-0.17 0.34,-0.35l0 -0.24c0,-0.19 -0.16,-0.35 -0.34,-0.35z"/>
   </g>
  </g>
  <g id="_2574723052688">
  </g>
  <g id="_2574723053552">
  </g>
  <g id="_2574723053840">
  </g>
  <g id="_2574723053072">
  </g>
  <g id="_2574723053936">
  </g>
  <g id="_2574723051536">
  </g>
  <g id="_2574723051888">
  </g>
  <g id="_2574723052112">
  </g>
  <g id="_2574723051696">
  </g>
  <g id="_2574723051408">
  </g>
  <g id="_2574723050448">
  </g>
  <g id="_2574723049552">
  </g>
  <g id="_2574723049072">
  </g>
  <g id="_2574723048464">
  </g>
  <g id="_2574723048080">
  </g>
 </g>
</svg>
