<?xml version="1.0" encoding="UTF-8"?>
<!DOCTYPE svg PUBLIC "-//W3C//DTD SVG 1.1//EN" "http://www.w3.org/Graphics/SVG/1.1/DTD/svg11.dtd">
<!-- Creator: CorelDRAW 2017 -->
<svg xmlns="http://www.w3.org/2000/svg" xml:space="preserve" width="2550px" height="3300px" version="1.1" style="shape-rendering:geometricPrecision; text-rendering:geometricPrecision; image-rendering:optimizeQuality; fill-rule:evenodd; clip-rule:evenodd"
viewBox="0 0 2550 3300"
 xmlns:xlink="http://www.w3.org/1999/xlink">
 <defs>
  <style type="text/css">
   <![CDATA[
    .fil0 {fill:white}
   ]]>
  </style>
 </defs>
 <g id="Layer_x0020_1">
  <metadata id="CorelCorpID_0Corel-Layer"/>
  <g id="_2574796639248">
   <g>
    <path class="fil0" d="M2185.71 648.21l-364.28 0 -116.48 0 -70.4 -210.92c-12.38,-37.17 -47.15,-62.26 -86.34,-62.29l-546.43 0c-39.18,0.03 -73.95,25.12 -86.33,62.29l-70.4 210.92 -480.76 0c-50.3,0 -91.08,40.78 -91.08,91.08l0 2094.64c0,50.3 40.78,91.07 91.08,91.07l1821.42 0c50.3,0 91.08,-40.77 91.08,-91.07l0 -2094.64c0,-50.3 -40.78,-91.08 -91.08,-91.08zm-1366.07 182.15l91.07 0c39.19,-0.04 73.96,-25.12 86.34,-62.3l70.4 -210.92 415.11 0 70.4 210.92c12.38,37.18 47.15,62.26 86.33,62.3l91.07 0 0 182.14 -910.72 0 0 -182.14zm1275 1912.49l-1639.28 0 0 -1912.49 182.14 0 0 273.21c0,50.3 40.77,91.07 91.07,91.07l1092.86 0c50.29,0 91.07,-40.77 91.07,-91.07l0 -273.21 182.14 0 0 1912.49z"/>
   </g>
  </g>
  <g id="_2574796638256">
   <g>
    <path class="fil0" d="M1275 648.21c-50.3,0 -91.08,40.78 -91.08,91.08l0 91.07c0,50.3 40.78,91.07 91.08,91.07 50.3,0 91.07,-40.78 91.07,-91.07l0 -91.07c0,-50.3 -40.77,-91.08 -91.07,-91.08z"/>
   </g>
  </g>
  <g id="_2574796639600">
   <g>
    <path class="fil0" d="M1821.43 1467.86l-1092.86 0c-50.3,0 -91.07,40.77 -91.07,91.07 0,50.3 40.77,91.07 91.07,91.07l1092.86 0c50.29,0 91.07,-40.77 91.07,-91.07 0,-50.3 -40.78,-91.07 -91.07,-91.07z"/>
   </g>
  </g>
  <g id="_2574796639760">
   <g>
    <path class="fil0" d="M1821.43 1832.14l-1092.86 0c-50.3,0 -91.07,40.78 -91.07,91.08 0,50.3 40.77,91.07 91.07,91.07l1092.86 0c50.29,0 91.07,-40.77 91.07,-91.07 0,-50.3 -40.78,-91.08 -91.07,-91.08z"/>
   </g>
  </g>
  <g id="_2574796638992">
   <g>
    <path class="fil0" d="M1821.43 2196.43l-1092.86 0c-50.3,0 -91.07,40.77 -91.07,91.07 0,50.3 40.77,91.07 91.07,91.07l1092.86 0c50.29,0 91.07,-40.77 91.07,-91.07 0,-50.3 -40.78,-91.07 -91.07,-91.07z"/>
   </g>
  </g>
  <g id="_2574796636976">
  </g>
  <g id="_2574796637104">
  </g>
  <g id="_2574796638064">
  </g>
  <g id="_2574796636272">
  </g>
  <g id="_2574796637584">
  </g>
  <g id="_2574796636816">
  </g>
  <g id="_2574796636432">
  </g>
  <g id="_2574796635888">
  </g>
  <g id="_2574796635600">
  </g>
  <g id="_2574796635056">
  </g>
  <g id="_2574796635024">
  </g>
  <g id="_2574796635536">
  </g>
  <g id="_2574796635376">
  </g>
  <g id="_2574796635632">
  </g>
  <g id="_2574796632976">
  </g>
 </g>
</svg>
