<?xml version="1.0" encoding="UTF-8"?>
<!DOCTYPE svg PUBLIC "-//W3C//DTD SVG 1.1//EN" "http://www.w3.org/Graphics/SVG/1.1/DTD/svg11.dtd">
<!-- Creator: CorelDRAW 2017 -->
<svg xmlns="http://www.w3.org/2000/svg" xml:space="preserve" width="2550px" height="3300px" version="1.1" style="shape-rendering:geometricPrecision; text-rendering:geometricPrecision; image-rendering:optimizeQuality; fill-rule:evenodd; clip-rule:evenodd"
viewBox="0 0 2550 3300"
 xmlns:xlink="http://www.w3.org/1999/xlink">
 <defs>
  <style type="text/css">
   <![CDATA[
    .fil0 {fill:white}
   ]]>
  </style>
 </defs>
 <g id="Layer_x0020_1">
  <metadata id="CorelCorpID_0Corel-Layer"/>
  <path class="fil0" d="M845.95 1606.34l148.8 0 -45.78 270.89c0,61.04 66.77,91.56 120.18,91.56 38.15,0 89.66,-22.88 95.39,-57.22l55.32 -305.22 206.02 0 -47.69 270.88c0,61.05 68.67,91.57 122.08,91.57 41.97,0 91.58,-22.88 97.3,-57.23l55.32 -305.22 185.04 0c34.34,0 72.49,-38.15 72.49,-93.48 0,-51.51 -38.16,-91.56 -74.4,-91.56l-148.8 0 43.88 -234.64 183.14 0c36.24,0 70.58,-38.16 70.58,-91.58 0,-53.41 -36.25,-91.56 -72.49,-91.56l-148.8 0 45.78 -244.18c-1.9,-66.77 -57.23,-93.48 -114.46,-93.48 -47.69,0 -95.38,19.07 -101.1,51.51l-51.51 286.15 -209.84 0 43.88 -244.18c0,-66.77 -55.32,-93.48 -112.55,-93.48 -47.69,0 -95.39,19.07 -103.02,51.51l-51.51 286.15 -186.94 0c-41.96,0 -68.67,40.06 -68.67,93.47 0,55.33 26.7,89.67 70.58,89.67l148.79 0 -41.97 234.64 -185.04 0c-40.05,0 -68.67,41.96 -68.67,95.38 0,53.4 26.71,89.65 68.67,89.65zm452.12 -419.69l207.93 0 -43.88 234.64 -206.02 0 41.97 -234.64z"/>
  <path class="fil0" d="M2556.44 248.67l-2350.78 0c-55.02,0 -99.61,44.59 -99.61,99.61l0 1972.26c0,55.02 44.59,99.61 99.61,99.61l881.43 0 209.74 332.1c18.26,28.9 50.04,46.42 84.22,46.42 34.18,0 65.97,-17.52 84.22,-46.42l209.74 -332.1 881.43 0c55.01,0 99.61,-44.59 99.61,-99.61l0 -1972.26c0,-55.02 -44.6,-99.61 -99.61,-99.61zm-99.61 1972.26l-836.72 0c-34.18,0 -65.97,17.53 -84.22,46.42l-154.84 245.17 -154.84 -245.17c-18.26,-28.9 -50.04,-46.42 -84.22,-46.42l-836.72 0 0 -1773.04 2151.56 0 0 1773.04z"/>
  <g id="_2574796646384">
  </g>
  <g id="_2574796645872">
  </g>
  <g id="_2574796644912">
  </g>
  <g id="_2574796646352">
  </g>
  <g id="_2574796645008">
  </g>
  <g id="_2574796643792">
  </g>
  <g id="_2574796642448">
  </g>
  <g id="_2574796642960">
  </g>
  <g id="_2574796642544">
  </g>
  <g id="_2574796641712">
  </g>
  <g id="_2574796642224">
  </g>
  <g id="_2574796642192">
  </g>
  <g id="_2574796642064">
  </g>
  <g id="_2574796642128">
  </g>
  <g id="_2574796641104">
  </g>
 </g>
</svg>
