<?xml version="1.0" encoding="UTF-8"?>
<!DOCTYPE svg PUBLIC "-//W3C//DTD SVG 1.1//EN" "http://www.w3.org/Graphics/SVG/1.1/DTD/svg11.dtd">
<!-- Creator: CorelDRAW 2017 -->
<svg xmlns="http://www.w3.org/2000/svg" xml:space="preserve" width="2550px" height="3300px" version="1.1" style="shape-rendering:geometricPrecision; text-rendering:geometricPrecision; image-rendering:optimizeQuality; fill-rule:evenodd; clip-rule:evenodd"
viewBox="0 0 2550 3300"
 xmlns:xlink="http://www.w3.org/1999/xlink">
 <defs>
  <style type="text/css">
   <![CDATA[
    .fil0 {fill:white}
   ]]>
  </style>
 </defs>
 <g id="Layer_x0020_1">
  <metadata id="CorelCorpID_0Corel-Layer"/>
  <g id="_2574796596176">
   <g>
    <path class="fil0" d="M2105.98 1034.47l-1661.95 0c-30.31,0 -54.88,24.57 -54.88,54.88l0 828.87c0,30.31 24.57,54.88 54.88,54.88 30.31,0 54.88,-24.57 54.88,-54.88l0 -774 1552.19 0 0 774 0 0c0,30.31 24.57,54.88 54.88,54.88 30.3,0 54.88,-24.57 54.88,-54.88l0 -828.88c-0.01,-30.3 -24.58,-54.87 -54.88,-54.87z"/>
   </g>
  </g>
  <g id="_2574796595760">
   <g>
    <path class="fil0" d="M2500.61 2114.19l-101.08 0 0 -1152.5c0,-91.48 -74.41,-165.89 -165.88,-165.89l-1917.29 0c-91.48,0 -165.89,74.41 -165.89,165.89l0 1152.5 -101.08 0c-27.28,0 -49.39,22.11 -49.39,49.39l0 96.96c0,134.36 109.31,243.67 243.66,243.67l2062.68 0c134.35,0 243.66,-109.31 243.66,-243.67l0 -96.96c0,-27.28 -22.1,-49.39 -49.39,-49.39zm-2240.38 -1152.5c0,-30.95 25.18,-56.14 56.13,-56.14l1917.27 0c30.96,0 56.14,25.18 56.14,56.14l0 1152.5 -743.09 0c-3.5,-0.11 -7.11,0.19 -10.7,0.88 -23.24,4.47 -40.04,24.82 -40.04,48.49 0,41.7 -33.92,75.61 -75.6,75.61l-290.67 0c-41.69,0 -75.6,-33.92 -75.6,-75.61 0,-27.65 -22.91,-49.97 -50.53,-49.38l-743.31 0 0 -1152.49zm2190.99 1298.85l0 0c0,79.9 -65,144.89 -144.88,144.89l-2062.68 0c-79.88,0 -144.88,-64.99 -144.88,-144.89l0 -47.57 863.63 0.01c21.35,72.17 88.26,124.98 167.26,124.98l290.66 0c79,0 145.91,-52.82 167.26,-124.99l863.64 0.01 0 47.56 -0.01 0z"/>
   </g>
  </g>
  <g id="_2574796596752">
   <g>
    <path class="fil0" d="M1356.34 1353.46c-21.44,-21.43 -56.18,-21.43 -77.62,0l-345.13 345.15c-21.43,21.43 -21.43,56.18 0,77.61 10.72,10.72 24.76,16.07 38.8,16.07 14.05,0 28.09,-5.36 38.81,-16.07l345.14 -345.14c21.43,-21.44 21.43,-56.18 0,-77.62z"/>
   </g>
  </g>
  <g id="_2574796593616">
   <g>
    <path class="fil0" d="M1560.91 1553.48c-21.44,-21.44 -56.18,-21.44 -77.61,0l-137.49 137.49c-21.44,21.43 -21.44,56.18 0,77.61 10.71,10.72 24.76,16.08 38.8,16.08 14.05,0 28.08,-5.36 38.8,-16.08l137.49 -137.49c21.44,-21.43 21.44,-56.18 0.01,-77.61z"/>
   </g>
  </g>
  <g id="_2574796594672">
  </g>
  <g id="_2574796594192">
  </g>
  <g id="_2574796594576">
  </g>
  <g id="_2574796593232">
  </g>
  <g id="_2574796594288">
  </g>
  <g id="_2574796595120">
  </g>
  <g id="_2574796592432">
  </g>
  <g id="_2574796591184">
  </g>
  <g id="_2574796591152">
  </g>
  <g id="_2574796591632">
  </g>
  <g id="_2574796592144">
  </g>
  <g id="_2574796591248">
  </g>
  <g id="_2574796592208">
  </g>
  <g id="_2574796591056">
  </g>
  <g id="_2574796590704">
  </g>
 </g>
</svg>
