<svg width="20" height="20" xmlns="http://www.w3.org/2000/svg">
 <metadata>Svg Vector Icons : http://www.onlinewebfonts.com/icon</metadata>

 <g>
  <title>background</title>
  <rect x="-1" y="-1" width="22" height="22" id="canvas_background" fill="none"/>
 </g>
 <g>
  <title>Layer 1</title>
  <g id="svg_1" stroke="null">
   <path d="m18.67634,16.26167l-3.27835,-3.27289c0.74731,-1.18188 1.17824,-2.58195 1.17824,-4.08203c0.00182,-4.22749 -3.42926,-7.65675 -7.6622,-7.65675c-4.23295,0 -7.66403,3.42926 -7.66403,7.65675c0,4.22749 3.43108,7.65676 7.66403,7.65676c1.49098,0 2.8856,-0.42912 4.06202,-1.16552l3.28199,3.27835c0.52366,0.52366 1.37279,0.52366 1.89646,0l0.52184,-0.51821c0.52366,-0.52548 0.52366,-1.37279 0,-1.89646zm-9.76231,-1.81645c-3.06198,0 -5.5421,-2.48013 -5.5421,-5.53665c0,-3.05834 2.48194,-5.53846 5.5421,-5.53846c3.06015,0 5.5421,2.48012 5.5421,5.53846c0,3.0547 -2.48195,5.53665 -5.5421,5.53665z" id="svg_2" stroke="null" fill="#5b646a"/>
  </g>
 </g>
</svg>