<svg width="1024" height="1024" xmlns="http://www.w3.org/2000/svg" class="icon">

 <g>
  <title>background</title>
  <rect fill="none" id="canvas_background" height="402" width="582" y="-1" x="-1"/>
 </g>
 <g>
  <title>Layer 1</title>
  <path id="svg_1" fill="#FF0000" d="m111.408,998.026c0.164,-0.316 1.85,-3.504 10.502,-15.408c17.116,-23.58 42.81,-41.216 51.276,-46.672l174.28,-21.958c-15.508,14.92 -27.81,33.554 2.246,37.36c130.526,16.47 324.378,-56.954 400.572,-88.758l0.154,1.776l140.106,-12.512c-67.87,34.1 -238.124,101.578 -605.788,161.748c-163.626,26.778 -175.18,-12.128 -175.31,-12.426m179.716,-1000.176l141.754,16.532l488.794,796.956l-148.672,13.27l-80.28,-141.672l-308.564,18.952l-9.764,170.914l-185.504,23.364l102.236,-898.316zm98.448,547.046l216.53,-5.418l-200.292,-351.864l-5.414,0l-10.824,357.282zm-236.642,361.06l102.064,-896.818c-0.512,1.486 -0.758,2.536 -0.758,2.536l-147.984,934.654c16.916,-19.13 36.274,-33.408 46.678,-40.372z"/>
 </g>
</svg>