<?xml version="1.0" encoding="UTF-8" standalone="no"?>
<!-- Created with Inkscape (http://www.inkscape.org/) -->

<svg
   xmlns:dc="http://purl.org/dc/elements/1.1/"
   xmlns:cc="http://creativecommons.org/ns#"
   xmlns:rdf="http://www.w3.org/1999/02/22-rdf-syntax-ns#"
   xmlns:svg="http://www.w3.org/2000/svg"
   xmlns="http://www.w3.org/2000/svg"
   xmlns:sodipodi="http://sodipodi.sourceforge.net/DTD/sodipodi-0.dtd"
   xmlns:inkscape="http://www.inkscape.org/namespaces/inkscape"
   width="26.458334mm"
   height="24.989719mm"
   viewBox="0 0 26.458334 24.98972"
   version="1.1"
   id="svg8"
   inkscape:version="0.92.3 (2405546, 2018-03-11)"
   sodipodi:docname="Project.svg">
  <defs
     id="defs2" />
  <sodipodi:namedview
     id="base"
     pagecolor="#ffffff"
     bordercolor="#666666"
     borderopacity="1.0"
     inkscape:pageopacity="0.0"
     inkscape:pageshadow="2"
     inkscape:zoom="2.1646365"
     inkscape:cx="54.645164"
     inkscape:cy="53.060551"
     inkscape:document-units="mm"
     inkscape:current-layer="layer1"
     showgrid="false"
     inkscape:pagecheckerboard="true"
     fit-margin-top="0"
     fit-margin-left="0"
     fit-margin-right="0"
     fit-margin-bottom="0"
     inkscape:window-width="806"
     inkscape:window-height="405"
     inkscape:window-x="752"
     inkscape:window-y="602"
     inkscape:window-maximized="0" />
  <metadata
     id="metadata5">
    <rdf:RDF>
      <cc:Work
         rdf:about="">
        <dc:format>image/svg+xml</dc:format>
        <dc:type
           rdf:resource="http://purl.org/dc/dcmitype/StillImage" />
        <dc:title></dc:title>
      </cc:Work>
    </rdf:RDF>
  </metadata>
  <g
     inkscape:label="Layer 1"
     inkscape:groupmode="layer"
     id="layer1"
     transform="translate(-77.45773,-156.18357)">
    <g
       transform="matrix(0.4093094,0,0,0.4093094,43.838664,113.03961)"
       id="layer1-8"
       inkscape:label="Layer 1">
      <path
         inkscape:connector-curvature="0"
         id="path138"
         d="m 99.730864,162.79592 c -9.604373,-1.70379 -17.492263,-3.10462 -17.528643,-3.11295 -0.03638,-0.008 -0.06615,-10.55219 -0.06615,-23.43079 0,-12.87858 0.02977,-23.42229 0.06615,-23.43046 0.03638,-0.008 7.950352,-1.41387 17.586603,-3.12379 l 17.520456,-3.10894 0.0743,2.92535 0.0743,2.92535 13.2882,0.1323 13.28821,0.13229 0.60242,0.60266 0.60242,0.60266 v 22.078 22.07801 l -0.60242,0.60266 -0.60242,0.60266 -13.28821,0.13229 -13.2882,0.1323 -0.13229,3.1791 -0.13229,3.1791 z"
         style="fill:#ffffff;stroke-width:0.26458332" />
      <path
         inkscape:connector-curvature="0"
         id="path151"
         d="m 100.25935,163.22073 -18.057816,-3.2115 v -24.08422 -24.08422 l 17.925526,-3.14815 c 9.85903,-1.73148 18.13388,-3.20165 18.38854,-3.26703 0.42204,-0.10836 0.46302,0.16487 0.46302,3.08697 v 3.20586 h 12.95213 c 8.92884,0 13.15241,0.0913 13.59687,0.29376 0.3546,0.16157 0.77692,0.58389 0.93849,0.93849 0.41515,0.91116 0.41515,44.51392 0,45.42508 -0.16157,0.3546 -0.58389,0.77693 -0.93849,0.93849 -0.44446,0.20251 -4.66803,0.29376 -13.59687,0.29376 h -12.95213 v 3.43959 c 0,2.58993 -0.0817,3.43279 -0.33073,3.4121 -0.1819,-0.0151 -8.45674,-1.47265 -18.38854,-3.23898 z m 44.38385,-27.5575 v -21.82812 h -12.83229 -12.83229 v 2.64583 2.64583 h 8.41375 c 6.19125,0 8.49762,0.0839 8.73125,0.3175 0.22877,0.22878 0.3175,2.04024 0.3175,6.4823 v 6.16479 h 2.53559 c 1.39457,0 2.4959,0.10537 2.44739,0.23416 -0.0485,0.12878 -1.55087,1.76002 -3.3386,3.62496 l -3.2504,3.39081 -3.43032,-3.42271 c -1.88668,-1.88249 -3.43033,-3.51373 -3.43033,-3.62497 0,-0.11124 1.1311,-0.20225 2.51354,-0.20225 h 2.51355 v -4.7625 -4.7625 h -7.01146 -7.01146 v 9.31066 9.31066 l 2.79191,-2.74739 2.79191,-2.74739 4.1534,4.15636 4.1534,4.15636 -3.9862,3.96474 c -2.19241,2.18061 -4.14386,3.96475 -4.33654,3.96475 -0.19269,0 -1.52429,-1.15338 -2.95911,-2.56307 l -2.60877,-2.56307 v 5.34119 5.3412 h 12.83229 12.83229 z m -46.566667,6.87917 v -3.57188 l 1.918233,-0.006 c 2.383104,-0.007 3.710564,-0.56723 5.047814,-2.1295 1.61277,-1.88417 2.11163,-4.41656 1.46615,-7.44281 -0.22849,-1.07129 -0.55728,-1.66105 -1.39361,-2.49977 -1.5386,-1.54302 -2.61469,-1.77719 -7.099484,-1.54498 l -3.643269,0.18863 v 10.11261 c 0,5.56194 0.07937,10.19199 0.176389,10.289 0.09701,0.097 0.930451,0.17639 1.852083,0.17639 h 1.675694 z m 0.05775,-10.3849 0.07454,-3.10885 1.379203,0.0108 c 1.068704,0.008 1.526214,0.14886 2.032144,0.62416 0.80184,0.75329 1.08688,2.25567 0.70033,3.69121 -0.37958,1.40965 -1.10721,1.89157 -2.856024,1.89157 h -1.404738 z"
         style="fill:#2e722c;stroke-width:0.26458332" />
    </g>
  </g>
</svg>
